<?xml version="1.0" encoding="UTF-8" standalone="no"?>
<!-- Created with Inkscape (http://www.inkscape.org/) -->

<svg
   width="210mm"
   height="297mm"
   viewBox="0 0 210 297"
   version="1.1"
   id="svg1"
   xml:space="preserve"
   inkscape:export-filename="bike_w_on_b.svg"
   inkscape:export-xdpi="96"
   inkscape:export-ydpi="96"
   inkscape:version="1.3 (0e150ed6c4, 2023-07-21)"
   sodipodi:docname="hiking_w_on_b.svg"
   xmlns:inkscape="http://www.inkscape.org/namespaces/inkscape"
   xmlns:sodipodi="http://sodipodi.sourceforge.net/DTD/sodipodi-0.dtd"
   xmlns="http://www.w3.org/2000/svg"
   xmlns:svg="http://www.w3.org/2000/svg"><sodipodi:namedview
     id="namedview1"
     pagecolor="#505050"
     bordercolor="#eeeeee"
     borderopacity="1"
     inkscape:showpageshadow="0"
     inkscape:pageopacity="0"
     inkscape:pagecheckerboard="0"
     inkscape:deskcolor="#505050"
     inkscape:document-units="mm"
     inkscape:zoom="0.73139029"
     inkscape:cx="396.50513"
     inkscape:cy="561.25984"
     inkscape:window-width="1920"
     inkscape:window-height="1017"
     inkscape:window-x="-8"
     inkscape:window-y="-8"
     inkscape:window-maximized="1"
     inkscape:current-layer="layer1" /><defs
     id="defs1" /><g
     inkscape:label="Ebene 1"
     inkscape:groupmode="layer"
     id="layer1"><rect
       style="fill:#138eb3;stroke-width:0.64691;fill-opacity:1"
       id="rect2"
       width="200"
       height="200"
       x="5.4263101"
       y="52.816071" /><path
       d="m 100.10126,93.46666 a 12.7,12.7 0 1 1 25.4,0 12.7,12.7 0 1 1 -25.4,0 z m 13.57312,48.33938 -5.05354,20.1877 13.14979,13.1498 c 2.38125,2.38125 3.73063,5.60916 3.73063,8.96937 v 23.65375 c 0,4.68312 -3.78355,8.46667 -8.46667,8.46667 -4.68313,0 -8.46667,-3.78355 -8.46667,-8.46667 V 185.88562 L 89.01521,166.33291 c -4.180416,-4.18042 -5.87375,-10.21292 -4.471458,-15.95437 l 5.3975,-22.225 c 2.196042,-9.0223 11.297708,-14.52563 20.293548,-12.27667 5.02708,1.27 9.41916,4.33917 12.27666,8.65187 l 7.51417,11.27125 h 8.17563 v -6.35 c 0,-3.51895 2.83104,-6.35 6.35,-6.35 3.51895,0 6.35,2.83105 6.35,6.35 v 14.76375 c 0,0.0265 0,0.0529 0,0.0529 0,0 0,0.0529 0,0.0529 v 65.56376 c 0,3.51895 -2.83105,6.35 -6.35,6.35 -3.51896,0 -6.35,-2.83105 -6.35,-6.35 v -57.15001 h -10.42459 c -4.23333,0 -8.20208,-2.11667 -10.55687,-5.66209 l -3.51896,-5.29166 z m -42.91542,63.81749 9.577917,-36.48604 c 0.79375,1.11125 1.693333,2.16959 2.672292,3.14855 l 11.086041,11.08604 -6.985,26.5377 c -1.190625,4.52438 -5.820833,7.22313 -10.345208,6.0325 -4.524375,-1.19062 -7.223125,-5.82083 -6.0325,-10.3452 z m 14.684375,-91.54583 -9.313333,37.20042 c -0.79375,3.20146 -3.942292,5.26521 -7.196667,4.73604 l -12.673542,-2.11667 c -3.704166,-0.60854 -6.058958,-4.3127 -5.08,-7.9375 l 6.561667,-24.18291 c 2.513542,-9.2075 10.874375,-15.61042 20.425834,-15.61042 h 1.11125 c 4.1275,0 7.170208,3.88938 6.164791,7.88458 z"
       id="path1-2"
       style="fill:#ffffff;fill-opacity:1;stroke-width:0.264583" /></g></svg>
