<?xml version="1.0" encoding="UTF-8" standalone="no"?>
<!-- Created with Inkscape (http://www.inkscape.org/) -->

<svg
   width="210mm"
   height="297mm"
   viewBox="0 0 210 297"
   version="1.1"
   id="svg1"
   xml:space="preserve"
   inkscape:export-filename="bike_w_on_b.svg"
   inkscape:export-xdpi="96"
   inkscape:export-ydpi="96"
   inkscape:version="1.3 (0e150ed6c4, 2023-07-21)"
   sodipodi:docname="bike_b_on_w.svg"
   xmlns:inkscape="http://www.inkscape.org/namespaces/inkscape"
   xmlns:sodipodi="http://sodipodi.sourceforge.net/DTD/sodipodi-0.dtd"
   xmlns="http://www.w3.org/2000/svg"
   xmlns:svg="http://www.w3.org/2000/svg"><sodipodi:namedview
     id="namedview1"
     pagecolor="#505050"
     bordercolor="#eeeeee"
     borderopacity="1"
     inkscape:showpageshadow="0"
     inkscape:pageopacity="0"
     inkscape:pagecheckerboard="0"
     inkscape:deskcolor="#505050"
     inkscape:document-units="mm"
     inkscape:zoom="0.73139029"
     inkscape:cx="396.50513"
     inkscape:cy="561.25984"
     inkscape:window-width="1920"
     inkscape:window-height="1017"
     inkscape:window-x="-8"
     inkscape:window-y="-8"
     inkscape:window-maximized="1"
     inkscape:current-layer="layer1" /><defs
     id="defs1" /><g
     inkscape:label="Ebene 1"
     inkscape:groupmode="layer"
     id="layer1"><rect
       style="fill:#ffffff;stroke-width:0.64691;fill-opacity:1"
       id="rect2"
       width="200"
       height="200"
       x="5.4263101"
       y="52.816071" /><path
       d="m 102.79198,89.233333 c -3.518955,0 -6.349997,2.831042 -6.349997,6.350001 0,3.518958 2.831042,6.349996 6.349997,6.349996 h 6.79979 l 9.15459,16.93334 H 79.217608 L 71.968025,108.8125 C 70.7774,107.14562 68.845941,106.16667 66.80865,106.16667 H 51.991983 c -3.518958,0 -6.35,2.83104 -6.35,6.35 0,3.51895 2.831042,6.35 6.35,6.35 h 11.562292 l 5.847291,8.1227 -7.037916,14.04938 c -2.645834,-0.66146 -5.423959,-1.00542 -8.255,-1.00542 -18.706042,0 -33.866667,15.16063 -33.866667,33.86667 0,18.70604 15.160625,33.86667 33.866667,33.86667 17.277291,0 31.511875,-12.93813 33.602083,-29.63334 h 12.964587 c 2.24895,0 4.3127,-1.19062 5.47687,-3.12208 l 22.43666,-37.96771 5.74146,10.60979 c -7.62,6.21771 -12.48833,15.66334 -12.48833,26.24667 0,18.70604 15.16062,33.86667 33.86667,33.86667 18.70604,0 33.86666,-15.16063 33.86666,-33.86667 0,-18.70604 -15.16062,-33.86667 -33.86666,-33.86667 -3.57188,0 -7.01146,0.55563 -10.23938,1.5875 l -25.9027,-47.942496 c -1.48167,-2.751667 -4.33917,-4.445001 -7.46125,-4.445001 z m 38.78792,71.887287 8.54604,15.79563 c 1.66687,3.09562 5.52979,4.23334 8.59896,2.56646 3.06916,-1.66688 4.23333,-5.52979 2.56645,-8.59896 l -8.54604,-15.79563 c 0.9525,-0.15875 1.95792,-0.23812 2.96334,-0.23812 10.53041,0 19.05,8.51958 19.05,19.05 0,10.53042 -8.51959,19.05 -19.05,19.05 -10.53042,0 -19.05,-8.51958 -19.05,-19.05 0,-4.92125 1.85208,-9.39271 4.92125,-12.77938 z M 55.484483,178.13333 H 72.6824 c -1.931459,8.49313 -9.525,14.81667 -18.57375,14.81667 -10.530417,0 -19.05,-8.51958 -19.05,-19.05 0,-10.53042 8.519583,-19.05 19.05,-19.05 0.449791,0 0.899583,0.0265 1.349375,0.0529 l -6.402917,12.83229 c -2.38125,4.78896 1.084792,10.42458 6.429375,10.42458 z m 8.916458,-12.7 13.414375,-26.80229 19.288125,26.77583 -0.02646,0.0265 H 64.374483 Z m 23.97125,-33.86666 h 28.680829 l -12.93812,21.9075 -15.769167,-21.9075 z"
       id="path1"
       style="stroke-width:0.264583;fill:#138eb3;fill-opacity:1" /></g></svg>
