<?xml version="1.0" encoding="UTF-8" standalone="no"?>
<!-- Created with Inkscape (http://www.inkscape.org/) -->

<svg
   width="210mm"
   height="297mm"
   viewBox="0 0 210 297"
   version="1.1"
   id="svg1"
   xml:space="preserve"
   inkscape:export-filename="bike_w_on_b.svg"
   inkscape:export-xdpi="96"
   inkscape:export-ydpi="96"
   inkscape:version="1.3 (0e150ed6c4, 2023-07-21)"
   sodipodi:docname="swimming_b_on_w.svg"
   xmlns:inkscape="http://www.inkscape.org/namespaces/inkscape"
   xmlns:sodipodi="http://sodipodi.sourceforge.net/DTD/sodipodi-0.dtd"
   xmlns="http://www.w3.org/2000/svg"
   xmlns:svg="http://www.w3.org/2000/svg"><sodipodi:namedview
     id="namedview1"
     pagecolor="#505050"
     bordercolor="#eeeeee"
     borderopacity="1"
     inkscape:showpageshadow="0"
     inkscape:pageopacity="0"
     inkscape:pagecheckerboard="0"
     inkscape:deskcolor="#505050"
     inkscape:document-units="mm"
     inkscape:zoom="0.73139029"
     inkscape:cx="396.50513"
     inkscape:cy="561.25984"
     inkscape:window-width="1920"
     inkscape:window-height="1017"
     inkscape:window-x="-8"
     inkscape:window-y="-8"
     inkscape:window-maximized="1"
     inkscape:current-layer="layer1" /><defs
     id="defs1" /><g
     inkscape:label="Ebene 1"
     inkscape:groupmode="layer"
     id="layer1"><rect
       style="fill:#ffffff;stroke-width:0.64691;fill-opacity:1"
       id="rect2"
       width="200"
       height="200"
       x="5.4263101"
       y="52.816071" /><path
       d="m 110.59719,127.96327 36.61833,31.40604 c -0.42333,0.23813 -0.84666,0.52917 -1.27,0.79375 -4.7625,3.28084 -10.60979,5.37105 -15.66333,5.37105 -5.18583,0 -10.795,-2.0373 -15.66333,-5.37105 -5.84729,-4.10104 -13.6525,-4.10104 -19.499794,0 -4.524375,3.12209 -10.054167,5.37105 -15.663334,5.37105 -2.672291,0 -5.582708,-0.58209 -8.440208,-1.64042 0.846667,-32.01458 27.066875,-57.73208 59.293126,-57.73208 h 16.93333 c 4.68313,0 8.46667,3.78354 8.46667,8.46666 0,4.68313 -3.78354,8.46667 -8.46667,8.46667 h -16.93333 c -7.11729,0 -13.83771,1.74625 -19.71146,4.86833 z m -39.555208,-4.86833 a 16.933333,16.933333 0 1 1 -33.866666,0 16.933333,16.933333 0 1 1 33.866666,0 z m 38.761458,43.89437 c 5.95313,4.10105 13.22917,6.90563 20.50521,6.90563 7.11729,0 14.65792,-2.8575 20.47875,-6.90563 v 0 c 3.14854,-2.24895 7.43479,-2.06375 10.37167,0.4498 3.81,3.14854 8.59895,5.55625 13.38791,6.6675 4.55084,1.05833 7.38188,5.60916 6.32354,10.16 -1.05833,4.55083 -5.60916,7.38187 -10.16,6.32354 -6.48229,-1.50812 -11.87979,-4.36562 -15.39875,-6.61458 -7.67291,4.1275 -16.27187,6.85271 -25.00312,6.85271 -8.44021,0 -16.03375,-2.61938 -21.2725,-5.00063 -1.53458,-0.71437 -2.93688,-1.40229 -4.1275,-2.03729 -1.19063,0.635 -2.56646,1.34937 -4.1275,2.03729 -5.238751,2.38125 -12.832293,5.00063 -21.272501,5.00063 -8.73125,0 -17.330208,-2.72521 -25.003125,-6.82625 -3.545417,2.2225 -8.916458,5.10645 -15.39875,6.61458 -4.550833,1.05833 -9.101666,-1.77271 -10.16,-6.32354 -1.058333,-4.55084 1.772709,-9.10167 6.323542,-10.16001 4.788958,-1.11125 9.577916,-3.51895 13.387916,-6.6675 2.936875,-2.48708 7.223125,-2.67229 10.371667,-0.44979 v 0 c 5.847292,4.02167 13.361458,6.87917 20.47875,6.87917 7.276042,0 14.552083,-2.80458 20.505211,-6.90563 2.93687,-2.0902 6.85271,-2.0902 9.78958,0 z"
       id="path1"
       style="stroke-width:0.264583;fill:#138eb3;fill-opacity:1" /></g></svg>
