<?xml version="1.0" encoding="UTF-8" standalone="no"?>
<!-- Created with Inkscape (http://www.inkscape.org/) -->

<svg
   width="210mm"
   height="297mm"
   viewBox="0 0 210 297"
   version="1.1"
   id="svg1"
   xml:space="preserve"
   inkscape:export-filename="bike_w_on_b.svg"
   inkscape:export-xdpi="96"
   inkscape:export-ydpi="96"
   inkscape:version="1.3 (0e150ed6c4, 2023-07-21)"
   sodipodi:docname="running_w_on_b.svg"
   xmlns:inkscape="http://www.inkscape.org/namespaces/inkscape"
   xmlns:sodipodi="http://sodipodi.sourceforge.net/DTD/sodipodi-0.dtd"
   xmlns="http://www.w3.org/2000/svg"
   xmlns:svg="http://www.w3.org/2000/svg"><sodipodi:namedview
     id="namedview1"
     pagecolor="#505050"
     bordercolor="#eeeeee"
     borderopacity="1"
     inkscape:showpageshadow="0"
     inkscape:pageopacity="0"
     inkscape:pagecheckerboard="0"
     inkscape:deskcolor="#505050"
     inkscape:document-units="mm"
     inkscape:zoom="0.73139029"
     inkscape:cx="396.50513"
     inkscape:cy="561.25984"
     inkscape:window-width="1920"
     inkscape:window-height="1017"
     inkscape:window-x="-8"
     inkscape:window-y="-8"
     inkscape:window-maximized="1"
     inkscape:current-layer="layer1" /><defs
     id="defs1" /><g
     inkscape:label="Ebene 1"
     inkscape:groupmode="layer"
     id="layer1"><rect
       style="fill:#138eb3;stroke-width:0.64691;fill-opacity:1"
       id="rect2"
       width="200"
       height="200"
       x="5.4263101"
       y="52.816071" /><path
       d="m 134.54198,93.459511 a 12.7,12.7 0 1 0 -25.4,0 12.7,12.7 0 1 0 25.4,0 z M 83.133438,127.19389 c 2.619375,-2.61938 6.19125,-4.10105 9.921875,-4.10105 0.502708,0 1.005417,0.0265 1.481667,0.0794 l -8.255,24.79146 c -2.460625,7.40834 0.449791,15.5575 7.090833,19.71146 l 22.807087,14.26104 -6.72042,23.495 c -1.29646,4.49791 1.32292,9.18104 5.82083,10.4775 4.49792,1.29645 9.18104,-1.32292 10.4775,-5.82084 l 7.59354,-26.56416 c 1.56105,-5.45041 -0.68791,-11.27124 -5.47687,-14.26103 l -15.02833,-9.39271 8.17562,-21.80167 1.34938,3.25438 c 3.96875,9.47208 13.2027,15.63687 23.46854,15.63687 h 5.63562 c 4.68312,0 8.46667,-3.78354 8.46667,-8.46667 0,-4.68312 -3.78355,-8.46666 -8.46667,-8.46666 h -5.63562 c -3.41313,0 -6.50875,-2.06375 -7.80521,-5.21229 l -1.66688,-3.96875 c -3.86291,-9.28688 -11.66812,-16.37771 -21.29895,-19.34105 l -12.88521,-3.96875 c -2.936877,-0.89958 -6.006044,-1.37583 -9.101669,-1.37583 -8.202083,0 -16.086666,3.25438 -21.881041,9.07521 l -6.138334,6.11187 c -3.307291,3.3073 -3.307291,8.67834 0,11.98563 3.307292,3.30729 8.678334,3.30729 11.985625,0 l 6.111875,-6.11188 z m -9.128125,46.69895 H 58.34198 c -4.683125,0 -8.466667,3.78355 -8.466667,8.46667 0,4.68312 3.783542,8.46667 8.466667,8.46667 h 18.415 c 5.027083,0 9.577916,-2.96334 11.615208,-7.54063 l 3.042708,-6.85271 -2.513541,-1.5875 c -4.630209,-2.88395 -8.069792,-7.09083 -10.027709,-11.87979 z"
       id="path1"
       style="stroke-width:0.264583;fill:#ffffff;fill-opacity:1" /></g></svg>
