<?xml version="1.0" encoding="UTF-8" standalone="no"?>
<!-- Created with Inkscape (http://www.inkscape.org/) -->

<svg
   width="210mm"
   height="297mm"
   viewBox="0 0 210 297"
   version="1.1"
   id="svg1"
   xml:space="preserve"
   inkscape:version="1.3 (0e150ed6c4, 2023-07-21)"
   sodipodi:docname="Logo_V3_1_final_noBG_white.svg"
   xmlns:inkscape="http://www.inkscape.org/namespaces/inkscape"
   xmlns:sodipodi="http://sodipodi.sourceforge.net/DTD/sodipodi-0.dtd"
   xmlns="http://www.w3.org/2000/svg"
   xmlns:svg="http://www.w3.org/2000/svg"><sodipodi:namedview
     id="namedview1"
     pagecolor="#505050"
     bordercolor="#eeeeee"
     borderopacity="1"
     inkscape:showpageshadow="0"
     inkscape:pageopacity="0"
     inkscape:pagecheckerboard="0"
     inkscape:deskcolor="#505050"
     inkscape:document-units="mm"
     inkscape:zoom="0.73139029"
     inkscape:cx="432.05386"
     inkscape:cy="561.25984"
     inkscape:window-width="1920"
     inkscape:window-height="1017"
     inkscape:window-x="-8"
     inkscape:window-y="-8"
     inkscape:window-maximized="1"
     inkscape:current-layer="layer1" /><defs
     id="defs1" /><g
     inkscape:label="Ebene 1"
     inkscape:groupmode="layer"
     id="layer1"><path
       style="fill:#ffffff;fill-opacity:1"
       d="m 96.706565,268.61184 c -5.140512,-0.18029 -10.808233,-0.554 -13.626041,-0.89847 -0.582084,-0.0712 -2.30849,-0.26111 -3.836458,-0.42211 -3.331963,-0.35108 -3.24299,-0.33897 -8.73125,-1.18884 -8.274089,-1.28126 -11.500502,-1.95282 -17.197916,-3.57962 -9.047,-2.58322 -15.808354,-5.57338 -20.437004,-9.03813 -1.417696,-1.06121 -2.578556,-2.00255 -2.579687,-2.09187 -0.0084,-0.66302 15.911256,-5.22272 21.693775,-6.21353 0.363802,-0.0623 1.197239,-0.22965 1.852083,-0.37181 0.654844,-0.14216 1.547812,-0.31546 1.984375,-0.3851 0.436562,-0.0696 2.520156,-0.42855 4.630208,-0.79756 3.500308,-0.61216 9.610514,-1.56023 11.906249,-1.84741 0.509323,-0.0637 2.057136,-0.24504 3.439583,-0.40295 1.382448,-0.15792 2.972693,-0.34113 3.533877,-0.40715 0.561185,-0.066 1.930403,-0.18602 3.042708,-0.26668 l 2.022373,-0.14666 3.704167,4.41857 c 6.17942,7.37122 16.255313,17.11922 17.151623,16.59348 2.84615,-1.66941 12.03109,-11.06662 18.12474,-18.54361 l 1.9946,-2.44739 h 2.03408 c 2.49649,0 13.80746,1.1248 15.69598,1.56086 l 0.76143,0.17582 -1.82347,1.49184 c -1.00291,0.82051 -3.07488,2.78124 -4.60437,4.35718 -5.48755,5.65417 -9.23799,10.89253 -12.89551,18.0116 l -0.98494,1.91709 -1.32292,0.003 c -0.7276,0.002 -2.33494,0.11128 -3.57187,0.24325 -3.30708,0.35283 -15.42538,0.50508 -21.960415,0.27589 z m 39.188515,-3.36445 c 4.30095,-8.00418 9.61331,-14.34534 16.25803,-19.40658 2.63864,-2.00984 2.72311,-2.03118 5.71005,-1.44278 1.07059,0.21089 3.85153,0.75121 6.17986,1.20069 2.32833,0.44949 4.94771,0.98738 5.82083,1.19532 0.87313,0.20793 2.89719,0.68362 4.49792,1.05709 3.09691,0.72254 6.21322,1.66111 6.5601,1.97578 0.30181,0.27377 -3.04051,3.32142 -5.11261,4.66186 -3.41141,2.20683 -9.70661,5.08246 -15.20582,6.94598 -4.90334,1.6616 -13.80219,3.6996 -21.03438,4.81728 -4.89449,0.7564 -4.65538,0.82178 -3.67398,-1.00464 z M 100.36801,240.90572 C 94.589168,234.28603 92.367891,231.64707 88.731632,227.08125 74.649663,209.39941 66.313557,198.14598 49.826978,174.56146 36.237154,155.12082 31.712057,147.2395 28.275251,137.02501 c -1.465327,-4.35508 -3.423235,-11.90041 -3.951627,-15.22865 -0.22116,-1.39305 -0.455815,-2.83047 -0.521455,-3.19428 -0.769683,-4.26586 -0.773898,-13.70121 -0.0089,-19.976036 1.273685,-10.447607 4.413174,-20.061027 9.561179,-29.277252 9.291026,-16.633274 22.923069,-27.691185 43.036666,-34.910074 2.466697,-0.885312 8.565348,-2.6083 10.525893,-2.973771 7.231074,-1.347964 6.509363,-1.253043 13.587958,-1.787101 9.70129,-0.731931 21.70907,0.909398 32.05266,4.381237 4.65382,1.562059 12.62791,5.223918 16.36399,7.514659 3.96277,2.42974 4.64121,2.865399 6.39018,4.103448 4.56393,3.230687 6.97374,5.358599 10.61348,9.371908 10.67308,11.768559 18.35454,28.239553 20.19927,43.312363 0.16029,1.309687 0.34441,2.917029 0.40916,3.571879 0.21175,2.1415 0.13035,10.72597 -0.12736,13.43071 -1.32227,13.87751 -6.81254,28.0515 -17.54951,45.30678 -3.64355,5.85553 -9.29506,14.51956 -11.82217,18.12396 -0.81622,1.16417 -2.60433,3.72401 -3.97357,5.68854 -2.24843,3.22596 -3.82289,5.40692 -12.07715,16.72943 -4.14028,5.67928 -14.22934,18.953 -16.34386,21.50286 -0.60338,0.72761 -1.73139,2.14119 -2.5067,3.14131 -0.77531,1.00011 -1.6195,2.07168 -1.87597,2.38125 -10.01091,12.08325 -14.83762,17.62848 -15.3443,17.62848 -0.11786,0 -2.16315,-2.23242 -4.54508,-4.96094 z m 11.28751,-68.76148 c 11.76779,-1.61678 21.69833,-5.78511 30.42411,-12.77051 4.05616,-3.24715 6.81029,-6.00117 9.96119,-9.96082 8.72705,-10.96702 13.23529,-23.96997 13.22736,-38.15127 -0.008,-13.948351 -4.66207,-27.320171 -13.23789,-38.032622 -3.24714,-4.056162 -6.00116,-6.810286 -9.96081,-9.961193 -10.96703,-8.72705 -23.96998,-13.235281 -38.15128,-13.22736 -13.948348,0.0078 -27.320168,4.662077 -38.03262,13.237892 -8.508146,6.811167 -14.661564,14.994962 -18.719854,24.896646 -5.294789,12.918577 -5.923621,27.668017 -1.76198,41.327747 2.803605,9.20225 8.272195,18.2788 15.200324,25.22889 8.00202,8.02739 18.691528,13.93502 29.620203,16.36979 7.375165,1.6431 14.528537,1.99117 21.431247,1.04281 z M 91.368168,163.1107 c -0.389503,-0.25688 -0.958918,-0.78581 -1.265366,-1.17539 -1.594354,-2.0269 -3.827158,-9.00938 -5.142299,-16.08114 -1.420536,-7.6385 -1.25333,-23.94701 0.370282,-36.11563 0.310661,-2.32833 0.586284,-5.23214 0.612497,-6.45291 0.04551,-2.11965 0.01601,-2.24326 -0.655286,-2.74523 -0.386619,-0.28911 -1.93072,-0.988924 -3.431335,-1.555155 C 78.182867,97.599004 77.167855,97.093646 74.162376,95.154384 67.561934,90.895502 62.82196,84.021445 62.416971,78.120837 c -0.152944,-2.228367 0.193703,-3.253382 1.14661,-3.390457 0.671935,-0.09666 3.164354,1.520303 5.237825,3.398048 4.721031,4.275386 12.217113,7.739679 19.703076,9.105719 5.231366,0.95462 13.452968,1.021487 18.873948,0.153501 4.31021,-0.690133 8.87043,-2.206617 12.78999,-4.253257 4.44198,-2.319437 7.68395,-4.613811 12.1246,-8.580705 6.82134,-6.093604 7.97633,-7.000857 8.92359,-7.009556 2.09264,-0.01922 2.0082,3.571757 -0.2145,9.121499 -3.49555,8.727882 -11.1091,16.044648 -22.41278,21.539114 -3.09725,1.505508 -3.977,2.051687 -4.2155,2.617137 -0.52214,1.23795 -0.43175,17.72308 0.11999,21.88125 1.37378,10.35352 2.34948,15.29603 5.48429,27.78124 1.27882,5.09323 2.40261,9.87475 2.49732,10.6256 0.15676,1.24288 0.11319,1.4116 -0.48639,1.88323 -0.40772,0.32071 -0.90777,0.47041 -1.31276,0.39299 -2.19095,-0.41883 -8.75963,-8.03429 -14.27595,-16.55098 -1.11147,-1.71599 -2.02085,-3.1859 -2.02085,-3.26644 0,-0.0805 -0.22252,-0.46249 -0.4945,-0.84876 -0.27197,-0.38627 -1.1801,-2.01199 -2.01807,-3.61272 -1.921248,-3.67008 -3.285606,-5.95312 -3.557617,-5.95312 -0.418848,0 -1.581025,5.18248 -2.521655,11.24479 -0.383844,2.47385 -0.924684,7.44368 -1.201868,11.04406 -0.277183,3.60038 -0.630501,6.78258 -0.785151,7.07154 -0.271936,0.50812 -1.065714,1.06852 -1.508431,1.06495 -0.118707,-9.6e-4 -0.534516,-0.21192 -0.92402,-0.46881 z M 102.39511,84.627989 C 99.483015,83.79453 97.408838,82.30427 95.910023,79.96857 c -1.599572,-2.492717 -1.958336,-5.253246 -1.037838,-7.985701 1.264046,-3.752263 3.8409,-5.994013 7.838195,-6.818891 3.24518,-0.669671 7.08264,0.63533 9.70566,3.300587 2.02014,2.052679 2.61883,3.444048 2.62289,6.095704 0.003,1.86564 -0.10449,2.353738 -0.87075,3.959304 -1.01643,2.129738 -2.80726,4.005238 -4.67174,4.892626 -3.35236,1.595537 -4.86791,1.855008 -7.10133,1.21579 z M 26.063027,243.14043 c 7.36e-4,-5.77656 7.723949,-11.68575 21.344949,-16.33147 4.120728,-1.40546 11.797242,-3.38351 15.828799,-4.0787 1.309687,-0.22583 2.638371,-0.46143 2.95263,-0.52355 2.505943,-0.49534 2.900351,-0.47693 3.31927,0.15498 0.22552,0.34018 2.441822,3.17532 4.925116,6.30031 2.483295,3.12499 4.492202,5.7028 4.46424,5.72847 -0.02796,0.0257 -1.598653,0.18133 -3.490424,0.34591 -6.543247,0.56925 -19.665319,2.59167 -28.67548,4.41956 -5.741728,1.16482 -14.641347,3.53349 -19.147955,5.09631 l -1.521354,0.52758 z m 155.442493,-0.62525 c -2.64163,-0.79433 -11.15403,-2.81816 -14.15521,-3.36541 -6.02428,-1.09849 -12.04428,-2.09947 -14.55208,-2.41964 -0.80037,-0.10219 -1.69333,-0.23125 -1.98438,-0.28682 -0.7549,-0.14412 -8.24419,-1.07943 -11.37708,-1.42084 -1.45521,-0.15858 -3.00302,-0.33683 -3.43958,-0.3961 -0.43656,-0.0593 -1.71649,-0.19025 -2.84427,-0.29107 -1.12779,-0.10081 -2.05052,-0.23275 -2.05052,-0.29321 0,-0.0605 0.63223,-0.90723 1.40496,-1.88173 1.03969,-1.31116 5.81189,-7.45759 8.0344,-10.34803 0.20058,-0.26086 7.70045,1.10613 12.99662,2.36887 11.00617,2.62417 21.74444,7.48676 26.83568,12.15196 2.07758,1.90373 3.47084,4.36635 3.33244,5.89017 l -0.0843,0.92833 z"
       id="path1" /></g></svg>
