<?xml version="1.0" standalone="no"?>
<!DOCTYPE svg PUBLIC "-//W3C//DTD SVG 20010904//EN"
 "http://www.w3.org/TR/2001/REC-SVG-20010904/DTD/svg10.dtd">
<svg version="1.0" xmlns="http://www.w3.org/2000/svg"
 width="180.000000pt" height="189.000000pt" viewBox="0 0 180.000000 189.000000"
 preserveAspectRatio="xMidYMid meet">

<g transform="translate(0.000000,189.000000) scale(0.100000,-0.100000)"
fill="#000000" stroke="none">
<path d="M0 945 l0 -945 900 0 900 0 0 945 0 945 -900 0 -900 0 0 -945z m1005
560 c203 -53 365 -216 420 -425 19 -70 19 -219 0 -290 -36 -135 -143 -279
-261 -350 -99 -60 -173 -79 -300 -80 -119 0 -181 13 -269 57 -140 71 -254 209
-299 362 -21 73 -21 249 0 322 27 93 75 170 154 249 79 79 161 127 263 155 70
19 219 19 292 0z"/>
<path d="M745 1488 c-27 -5 -87 -27 -134 -49 -192 -90 -311 -283 -311 -504 0
-156 51 -279 164 -391 112 -112 238 -164 396 -164 159 0 285 52 395 164 174
176 213 417 104 644 -109 227 -359 349 -614 300z m29 -124 c22 -9 20 -18 -14
-65 -80 -111 -78 -275 5 -384 l35 -45 -27 -12 c-45 -18 -144 -13 -194 9 -121
55 -188 203 -148 324 39 115 160 196 276 184 28 -3 58 -8 67 -11z m337 0 c78
-23 151 -98 174 -178 18 -61 16 -128 -6 -167 l-11 -21 -21 20 c-12 12 -49 33
-81 48 -104 47 -240 33 -335 -36 -22 -16 -42 -26 -45 -21 -3 4 -10 29 -16 54
-18 82 17 187 81 243 81 70 159 88 260 58z m40 -362 c128 -66 182 -228 119
-352 -27 -53 -84 -108 -134 -131 -47 -21 -146 -25 -189 -6 l-28 12 31 41 c44
60 62 119 62 199 0 80 -18 139 -62 199 l-31 41 28 12 c15 7 56 12 89 13 49 0
73 -6 115 -28z m-558 -207 c109 -32 230 -6 313 67 21 19 22 19 33 -13 31 -88
0 -210 -70 -276 -166 -157 -449 -39 -449 188 0 31 5 70 11 87 l11 31 50 -34
c27 -19 73 -42 101 -50z"/>
</g>
</svg>
