<?xml version="1.0" encoding="UTF-8" standalone="no"?>
<!-- Created with Inkscape (http://www.inkscape.org/) -->

<svg
   width="232.000000pt"
   height="221.000000pt"
   viewBox="0 0 210 297"
   version="1.1"
   id="svg1"
   xml:space="preserve"
   sodipodi:docname="Logo_v2_weiß.svg"
   inkscape:version="1.3 (0e150ed6c4, 2023-07-21)"
   xmlns:inkscape="http://www.inkscape.org/namespaces/inkscape"
   xmlns:sodipodi="http://sodipodi.sourceforge.net/DTD/sodipodi-0.dtd"
   xmlns="http://www.w3.org/2000/svg"
   xmlns:svg="http://www.w3.org/2000/svg"><sodipodi:namedview
     id="namedview1"
     pagecolor="#505050"
     bordercolor="#eeeeee"
     borderopacity="1"
     inkscape:showpageshadow="0"
     inkscape:pageopacity="0"
     inkscape:pagecheckerboard="0"
     inkscape:deskcolor="#505050"
     inkscape:document-units="mm"
     inkscape:zoom="0.51717104"
     inkscape:cx="341.27975"
     inkscape:cy="490.16666"
     inkscape:window-width="1920"
     inkscape:window-height="1017"
     inkscape:window-x="-8"
     inkscape:window-y="-8"
     inkscape:window-maximized="1"
     inkscape:current-layer="layer1" /><defs
     id="defs1" /><g
     inkscape:label="Ebene 1"
     inkscape:groupmode="layer"
     id="layer1"
     style="display:inline"><path
       style="display:inline;fill:#ffffff;fill-opacity:1"
       d="m 113.53105,223.4247 c -6.71275,-4.21497 -7.97314,-5.00916 -9.21164,-5.80443 -0.68167,-0.43771 -2.90628,-1.8444 -4.943569,-3.12596 -2.037292,-1.28156 -5.31151,-3.35391 -7.276042,-4.60522 -3.353095,-2.13575 -5.597375,-3.55968 -16.986771,-10.77765 -2.517223,-1.59527 -5.707863,-3.62922 -7.090311,-4.51989 -1.382448,-0.89067 -4.061354,-2.60672 -5.953125,-3.81344 -1.891771,-1.20672 -3.856302,-2.46446 -4.365625,-2.79498 -7.71027,-5.00356 -9.530059,-6.25416 -9.402046,-6.46128 0.08337,-0.1349 1.726925,-1.21408 3.652337,-2.39818 1.925413,-1.18409 4.572313,-2.82071 5.882001,-3.63692 1.309687,-0.81621 6.488906,-4.03613 11.509375,-7.15539 5.020468,-3.11925 9.6204,-5.98499 10.222071,-6.36831 0.601671,-0.38331 1.613702,-1.01308 2.248958,-1.39948 0.635257,-0.3864 2.226574,-1.36794 3.536262,-2.1812 2.574249,-1.5985 2.778125,-1.679 2.778125,-1.09695 0,0.37557 -1.298086,1.41917 -11.88637,9.55608 -2.826722,2.17229 -6.458128,4.96588 -8.069791,6.20798 -1.611663,1.2421 -4.690204,3.60969 -6.841202,5.26131 -2.150998,1.65163 -3.877404,3.03067 -3.836458,3.06455 0.210234,0.17392 6.291039,3.78025 13.832779,8.20375 4.656667,2.73131 10.312136,6.0629 12.567708,7.40355 2.255573,1.34065 7.196667,4.26014 10.980208,6.48777 9.839826,5.79338 14.879066,8.78693 18.618216,11.06011 1.79981,1.09418 3.41169,1.98941 3.58196,1.98941 0.17027,0 2.98395,-1.58531 6.25262,-3.5229 3.26867,-1.9376 7.78851,-4.61703 10.04408,-5.95429 4.03838,-2.39423 11.24128,-6.65162 17.72708,-10.47786 1.81901,-1.07312 3.54542,-2.08075 3.83646,-2.2392 0.29104,-0.15844 1.89838,-1.10168 3.57187,-2.09608 8.4451,-5.01816 11.47134,-6.80721 13.89063,-8.21185 1.45521,-0.84489 3.03999,-1.80116 3.52175,-2.12504 l 0.87591,-0.58886 -3.55754,-2.74283 c -1.95664,-1.50855 -5.19238,-3.99298 -7.19052,-5.52095 -4.64092,-3.54889 -12.27205,-9.41493 -16.6022,-12.76209 -2.94565,-2.27695 -3.80909,-3.11291 -3.21525,-3.11291 0.15301,0 4.03923,2.33834 5.92722,3.56641 0.50933,0.3313 2.71198,1.7032 4.8948,3.04867 12.67346,7.81184 28.97399,18.21448 28.96859,18.48712 -0.004,0.19713 -0.5794,0.57633 -6.6113,4.35615 -2.54662,1.5958 -5.40412,3.40086 -6.35,4.01123 -0.94589,0.61038 -4.51776,2.86958 -7.9375,5.02044 -3.41974,2.15086 -6.81302,4.29111 -7.54063,4.7561 -2.12518,1.35814 -4.43959,2.82369 -6.79732,4.30425 -5.26636,3.30708 -12.39845,7.79847 -14.10476,8.88239 -1.01865,0.64709 -5.3049,3.34769 -9.525,6.00134 -4.2201,2.65365 -8.09603,5.11016 -8.61318,5.4589 -0.51714,0.34875 -1.05293,0.62854 -1.19062,0.62176 -0.1377,-0.007 -1.85771,-1.02159 -3.82224,-2.25513 z m -0.30101,-39.47057 c -2.55142,-2.60495 -6.23042,-6.93644 -24.326647,-28.64114 C 66.209571,128.09391 66.106399,127.95899 62.702998,121.04944 57.46302,110.4113 55.659544,101.18547 56.349831,88.549277 56.871637,78.997251 58.342797,73.173042 62.308904,64.957775 66.466968,56.344893 71.180072,50.316064 78.668189,44.03158 86.464305,37.488605 97.374223,32.723973 107.16588,31.58593 c 2.68642,-0.312231 5.2113,-0.382986 10.31875,-0.289163 6.37801,0.117163 6.95738,0.170083 10.20163,0.931823 11.71159,2.749855 20.88515,7.845528 29.34348,16.299542 6.70697,6.70355 12.40429,16.434097 15.09423,25.779666 1.79729,6.244293 2.28235,10.105153 2.28235,18.166644 0,8.812098 -0.66053,13.380218 -2.92671,20.240628 -2.63164,7.96678 -6.51985,14.78495 -12.44799,21.82812 -4.26361,5.06556 -10.10283,12.24417 -23.1359,28.44271 -17.85966,22.19744 -18.5688,23.01875 -19.87484,23.01875 -0.62681,0 -1.18196,-0.40788 -2.79084,-2.05052 z m 24.73087,-30.69167 c 11.83694,-14.80674 22.27216,-28.03736 23.18937,-29.40136 3.33453,-4.95885 5.88484,-10.70489 7.53053,-16.96687 1.30945,-4.98254 1.56144,-7.953916 1.39735,-16.477069 -0.12513,-6.499445 -0.20418,-7.479602 -0.80914,-10.033109 -3.18983,-13.464003 -10.34434,-25.142471 -20.28381,-33.109673 -6.77567,-5.431197 -14.74059,-9.265352 -22.92938,-11.037753 -3.20613,-0.693943 -13.45439,-1.015577 -17.68624,-0.555068 -8.378091,0.911701 -18.749251,5.293366 -25.662499,10.842034 -10.782857,8.65447 -17.425303,19.065097 -20.8779,32.721683 -0.903366,3.573221 -1.193798,6.17976 -1.385612,12.435417 -0.187748,6.123083 0.150272,9.207518 1.681738,15.345838 1.886962,7.56319 5.347007,14.71068 10.310659,21.29895 1.609167,2.13586 26.486663,32.0179 35.243484,42.33334 4.99941,5.88925 8.24613,9.525 8.50583,9.525 0.13964,0 9.93867,-12.11461 21.77562,-26.92136 z m -33.36417,-11.37708 c -1.86084,-2.68816 -4.04127,-11.11154 -4.845568,-18.71927 -0.34417,-3.25545 -0.171325,-18.11078 0.252438,-21.69583 0.50451,-4.268207 0.95631,-7.390151 1.58903,-10.980213 0.2822,-1.601152 0.0619,-1.990602 -1.29076,-2.282272 -2.362326,-0.509368 -7.084374,-2.817143 -9.645522,-4.713992 -5.052327,-3.741876 -8.351873,-8.962811 -9.014114,-14.263204 -0.167381,-1.339677 -0.125984,-1.518545 0.495218,-2.139748 0.372828,-0.372827 0.875948,-0.677868 1.118046,-0.677868 0.242098,0 1.549146,1.089908 2.904552,2.422018 5.22088,5.131144 10.110643,7.595253 17.84599,8.993169 3.10159,0.560513 11.99102,0.480254 14.81667,-0.133773 6.61232,-1.436889 12.53247,-4.433397 18.12395,-9.173504 1.88016,-1.593882 3.701,-3.408233 7.12453,-7.099153 1.20711,-1.301393 2.03971,-1.376881 2.86965,-0.260179 0.50779,0.683247 0.50969,0.756314 0.0723,2.778125 -0.87311,4.036174 -2.58094,7.902266 -4.89113,11.072256 -3.54822,4.868794 -10.21387,9.944496 -16.48988,12.556569 -0.78136,0.325203 -1.3439,0.753779 -1.48024,1.127739 -0.12096,0.331756 -0.36591,2.477545 -0.54435,4.76842 -0.6412,8.23207 0.7584,20.55327 3.83969,33.80248 0.78531,3.37671 1.48564,6.23018 1.72084,7.01146 0.89864,2.98505 1.82543,6.51047 1.82543,6.94379 0,0.73363 -0.83349,1.39059 -1.76426,1.39059 -0.83874,0 -0.91129,-0.0654 -3.81586,-3.44064 -2.88596,-3.35359 -6.56893,-8.5513 -8.8107,-12.43437 -1.13029,-1.95782 -4.24154,-8.39206 -4.91694,-10.1685 -0.27759,-0.73013 -0.30904,-0.74293 -0.64005,-0.26061 -0.19146,0.27898 -0.41163,0.8049 -0.48927,1.1687 -0.0776,0.3638 -0.44462,2.03068 -0.8155,3.70416 -1.3344,6.02109 -2.03075,11.72349 -2.03075,16.62984 0,4.08557 -0.25826,4.80142 -1.73221,4.80142 -0.65888,0 -1.00312,-0.18133 -1.38127,-0.72761 z m 20.57598,-9.19993 c 0,-0.0759 -0.30228,-1.41533 -0.67173,-2.97657 -0.36944,-1.56123 -0.78328,-3.31485 -0.91964,-3.89694 -0.73832,-3.15175 -1.88943,-9.63119 -2.51474,-14.15521 -0.95527,-6.9112 -1.19647,-16.613319 -0.53651,-21.58036 0.55708,-4.192745 0.68038,-4.449726 2.47747,-5.163555 5.7109,-2.268448 11.75474,-6.312142 14.48386,-9.690578 0.56364,-0.697746 1.0973,-1.32816 1.18592,-1.40092 0.35448,-0.291054 2.37036,-3.428924 2.37036,-3.689649 0,-0.481176 -0.26084,-0.321845 -2.07303,1.266267 -5.8061,5.088157 -12.76927,8.345788 -21.07801,9.861077 -2.5238,0.460274 -12.4864,0.469021 -14.41979,0.01266 -0.80036,-0.188919 -2.22662,-0.526181 -3.16945,-0.749469 -3.4991,-0.828683 -8.442731,-2.971332 -11.29801,-4.896739 -1.061909,-0.716079 -1.67212,-0.928771 -1.67212,-0.582825 0,0.401562 2.00488,2.833977 3.346539,4.060178 3.364178,3.074669 7.371433,5.099563 13.092831,6.615897 0.7977,0.211414 1.34014,0.538469 1.55312,0.936438 0.3564,0.665935 0.36459,0.582277 -0.62128,6.348456 -1.6457,9.625402 -2.25882,18.704792 -1.7687,26.191792 0.35886,5.48195 1.04483,10.32071 1.46311,10.32071 0.14552,0 0.35914,-0.71438 0.47471,-1.5875 0.92093,-6.95782 2.64359,-13.07532 4.96119,-17.61818 0.47645,-0.93393 0.62779,-1.03495 1.55051,-1.03495 1.15985,0 1.53072,0.41231 2.1419,2.38125 1.73007,5.57346 7.83139,17.2761 10.79411,20.70365 0.38125,0.44107 0.84738,0.61988 0.84738,0.32507 z M 114.45209,75.024718 c -3.12097,-0.765214 -5.27524,-2.752269 -6.30389,-5.814596 -0.82449,-2.454557 -0.39362,-5.147084 1.19788,-7.48556 2.27882,-3.348384 6.8906,-4.522345 10.67339,-2.716986 4.23142,2.019471 5.98325,6.902566 4.01707,11.197278 -1.20427,2.630463 -3.05286,4.131265 -5.93782,4.82069 -1.78464,0.426478 -1.90395,0.426451 -3.64663,-8.26e-4 z m 3.33131,-3.463166 c 1.36382,-0.474565 1.99225,-0.96004 2.89719,-2.238152 0.53763,-0.759333 0.65471,-1.235644 0.65032,-2.645833 -0.004,-1.432413 -0.1268,-1.899989 -0.73224,-2.798161 -1.60254,-2.377373 -4.55804,-3.039815 -6.9511,-1.558015 -2.29848,1.423227 -3.09649,4.146561 -1.93754,6.612123 0.60714,1.291621 1.49546,2.053556 3.0664,2.630109 1.31503,0.482631 1.6146,0.482424 3.00697,-0.0021 z"
       id="path1" /></g></svg>
