<?xml version="1.0" encoding="UTF-8" standalone="no"?>
<!-- Created with Inkscape (http://www.inkscape.org/) -->

<svg
   width="210mm"
   height="297mm"
   viewBox="0 0 210 297"
   version="1.1"
   id="svg1"
   xml:space="preserve"
   inkscape:export-filename="bike_w_on_b.svg"
   inkscape:export-xdpi="96"
   inkscape:export-ydpi="96"
   inkscape:version="1.3 (0e150ed6c4, 2023-07-21)"
   sodipodi:docname="weightlifting_b_on_w.svg"
   xmlns:inkscape="http://www.inkscape.org/namespaces/inkscape"
   xmlns:sodipodi="http://sodipodi.sourceforge.net/DTD/sodipodi-0.dtd"
   xmlns="http://www.w3.org/2000/svg"
   xmlns:svg="http://www.w3.org/2000/svg"><sodipodi:namedview
     id="namedview1"
     pagecolor="#505050"
     bordercolor="#eeeeee"
     borderopacity="1"
     inkscape:showpageshadow="0"
     inkscape:pageopacity="0"
     inkscape:pagecheckerboard="0"
     inkscape:deskcolor="#505050"
     inkscape:document-units="mm"
     inkscape:zoom="0.73139029"
     inkscape:cx="396.50513"
     inkscape:cy="561.25984"
     inkscape:window-width="1920"
     inkscape:window-height="1017"
     inkscape:window-x="-8"
     inkscape:window-y="-8"
     inkscape:window-maximized="1"
     inkscape:current-layer="layer1" /><defs
     id="defs1" /><g
     inkscape:label="Ebene 1"
     inkscape:groupmode="layer"
     id="layer1"><rect
       style="fill:#ffffff;stroke-width:0.64691;fill-opacity:1"
       id="rect2"
       width="200"
       height="200"
       x="5.4263101"
       y="52.816071" /><path
       d="m 45.641983,97.7 c 0,-4.683125 3.783542,-8.466667 8.466667,-8.466667 h 8.466666 c 4.683125,0 8.466667,3.783542 8.466667,8.466667 V 140.03333 156.96667 199.3 c 0,4.68313 -3.783542,8.46667 -8.466667,8.46667 H 54.10865 c -4.683125,0 -8.466667,-3.78354 -8.466667,-8.46667 v -16.93333 h -8.466667 c -4.683125,0 -8.466666,-3.78355 -8.466666,-8.46667 v -16.93333 c -4.683125,0 -8.466667,-3.78355 -8.466667,-8.46667 0,-4.68313 3.783542,-8.46667 8.466667,-8.46667 V 123.1 c 0,-4.68313 3.783541,-8.46667 8.466666,-8.46667 h 8.466667 z m 118.533327,0 v 16.93333 h 8.46667 c 4.68312,0 8.46667,3.78354 8.46667,8.46667 v 16.93333 c 4.68312,0 8.46666,3.78354 8.46666,8.46667 0,4.68312 -3.78354,8.46667 -8.46666,8.46667 V 173.9 c 0,4.68312 -3.78355,8.46667 -8.46667,8.46667 h -8.46667 V 199.3 c 0,4.68313 -3.78354,8.46667 -8.46666,8.46667 h -8.46667 c -4.68313,0 -8.46667,-3.78354 -8.46667,-8.46667 V 156.96667 140.03333 97.7 c 0,-4.683125 3.78354,-8.466667 8.46667,-8.466667 h 8.46667 c 4.68312,0 8.46666,3.783542 8.46666,8.466667 z m -33.86666,42.33333 v 16.93334 h -50.8 v -16.93334 z"
       id="path1-1"
       style="stroke-width:0.264583;fill:#138eb3;fill-opacity:1" /></g></svg>
