<?xml version="1.0" encoding="UTF-8" standalone="no"?>
<!-- Created with Inkscape (http://www.inkscape.org/) -->

<svg
   width="210mm"
   height="297mm"
   viewBox="0 0 210 297"
   version="1.1"
   id="svg1"
   xml:space="preserve"
   inkscape:export-filename="bike_w_on_b.svg"
   inkscape:export-xdpi="96"
   inkscape:export-ydpi="96"
   inkscape:version="1.3 (0e150ed6c4, 2023-07-21)"
   sodipodi:docname="skiing_w_on_b.svg"
   xmlns:inkscape="http://www.inkscape.org/namespaces/inkscape"
   xmlns:sodipodi="http://sodipodi.sourceforge.net/DTD/sodipodi-0.dtd"
   xmlns="http://www.w3.org/2000/svg"
   xmlns:svg="http://www.w3.org/2000/svg"><sodipodi:namedview
     id="namedview1"
     pagecolor="#505050"
     bordercolor="#eeeeee"
     borderopacity="1"
     inkscape:showpageshadow="0"
     inkscape:pageopacity="0"
     inkscape:pagecheckerboard="0"
     inkscape:deskcolor="#505050"
     inkscape:document-units="mm"
     inkscape:zoom="0.73139029"
     inkscape:cx="396.50513"
     inkscape:cy="561.25984"
     inkscape:window-width="1920"
     inkscape:window-height="1017"
     inkscape:window-x="-8"
     inkscape:window-y="-8"
     inkscape:window-maximized="1"
     inkscape:current-layer="layer1" /><defs
     id="defs1" /><g
     inkscape:label="Ebene 1"
     inkscape:groupmode="layer"
     id="layer1"><rect
       style="fill:#138eb3;stroke-width:0.64691;fill-opacity:1"
       id="rect2"
       width="200"
       height="200"
       x="5.4263101"
       y="52.816071" /><path
       d="m 132.47251,92.860194 a 12.7,12.7 0 1 1 25.4,0 12.7,12.7 0 1 1 -25.4,0 z M 32.460016,151.30665 c 1.613958,-3.12208 5.450417,-4.31271 8.5725,-2.69875 l 52.281667,27.14625 12.223747,-18.30917 -19.870206,-19.87021 c -3.862916,-3.86291 -5.3975,-8.96937 -4.868333,-13.78479 l 28.786669,13.75834 10.39812,10.39812 c 4.28625,4.28625 4.94771,10.98021 1.5875,16.03375 l -13.14979,19.63208 34.05187,17.67417 c 3.59834,1.87854 7.88459,1.905 11.53584,0.0794 l 4.02166,-2.01083 c 3.14855,-1.56104 6.95855,-0.29104 8.51959,2.83104 1.56104,3.12209 0.29104,6.95854 -2.83104,8.51959 l -4.02167,2.01083 c -7.27604,3.62479 -15.84854,3.57187 -23.07167,-0.18521 L 35.158766,159.87915 c -3.095625,-1.61396 -4.312708,-5.45042 -2.69875,-8.5725 z m 30.744583,-53.789789 4.788959,2.275411 2.301875,-4.603745 c 1.058333,-2.090208 3.598333,-2.936875 5.688541,-1.905 2.090209,1.031875 2.936875,3.598334 1.905,5.688542 l -2.248958,4.471451 14.472708,6.93209 c 0.396875,-0.18521 0.820209,-0.37042 1.243542,-0.55563 l 22.066254,-8.83708 c 9.04875,-3.624789 19.26166,1.11125 22.35729,10.37167 l 4.52437,13.54666 13.78479,6.90563 c 4.18042,2.09021 5.87375,7.17021 3.78354,11.35062 -2.0902,4.18042 -7.1702,5.87375 -11.35062,3.78354 l -15.37229,-7.67291 c -3.01625,-1.50813 -5.29167,-4.15396 -6.37646,-7.35542 l -1.53458,-4.57729 -7.22313,3.20146 -1.79916,0.79375 -1.77271,-0.84667 -40.613544,-19.44687 -2.434167,4.86833 c -1.058333,2.09021 -3.598333,2.93687 -5.688541,1.905 -2.090209,-1.03188 -2.936875,-3.59833 -1.905,-5.68854 l 2.38125,-4.7625 -4.656667,-2.2225 c -2.116667,-1.00542 -2.989792,-3.54542 -1.984375,-5.635628 1.005417,-2.090205 3.545417,-2.989788 5.635625,-1.984371 z"
       id="path1-2"
       style="fill:#ffffff;fill-opacity:1;stroke-width:0.264583" /></g></svg>
