<?xml version="1.0" encoding="UTF-8" standalone="no"?>
<svg
   xmlns:dc="http://purl.org/dc/elements/1.1/"
   xmlns:cc="http://creativecommons.org/ns#"
   xmlns:rdf="http://www.w3.org/1999/02/22-rdf-syntax-ns#"
   xmlns:svg="http://www.w3.org/2000/svg"
   xmlns="http://www.w3.org/2000/svg"
   xmlns:sodipodi="http://sodipodi.sourceforge.net/DTD/sodipodi-0.dtd"
   xmlns:inkscape="http://www.inkscape.org/namespaces/inkscape"
   version="1.0"
   width="232.000000pt"
   height="221.000000pt"
   viewBox="0 0 232.000000 221.000000"
   preserveAspectRatio="xMidYMid meet"
   id="svg3741"
   sodipodi:docname="logo_vektor_01_white.svg"
   inkscape:version="0.92.4 (5da689c313, 2019-01-14)">
  <metadata
     id="metadata3747">
    <rdf:RDF>
      <cc:Work
         rdf:about="">
        <dc:format>image/svg+xml</dc:format>
        <dc:type
           rdf:resource="http://purl.org/dc/dcmitype/StillImage" />
        <dc:title></dc:title>
      </cc:Work>
    </rdf:RDF>
  </metadata>
  <defs
     id="defs3745" />
  <sodipodi:namedview
     pagecolor="#ffffff"
     bordercolor="#666666"
     borderopacity="1"
     objecttolerance="10"
     gridtolerance="10"
     guidetolerance="10"
     inkscape:pageopacity="0"
     inkscape:pageshadow="2"
     inkscape:window-width="640"
     inkscape:window-height="480"
     id="namedview3743"
     showgrid="false"
     inkscape:zoom="1.1776018"
     inkscape:cx="154.66667"
     inkscape:cy="140.66693"
     inkscape:window-x="0"
     inkscape:window-y="0"
     inkscape:window-maximized="0"
     inkscape:current-layer="svg3741" />
  <g
     transform="translate(0.000000,221.000000) scale(0.100000,-0.100000)"
     fill="#000000"
     stroke="none"
     id="g3739"
     style="fill:#ffffff">
    <path
       d="M622 2000 c-153 -40 -265 -133 -332 -272 -82 -170 -81 -322 0 -494 96 -200 324 -319 550 -286 43 6 95 18 115 26 l36 15 -50 60 c-59 71 -114 181 -137 271 -22 84 -22 235 0 320 23 91 86 215 142 278 55 62 54 63 -48 87 -89 20 -187 18 -276 -5z"
       id="path3731"
       style="fill:#ffffff" />
    <path
       d="M1353 2006 c-80 -19 -188 -75 -243 -128 -92 -88 -154 -220 -167 -350 -6 -69 9 -179 32 -235 l14 -34 61 50 c132 106 269 154 435 153 163 -1 321 -59 438 -162 26 -24 49 -41 51 -39 16 17 39 119 43 189 14 242 -129 462 -352 540 -78 28 -227 35 -312 16z"
       id="path3733"
       style="fill:#ffffff" />
    <path
       d="M1363 1295 c-34 -7 -71 -18 -82 -25 -21 -11 -20 -13 23 -63 55 -63 120 -189 142 -277 50 -199 -8 -445 -143 -599 -54 -61 -53 -62 49 -86 244 -55 490 51 600 261 88 168 91 335 8 510 -104 216 -352 332 -597 279z"
       id="path3735"
       style="fill:#ffffff" />
    <path
       d="M256 938 c-26 -78 -31 -209 -12 -292 55 -232 242 -394 476 -413 218 -17 424 91 523 274 34 64 67 190 67 257 0 57 -23 174 -40 205 -10 20 -13 18 -72 -29 -125 -101 -270 -152 -428 -153 -161 0 -323 58 -437 158 -28 25 -53 45 -56 45 -2 0 -12 -24 -21 -52z"
       id="path3737"
       style="fill:#ffffff" />
  </g>
</svg>
