<?xml version="1.0" encoding="utf-8" ?>
<svg baseProfile="tiny" height="50" version="1.2" width="150" xmlns="http://www.w3.org/2000/svg" xmlns:ev="http://www.w3.org/2001/xml-events" xmlns:xlink="http://www.w3.org/1999/xlink"><defs /><text fill="red" font-size="20" transform="rotate(4, 10, 30)" x="10" y="30">T</text><line stroke="rgb(0%,0%,0%)" x1="13.6635" x2="9.0478" y1="39.2495" y2="37.9381" /><line stroke="rgb(0%,0%,0%)" x1="14.0301" x2="8.5534" y1="25.7168" y2="27.9236" /><line stroke="rgb(0%,0%,0%)" x1="8.0881" x2="6.5688" y1="22.8044" y2="21.3081" /><line stroke="rgb(0%,0%,0%)" x1="18.5273" x2="20.1869" y1="34.5012" y2="27.2367" /><line stroke="rgb(0%,0%,0%)" x1="17.5731" x2="17.8311" y1="38.3905" y2="31.3991" /><line stroke="rgb(0%,0%,0%)" x1="12.7426" x2="13.8285" y1="36.9669" y2="36.5197" /><line stroke="rgb(0%,0%,0%)" x1="13.1213" x2="13.4007" y1="30.182" y2="36.7824" /><line stroke="rgb(0%,0%,0%)" x1="24.2516" x2="8.6964" y1="25.0075" y2="20.3793" /><line stroke="rgb(0%,0%,0%)" x1="18.8111" x2="7.641" y1="31.7292" y2="25.3912" /><line stroke="rgb(0%,0%,0%)" x1="7.2553" x2="18.1801" y1="22.1253" y2="33.1229" /><line stroke="rgb(100%,50%,0%)" x1="22.3489" x2="21.8066" y1="20.5452" y2="34.3145" /><line stroke="rgb(100%,50%,0%)" x1="14.6656" x2="9.2674" y1="34.0175" y2="33.6259" /><line stroke="rgb(100%,50%,0%)" x1="11.0542" x2="9.0958" y1="26.705" y2="33.2384" /><line stroke="rgb(100%,50%,0%)" x1="21.52" x2="13.9687" y1="22.3802" y2="33.0412" /><line stroke="rgb(100%,50%,0%)" x1="18.4126" x2="18.1964" y1="38.034" y2="33.0803" /><line stroke="rgb(100%,50%,0%)" x1="13.4674" x2="11.9493" y1="37.7495" y2="32.6121" /><line stroke="rgb(100%,50%,0%)" x1="18.1728" x2="17.9633" y1="21.9131" y2="20.3774" /><line stroke="rgb(100%,50%,0%)" x1="22.7265" x2="20.0452" y1="36.2844" y2="40.6856" /><line stroke="rgb(100%,50%,0%)" x1="6.2831" x2="10.7246" y1="28.5886" y2="32.882" /><line stroke="rgb(100%,50%,0%)" x1="24.7787" x2="17.2821" y1="27.0254" y2="32.7588" /><text fill="red" font-size="20" transform="rotate(-14, 35, 30)" x="35" y="30">K</text><line stroke="rgb(0%,0%,0%)" x1="31.3256" x2="37.6309" y1="21.3337" y2="27.8688" /><line stroke="rgb(0%,0%,0%)" x1="46.9972" x2="43.2089" y1="28.0653" y2="31.8178" /><line stroke="rgb(0%,0%,0%)" x1="41.0032" x2="35.1312" y1="32.2538" y2="32.6505" /><line stroke="rgb(0%,0%,0%)" x1="42.4633" x2="32.5476" y1="32.7999" y2="38.8155" /><line stroke="rgb(0%,0%,0%)" x1="48.3689" x2="41.0583" y1="39.677" y2="21.5482" /><line stroke="rgb(0%,0%,0%)" x1="30.738" x2="42.2484" y1="20.6249" y2="30.1157" /><line stroke="rgb(0%,0%,0%)" x1="31.0324" x2="42.3372" y1="33.158" y2="37.5888" /><line stroke="rgb(0%,0%,0%)" x1="33.5002" x2="31.3746" y1="26.3382" y2="28.106" /><line stroke="rgb(0%,0%,0%)" x1="39.7364" x2="38.1856" y1="24.1443" y2="30.4712" /><line stroke="rgb(0%,0%,0%)" x1="38.677" x2="30.5883" y1="33.1505" y2="21.8539" /><line stroke="rgb(100%,50%,0%)" x1="31.4439" x2="43.3674" y1="32.6054" y2="42.3157" /><line stroke="rgb(100%,50%,0%)" x1="38.5662" x2="35.3267" y1="25.8353" y2="37.0641" /><line stroke="rgb(100%,50%,0%)" x1="36.1959" x2="43.2326" y1="32.0283" y2="41.9805" /><line stroke="rgb(100%,50%,0%)" x1="41.3395" x2="32.6952" y1="32.1608" y2="43.9544" /><line stroke="rgb(100%,50%,0%)" x1="48.7694" x2="38.2646" y1="30.0734" y2="24.7695" /><line stroke="rgb(100%,50%,0%)" x1="42.497" x2="39.5665" y1="22.5223" y2="36.9118" /><line stroke="rgb(100%,50%,0%)" x1="30.9407" x2="32.0587" y1="32.6347" y2="24.3654" /><line stroke="rgb(100%,50%,0%)" x1="38.3586" x2="41.1478" y1="30.0587" y2="34.1645" /><line stroke="rgb(100%,50%,0%)" x1="33.943" x2="38.6624" y1="21.045" y2="41.7405" /><line stroke="rgb(100%,50%,0%)" x1="36.6179" x2="36.9518" y1="29.6474" y2="44.3123" /><text fill="red" font-size="20" transform="rotate(-8, 60, 30)" x="60" y="30">I</text><line stroke="rgb(0%,0%,0%)" x1="63.6754" x2="73.2595" y1="28.2887" y2="29.7116" /><line stroke="rgb(0%,0%,0%)" x1="56.7374" x2="66.459" y1="33.4898" y2="28.7039" /><line stroke="rgb(0%,0%,0%)" x1="63.7816" x2="58.1088" y1="22.7079" y2="38.5496" /><line stroke="rgb(0%,0%,0%)" x1="65.41" x2="57.0869" y1="35.525" y2="38.9371" /><line stroke="rgb(0%,0%,0%)" x1="66.8789" x2="62.1742" y1="22.2572" y2="32.3167" /><line stroke="rgb(0%,0%,0%)" x1="69.7688" x2="65.7704" y1="32.9133" y2="33.7897" /><line stroke="rgb(0%,0%,0%)" x1="58.6615" x2="60.3948" y1="33.25" y2="29.9414" /><line stroke="rgb(0%,0%,0%)" x1="68.3686" x2="63.366" y1="27.9551" y2="31.2385" /><line stroke="rgb(0%,0%,0%)" x1="69.7208" x2="70.1185" y1="29.6553" y2="27.9799" /><line stroke="rgb(0%,0%,0%)" x1="55.8277" x2="60.4824" y1="36.2743" y2="27.2006" /><line stroke="rgb(100%,50%,0%)" x1="55.71" x2="57.8073" y1="23.0493" y2="20.1876" /><line stroke="rgb(100%,50%,0%)" x1="68.7463" x2="57.3015" y1="32.7216" y2="44.2542" /><line stroke="rgb(100%,50%,0%)" x1="73.8508" x2="61.4146" y1="26.2151" y2="35.3516" /><line stroke="rgb(100%,50%,0%)" x1="63.5901" x2="66.7821" y1="21.5474" y2="29.4509" /><line stroke="rgb(100%,50%,0%)" x1="65.0176" x2="72.8894" y1="25.9513" y2="15.6065" /><line stroke="rgb(100%,50%,0%)" x1="68.7574" x2="62.1765" y1="36.1106" y2="20.9232" /><line stroke="rgb(100%,50%,0%)" x1="67.5829" x2="67.6605" y1="20.3518" y2="16.5519" /><line stroke="rgb(100%,50%,0%)" x1="57.525" x2="68.8413" y1="32.5838" y2="31.6962" /><line stroke="rgb(100%,50%,0%)" x1="71.2103" x2="70.7652" y1="26.1752" y2="15.7629" /><line stroke="rgb(100%,50%,0%)" x1="59.0803" x2="72.1321" y1="39.5608" y2="23.1099" /><text fill="red" font-size="20" transform="rotate(3, 85, 30)" x="85" y="30">Z</text><line stroke="rgb(0%,0%,0%)" x1="82.1224" x2="90.8174" y1="36.6156" y2="34.7015" /><line stroke="rgb(0%,0%,0%)" x1="91.7289" x2="99.5761" y1="38.492" y2="24.2929" /><line stroke="rgb(0%,0%,0%)" x1="90.6368" x2="84.287" y1="30.5034" y2="23.1452" /><line stroke="rgb(0%,0%,0%)" x1="91.0412" x2="99.6265" y1="26.6323" y2="24.528" /><line stroke="rgb(0%,0%,0%)" x1="92.1461" x2="92.417" y1="28.2527" y2="27.826" /><line stroke="rgb(0%,0%,0%)" x1="95.0297" x2="93.1635" y1="33.603" y2="22.5307" /><line stroke="rgb(0%,0%,0%)" x1="90.2821" x2="92.7691" y1="20.1111" y2="36.0286" /><line stroke="rgb(0%,0%,0%)" x1="84.5823" x2="98.1024" y1="26.6946" y2="32.2077" /><line stroke="rgb(0%,0%,0%)" x1="86.7288" x2="98.0379" y1="24.5519" y2="24.1148" /><line stroke="rgb(0%,0%,0%)" x1="84.8344" x2="90.2102" y1="22.176" y2="25.4914" /><line stroke="rgb(100%,50%,0%)" x1="88.9149" x2="81.9775" y1="20.8248" y2="24.6375" /><line stroke="rgb(100%,50%,0%)" x1="82.4166" x2="81.5071" y1="39.3154" y2="36.0733" /><line stroke="rgb(100%,50%,0%)" x1="86.9063" x2="90.1864" y1="20.5774" y2="20.049" /><line stroke="rgb(100%,50%,0%)" x1="98.3391" x2="96.7754" y1="25.6046" y2="16.8216" /><line stroke="rgb(100%,50%,0%)" x1="95.3764" x2="80.2871" y1="39.0713" y2="44.0604" /><line stroke="rgb(100%,50%,0%)" x1="86.8019" x2="99.365" y1="24.9326" y2="26.1171" /><line stroke="rgb(100%,50%,0%)" x1="92.0321" x2="91.58" y1="21.7732" y2="31.9298" /><line stroke="rgb(100%,50%,0%)" x1="89.5934" x2="80.7496" y1="37.7632" y2="39.2496" /><line stroke="rgb(100%,50%,0%)" x1="88.8239" x2="91.7805" y1="35.6817" y2="43.9677" /><line stroke="rgb(100%,50%,0%)" x1="88.4639" x2="83.6228" y1="31.1359" y2="44.8716" /><text fill="red" font-size="20" transform="rotate(24, 110, 30)" x="110" y="30">M</text><line stroke="rgb(0%,0%,0%)" x1="115.3621" x2="113.127" y1="30.1493" y2="29.7239" /><line stroke="rgb(0%,0%,0%)" x1="117.9872" x2="106.3936" y1="25.2988" y2="29.2837" /><line stroke="rgb(0%,0%,0%)" x1="112.143" x2="119.6856" y1="38.6312" y2="33.7441" /><line stroke="rgb(0%,0%,0%)" x1="107.7511" x2="107.6918" y1="33.0999" y2="28.3045" /><line stroke="rgb(0%,0%,0%)" x1="108.7546" x2="110.0735" y1="31.622" y2="35.8192" /><line stroke="rgb(0%,0%,0%)" x1="114.9917" x2="114.4302" y1="22.042" y2="32.0805" /><line stroke="rgb(0%,0%,0%)" x1="115.9787" x2="110.688" y1="30.652" y2="22.3412" /><line stroke="rgb(0%,0%,0%)" x1="115.6054" x2="113.8577" y1="28.0042" y2="23.2311" /><line stroke="rgb(0%,0%,0%)" x1="123.749" x2="107.1911" y1="34.7934" y2="29.9245" /><line stroke="rgb(0%,0%,0%)" x1="116.5294" x2="116.3715" y1="37.2942" y2="39.6894" /><line stroke="rgb(100%,50%,0%)" x1="113.6822" x2="124.9779" y1="21.3413" y2="26.8277" /><line stroke="rgb(100%,50%,0%)" x1="118.705" x2="124.9088" y1="29.414" y2="38.6749" /><line stroke="rgb(100%,50%,0%)" x1="112.6006" x2="115.7652" y1="26.8907" y2="21.078" /><line stroke="rgb(100%,50%,0%)" x1="114.1346" x2="115.407" y1="34.5353" y2="15.9006" /><line stroke="rgb(100%,50%,0%)" x1="106.358" x2="112.7746" y1="35.9315" y2="18.2151" /><line stroke="rgb(100%,50%,0%)" x1="121.7444" x2="117.9147" y1="22.147" y2="37.9029" /><line stroke="rgb(100%,50%,0%)" x1="117.7776" x2="112.7715" y1="30.0821" y2="30.8445" /><line stroke="rgb(100%,50%,0%)" x1="117.5714" x2="116.1272" y1="28.3639" y2="15.0613" /><line stroke="rgb(100%,50%,0%)" x1="105.3189" x2="108.3981" y1="33.0172" y2="42.3374" /><line stroke="rgb(100%,50%,0%)" x1="116.5383" x2="106.6834" y1="22.0079" y2="41.508" /></svg>