<?xml version="1.0" encoding="utf-8" ?>
<svg baseProfile="tiny" height="50" version="1.2" width="150" xmlns="http://www.w3.org/2000/svg" xmlns:ev="http://www.w3.org/2001/xml-events" xmlns:xlink="http://www.w3.org/1999/xlink"><defs /><text fill="red" font-size="20" transform="rotate(-14, 10, 30)" x="10" y="30">7</text><line stroke="rgb(0%,0%,0%)" x1="8.6426" x2="12.2545" y1="22.1553" y2="20.7156" /><line stroke="rgb(0%,0%,0%)" x1="23.3172" x2="15.9433" y1="28.9353" y2="28.9668" /><line stroke="rgb(0%,0%,0%)" x1="13.4439" x2="8.8694" y1="23.0468" y2="20.111" /><line stroke="rgb(0%,0%,0%)" x1="18.749" x2="23.3547" y1="34.7248" y2="26.9914" /><line stroke="rgb(0%,0%,0%)" x1="11.4364" x2="16.3518" y1="25.4638" y2="35.6099" /><line stroke="rgb(0%,0%,0%)" x1="13.7096" x2="22.7113" y1="30.9356" y2="24.3911" /><line stroke="rgb(0%,0%,0%)" x1="6.6304" x2="14.2206" y1="32.7253" y2="34.8206" /><line stroke="rgb(0%,0%,0%)" x1="11.5067" x2="13.2055" y1="21.3729" y2="22.7473" /><line stroke="rgb(0%,0%,0%)" x1="21.4782" x2="14.4056" y1="29.985" y2="35.8503" /><line stroke="rgb(0%,0%,0%)" x1="15.7061" x2="21.3521" y1="29.5317" y2="39.0499" /><line stroke="rgb(100%,50%,0%)" x1="8.8587" x2="10.9222" y1="35.7999" y2="18.6916" /><line stroke="rgb(100%,50%,0%)" x1="11.4787" x2="18.1333" y1="22.2777" y2="27.5705" /><line stroke="rgb(100%,50%,0%)" x1="13.0234" x2="15.7399" y1="28.6093" y2="43.4965" /><line stroke="rgb(100%,50%,0%)" x1="23.5888" x2="14.4329" y1="30.216" y2="24.7442" /><line stroke="rgb(100%,50%,0%)" x1="19.5925" x2="24.2387" y1="38.1901" y2="24.7235" /><line stroke="rgb(100%,50%,0%)" x1="24.476" x2="6.6495" y1="34.324" y2="35.0198" /><line stroke="rgb(100%,50%,0%)" x1="6.3457" x2="5.7587" y1="27.4413" y2="43.0778" /><line stroke="rgb(100%,50%,0%)" x1="18.9935" x2="24.5236" y1="30.5181" y2="43.7645" /><line stroke="rgb(100%,50%,0%)" x1="5.5954" x2="12.1918" y1="31.3529" y2="31.2566" /><line stroke="rgb(100%,50%,0%)" x1="8.9177" x2="8.1133" y1="26.8724" y2="18.0153" /><text fill="red" font-size="20" transform="rotate(3, 35, 30)" x="35" y="30">9</text><line stroke="rgb(0%,0%,0%)" x1="41.3705" x2="38.222" y1="30.6967" y2="37.4446" /><line stroke="rgb(0%,0%,0%)" x1="37.1119" x2="49.4158" y1="33.2561" y2="27.1691" /><line stroke="rgb(0%,0%,0%)" x1="31.4765" x2="37.7754" y1="32.8509" y2="24.8828" /><line stroke="rgb(0%,0%,0%)" x1="36.0777" x2="44.8672" y1="26.8012" y2="21.9213" /><line stroke="rgb(0%,0%,0%)" x1="37.6298" x2="30.6145" y1="33.7359" y2="32.1935" /><line stroke="rgb(0%,0%,0%)" x1="34.3229" x2="36.916" y1="27.3323" y2="34.1142" /><line stroke="rgb(0%,0%,0%)" x1="43.5056" x2="40.1909" y1="32.738" y2="37.9716" /><line stroke="rgb(0%,0%,0%)" x1="46.7174" x2="32.1399" y1="29.3249" y2="25.5891" /><line stroke="rgb(0%,0%,0%)" x1="35.289" x2="35.6486" y1="21.3894" y2="37.7721" /><line stroke="rgb(0%,0%,0%)" x1="46.1811" x2="42.3131" y1="20.0052" y2="38.994" /><line stroke="rgb(100%,50%,0%)" x1="36.0423" x2="36.4281" y1="20.4026" y2="19.5542" /><line stroke="rgb(100%,50%,0%)" x1="30.5015" x2="37.2116" y1="35.96" y2="27.0364" /><line stroke="rgb(100%,50%,0%)" x1="35.0624" x2="45.8469" y1="33.6174" y2="29.3754" /><line stroke="rgb(100%,50%,0%)" x1="39.0327" x2="40.4424" y1="35.2597" y2="37.396" /><line stroke="rgb(100%,50%,0%)" x1="42.6837" x2="40.6785" y1="32.2894" y2="28.6075" /><line stroke="rgb(100%,50%,0%)" x1="47.7124" x2="41.1771" y1="28.3132" y2="44.7603" /><line stroke="rgb(100%,50%,0%)" x1="48.3451" x2="34.2254" y1="31.53" y2="25.6414" /><line stroke="rgb(100%,50%,0%)" x1="35.5942" x2="40.0474" y1="35.8393" y2="35.1303" /><line stroke="rgb(100%,50%,0%)" x1="34.0517" x2="37.0541" y1="23.7109" y2="35.5123" /><line stroke="rgb(100%,50%,0%)" x1="34.1997" x2="36.8972" y1="35.729" y2="33.4063" /><text fill="red" font-size="20" transform="rotate(-24, 60, 30)" x="60" y="30">9</text><line stroke="rgb(0%,0%,0%)" x1="60.8852" x2="60.4294" y1="30.9514" y2="36.5122" /><line stroke="rgb(0%,0%,0%)" x1="69.8659" x2="70.4178" y1="35.578" y2="26.2188" /><line stroke="rgb(0%,0%,0%)" x1="65.0494" x2="69.8056" y1="22.3188" y2="29.4621" /><line stroke="rgb(0%,0%,0%)" x1="72.5708" x2="62.0143" y1="21.7681" y2="25.7024" /><line stroke="rgb(0%,0%,0%)" x1="61.3667" x2="55.1625" y1="36.1304" y2="35.8907" /><line stroke="rgb(0%,0%,0%)" x1="59.2016" x2="59.2258" y1="35.523" y2="38.929" /><line stroke="rgb(0%,0%,0%)" x1="63.3287" x2="56.3429" y1="24.9789" y2="37.7279" /><line stroke="rgb(0%,0%,0%)" x1="55.5978" x2="55.2622" y1="31.227" y2="28.62" /><line stroke="rgb(0%,0%,0%)" x1="62.6363" x2="61.7061" y1="24.1643" y2="20.7074" /><line stroke="rgb(0%,0%,0%)" x1="70.7642" x2="60.1525" y1="27.5847" y2="23.3758" /><line stroke="rgb(100%,50%,0%)" x1="70.8522" x2="69.9921" y1="26.2353" y2="29.5175" /><line stroke="rgb(100%,50%,0%)" x1="61.2362" x2="56.9758" y1="32.897" y2="27.5181" /><line stroke="rgb(100%,50%,0%)" x1="72.2356" x2="60.8791" y1="29.9859" y2="25.9531" /><line stroke="rgb(100%,50%,0%)" x1="66.7689" x2="64.3217" y1="38.5568" y2="40.1732" /><line stroke="rgb(100%,50%,0%)" x1="72.7219" x2="70.748" y1="27.2575" y2="35.6481" /><line stroke="rgb(100%,50%,0%)" x1="63.7876" x2="63.0626" y1="21.909" y2="25.5487" /><line stroke="rgb(100%,50%,0%)" x1="65.4137" x2="71.2708" y1="31.8085" y2="29.8099" /><line stroke="rgb(100%,50%,0%)" x1="73.1283" x2="55.5576" y1="21.4762" y2="22.4934" /><line stroke="rgb(100%,50%,0%)" x1="64.168" x2="62.114" y1="33.4537" y2="34.2951" /><line stroke="rgb(100%,50%,0%)" x1="57.3667" x2="68.4804" y1="37.78" y2="32.3782" /><text fill="red" font-size="20" transform="rotate(-15, 85, 30)" x="85" y="30">W</text><line stroke="rgb(0%,0%,0%)" x1="88.1427" x2="83.8596" y1="20.3697" y2="37.6329" /><line stroke="rgb(0%,0%,0%)" x1="90.1784" x2="95.2648" y1="33.9959" y2="21.9846" /><line stroke="rgb(0%,0%,0%)" x1="97.1417" x2="88.1062" y1="24.8021" y2="32.8346" /><line stroke="rgb(0%,0%,0%)" x1="90.0329" x2="87.3677" y1="30.9543" y2="25.4577" /><line stroke="rgb(0%,0%,0%)" x1="85.6111" x2="85.1776" y1="31.2463" y2="31.5677" /><line stroke="rgb(0%,0%,0%)" x1="80.1449" x2="88.7814" y1="30.3121" y2="36.1643" /><line stroke="rgb(0%,0%,0%)" x1="98.564" x2="83.2301" y1="36.0615" y2="36.6394" /><line stroke="rgb(0%,0%,0%)" x1="88.2462" x2="97.0727" y1="22.0872" y2="30.8806" /><line stroke="rgb(0%,0%,0%)" x1="99.2094" x2="88.4868" y1="29.2775" y2="38.677" /><line stroke="rgb(0%,0%,0%)" x1="93.4197" x2="85.7256" y1="38.3565" y2="20.4894" /><line stroke="rgb(100%,50%,0%)" x1="81.1659" x2="94.1849" y1="22.2016" y2="23.8093" /><line stroke="rgb(100%,50%,0%)" x1="86.5082" x2="97.0154" y1="29.6573" y2="27.4288" /><line stroke="rgb(100%,50%,0%)" x1="89.6492" x2="92.0441" y1="23.0254" y2="34.3141" /><line stroke="rgb(100%,50%,0%)" x1="90.9414" x2="86.2392" y1="34.7204" y2="20.3382" /><line stroke="rgb(100%,50%,0%)" x1="97.6012" x2="83.4513" y1="27.9537" y2="24.4259" /><line stroke="rgb(100%,50%,0%)" x1="91.3559" x2="92.3373" y1="26.0451" y2="28.1542" /><line stroke="rgb(100%,50%,0%)" x1="88.2502" x2="96.8996" y1="34.0014" y2="20.0803" /><line stroke="rgb(100%,50%,0%)" x1="80.0019" x2="92.9597" y1="29.9248" y2="24.6967" /><line stroke="rgb(100%,50%,0%)" x1="95.9523" x2="93.255" y1="27.2934" y2="32.222" /><line stroke="rgb(100%,50%,0%)" x1="99.9078" x2="91.8751" y1="32.0617" y2="29.8913" /><text fill="red" font-size="20" transform="rotate(-17, 110, 30)" x="110" y="30">V</text><line stroke="rgb(0%,0%,0%)" x1="122.7908" x2="120.0083" y1="22.7035" y2="39.1437" /><line stroke="rgb(0%,0%,0%)" x1="123.2331" x2="118.9663" y1="31.3041" y2="32.3483" /><line stroke="rgb(0%,0%,0%)" x1="121.3995" x2="120.197" y1="25.1545" y2="39.9443" /><line stroke="rgb(0%,0%,0%)" x1="111.1307" x2="121.5803" y1="33.7458" y2="28.3501" /><line stroke="rgb(0%,0%,0%)" x1="106.3541" x2="115.6701" y1="38.3605" y2="32.5563" /><line stroke="rgb(0%,0%,0%)" x1="119.3989" x2="122.127" y1="32.0714" y2="36.4295" /><line stroke="rgb(0%,0%,0%)" x1="107.8327" x2="119.5218" y1="28.7975" y2="23.0692" /><line stroke="rgb(0%,0%,0%)" x1="117.3075" x2="123.7578" y1="24.1011" y2="34.8093" /><line stroke="rgb(0%,0%,0%)" x1="123.4864" x2="106.8471" y1="30.307" y2="33.6956" /><line stroke="rgb(0%,0%,0%)" x1="123.8995" x2="107.8236" y1="33.3354" y2="36.9258" /><line stroke="rgb(100%,50%,0%)" x1="111.0952" x2="112.0036" y1="21.8037" y2="26.5754" /><line stroke="rgb(100%,50%,0%)" x1="118.647" x2="121.3478" y1="36.6522" y2="40.0636" /><line stroke="rgb(100%,50%,0%)" x1="107.4391" x2="116.5526" y1="27.9613" y2="18.6942" /><line stroke="rgb(100%,50%,0%)" x1="123.242" x2="105.8108" y1="26.4458" y2="17.7458" /><line stroke="rgb(100%,50%,0%)" x1="123.9522" x2="108.537" y1="25.6332" y2="18.3596" /><line stroke="rgb(100%,50%,0%)" x1="105.7304" x2="112.2696" y1="20.9587" y2="34.2986" /><line stroke="rgb(100%,50%,0%)" x1="114.5079" x2="109.4092" y1="20.3114" y2="20.4309" /><line stroke="rgb(100%,50%,0%)" x1="121.5624" x2="118.5102" y1="37.1062" y2="34.6197" /><line stroke="rgb(100%,50%,0%)" x1="124.335" x2="120.5232" y1="24.7385" y2="24.4998" /><line stroke="rgb(100%,50%,0%)" x1="116.6573" x2="123.7751" y1="38.464" y2="17.2894" /></svg>