<?xml version="1.0" encoding="utf-8" ?>
<svg baseProfile="tiny" height="50" version="1.2" width="150" xmlns="http://www.w3.org/2000/svg" xmlns:ev="http://www.w3.org/2001/xml-events" xmlns:xlink="http://www.w3.org/1999/xlink"><defs /><text fill="red" font-size="20" transform="rotate(16, 10, 30)" x="10" y="30">1</text><line stroke="rgb(0%,0%,0%)" x1="22.7654" x2="14.5063" y1="36.1581" y2="39.1812" /><line stroke="rgb(0%,0%,0%)" x1="17.7301" x2="10.7797" y1="26.2483" y2="22.9751" /><line stroke="rgb(0%,0%,0%)" x1="9.1064" x2="13.6858" y1="39.2005" y2="23.4758" /><line stroke="rgb(0%,0%,0%)" x1="17.5044" x2="18.826" y1="37.9372" y2="39.6847" /><line stroke="rgb(0%,0%,0%)" x1="9.5195" x2="12.6676" y1="21.4231" y2="39.2206" /><line stroke="rgb(0%,0%,0%)" x1="17.8306" x2="17.8065" y1="20.223" y2="36.0707" /><line stroke="rgb(0%,0%,0%)" x1="9.6644" x2="24.8546" y1="27.7579" y2="38.044" /><line stroke="rgb(0%,0%,0%)" x1="24.1119" x2="11.4122" y1="30.2872" y2="33.5456" /><line stroke="rgb(0%,0%,0%)" x1="6.8433" x2="13.5594" y1="21.4641" y2="33.0933" /><line stroke="rgb(0%,0%,0%)" x1="21.6299" x2="22.6525" y1="33.8229" y2="27.1622" /><line stroke="rgb(100%,50%,0%)" x1="11.9617" x2="24.776" y1="24.5232" y2="15.9444" /><line stroke="rgb(100%,50%,0%)" x1="24.6999" x2="24.8834" y1="37.9526" y2="41.2619" /><line stroke="rgb(100%,50%,0%)" x1="17.3188" x2="24.2473" y1="22.7379" y2="44.4302" /><line stroke="rgb(100%,50%,0%)" x1="15.8612" x2="23.1221" y1="37.5868" y2="28.7206" /><line stroke="rgb(100%,50%,0%)" x1="24.2722" x2="6.2897" y1="28.8881" y2="23.2746" /><line stroke="rgb(100%,50%,0%)" x1="8.0111" x2="18.0289" y1="23.7237" y2="31.9593" /><line stroke="rgb(100%,50%,0%)" x1="24.6853" x2="5.2361" y1="29.3684" y2="22.8579" /><line stroke="rgb(100%,50%,0%)" x1="5.6336" x2="11.4951" y1="25.6878" y2="24.8126" /><line stroke="rgb(100%,50%,0%)" x1="7.6079" x2="19.9624" y1="38.6737" y2="41.5536" /><line stroke="rgb(100%,50%,0%)" x1="10.7912" x2="7.1729" y1="26.3519" y2="28.1104" /><text fill="red" font-size="20" transform="rotate(-24, 35, 30)" x="35" y="30">D</text><line stroke="rgb(0%,0%,0%)" x1="39.6181" x2="46.2277" y1="32.233" y2="26.7863" /><line stroke="rgb(0%,0%,0%)" x1="49.6393" x2="33.0603" y1="21.0883" y2="37.5458" /><line stroke="rgb(0%,0%,0%)" x1="32.7894" x2="43.0824" y1="27.9477" y2="39.3419" /><line stroke="rgb(0%,0%,0%)" x1="46.524" x2="30.2547" y1="35.4111" y2="21.1117" /><line stroke="rgb(0%,0%,0%)" x1="37.2302" x2="36.1228" y1="20.8376" y2="26.5867" /><line stroke="rgb(0%,0%,0%)" x1="30.8197" x2="31.2789" y1="31.0665" y2="33.7976" /><line stroke="rgb(0%,0%,0%)" x1="39.8446" x2="45.8696" y1="27.0763" y2="35.9289" /><line stroke="rgb(0%,0%,0%)" x1="45.3802" x2="39.1272" y1="37.6302" y2="34.372" /><line stroke="rgb(0%,0%,0%)" x1="45.8613" x2="43.0021" y1="37.4818" y2="20.7572" /><line stroke="rgb(0%,0%,0%)" x1="45.6385" x2="48.3327" y1="33.042" y2="30.3019" /><line stroke="rgb(100%,50%,0%)" x1="42.7628" x2="33.1717" y1="29.6046" y2="34.3115" /><line stroke="rgb(100%,50%,0%)" x1="47.6853" x2="32.7382" y1="27.4849" y2="25.5553" /><line stroke="rgb(100%,50%,0%)" x1="43.3495" x2="43.0911" y1="34.6453" y2="21.1659" /><line stroke="rgb(100%,50%,0%)" x1="33.46" x2="43.2017" y1="31.7672" y2="21.6825" /><line stroke="rgb(100%,50%,0%)" x1="32.7142" x2="37.8421" y1="23.5394" y2="43.0432" /><line stroke="rgb(100%,50%,0%)" x1="47.4278" x2="47.3336" y1="37.5679" y2="21.3633" /><line stroke="rgb(100%,50%,0%)" x1="38.3207" x2="43.0265" y1="24.4835" y2="18.2067" /><line stroke="rgb(100%,50%,0%)" x1="40.074" x2="33.6587" y1="27.1821" y2="22.1455" /><line stroke="rgb(100%,50%,0%)" x1="49.452" x2="37.9745" y1="29.1456" y2="38.5668" /><line stroke="rgb(100%,50%,0%)" x1="44.5941" x2="33.2699" y1="25.4173" y2="37.0215" /><text fill="red" font-size="20" transform="rotate(19, 60, 30)" x="60" y="30">M</text><line stroke="rgb(0%,0%,0%)" x1="67.316" x2="58.8048" y1="34.8463" y2="21.1913" /><line stroke="rgb(0%,0%,0%)" x1="72.3075" x2="71.5761" y1="39.5904" y2="22.6354" /><line stroke="rgb(0%,0%,0%)" x1="61.3465" x2="74.1745" y1="35.2121" y2="37.8814" /><line stroke="rgb(0%,0%,0%)" x1="69.8224" x2="71.0059" y1="20.1856" y2="22.1022" /><line stroke="rgb(0%,0%,0%)" x1="65.7414" x2="61.7375" y1="20.9158" y2="38.2312" /><line stroke="rgb(0%,0%,0%)" x1="60.4139" x2="60.4621" y1="20.4654" y2="25.7443" /><line stroke="rgb(0%,0%,0%)" x1="72.3709" x2="59.0498" y1="22.8334" y2="25.2522" /><line stroke="rgb(0%,0%,0%)" x1="67.4305" x2="56.654" y1="22.7867" y2="20.4653" /><line stroke="rgb(0%,0%,0%)" x1="59.2036" x2="60.3421" y1="39.1957" y2="20.7539" /><line stroke="rgb(0%,0%,0%)" x1="74.1766" x2="72.4955" y1="21.0234" y2="39.6931" /><line stroke="rgb(100%,50%,0%)" x1="67.0606" x2="55.6233" y1="34.045" y2="39.4898" /><line stroke="rgb(100%,50%,0%)" x1="70.7844" x2="74.9523" y1="22.288" y2="36.6967" /><line stroke="rgb(100%,50%,0%)" x1="73.8817" x2="55.2179" y1="35.9239" y2="29.6204" /><line stroke="rgb(100%,50%,0%)" x1="61.1714" x2="74.4838" y1="21.2122" y2="31.964" /><line stroke="rgb(100%,50%,0%)" x1="69.1286" x2="70.2119" y1="33.4611" y2="36.5362" /><line stroke="rgb(100%,50%,0%)" x1="63.7773" x2="74.8369" y1="25.6165" y2="24.7841" /><line stroke="rgb(100%,50%,0%)" x1="64.1938" x2="67.3656" y1="30.8392" y2="36.3108" /><line stroke="rgb(100%,50%,0%)" x1="55.3763" x2="62.8867" y1="33.3487" y2="33.07" /><line stroke="rgb(100%,50%,0%)" x1="68.6317" x2="64.8973" y1="35.2432" y2="26.0506" /><line stroke="rgb(100%,50%,0%)" x1="62.283" x2="69.5079" y1="35.3951" y2="42.9554" /><text fill="red" font-size="20" transform="rotate(-10, 85, 30)" x="85" y="30">M</text><line stroke="rgb(0%,0%,0%)" x1="86.9547" x2="90.2248" y1="35.0812" y2="35.0126" /><line stroke="rgb(0%,0%,0%)" x1="98.3576" x2="81.9472" y1="21.6853" y2="23.7412" /><line stroke="rgb(0%,0%,0%)" x1="84.9326" x2="97.2228" y1="27.4255" y2="28.8685" /><line stroke="rgb(0%,0%,0%)" x1="96.4153" x2="95.4934" y1="37.959" y2="20.5634" /><line stroke="rgb(0%,0%,0%)" x1="82.8459" x2="88.5862" y1="26.9786" y2="28.5755" /><line stroke="rgb(0%,0%,0%)" x1="97.3249" x2="93.9315" y1="22.0058" y2="31.4547" /><line stroke="rgb(0%,0%,0%)" x1="86.0435" x2="89.3752" y1="25.1004" y2="28.9469" /><line stroke="rgb(0%,0%,0%)" x1="97.7144" x2="91.1218" y1="38.6332" y2="36.2816" /><line stroke="rgb(0%,0%,0%)" x1="85.5255" x2="94.3739" y1="29.2111" y2="30.9726" /><line stroke="rgb(0%,0%,0%)" x1="88.1436" x2="81.4672" y1="35.6457" y2="37.7067" /><line stroke="rgb(100%,50%,0%)" x1="95.4734" x2="99.1812" y1="32.7672" y2="28.5787" /><line stroke="rgb(100%,50%,0%)" x1="94.4872" x2="80.3726" y1="24.9425" y2="33.4703" /><line stroke="rgb(100%,50%,0%)" x1="88.3817" x2="88.0558" y1="39.6955" y2="16.3101" /><line stroke="rgb(100%,50%,0%)" x1="97.5483" x2="92.0239" y1="24.7044" y2="25.5462" /><line stroke="rgb(100%,50%,0%)" x1="82.1239" x2="83.0529" y1="39.1828" y2="22.7455" /><line stroke="rgb(100%,50%,0%)" x1="80.5933" x2="91.714" y1="25.6759" y2="27.196" /><line stroke="rgb(100%,50%,0%)" x1="91.648" x2="93.5711" y1="25.7541" y2="34.9399" /><line stroke="rgb(100%,50%,0%)" x1="88.4885" x2="99.5332" y1="20.3071" y2="28.6405" /><line stroke="rgb(100%,50%,0%)" x1="92.009" x2="85.1638" y1="34.9681" y2="29.897" /><line stroke="rgb(100%,50%,0%)" x1="96.134" x2="83.655" y1="38.1877" y2="23.0825" /><text fill="red" font-size="20" transform="rotate(-9, 110, 30)" x="110" y="30">A</text><line stroke="rgb(0%,0%,0%)" x1="108.8646" x2="112.2425" y1="34.3985" y2="24.8406" /><line stroke="rgb(0%,0%,0%)" x1="115.2836" x2="118.9749" y1="34.6221" y2="22.1872" /><line stroke="rgb(0%,0%,0%)" x1="106.3794" x2="115.3866" y1="28.0818" y2="36.077" /><line stroke="rgb(0%,0%,0%)" x1="118.1634" x2="119.2163" y1="24.0649" y2="38.3025" /><line stroke="rgb(0%,0%,0%)" x1="120.502" x2="123.5807" y1="35.2714" y2="34.2209" /><line stroke="rgb(0%,0%,0%)" x1="108.7444" x2="118.5046" y1="36.6245" y2="25.8925" /><line stroke="rgb(0%,0%,0%)" x1="110.811" x2="121.7211" y1="28.7494" y2="27.5657" /><line stroke="rgb(0%,0%,0%)" x1="109.4444" x2="115.7875" y1="34.9121" y2="25.8541" /><line stroke="rgb(0%,0%,0%)" x1="115.8164" x2="112.4472" y1="29.3435" y2="28.5887" /><line stroke="rgb(0%,0%,0%)" x1="121.3267" x2="115.0219" y1="26.1135" y2="20.0594" /><line stroke="rgb(100%,50%,0%)" x1="110.4327" x2="111.5731" y1="22.1776" y2="26.4087" /><line stroke="rgb(100%,50%,0%)" x1="109.993" x2="109.6192" y1="38.7347" y2="23.2767" /><line stroke="rgb(100%,50%,0%)" x1="110.096" x2="121.6308" y1="36.1976" y2="38.2953" /><line stroke="rgb(100%,50%,0%)" x1="122.5781" x2="115.9664" y1="25.0187" y2="23.4053" /><line stroke="rgb(100%,50%,0%)" x1="110.2213" x2="109.0375" y1="31.5463" y2="35.1192" /><line stroke="rgb(100%,50%,0%)" x1="109.9288" x2="124.6544" y1="36.7132" y2="30.0246" /><line stroke="rgb(100%,50%,0%)" x1="121.1393" x2="120.4423" y1="38.5542" y2="33.7615" /><line stroke="rgb(100%,50%,0%)" x1="122.0372" x2="109.2472" y1="33.3133" y2="44.5888" /><line stroke="rgb(100%,50%,0%)" x1="111.7495" x2="119.9603" y1="30.888" y2="27.9033" /><line stroke="rgb(100%,50%,0%)" x1="105.8154" x2="110.4645" y1="30.3471" y2="16.94" /></svg>