<?xml version="1.0" encoding="utf-8" ?>
<svg baseProfile="tiny" height="50" version="1.2" width="150" xmlns="http://www.w3.org/2000/svg" xmlns:ev="http://www.w3.org/2001/xml-events" xmlns:xlink="http://www.w3.org/1999/xlink"><defs /><text fill="red" font-size="30" transform="rotate(22, 10, 30)" x="10" y="30">5</text><line stroke="rgb(0%,0%,0%)" x1="17.4766" x2="22.9468" y1="31.2127" y2="25.0435" /><line stroke="rgb(0%,0%,0%)" x1="12.9218" x2="11.6073" y1="28.3064" y2="22.4111" /><line stroke="rgb(0%,0%,0%)" x1="23.9979" x2="7.3938" y1="25.1982" y2="32.8326" /><line stroke="rgb(0%,0%,0%)" x1="5.3104" x2="9.1077" y1="31.0377" y2="29.3272" /><line stroke="rgb(0%,0%,0%)" x1="18.01" x2="13.9679" y1="21.9083" y2="23.0497" /><line stroke="rgb(0%,0%,0%)" x1="16.8745" x2="19.589" y1="29.4161" y2="34.5968" /><line stroke="rgb(0%,0%,0%)" x1="13.363" x2="8.4506" y1="22.6723" y2="34.2226" /><line stroke="rgb(0%,0%,0%)" x1="12.9921" x2="7.2244" y1="27.2321" y2="25.3956" /><line stroke="rgb(0%,0%,0%)" x1="12.3638" x2="20.5965" y1="34.1301" y2="21.7274" /><line stroke="rgb(0%,0%,0%)" x1="11.1908" x2="23.6904" y1="36.7834" y2="35.35" /><line stroke="rgb(100%,100%,0%)" x1="23.9379" x2="23.6505" y1="34.3192" y2="29.4533" /><line stroke="rgb(100%,100%,0%)" x1="17.4573" x2="22.8067" y1="36.8275" y2="15.7701" /><line stroke="rgb(100%,100%,0%)" x1="21.9976" x2="19.9466" y1="37.4146" y2="20.7615" /><line stroke="rgb(100%,100%,0%)" x1="21.143" x2="24.5755" y1="27.8307" y2="20.472" /><line stroke="rgb(100%,100%,0%)" x1="17.0424" x2="21.7103" y1="38.0717" y2="16.928" /><line stroke="rgb(100%,100%,0%)" x1="5.2667" x2="13.6989" y1="29.5596" y2="27.3445" /><line stroke="rgb(100%,100%,0%)" x1="18.8152" x2="7.367" y1="20.5102" y2="15.6052" /><line stroke="rgb(100%,100%,0%)" x1="11.6499" x2="5.0436" y1="29.8598" y2="30.6287" /><line stroke="rgb(100%,100%,0%)" x1="16.2554" x2="24.5127" y1="34.8033" y2="33.8237" /><line stroke="rgb(100%,100%,0%)" x1="15.3937" x2="9.4001" y1="39.1564" y2="38.5809" /><text fill="red" font-size="30" transform="rotate(26, 35, 30)" x="35" y="30">W</text><line stroke="rgb(0%,0%,0%)" x1="46.1655" x2="48.0075" y1="33.0544" y2="35.963" /><line stroke="rgb(0%,0%,0%)" x1="45.4514" x2="49.488" y1="34.5846" y2="36.4465" /><line stroke="rgb(0%,0%,0%)" x1="39.3738" x2="47.0951" y1="33.4389" y2="20.3831" /><line stroke="rgb(0%,0%,0%)" x1="37.1013" x2="31.4542" y1="24.0619" y2="35.0127" /><line stroke="rgb(0%,0%,0%)" x1="41.8336" x2="36.6164" y1="20.2098" y2="26.3496" /><line stroke="rgb(0%,0%,0%)" x1="37.7284" x2="49.4421" y1="31.1582" y2="31.4603" /><line stroke="rgb(0%,0%,0%)" x1="40.2092" x2="43.0238" y1="30.5366" y2="37.564" /><line stroke="rgb(0%,0%,0%)" x1="40.464" x2="33.3998" y1="34.507" y2="28.464" /><line stroke="rgb(0%,0%,0%)" x1="39.1978" x2="41.7889" y1="23.3809" y2="22.9797" /><line stroke="rgb(0%,0%,0%)" x1="35.7935" x2="40.6089" y1="29.652" y2="37.0722" /><line stroke="rgb(100%,100%,0%)" x1="42.149" x2="35.5127" y1="33.5255" y2="33.7015" /><line stroke="rgb(100%,100%,0%)" x1="39.8542" x2="48.5949" y1="34.5567" y2="26.6993" /><line stroke="rgb(100%,100%,0%)" x1="47.5626" x2="34.4653" y1="25.0304" y2="29.6671" /><line stroke="rgb(100%,100%,0%)" x1="31.6513" x2="34.5045" y1="23.357" y2="23.6855" /><line stroke="rgb(100%,100%,0%)" x1="42.8433" x2="44.1604" y1="20.8409" y2="39.8932" /><line stroke="rgb(100%,100%,0%)" x1="48.883" x2="44.1159" y1="38.1707" y2="21.28" /><line stroke="rgb(100%,100%,0%)" x1="31.265" x2="38.1013" y1="33.4518" y2="16.1168" /><line stroke="rgb(100%,100%,0%)" x1="31.3342" x2="30.7216" y1="31.1658" y2="42.2151" /><line stroke="rgb(100%,100%,0%)" x1="33.3912" x2="43.2277" y1="20.8256" y2="31.1446" /><line stroke="rgb(100%,100%,0%)" x1="31.6354" x2="47.0495" y1="32.3228" y2="39.2508" /><text fill="red" font-size="30" transform="rotate(15, 60, 30)" x="60" y="30">9</text><line stroke="rgb(0%,0%,0%)" x1="66.2333" x2="67.6626" y1="23.8581" y2="25.6822" /><line stroke="rgb(0%,0%,0%)" x1="62.4269" x2="61.6366" y1="33.8106" y2="21.9418" /><line stroke="rgb(0%,0%,0%)" x1="70.0216" x2="64.3024" y1="21.4034" y2="36.9329" /><line stroke="rgb(0%,0%,0%)" x1="68.4677" x2="59.6197" y1="20.4835" y2="39.0059" /><line stroke="rgb(0%,0%,0%)" x1="64.6638" x2="56.7599" y1="23.9791" y2="33.3328" /><line stroke="rgb(0%,0%,0%)" x1="60.7611" x2="65.6382" y1="24.0174" y2="22.3753" /><line stroke="rgb(0%,0%,0%)" x1="71.1633" x2="62.32" y1="37.978" y2="23.1838" /><line stroke="rgb(0%,0%,0%)" x1="68.2999" x2="66.71" y1="25.8143" y2="30.3696" /><line stroke="rgb(0%,0%,0%)" x1="56.1515" x2="55.2199" y1="27.5282" y2="39.8909" /><line stroke="rgb(0%,0%,0%)" x1="62.4899" x2="71.2" y1="33.1181" y2="29.0907" /><line stroke="rgb(100%,100%,0%)" x1="66.745" x2="64.1984" y1="21.8701" y2="19.3282" /><line stroke="rgb(100%,100%,0%)" x1="56.6666" x2="70.8441" y1="30.8442" y2="31.5412" /><line stroke="rgb(100%,100%,0%)" x1="69.6979" x2="71.4417" y1="38.4471" y2="37.0573" /><line stroke="rgb(100%,100%,0%)" x1="69.576" x2="71.8639" y1="33.1447" y2="41.8167" /><line stroke="rgb(100%,100%,0%)" x1="66.3988" x2="59.6764" y1="32.7238" y2="43.9863" /><line stroke="rgb(100%,100%,0%)" x1="57.1853" x2="58.7779" y1="38.093" y2="44.3177" /><line stroke="rgb(100%,100%,0%)" x1="72.4191" x2="69.2167" y1="32.3228" y2="18.7763" /><line stroke="rgb(100%,100%,0%)" x1="70.6152" x2="56.9962" y1="25.3358" y2="22.2261" /><line stroke="rgb(100%,100%,0%)" x1="69.6683" x2="67.9209" y1="31.9454" y2="34.8108" /><line stroke="rgb(100%,100%,0%)" x1="73.1962" x2="64.2043" y1="20.4319" y2="26.7887" /><text fill="red" font-size="30" transform="rotate(-14, 85, 30)" x="85" y="30">V</text><line stroke="rgb(0%,0%,0%)" x1="88.0949" x2="94.3852" y1="30.5409" y2="32.0006" /><line stroke="rgb(0%,0%,0%)" x1="91.5186" x2="85.4853" y1="38.2687" y2="29.1119" /><line stroke="rgb(0%,0%,0%)" x1="85.348" x2="92.6474" y1="27.2371" y2="35.2461" /><line stroke="rgb(0%,0%,0%)" x1="84.014" x2="80.9717" y1="33.2004" y2="22.9228" /><line stroke="rgb(0%,0%,0%)" x1="93.1167" x2="92.8851" y1="31.432" y2="25.1807" /><line stroke="rgb(0%,0%,0%)" x1="93.4343" x2="90.4193" y1="32.2517" y2="27.9892" /><line stroke="rgb(0%,0%,0%)" x1="88.9837" x2="92.1215" y1="30.3484" y2="38.6545" /><line stroke="rgb(0%,0%,0%)" x1="86.9638" x2="98.4117" y1="36.4903" y2="24.1209" /><line stroke="rgb(0%,0%,0%)" x1="93.8921" x2="85.1404" y1="20.2871" y2="31.168" /><line stroke="rgb(0%,0%,0%)" x1="86.9006" x2="86.8569" y1="36.0566" y2="33.5906" /><line stroke="rgb(100%,100%,0%)" x1="97.2659" x2="85.3764" y1="29.3749" y2="38.2926" /><line stroke="rgb(100%,100%,0%)" x1="89.8646" x2="80.5439" y1="26.3156" y2="36.0521" /><line stroke="rgb(100%,100%,0%)" x1="93.5784" x2="98.4545" y1="38.5152" y2="23.5386" /><line stroke="rgb(100%,100%,0%)" x1="94.2692" x2="83.207" y1="34.5853" y2="42.8052" /><line stroke="rgb(100%,100%,0%)" x1="92.8779" x2="94.7609" y1="33.1302" y2="40.5043" /><line stroke="rgb(100%,100%,0%)" x1="83.4064" x2="83.5574" y1="35.4445" y2="39.452" /><line stroke="rgb(100%,100%,0%)" x1="86.3266" x2="90.5277" y1="27.0582" y2="23.6256" /><line stroke="rgb(100%,100%,0%)" x1="90.7161" x2="85.7677" y1="27.7277" y2="35.385" /><line stroke="rgb(100%,100%,0%)" x1="89.902" x2="82.4886" y1="37.2585" y2="38.5891" /><line stroke="rgb(100%,100%,0%)" x1="87.1254" x2="86.3763" y1="25.868" y2="15.0383" /><text fill="red" font-size="30" transform="rotate(-22, 110, 30)" x="110" y="30">5</text><line stroke="rgb(0%,0%,0%)" x1="124.8955" x2="122.3598" y1="33.5018" y2="36.6177" /><line stroke="rgb(0%,0%,0%)" x1="121.2893" x2="113.4905" y1="34.5335" y2="32.109" /><line stroke="rgb(0%,0%,0%)" x1="113.658" x2="115.3991" y1="31.4716" y2="25.237" /><line stroke="rgb(0%,0%,0%)" x1="111.4589" x2="109.2549" y1="26.8602" y2="28.0156" /><line stroke="rgb(0%,0%,0%)" x1="121.1309" x2="110.8011" y1="22.1968" y2="32.5427" /><line stroke="rgb(0%,0%,0%)" x1="115.5222" x2="115.8716" y1="30.3954" y2="20.7511" /><line stroke="rgb(0%,0%,0%)" x1="120.556" x2="109.5009" y1="20.5728" y2="23.1429" /><line stroke="rgb(0%,0%,0%)" x1="111.9636" x2="114.4391" y1="35.3152" y2="24.0311" /><line stroke="rgb(0%,0%,0%)" x1="120.3923" x2="107.2123" y1="21.8234" y2="27.5027" /><line stroke="rgb(0%,0%,0%)" x1="109.4675" x2="113.5571" y1="26.4994" y2="33.6141" /><line stroke="rgb(100%,100%,0%)" x1="117.7992" x2="105.7526" y1="31.4434" y2="18.4755" /><line stroke="rgb(100%,100%,0%)" x1="115.4007" x2="110.958" y1="24.4268" y2="23.5261" /><line stroke="rgb(100%,100%,0%)" x1="117.1263" x2="106.0463" y1="37.3461" y2="34.1041" /><line stroke="rgb(100%,100%,0%)" x1="113.4608" x2="106.6783" y1="26.856" y2="21.1863" /><line stroke="rgb(100%,100%,0%)" x1="118.4327" x2="121.9946" y1="31.422" y2="19.4004" /><line stroke="rgb(100%,100%,0%)" x1="118.3832" x2="114.6378" y1="37.2505" y2="21.2597" /><line stroke="rgb(100%,100%,0%)" x1="106.5518" x2="107.7344" y1="29.1095" y2="35.3941" /><line stroke="rgb(100%,100%,0%)" x1="106.2519" x2="113.4934" y1="21.8043" y2="41.0214" /><line stroke="rgb(100%,100%,0%)" x1="121.3951" x2="108.4494" y1="39.2704" y2="40.9789" /><line stroke="rgb(100%,100%,0%)" x1="121.437" x2="117.8201" y1="28.9954" y2="21.6596" /></svg>