<?xml version="1.0" encoding="utf-8" ?>
<svg baseProfile="tiny" height="50" version="1.2" width="150" xmlns="http://www.w3.org/2000/svg" xmlns:ev="http://www.w3.org/2001/xml-events" xmlns:xlink="http://www.w3.org/1999/xlink"><defs /><text fill="red" font-size="30" transform="rotate(23, 10, 30)" x="10" y="30">V</text><line stroke="rgb(0%,0%,0%)" x1="22.5788" x2="14.3362" y1="26.7726" y2="31.7127" /><line stroke="rgb(0%,0%,0%)" x1="24.1495" x2="11.8735" y1="39.742" y2="23.6148" /><line stroke="rgb(0%,0%,0%)" x1="20.3639" x2="5.8793" y1="30.9639" y2="35.1054" /><line stroke="rgb(0%,0%,0%)" x1="16.6822" x2="15.5706" y1="20.4314" y2="31.9728" /><line stroke="rgb(0%,0%,0%)" x1="19.1002" x2="23.0273" y1="30.6591" y2="30.9858" /><line stroke="rgb(0%,0%,0%)" x1="11.2419" x2="11.8594" y1="37.2691" y2="26.1148" /><line stroke="rgb(0%,0%,0%)" x1="10.6521" x2="15.6399" y1="22.538" y2="22.9049" /><line stroke="rgb(0%,0%,0%)" x1="13.5177" x2="18.53" y1="26.637" y2="21.3966" /><line stroke="rgb(0%,0%,0%)" x1="22.3921" x2="15.8022" y1="21.5448" y2="30.1306" /><line stroke="rgb(0%,0%,0%)" x1="5.851" x2="23.9456" y1="25.234" y2="22.681" /><line stroke="rgb(100%,100%,0%)" x1="12.2989" x2="11.5571" y1="38.7481" y2="25.8476" /><line stroke="rgb(100%,100%,0%)" x1="5.2963" x2="13.9058" y1="31.5071" y2="33.1382" /><line stroke="rgb(100%,100%,0%)" x1="16.4759" x2="12.2199" y1="21.8164" y2="43.0076" /><line stroke="rgb(100%,100%,0%)" x1="21.0772" x2="10.9683" y1="34.7998" y2="15.028" /><line stroke="rgb(100%,100%,0%)" x1="10.1902" x2="17.7449" y1="35.1608" y2="28.3479" /><line stroke="rgb(100%,100%,0%)" x1="9.279" x2="11.928" y1="24.5411" y2="32.0338" /><line stroke="rgb(100%,100%,0%)" x1="19.9853" x2="17.5619" y1="28.185" y2="38.9074" /><line stroke="rgb(100%,100%,0%)" x1="18.3551" x2="11.1549" y1="23.2021" y2="35.1568" /><line stroke="rgb(100%,100%,0%)" x1="21.0058" x2="12.0984" y1="32.4404" y2="15.674" /><line stroke="rgb(100%,100%,0%)" x1="14.038" x2="18.2269" y1="23.5187" y2="19.4567" /><text fill="red" font-size="30" transform="rotate(-13, 35, 30)" x="35" y="30">3</text><line stroke="rgb(0%,0%,0%)" x1="37.0006" x2="48.7454" y1="22.5994" y2="35.1824" /><line stroke="rgb(0%,0%,0%)" x1="30.9672" x2="35.8062" y1="21.1666" y2="31.971" /><line stroke="rgb(0%,0%,0%)" x1="40.1734" x2="32.3113" y1="25.2823" y2="33.8492" /><line stroke="rgb(0%,0%,0%)" x1="40.7635" x2="46.3715" y1="24.2992" y2="31.4666" /><line stroke="rgb(0%,0%,0%)" x1="31.5736" x2="44.1036" y1="33.7937" y2="36.3205" /><line stroke="rgb(0%,0%,0%)" x1="39.413" x2="46.054" y1="39.4966" y2="39.7805" /><line stroke="rgb(0%,0%,0%)" x1="33.5093" x2="49.931" y1="31.2263" y2="20.2533" /><line stroke="rgb(0%,0%,0%)" x1="32.1982" x2="31.4548" y1="23.1556" y2="23.6658" /><line stroke="rgb(0%,0%,0%)" x1="49.2195" x2="47.2261" y1="34.1613" y2="35.7431" /><line stroke="rgb(0%,0%,0%)" x1="36.7522" x2="34.0395" y1="28.74" y2="28.3691" /><line stroke="rgb(100%,100%,0%)" x1="37.6778" x2="35.8168" y1="29.3712" y2="24.7625" /><line stroke="rgb(100%,100%,0%)" x1="35.718" x2="45.3503" y1="33.387" y2="40.6751" /><line stroke="rgb(100%,100%,0%)" x1="47.3331" x2="30.4844" y1="32.0369" y2="33.2634" /><line stroke="rgb(100%,100%,0%)" x1="37.8468" x2="32.091" y1="33.1699" y2="26.2368" /><line stroke="rgb(100%,100%,0%)" x1="46.0589" x2="45.5525" y1="27.1478" y2="17.9203" /><line stroke="rgb(100%,100%,0%)" x1="46.1061" x2="37.1357" y1="36.3054" y2="17.483" /><line stroke="rgb(100%,100%,0%)" x1="45.5056" x2="38.1896" y1="35.7781" y2="40.6759" /><line stroke="rgb(100%,100%,0%)" x1="30.9935" x2="33.9207" y1="31.8793" y2="19.7082" /><line stroke="rgb(100%,100%,0%)" x1="34.4686" x2="48.2155" y1="23.3532" y2="25.022" /><line stroke="rgb(100%,100%,0%)" x1="49.7702" x2="43.4063" y1="35.1484" y2="23.595" /><text fill="red" font-size="30" transform="rotate(-29, 60, 30)" x="60" y="30">H</text><line stroke="rgb(0%,0%,0%)" x1="64.5131" x2="64.3569" y1="31.1895" y2="22.7789" /><line stroke="rgb(0%,0%,0%)" x1="73.3154" x2="73.4862" y1="21.1591" y2="39.8222" /><line stroke="rgb(0%,0%,0%)" x1="71.266" x2="73.0422" y1="28.4585" y2="24.4259" /><line stroke="rgb(0%,0%,0%)" x1="58.5965" x2="64.6882" y1="29.1243" y2="24.5178" /><line stroke="rgb(0%,0%,0%)" x1="69.3248" x2="73.2896" y1="29.1667" y2="32.2587" /><line stroke="rgb(0%,0%,0%)" x1="71.4296" x2="72.5909" y1="21.7613" y2="27.458" /><line stroke="rgb(0%,0%,0%)" x1="71.0442" x2="58.5681" y1="29.4298" y2="31.5761" /><line stroke="rgb(0%,0%,0%)" x1="73.0408" x2="68.9468" y1="36.3878" y2="23.9534" /><line stroke="rgb(0%,0%,0%)" x1="60.6253" x2="66.6933" y1="22.9582" y2="31.7913" /><line stroke="rgb(0%,0%,0%)" x1="58.6281" x2="69.45" y1="23.9397" y2="24.1428" /><line stroke="rgb(100%,100%,0%)" x1="64.3718" x2="71.1561" y1="32.493" y2="15.1827" /><line stroke="rgb(100%,100%,0%)" x1="61.8898" x2="55.4701" y1="34.4085" y2="39.0794" /><line stroke="rgb(100%,100%,0%)" x1="71.1128" x2="58.1623" y1="39.0983" y2="33.3808" /><line stroke="rgb(100%,100%,0%)" x1="61.8914" x2="68.2847" y1="21.2989" y2="35.378" /><line stroke="rgb(100%,100%,0%)" x1="62.1218" x2="70.3469" y1="32.7864" y2="15.0493" /><line stroke="rgb(100%,100%,0%)" x1="58.5129" x2="66.124" y1="28.0783" y2="37.897" /><line stroke="rgb(100%,100%,0%)" x1="55.4445" x2="69.3277" y1="24.612" y2="42.7171" /><line stroke="rgb(100%,100%,0%)" x1="58.9238" x2="56.7615" y1="36.8766" y2="18.9074" /><line stroke="rgb(100%,100%,0%)" x1="74.43" x2="68.535" y1="25.1074" y2="44.8157" /><line stroke="rgb(100%,100%,0%)" x1="68.3554" x2="68.869" y1="34.2366" y2="24.2625" /><text fill="red" font-size="30" transform="rotate(18, 85, 30)" x="85" y="30">9</text><line stroke="rgb(0%,0%,0%)" x1="82.2544" x2="96.8104" y1="34.2948" y2="26.3939" /><line stroke="rgb(0%,0%,0%)" x1="84.8979" x2="93.5216" y1="39.3445" y2="30.4232" /><line stroke="rgb(0%,0%,0%)" x1="82.533" x2="85.8899" y1="23.1377" y2="36.7198" /><line stroke="rgb(0%,0%,0%)" x1="93.2619" x2="91.5878" y1="21.2703" y2="38.323" /><line stroke="rgb(0%,0%,0%)" x1="99.2926" x2="92.0504" y1="35.8927" y2="26.5289" /><line stroke="rgb(0%,0%,0%)" x1="83.4465" x2="95.3033" y1="32.6681" y2="22.1716" /><line stroke="rgb(0%,0%,0%)" x1="83.3295" x2="91.5818" y1="21.4138" y2="31.0931" /><line stroke="rgb(0%,0%,0%)" x1="85.8062" x2="96.3784" y1="25.7482" y2="25.5007" /><line stroke="rgb(0%,0%,0%)" x1="93.2941" x2="92.6402" y1="32.6853" y2="26.1851" /><line stroke="rgb(0%,0%,0%)" x1="83.7593" x2="98.8694" y1="28.1072" y2="20.5194" /><line stroke="rgb(100%,100%,0%)" x1="96.035" x2="87.1404" y1="29.9406" y2="15.4212" /><line stroke="rgb(100%,100%,0%)" x1="86.9928" x2="86.824" y1="23.2953" y2="27.7478" /><line stroke="rgb(100%,100%,0%)" x1="91.9347" x2="88.4572" y1="38.228" y2="20.7654" /><line stroke="rgb(100%,100%,0%)" x1="85.3811" x2="95.737" y1="28.1652" y2="31.4653" /><line stroke="rgb(100%,100%,0%)" x1="81.7997" x2="90.2702" y1="39.6211" y2="27.4196" /><line stroke="rgb(100%,100%,0%)" x1="97.6235" x2="91.9662" y1="36.3578" y2="37.1773" /><line stroke="rgb(100%,100%,0%)" x1="95.0621" x2="92.2985" y1="27.2782" y2="25.0009" /><line stroke="rgb(100%,100%,0%)" x1="83.0821" x2="93.4175" y1="39.0684" y2="33.4448" /><line stroke="rgb(100%,100%,0%)" x1="86.7731" x2="99.2449" y1="26.1914" y2="26.4933" /><line stroke="rgb(100%,100%,0%)" x1="86.1328" x2="85.7688" y1="29.3236" y2="36.1104" /><text fill="red" font-size="30" transform="rotate(-29, 110, 30)" x="110" y="30">4</text><line stroke="rgb(0%,0%,0%)" x1="118.7787" x2="117.5436" y1="25.3559" y2="35.0724" /><line stroke="rgb(0%,0%,0%)" x1="105.5115" x2="110.6334" y1="20.002" y2="23.2867" /><line stroke="rgb(0%,0%,0%)" x1="116.4887" x2="121.7146" y1="27.5283" y2="26.3657" /><line stroke="rgb(0%,0%,0%)" x1="118.5967" x2="117.5845" y1="22.0509" y2="35.2444" /><line stroke="rgb(0%,0%,0%)" x1="123.0104" x2="110.6695" y1="21.03" y2="33.2411" /><line stroke="rgb(0%,0%,0%)" x1="105.8718" x2="108.2411" y1="37.3123" y2="23.3294" /><line stroke="rgb(0%,0%,0%)" x1="121.8671" x2="107.8186" y1="31.3045" y2="37.6199" /><line stroke="rgb(0%,0%,0%)" x1="120.3497" x2="107.6587" y1="30.1969" y2="22.7001" /><line stroke="rgb(0%,0%,0%)" x1="108.8177" x2="116.376" y1="20.8053" y2="33.0932" /><line stroke="rgb(0%,0%,0%)" x1="106.0461" x2="106.9487" y1="35.5796" y2="30.1912" /><line stroke="rgb(100%,100%,0%)" x1="113.7144" x2="112.9097" y1="34.5583" y2="16.1869" /><line stroke="rgb(100%,100%,0%)" x1="123.4852" x2="122.9212" y1="39.7838" y2="26.1417" /><line stroke="rgb(100%,100%,0%)" x1="121.2628" x2="124.6321" y1="32.1305" y2="38.5119" /><line stroke="rgb(100%,100%,0%)" x1="111.4868" x2="112.6015" y1="31.7089" y2="41.1623" /><line stroke="rgb(100%,100%,0%)" x1="111.9257" x2="124.3592" y1="26.5673" y2="34.5926" /><line stroke="rgb(100%,100%,0%)" x1="109.2028" x2="122.0159" y1="33.052" y2="27.1373" /><line stroke="rgb(100%,100%,0%)" x1="112.7255" x2="123.8895" y1="24.8631" y2="32.624" /><line stroke="rgb(100%,100%,0%)" x1="118.28" x2="121.679" y1="26.2285" y2="25.0695" /><line stroke="rgb(100%,100%,0%)" x1="111.9429" x2="116.9798" y1="33.3478" y2="29.1051" /><line stroke="rgb(100%,100%,0%)" x1="123.349" x2="111.8458" y1="27.2876" y2="32.5125" /></svg>