<?xml version="1.0" encoding="utf-8" ?>
<svg baseProfile="tiny" height="50" version="1.2" width="150" xmlns="http://www.w3.org/2000/svg" xmlns:ev="http://www.w3.org/2001/xml-events" xmlns:xlink="http://www.w3.org/1999/xlink"><defs /><text fill="red" font-size="30" transform="rotate(-11, 10, 30)" x="10" y="30">S</text><line stroke="rgb(0%,0%,0%)" x1="19.0988" x2="17.7261" y1="31.8773" y2="21.0299" /><line stroke="rgb(0%,0%,0%)" x1="23.8058" x2="24.9713" y1="28.3895" y2="33.2307" /><line stroke="rgb(0%,0%,0%)" x1="24.0319" x2="22.8283" y1="27.6859" y2="31.0563" /><line stroke="rgb(0%,0%,0%)" x1="22.4582" x2="7.3712" y1="37.0297" y2="37.102" /><line stroke="rgb(0%,0%,0%)" x1="19.6089" x2="5.3308" y1="35.2658" y2="23.1963" /><line stroke="rgb(0%,0%,0%)" x1="21.026" x2="20.0202" y1="24.5719" y2="33.7384" /><line stroke="rgb(0%,0%,0%)" x1="12.3938" x2="14.188" y1="26.8758" y2="22.3799" /><line stroke="rgb(0%,0%,0%)" x1="21.5736" x2="8.98" y1="22.1181" y2="30.5101" /><line stroke="rgb(0%,0%,0%)" x1="10.5547" x2="12.317" y1="29.6109" y2="32.5212" /><line stroke="rgb(0%,0%,0%)" x1="11.3186" x2="10.6374" y1="26.1046" y2="36.308" /><line stroke="rgb(100%,100%,0%)" x1="20.4205" x2="18.6981" y1="26.2409" y2="21.4553" /><line stroke="rgb(100%,100%,0%)" x1="9.2599" x2="7.2264" y1="34.3039" y2="20.4264" /><line stroke="rgb(100%,100%,0%)" x1="20.2914" x2="15.1797" y1="35.0423" y2="44.2476" /><line stroke="rgb(100%,100%,0%)" x1="7.7566" x2="13.4648" y1="23.6011" y2="37.5792" /><line stroke="rgb(100%,100%,0%)" x1="7.3489" x2="7.3814" y1="38.9716" y2="43.6859" /><line stroke="rgb(100%,100%,0%)" x1="23.9831" x2="17.1915" y1="33.8884" y2="21.9137" /><line stroke="rgb(100%,100%,0%)" x1="24.4361" x2="7.8421" y1="30.906" y2="20.7622" /><line stroke="rgb(100%,100%,0%)" x1="19.3141" x2="9.578" y1="35.9204" y2="23.5205" /><line stroke="rgb(100%,100%,0%)" x1="24.8458" x2="24.679" y1="25.5967" y2="30.4755" /><line stroke="rgb(100%,100%,0%)" x1="15.782" x2="21.0756" y1="27.7551" y2="27.9603" /><text fill="red" font-size="30" transform="rotate(5, 35, 30)" x="35" y="30">5</text><line stroke="rgb(0%,0%,0%)" x1="36.0096" x2="32.0797" y1="30.319" y2="37.1135" /><line stroke="rgb(0%,0%,0%)" x1="41.2059" x2="36.9145" y1="25.1712" y2="35.1932" /><line stroke="rgb(0%,0%,0%)" x1="40.6021" x2="35.7027" y1="35.7573" y2="39.3093" /><line stroke="rgb(0%,0%,0%)" x1="48.3977" x2="31.1012" y1="20.463" y2="35.4738" /><line stroke="rgb(0%,0%,0%)" x1="44.975" x2="34.9358" y1="21.8757" y2="23.8219" /><line stroke="rgb(0%,0%,0%)" x1="44.4917" x2="43.6018" y1="35.6897" y2="27.5867" /><line stroke="rgb(0%,0%,0%)" x1="48.0253" x2="31.0566" y1="26.4718" y2="21.5711" /><line stroke="rgb(0%,0%,0%)" x1="44.4779" x2="36.5789" y1="31.8301" y2="35.9892" /><line stroke="rgb(0%,0%,0%)" x1="40.0749" x2="37.9562" y1="23.533" y2="35.3806" /><line stroke="rgb(0%,0%,0%)" x1="42.2829" x2="46.0359" y1="24.9809" y2="34.5922" /><line stroke="rgb(100%,100%,0%)" x1="41.2865" x2="30.1356" y1="33.1497" y2="18.4985" /><line stroke="rgb(100%,100%,0%)" x1="49.527" x2="47.8779" y1="22.3887" y2="40.6128" /><line stroke="rgb(100%,100%,0%)" x1="40.7705" x2="40.2111" y1="39.9669" y2="23.847" /><line stroke="rgb(100%,100%,0%)" x1="48.5286" x2="31.2354" y1="30.363" y2="16.2465" /><line stroke="rgb(100%,100%,0%)" x1="49.9013" x2="40.8387" y1="37.4132" y2="23.332" /><line stroke="rgb(100%,100%,0%)" x1="34.3114" x2="37.0593" y1="28.2735" y2="29.6137" /><line stroke="rgb(100%,100%,0%)" x1="34.045" x2="34.15" y1="23.0178" y2="36.9596" /><line stroke="rgb(100%,100%,0%)" x1="43.6454" x2="35.2842" y1="35.3006" y2="41.356" /><line stroke="rgb(100%,100%,0%)" x1="49.9601" x2="32.2038" y1="22.3827" y2="33.589" /><line stroke="rgb(100%,100%,0%)" x1="47.0885" x2="44.2889" y1="38.6062" y2="44.141" /><text fill="red" font-size="30" transform="rotate(16, 60, 30)" x="60" y="30">O</text><line stroke="rgb(0%,0%,0%)" x1="55.0314" x2="61.2698" y1="23.6523" y2="31.8377" /><line stroke="rgb(0%,0%,0%)" x1="65.2784" x2="68.1191" y1="23.4405" y2="31.4075" /><line stroke="rgb(0%,0%,0%)" x1="67.7896" x2="65.9704" y1="25.4088" y2="30.6161" /><line stroke="rgb(0%,0%,0%)" x1="57.0264" x2="68.7068" y1="24.543" y2="24.589" /><line stroke="rgb(0%,0%,0%)" x1="62.7814" x2="66.3607" y1="21.7793" y2="21.9763" /><line stroke="rgb(0%,0%,0%)" x1="58.3099" x2="62.4133" y1="33.3944" y2="20.2474" /><line stroke="rgb(0%,0%,0%)" x1="59.3263" x2="67.6959" y1="32.9547" y2="29.0108" /><line stroke="rgb(0%,0%,0%)" x1="59.7802" x2="59.5407" y1="38.8155" y2="38.5519" /><line stroke="rgb(0%,0%,0%)" x1="62.7683" x2="68.7247" y1="25.1288" y2="35.9519" /><line stroke="rgb(0%,0%,0%)" x1="68.1409" x2="74.3585" y1="24.3855" y2="24.5506" /><line stroke="rgb(100%,100%,0%)" x1="55.3148" x2="64.8638" y1="38.8471" y2="27.3928" /><line stroke="rgb(100%,100%,0%)" x1="55.3932" x2="63.2396" y1="34.2556" y2="23.8079" /><line stroke="rgb(100%,100%,0%)" x1="68.9187" x2="60.1749" y1="28.0459" y2="41.0761" /><line stroke="rgb(100%,100%,0%)" x1="62.4225" x2="57.483" y1="31.962" y2="30.5773" /><line stroke="rgb(100%,100%,0%)" x1="64.123" x2="59.143" y1="25.4837" y2="32.7418" /><line stroke="rgb(100%,100%,0%)" x1="71.3265" x2="60.5419" y1="21.1567" y2="19.1036" /><line stroke="rgb(100%,100%,0%)" x1="63.1648" x2="71.2984" y1="39.8038" y2="28.8883" /><line stroke="rgb(100%,100%,0%)" x1="70.1621" x2="61.0742" y1="34.458" y2="21.834" /><line stroke="rgb(100%,100%,0%)" x1="70.2481" x2="56.7926" y1="35.4348" y2="29.1824" /><line stroke="rgb(100%,100%,0%)" x1="63.7479" x2="64.9566" y1="33.3395" y2="44.9024" /><text fill="red" font-size="30" transform="rotate(-12, 85, 30)" x="85" y="30">N</text><line stroke="rgb(0%,0%,0%)" x1="94.2442" x2="86.3639" y1="27.8887" y2="37.5777" /><line stroke="rgb(0%,0%,0%)" x1="98.8471" x2="81.952" y1="28.1298" y2="34.9482" /><line stroke="rgb(0%,0%,0%)" x1="95.4268" x2="98.371" y1="20.9937" y2="29.6075" /><line stroke="rgb(0%,0%,0%)" x1="82.0435" x2="98.0831" y1="37.2853" y2="22.8018" /><line stroke="rgb(0%,0%,0%)" x1="99.6408" x2="83.1995" y1="28.045" y2="28.9363" /><line stroke="rgb(0%,0%,0%)" x1="97.8185" x2="94.0903" y1="38.6686" y2="36.7223" /><line stroke="rgb(0%,0%,0%)" x1="96.5068" x2="95.5829" y1="30.0677" y2="33.1972" /><line stroke="rgb(0%,0%,0%)" x1="80.9213" x2="84.653" y1="37.07" y2="28.3946" /><line stroke="rgb(0%,0%,0%)" x1="84.1596" x2="84.8455" y1="28.2268" y2="20.9326" /><line stroke="rgb(0%,0%,0%)" x1="88.4027" x2="99.361" y1="21.5668" y2="38.4435" /><line stroke="rgb(100%,100%,0%)" x1="88.5036" x2="94.2306" y1="39.1651" y2="39.872" /><line stroke="rgb(100%,100%,0%)" x1="90.1202" x2="85.3701" y1="34.5746" y2="35.6094" /><line stroke="rgb(100%,100%,0%)" x1="86.1792" x2="91.0659" y1="27.8664" y2="25.6432" /><line stroke="rgb(100%,100%,0%)" x1="80.365" x2="93.1442" y1="36.9228" y2="31.0558" /><line stroke="rgb(100%,100%,0%)" x1="84.7284" x2="91.4949" y1="21.2686" y2="37.1891" /><line stroke="rgb(100%,100%,0%)" x1="81.7851" x2="97.5897" y1="20.5695" y2="26.413" /><line stroke="rgb(100%,100%,0%)" x1="93.2641" x2="91.0994" y1="26.9647" y2="33.5336" /><line stroke="rgb(100%,100%,0%)" x1="89.9845" x2="90.5959" y1="34.1328" y2="22.8645" /><line stroke="rgb(100%,100%,0%)" x1="90.64" x2="84.9695" y1="36.5026" y2="23.82" /><line stroke="rgb(100%,100%,0%)" x1="83.197" x2="99.0368" y1="33.4653" y2="20.5846" /><text fill="red" font-size="30" transform="rotate(20, 110, 30)" x="110" y="30">M</text><line stroke="rgb(0%,0%,0%)" x1="113.0553" x2="109.6148" y1="26.3321" y2="35.4345" /><line stroke="rgb(0%,0%,0%)" x1="113.2349" x2="120.6162" y1="25.8029" y2="33.2275" /><line stroke="rgb(0%,0%,0%)" x1="117.7119" x2="111.4949" y1="23.4066" y2="25.4296" /><line stroke="rgb(0%,0%,0%)" x1="117.6249" x2="123.1097" y1="39.3266" y2="31.6992" /><line stroke="rgb(0%,0%,0%)" x1="109.9886" x2="119.7927" y1="31.7182" y2="30.9058" /><line stroke="rgb(0%,0%,0%)" x1="105.6663" x2="107.3341" y1="34.6746" y2="27.1645" /><line stroke="rgb(0%,0%,0%)" x1="107.9944" x2="112.8113" y1="23.8606" y2="35.6638" /><line stroke="rgb(0%,0%,0%)" x1="115.2356" x2="114.3217" y1="29.2888" y2="33.1063" /><line stroke="rgb(0%,0%,0%)" x1="113.4958" x2="109.3701" y1="30.2362" y2="29.7513" /><line stroke="rgb(0%,0%,0%)" x1="124.9819" x2="118.7048" y1="36.9644" y2="36.4805" /><line stroke="rgb(100%,100%,0%)" x1="109.2244" x2="111.469" y1="29.2967" y2="39.1155" /><line stroke="rgb(100%,100%,0%)" x1="110.5413" x2="112.547" y1="32.9353" y2="24.7631" /><line stroke="rgb(100%,100%,0%)" x1="121.2814" x2="124.6882" y1="26.6639" y2="25.4741" /><line stroke="rgb(100%,100%,0%)" x1="122.0945" x2="107.7078" y1="38.1419" y2="17.1132" /><line stroke="rgb(100%,100%,0%)" x1="110.2023" x2="120.9993" y1="22.7584" y2="31.9412" /><line stroke="rgb(100%,100%,0%)" x1="115.278" x2="122.7419" y1="31.4235" y2="24.7917" /><line stroke="rgb(100%,100%,0%)" x1="107.5709" x2="110.2618" y1="24.8913" y2="17.6805" /><line stroke="rgb(100%,100%,0%)" x1="111.5726" x2="110.4869" y1="30.8695" y2="19.2955" /><line stroke="rgb(100%,100%,0%)" x1="120.0395" x2="117.3559" y1="25.6696" y2="35.7645" /><line stroke="rgb(100%,100%,0%)" x1="105.5889" x2="118.4769" y1="27.4285" y2="34.4835" /></svg>