<?xml version="1.0" encoding="utf-8" ?>
<svg baseProfile="tiny" height="50" version="1.2" width="150" xmlns="http://www.w3.org/2000/svg" xmlns:ev="http://www.w3.org/2001/xml-events" xmlns:xlink="http://www.w3.org/1999/xlink"><defs /><text fill="red" font-size="20" transform="rotate(5, 10, 30)" x="10" y="30">O</text><line stroke="rgb(0%,0%,0%)" x1="24.3821" x2="12.4014" y1="37.4219" y2="29.6457" /><line stroke="rgb(0%,0%,0%)" x1="14.1815" x2="5.9" y1="23.7916" y2="34.4087" /><line stroke="rgb(0%,0%,0%)" x1="17.6931" x2="20.0537" y1="29.9373" y2="30.4419" /><line stroke="rgb(0%,0%,0%)" x1="15.184" x2="13.3547" y1="20.9957" y2="24.5588" /><line stroke="rgb(0%,0%,0%)" x1="8.2594" x2="23.5833" y1="32.4544" y2="31.4404" /><line stroke="rgb(0%,0%,0%)" x1="22.8681" x2="10.7973" y1="20.6731" y2="26.3197" /><line stroke="rgb(0%,0%,0%)" x1="7.1995" x2="18.5445" y1="35.7165" y2="35.8288" /><line stroke="rgb(0%,0%,0%)" x1="21.2567" x2="23.0945" y1="24.2324" y2="26.1777" /><line stroke="rgb(0%,0%,0%)" x1="12.2599" x2="24.3422" y1="22.3554" y2="33.4714" /><line stroke="rgb(0%,0%,0%)" x1="15.2266" x2="23.5153" y1="34.7808" y2="39.4292" /><line stroke="rgb(100%,50%,0%)" x1="20.6727" x2="6.3129" y1="30.5568" y2="37.834" /><line stroke="rgb(100%,50%,0%)" x1="22.8364" x2="20.6586" y1="23.0581" y2="35.817" /><line stroke="rgb(100%,50%,0%)" x1="5.3294" x2="23.0607" y1="39.9789" y2="44.0434" /><line stroke="rgb(100%,50%,0%)" x1="5.2297" x2="11.8172" y1="23.987" y2="17.3081" /><line stroke="rgb(100%,50%,0%)" x1="10.9001" x2="10.0126" y1="35.8551" y2="17.4025" /><line stroke="rgb(100%,50%,0%)" x1="18.273" x2="21.7053" y1="39.563" y2="41.6794" /><line stroke="rgb(100%,50%,0%)" x1="17.6445" x2="23.5808" y1="34.2197" y2="26.301" /><line stroke="rgb(100%,50%,0%)" x1="7.6029" x2="21.969" y1="30.663" y2="16.2859" /><line stroke="rgb(100%,50%,0%)" x1="7.0675" x2="17.5762" y1="36.3534" y2="31.2902" /><line stroke="rgb(100%,50%,0%)" x1="24.5585" x2="10.3625" y1="31.9737" y2="44.5128" /><text fill="red" font-size="20" transform="rotate(-12, 35, 30)" x="35" y="30">Z</text><line stroke="rgb(0%,0%,0%)" x1="37.2648" x2="46.0642" y1="39.9987" y2="38.2914" /><line stroke="rgb(0%,0%,0%)" x1="33.2782" x2="47.5373" y1="34.3515" y2="31.7096" /><line stroke="rgb(0%,0%,0%)" x1="45.1337" x2="45.3686" y1="39.8779" y2="29.9218" /><line stroke="rgb(0%,0%,0%)" x1="32.4644" x2="37.1727" y1="33.3054" y2="38.4569" /><line stroke="rgb(0%,0%,0%)" x1="32.8597" x2="40.1709" y1="38.5851" y2="25.1767" /><line stroke="rgb(0%,0%,0%)" x1="47.77" x2="44.4112" y1="33.8025" y2="31.0192" /><line stroke="rgb(0%,0%,0%)" x1="48.1519" x2="45.1961" y1="32.1045" y2="22.3454" /><line stroke="rgb(0%,0%,0%)" x1="30.9765" x2="48.2419" y1="29.1872" y2="26.8167" /><line stroke="rgb(0%,0%,0%)" x1="49.6785" x2="33.8605" y1="30.8732" y2="38.7486" /><line stroke="rgb(0%,0%,0%)" x1="45.1423" x2="42.2328" y1="27.7671" y2="22.3381" /><line stroke="rgb(100%,50%,0%)" x1="49.1659" x2="41.7756" y1="24.869" y2="16.3508" /><line stroke="rgb(100%,50%,0%)" x1="35.8271" x2="41.98" y1="24.9315" y2="29.6166" /><line stroke="rgb(100%,50%,0%)" x1="38.6876" x2="42.8658" y1="28.4486" y2="41.2999" /><line stroke="rgb(100%,50%,0%)" x1="36.5226" x2="34.6234" y1="24.6415" y2="27.7343" /><line stroke="rgb(100%,50%,0%)" x1="42.3995" x2="30.7227" y1="24.4369" y2="29.213" /><line stroke="rgb(100%,50%,0%)" x1="43.0313" x2="47.1741" y1="34.0145" y2="21.023" /><line stroke="rgb(100%,50%,0%)" x1="42.6953" x2="47.7469" y1="38.1046" y2="42.5097" /><line stroke="rgb(100%,50%,0%)" x1="39.3305" x2="33.1452" y1="32.9076" y2="34.149" /><line stroke="rgb(100%,50%,0%)" x1="48.863" x2="44.6497" y1="36.4071" y2="42.4396" /><line stroke="rgb(100%,50%,0%)" x1="44.9298" x2="49.1248" y1="24.8182" y2="39.5964" /><text fill="red" font-size="20" transform="rotate(-7, 60, 30)" x="60" y="30">E</text><line stroke="rgb(0%,0%,0%)" x1="72.512" x2="73.7575" y1="31.9406" y2="20.786" /><line stroke="rgb(0%,0%,0%)" x1="70.7698" x2="59.5304" y1="22.3925" y2="35.9422" /><line stroke="rgb(0%,0%,0%)" x1="69.9449" x2="60.3406" y1="39.3969" y2="21.1544" /><line stroke="rgb(0%,0%,0%)" x1="60.4247" x2="70.5853" y1="23.3158" y2="28.8018" /><line stroke="rgb(0%,0%,0%)" x1="57.6279" x2="57.0205" y1="36.5433" y2="27.7743" /><line stroke="rgb(0%,0%,0%)" x1="61.1206" x2="56.5384" y1="25.7387" y2="35.7876" /><line stroke="rgb(0%,0%,0%)" x1="58.9655" x2="68.7038" y1="24.2838" y2="22.1052" /><line stroke="rgb(0%,0%,0%)" x1="63.5529" x2="69.8525" y1="36.1553" y2="25.3211" /><line stroke="rgb(0%,0%,0%)" x1="58.7554" x2="66.5587" y1="38.7308" y2="29.9308" /><line stroke="rgb(0%,0%,0%)" x1="68.6452" x2="66.2686" y1="33.7887" y2="29.7124" /><line stroke="rgb(100%,50%,0%)" x1="72.2801" x2="64.386" y1="34.826" y2="29.8274" /><line stroke="rgb(100%,50%,0%)" x1="59.1197" x2="71.6028" y1="23.9316" y2="28.6218" /><line stroke="rgb(100%,50%,0%)" x1="56.9877" x2="64.6639" y1="34.3992" y2="42.1517" /><line stroke="rgb(100%,50%,0%)" x1="65.3619" x2="71.8695" y1="28.2746" y2="36.4701" /><line stroke="rgb(100%,50%,0%)" x1="63.6103" x2="59.3169" y1="33.9389" y2="21.8011" /><line stroke="rgb(100%,50%,0%)" x1="58.6121" x2="63.5341" y1="27.1981" y2="20.9394" /><line stroke="rgb(100%,50%,0%)" x1="67.8759" x2="68.5682" y1="25.7425" y2="36.4342" /><line stroke="rgb(100%,50%,0%)" x1="66.2333" x2="62.4215" y1="25.6942" y2="22.4489" /><line stroke="rgb(100%,50%,0%)" x1="72.9587" x2="59.2526" y1="20.3847" y2="37.0574" /><line stroke="rgb(100%,50%,0%)" x1="64.0116" x2="72.9535" y1="27.3664" y2="28.0823" /><text fill="red" font-size="20" transform="rotate(-27, 85, 30)" x="85" y="30">F</text><line stroke="rgb(0%,0%,0%)" x1="96.7799" x2="89.7662" y1="25.1807" y2="27.1553" /><line stroke="rgb(0%,0%,0%)" x1="84.7198" x2="98.5583" y1="34.399" y2="32.2326" /><line stroke="rgb(0%,0%,0%)" x1="85.1357" x2="81.2025" y1="30.0763" y2="29.1749" /><line stroke="rgb(0%,0%,0%)" x1="91.2332" x2="97.9567" y1="22.1241" y2="36.1658" /><line stroke="rgb(0%,0%,0%)" x1="83.4102" x2="85.7994" y1="35.2441" y2="22.8924" /><line stroke="rgb(0%,0%,0%)" x1="85.124" x2="82.0321" y1="34.1694" y2="31.7856" /><line stroke="rgb(0%,0%,0%)" x1="85.5704" x2="92.2543" y1="29.2712" y2="22.4626" /><line stroke="rgb(0%,0%,0%)" x1="94.57" x2="99.5862" y1="31.8479" y2="34.7953" /><line stroke="rgb(0%,0%,0%)" x1="82.3223" x2="88.5806" y1="37.2369" y2="22.5695" /><line stroke="rgb(0%,0%,0%)" x1="87.182" x2="98.3709" y1="27.7149" y2="27.8868" /><line stroke="rgb(100%,50%,0%)" x1="94.033" x2="89.6597" y1="38.559" y2="34.4571" /><line stroke="rgb(100%,50%,0%)" x1="97.2437" x2="94.9001" y1="36.6527" y2="28.6324" /><line stroke="rgb(100%,50%,0%)" x1="86.0848" x2="91.0557" y1="36.6421" y2="38.8527" /><line stroke="rgb(100%,50%,0%)" x1="86.8754" x2="83.3341" y1="35.3533" y2="17.2791" /><line stroke="rgb(100%,50%,0%)" x1="96.2883" x2="88.2084" y1="36.0128" y2="30.3084" /><line stroke="rgb(100%,50%,0%)" x1="82.068" x2="92.0014" y1="32.964" y2="38.5367" /><line stroke="rgb(100%,50%,0%)" x1="92.4676" x2="95.7603" y1="35.1441" y2="23.7353" /><line stroke="rgb(100%,50%,0%)" x1="86.6148" x2="84.7401" y1="29.1331" y2="39.4184" /><line stroke="rgb(100%,50%,0%)" x1="89.9431" x2="95.5447" y1="35.5164" y2="22.305" /><line stroke="rgb(100%,50%,0%)" x1="86.6157" x2="91.4686" y1="22.2013" y2="33.1161" /><text fill="red" font-size="20" transform="rotate(23, 110, 30)" x="110" y="30">4</text><line stroke="rgb(0%,0%,0%)" x1="108.0898" x2="110.2304" y1="23.7922" y2="29.2576" /><line stroke="rgb(0%,0%,0%)" x1="120.1558" x2="122.9932" y1="35.8018" y2="20.4997" /><line stroke="rgb(0%,0%,0%)" x1="108.3163" x2="108.8362" y1="25.0047" y2="23.2697" /><line stroke="rgb(0%,0%,0%)" x1="115.7555" x2="119.5873" y1="31.8944" y2="36.1037" /><line stroke="rgb(0%,0%,0%)" x1="111.6311" x2="113.8045" y1="36.2568" y2="38.5098" /><line stroke="rgb(0%,0%,0%)" x1="122.4221" x2="114.4846" y1="24.5601" y2="32.138" /><line stroke="rgb(0%,0%,0%)" x1="124.6649" x2="110.45" y1="32.4991" y2="29.9056" /><line stroke="rgb(0%,0%,0%)" x1="118.3728" x2="123.6246" y1="30.7604" y2="24.032" /><line stroke="rgb(0%,0%,0%)" x1="113.2846" x2="108.226" y1="28.1451" y2="38.1577" /><line stroke="rgb(0%,0%,0%)" x1="123.307" x2="117.6838" y1="27.56" y2="32.0636" /><line stroke="rgb(100%,50%,0%)" x1="115.3684" x2="113.1146" y1="20.0827" y2="37.7783" /><line stroke="rgb(100%,50%,0%)" x1="123.5278" x2="110.1411" y1="27.4249" y2="17.6679" /><line stroke="rgb(100%,50%,0%)" x1="119.1179" x2="107.8699" y1="37.4141" y2="23.838" /><line stroke="rgb(100%,50%,0%)" x1="108.3762" x2="124.2909" y1="37.0102" y2="32.4168" /><line stroke="rgb(100%,50%,0%)" x1="124.0727" x2="112.1207" y1="26.3701" y2="36.6839" /><line stroke="rgb(100%,50%,0%)" x1="110.8735" x2="105.683" y1="38.1415" y2="29.3224" /><line stroke="rgb(100%,50%,0%)" x1="110.3503" x2="118.6444" y1="38.3118" y2="32.3738" /><line stroke="rgb(100%,50%,0%)" x1="109.9478" x2="116.0052" y1="31.8835" y2="42.148" /><line stroke="rgb(100%,50%,0%)" x1="120.4456" x2="107.5967" y1="20.5522" y2="18.5821" /><line stroke="rgb(100%,50%,0%)" x1="117.6998" x2="114.3306" y1="21.3215" y2="40.0432" /></svg>