<?xml version="1.0" encoding="utf-8" ?>
<svg baseProfile="tiny" height="50" version="1.2" width="150" xmlns="http://www.w3.org/2000/svg" xmlns:ev="http://www.w3.org/2001/xml-events" xmlns:xlink="http://www.w3.org/1999/xlink"><defs /><text fill="red" font-size="30" transform="rotate(30, 10, 30)" x="10" y="30">Y</text><line stroke="rgb(0%,0%,0%)" x1="17.8803" x2="12.7787" y1="28.1428" y2="25.1295" /><line stroke="rgb(0%,0%,0%)" x1="10.1674" x2="24.1866" y1="27.5892" y2="35.4286" /><line stroke="rgb(0%,0%,0%)" x1="12.9695" x2="11.4862" y1="28.4491" y2="22.5959" /><line stroke="rgb(0%,0%,0%)" x1="12.1112" x2="15.8026" y1="33.3306" y2="23.6528" /><line stroke="rgb(0%,0%,0%)" x1="18.0018" x2="14.2604" y1="24.1118" y2="35.5553" /><line stroke="rgb(0%,0%,0%)" x1="10.0904" x2="13.1024" y1="35.5947" y2="29.7509" /><line stroke="rgb(0%,0%,0%)" x1="20.2078" x2="15.1606" y1="24.4951" y2="39.9928" /><line stroke="rgb(0%,0%,0%)" x1="19.4806" x2="13.0892" y1="22.2685" y2="32.8718" /><line stroke="rgb(0%,0%,0%)" x1="10.2808" x2="21.8678" y1="34.2601" y2="20.4333" /><line stroke="rgb(0%,0%,0%)" x1="14.6968" x2="14.1343" y1="27.7046" y2="23.7309" /><line stroke="rgb(100%,100%,0%)" x1="22.3992" x2="17.5145" y1="30.4534" y2="35.896" /><line stroke="rgb(100%,100%,0%)" x1="23.3546" x2="6.2316" y1="33.3806" y2="31.5182" /><line stroke="rgb(100%,100%,0%)" x1="6.58" x2="16.058" y1="21.5507" y2="39.3192" /><line stroke="rgb(100%,100%,0%)" x1="16.3696" x2="8.6696" y1="22.9705" y2="37.1204" /><line stroke="rgb(100%,100%,0%)" x1="21.5717" x2="22.8239" y1="27.9086" y2="33.0259" /><line stroke="rgb(100%,100%,0%)" x1="6.0682" x2="5.6992" y1="31.2298" y2="35.0983" /><line stroke="rgb(100%,100%,0%)" x1="5.4446" x2="14.4141" y1="38.9752" y2="15.1787" /><line stroke="rgb(100%,100%,0%)" x1="11.3226" x2="10.4947" y1="25.6478" y2="23.1222" /><line stroke="rgb(100%,100%,0%)" x1="8.0934" x2="21.354" y1="25.9862" y2="28.7506" /><line stroke="rgb(100%,100%,0%)" x1="12.7359" x2="23.4951" y1="23.0458" y2="42.4415" /><text fill="red" font-size="30" transform="rotate(27, 35, 30)" x="35" y="30">O</text><line stroke="rgb(0%,0%,0%)" x1="41.2613" x2="41.2355" y1="23.4903" y2="38.0119" /><line stroke="rgb(0%,0%,0%)" x1="43.4805" x2="34.7743" y1="37.8285" y2="20.9524" /><line stroke="rgb(0%,0%,0%)" x1="39.0301" x2="43.2213" y1="23.2645" y2="27.9637" /><line stroke="rgb(0%,0%,0%)" x1="37.1356" x2="36.1397" y1="22.1462" y2="38.4735" /><line stroke="rgb(0%,0%,0%)" x1="37.3375" x2="47.9555" y1="29.1737" y2="27.697" /><line stroke="rgb(0%,0%,0%)" x1="43.5259" x2="30.26" y1="28.9685" y2="23.1738" /><line stroke="rgb(0%,0%,0%)" x1="38.8229" x2="42.0928" y1="39.5572" y2="33.7356" /><line stroke="rgb(0%,0%,0%)" x1="30.5451" x2="47.3862" y1="39.9473" y2="29.6239" /><line stroke="rgb(0%,0%,0%)" x1="32.5499" x2="48.7776" y1="23.1837" y2="23.0885" /><line stroke="rgb(0%,0%,0%)" x1="43.913" x2="48.0262" y1="25.4537" y2="20.8346" /><line stroke="rgb(100%,100%,0%)" x1="30.3852" x2="46.84" y1="29.0888" y2="21.1137" /><line stroke="rgb(100%,100%,0%)" x1="37.6931" x2="37.0242" y1="36.1958" y2="31.1042" /><line stroke="rgb(100%,100%,0%)" x1="45.9312" x2="46.5511" y1="34.4013" y2="34.845" /><line stroke="rgb(100%,100%,0%)" x1="49.8052" x2="43.4903" y1="29.6041" y2="43.3224" /><line stroke="rgb(100%,100%,0%)" x1="34.5337" x2="45.0756" y1="29.5794" y2="21.7051" /><line stroke="rgb(100%,100%,0%)" x1="32.8891" x2="47.8195" y1="39.4956" y2="25.0332" /><line stroke="rgb(100%,100%,0%)" x1="42.7981" x2="34.8777" y1="22.3461" y2="38.6233" /><line stroke="rgb(100%,100%,0%)" x1="42.7289" x2="32.4758" y1="21.1928" y2="31.8746" /><line stroke="rgb(100%,100%,0%)" x1="45.8952" x2="39.7853" y1="39.2699" y2="28.9224" /><line stroke="rgb(100%,100%,0%)" x1="42.0452" x2="33.6939" y1="33.7544" y2="35.12" /><text fill="red" font-size="30" transform="rotate(-2, 60, 30)" x="60" y="30">8</text><line stroke="rgb(0%,0%,0%)" x1="69.08" x2="55.5253" y1="33.5588" y2="26.956" /><line stroke="rgb(0%,0%,0%)" x1="72.6129" x2="61.5702" y1="39.5403" y2="26.8977" /><line stroke="rgb(0%,0%,0%)" x1="71.7896" x2="66.8552" y1="33.9732" y2="37.0832" /><line stroke="rgb(0%,0%,0%)" x1="55.3673" x2="68.7509" y1="21.7877" y2="29.8656" /><line stroke="rgb(0%,0%,0%)" x1="60.9775" x2="67.2815" y1="33.5489" y2="39.2823" /><line stroke="rgb(0%,0%,0%)" x1="72.1474" x2="71.2928" y1="38.8274" y2="27.027" /><line stroke="rgb(0%,0%,0%)" x1="68.4152" x2="62.914" y1="32.8254" y2="39.675" /><line stroke="rgb(0%,0%,0%)" x1="64.1082" x2="64.1482" y1="20.9382" y2="39.1239" /><line stroke="rgb(0%,0%,0%)" x1="71.1503" x2="70.075" y1="32.3872" y2="24.4069" /><line stroke="rgb(0%,0%,0%)" x1="71.0509" x2="61.7134" y1="21.2444" y2="32.0827" /><line stroke="rgb(100%,100%,0%)" x1="72.0204" x2="57.7003" y1="38.6067" y2="16.7497" /><line stroke="rgb(100%,100%,0%)" x1="55.557" x2="68.7718" y1="22.9873" y2="33.6376" /><line stroke="rgb(100%,100%,0%)" x1="58.3771" x2="70.4563" y1="34.6736" y2="40.0664" /><line stroke="rgb(100%,100%,0%)" x1="62.6857" x2="64.344" y1="28.4614" y2="17.0232" /><line stroke="rgb(100%,100%,0%)" x1="61.2239" x2="71.8749" y1="27.6397" y2="23.804" /><line stroke="rgb(100%,100%,0%)" x1="68.2551" x2="61.5999" y1="21.8951" y2="15.1769" /><line stroke="rgb(100%,100%,0%)" x1="65.2497" x2="73.6155" y1="29.2151" y2="24.6896" /><line stroke="rgb(100%,100%,0%)" x1="57.5356" x2="62.6254" y1="25.5888" y2="21.7823" /><line stroke="rgb(100%,100%,0%)" x1="63.2395" x2="56.4633" y1="21.0078" y2="18.0034" /><line stroke="rgb(100%,100%,0%)" x1="55.7918" x2="64.7857" y1="36.5556" y2="19.1457" /><text fill="red" font-size="30" transform="rotate(-28, 85, 30)" x="85" y="30">I</text><line stroke="rgb(0%,0%,0%)" x1="94.2849" x2="80.9302" y1="29.1275" y2="29.7146" /><line stroke="rgb(0%,0%,0%)" x1="84.3363" x2="92.5761" y1="36.4347" y2="38.6105" /><line stroke="rgb(0%,0%,0%)" x1="97.3373" x2="81.3187" y1="31.885" y2="34.9232" /><line stroke="rgb(0%,0%,0%)" x1="82.6209" x2="82.2114" y1="37.848" y2="26.5682" /><line stroke="rgb(0%,0%,0%)" x1="96.7621" x2="88.365" y1="37.688" y2="36.2147" /><line stroke="rgb(0%,0%,0%)" x1="87.3174" x2="85.5106" y1="36.9681" y2="32.6713" /><line stroke="rgb(0%,0%,0%)" x1="82.0921" x2="97.8785" y1="33.4839" y2="20.5274" /><line stroke="rgb(0%,0%,0%)" x1="88.0997" x2="99.0401" y1="33.521" y2="27.3064" /><line stroke="rgb(0%,0%,0%)" x1="97.7744" x2="92.8559" y1="23.2049" y2="20.7525" /><line stroke="rgb(0%,0%,0%)" x1="87.1806" x2="88.3921" y1="23.4302" y2="22.7662" /><line stroke="rgb(100%,100%,0%)" x1="82.6634" x2="91.5517" y1="25.4551" y2="22.8461" /><line stroke="rgb(100%,100%,0%)" x1="90.6346" x2="95.1336" y1="34.5523" y2="27.1191" /><line stroke="rgb(100%,100%,0%)" x1="99.0428" x2="85.5992" y1="22.545" y2="22.8743" /><line stroke="rgb(100%,100%,0%)" x1="94.765" x2="99.2757" y1="24.8119" y2="41.2502" /><line stroke="rgb(100%,100%,0%)" x1="84.1662" x2="80.0859" y1="21.9612" y2="40.2541" /><line stroke="rgb(100%,100%,0%)" x1="98.4548" x2="97.463" y1="36.9061" y2="29.3869" /><line stroke="rgb(100%,100%,0%)" x1="89.4727" x2="90.5552" y1="37.7042" y2="19.9613" /><line stroke="rgb(100%,100%,0%)" x1="89.1333" x2="80.623" y1="32.7437" y2="16.5198" /><line stroke="rgb(100%,100%,0%)" x1="82.7212" x2="99.5576" y1="20.7903" y2="35.3275" /><line stroke="rgb(100%,100%,0%)" x1="84.8592" x2="84.0058" y1="30.5897" y2="21.7075" /><text fill="red" font-size="30" transform="rotate(13, 110, 30)" x="110" y="30">I</text><line stroke="rgb(0%,0%,0%)" x1="105.0446" x2="115.3777" y1="39.3554" y2="26.5451" /><line stroke="rgb(0%,0%,0%)" x1="124.8014" x2="117.9643" y1="26.3353" y2="22.9281" /><line stroke="rgb(0%,0%,0%)" x1="107.4576" x2="120.7489" y1="35.6758" y2="24.6977" /><line stroke="rgb(0%,0%,0%)" x1="111.7176" x2="120.9632" y1="32.8745" y2="21.1322" /><line stroke="rgb(0%,0%,0%)" x1="119.9761" x2="124.1383" y1="32.095" y2="30.7846" /><line stroke="rgb(0%,0%,0%)" x1="111.6557" x2="115.5835" y1="22.7785" y2="30.348" /><line stroke="rgb(0%,0%,0%)" x1="106.1457" x2="108.0524" y1="22.8267" y2="34.7955" /><line stroke="rgb(0%,0%,0%)" x1="123.4719" x2="116.8639" y1="35.5651" y2="30.7516" /><line stroke="rgb(0%,0%,0%)" x1="122.1794" x2="121.724" y1="27.3064" y2="28.291" /><line stroke="rgb(0%,0%,0%)" x1="118.5985" x2="108.0377" y1="34.6158" y2="28.3889" /><line stroke="rgb(100%,100%,0%)" x1="124.8653" x2="115.0664" y1="32.0236" y2="30.9227" /><line stroke="rgb(100%,100%,0%)" x1="111.4304" x2="120.8556" y1="24.7558" y2="30.4162" /><line stroke="rgb(100%,100%,0%)" x1="109.9358" x2="109.488" y1="37.1794" y2="20.4421" /><line stroke="rgb(100%,100%,0%)" x1="120.3837" x2="122.2328" y1="27.1444" y2="20.8876" /><line stroke="rgb(100%,100%,0%)" x1="107.2218" x2="121.2241" y1="36.0173" y2="44.6392" /><line stroke="rgb(100%,100%,0%)" x1="115.81" x2="118.7643" y1="21.3984" y2="20.3558" /><line stroke="rgb(100%,100%,0%)" x1="113.8894" x2="113.57" y1="28.637" y2="36.3127" /><line stroke="rgb(100%,100%,0%)" x1="105.3037" x2="107.8214" y1="22.7077" y2="43.8858" /><line stroke="rgb(100%,100%,0%)" x1="113.1435" x2="110.5755" y1="35.4146" y2="15.5115" /><line stroke="rgb(100%,100%,0%)" x1="121.0552" x2="119.462" y1="37.2173" y2="41.5256" /></svg>