<?xml version="1.0" encoding="utf-8" ?>
<svg baseProfile="tiny" height="50" version="1.2" width="150" xmlns="http://www.w3.org/2000/svg" xmlns:ev="http://www.w3.org/2001/xml-events" xmlns:xlink="http://www.w3.org/1999/xlink"><defs /><text fill="black" font-size="20" transform="rotate(5, 10, 30)" x="10" y="30">M</text><line stroke="rgb(0%,0%,0%)" x1="6.8316" x2="10.3537" y1="34.7505" y2="22.9409" /><line stroke="rgb(0%,0%,0%)" x1="10.2586" x2="14.4993" y1="38.2275" y2="22.9688" /><line stroke="rgb(0%,0%,0%)" x1="7.2134" x2="5.1611" y1="29.5677" y2="30.9022" /><line stroke="rgb(0%,0%,0%)" x1="21.5769" x2="16.4489" y1="39.8061" y2="25.7992" /><line stroke="rgb(0%,0%,0%)" x1="21.4737" x2="19.8251" y1="37.9436" y2="34.2513" /><line stroke="rgb(0%,0%,0%)" x1="17.5758" x2="22.1391" y1="27.802" y2="26.6106" /><line stroke="rgb(0%,0%,0%)" x1="7.012" x2="10.7433" y1="36.7061" y2="32.8096" /><line stroke="rgb(0%,0%,0%)" x1="14.8968" x2="7.1338" y1="30.3939" y2="25.7132" /><line stroke="rgb(0%,0%,0%)" x1="5.1436" x2="17.4039" y1="21.0051" y2="21.9571" /><line stroke="rgb(0%,0%,0%)" x1="20.267" x2="23.6778" y1="31.928" y2="26.8796" /><text fill="black" font-size="20" transform="rotate(-16, 35, 30)" x="35" y="30">J</text><line stroke="rgb(0%,0%,0%)" x1="33.1088" x2="40.9323" y1="31.5017" y2="24.2163" /><line stroke="rgb(0%,0%,0%)" x1="42.3251" x2="33.604" y1="30.5777" y2="26.5287" /><line stroke="rgb(0%,0%,0%)" x1="33.7803" x2="42.654" y1="29.2741" y2="32.2461" /><line stroke="rgb(0%,0%,0%)" x1="45.1532" x2="32.9135" y1="39.714" y2="22.6892" /><line stroke="rgb(0%,0%,0%)" x1="34.7152" x2="33.7147" y1="37.6275" y2="29.4214" /><line stroke="rgb(0%,0%,0%)" x1="48.5714" x2="38.0539" y1="26.1868" y2="23.616" /><line stroke="rgb(0%,0%,0%)" x1="49.3144" x2="45.2817" y1="20.7185" y2="28.0156" /><line stroke="rgb(0%,0%,0%)" x1="37.1785" x2="45.7824" y1="35.9128" y2="37.4146" /><line stroke="rgb(0%,0%,0%)" x1="35.7707" x2="45.8141" y1="30.2024" y2="29.2111" /><line stroke="rgb(0%,0%,0%)" x1="33.7622" x2="43.3166" y1="26.7605" y2="39.2926" /><text fill="black" font-size="20" transform="rotate(3, 60, 30)" x="60" y="30">C</text><line stroke="rgb(0%,0%,0%)" x1="59.1675" x2="67.7084" y1="39.9515" y2="25.5818" /><line stroke="rgb(0%,0%,0%)" x1="65.0206" x2="56.3782" y1="29.5212" y2="23.8595" /><line stroke="rgb(0%,0%,0%)" x1="58.5466" x2="68.7028" y1="30.1947" y2="29.4102" /><line stroke="rgb(0%,0%,0%)" x1="65.2233" x2="59.4324" y1="24.6958" y2="25.8647" /><line stroke="rgb(0%,0%,0%)" x1="57.849" x2="73.6031" y1="28.5393" y2="35.9359" /><line stroke="rgb(0%,0%,0%)" x1="63.7932" x2="63.4156" y1="35.0278" y2="32.6176" /><line stroke="rgb(0%,0%,0%)" x1="60.545" x2="66.5312" y1="20.8488" y2="23.7315" /><line stroke="rgb(0%,0%,0%)" x1="58.1804" x2="60.7604" y1="26.6833" y2="33.8449" /><line stroke="rgb(0%,0%,0%)" x1="63.9551" x2="66.4515" y1="27.5557" y2="33.7952" /><line stroke="rgb(0%,0%,0%)" x1="67.2555" x2="60.5827" y1="25.3425" y2="30.2567" /><text fill="black" font-size="20" transform="rotate(14, 85, 30)" x="85" y="30">H</text><line stroke="rgb(0%,0%,0%)" x1="90.233" x2="94.9549" y1="24.4104" y2="27.6952" /><line stroke="rgb(0%,0%,0%)" x1="84.0329" x2="93.8922" y1="34.1902" y2="27.442" /><line stroke="rgb(0%,0%,0%)" x1="98.8701" x2="86.3437" y1="21.9411" y2="22.4871" /><line stroke="rgb(0%,0%,0%)" x1="91.1022" x2="82.5657" y1="29.9258" y2="23.7346" /><line stroke="rgb(0%,0%,0%)" x1="92.8597" x2="98.8778" y1="28.7433" y2="21.265" /><line stroke="rgb(0%,0%,0%)" x1="84.8855" x2="98.0807" y1="29.8631" y2="29.5747" /><line stroke="rgb(0%,0%,0%)" x1="97.4146" x2="86.841" y1="25.1304" y2="28.8332" /><line stroke="rgb(0%,0%,0%)" x1="93.1257" x2="83.3419" y1="24.7476" y2="27.5558" /><line stroke="rgb(0%,0%,0%)" x1="92.201" x2="85.7518" y1="33.228" y2="31.2816" /><line stroke="rgb(0%,0%,0%)" x1="80.1381" x2="88.8201" y1="33.2451" y2="39.5503" /><text fill="black" font-size="20" transform="rotate(15, 110, 30)" x="110" y="30">Q</text><line stroke="rgb(0%,0%,0%)" x1="124.8527" x2="106.8411" y1="30.3804" y2="22.7007" /><line stroke="rgb(0%,0%,0%)" x1="115.7388" x2="112.877" y1="35.6617" y2="31.2866" /><line stroke="rgb(0%,0%,0%)" x1="117.8781" x2="107.8742" y1="29.5782" y2="35.2925" /><line stroke="rgb(0%,0%,0%)" x1="107.8412" x2="120.3946" y1="26.5092" y2="29.3967" /><line stroke="rgb(0%,0%,0%)" x1="119.2355" x2="118.6474" y1="36.8725" y2="36.6141" /><line stroke="rgb(0%,0%,0%)" x1="118.5891" x2="110.8369" y1="37.4427" y2="35.8661" /><line stroke="rgb(0%,0%,0%)" x1="112.0607" x2="122.9107" y1="23.2202" y2="23.0909" /><line stroke="rgb(0%,0%,0%)" x1="120.9351" x2="120.8894" y1="21.1933" y2="39.3235" /><line stroke="rgb(0%,0%,0%)" x1="117.3502" x2="122.9868" y1="26.0459" y2="36.9927" /><line stroke="rgb(0%,0%,0%)" x1="124.3083" x2="124.7653" y1="33.0723" y2="31.1571" /></svg>