<?xml version="1.0" encoding="utf-8" ?>
<svg baseProfile="tiny" height="50" version="1.2" width="150" xmlns="http://www.w3.org/2000/svg" xmlns:ev="http://www.w3.org/2001/xml-events" xmlns:xlink="http://www.w3.org/1999/xlink"><defs /><text fill="red" font-size="20" transform="rotate(8, 10, 30)" x="10" y="30">U</text><line stroke="rgb(0%,0%,0%)" x1="12.8019" x2="5.8274" y1="34.8955" y2="39.2697" /><line stroke="rgb(0%,0%,0%)" x1="11.6704" x2="24.115" y1="25.7818" y2="35.2539" /><line stroke="rgb(0%,0%,0%)" x1="23.3149" x2="23.1464" y1="37.062" y2="27.5729" /><line stroke="rgb(0%,0%,0%)" x1="11.2342" x2="11.036" y1="24.0983" y2="25.4536" /><line stroke="rgb(0%,0%,0%)" x1="9.3965" x2="17.8538" y1="28.8517" y2="28.6779" /><line stroke="rgb(0%,0%,0%)" x1="9.1624" x2="17.3565" y1="22.2335" y2="20.9573" /><line stroke="rgb(0%,0%,0%)" x1="8.9066" x2="18.2612" y1="35.8167" y2="28.6064" /><line stroke="rgb(0%,0%,0%)" x1="10.9326" x2="10.6324" y1="38.8222" y2="32.3409" /><line stroke="rgb(0%,0%,0%)" x1="17.9497" x2="17.9908" y1="30.6126" y2="35.2608" /><line stroke="rgb(0%,0%,0%)" x1="23.9658" x2="24.9205" y1="29.8444" y2="25.0772" /><line stroke="rgb(100%,50%,0%)" x1="16.0278" x2="13.1067" y1="27.4345" y2="18.2592" /><line stroke="rgb(100%,50%,0%)" x1="8.4078" x2="6.658" y1="30.2446" y2="28.8083" /><line stroke="rgb(100%,50%,0%)" x1="12.4393" x2="23.0259" y1="31.2375" y2="17.3249" /><line stroke="rgb(100%,50%,0%)" x1="20.9781" x2="12.2856" y1="27.6117" y2="17.2433" /><line stroke="rgb(100%,50%,0%)" x1="6.0691" x2="23.251" y1="22.5873" y2="29.5888" /><line stroke="rgb(100%,50%,0%)" x1="22.4786" x2="19.1819" y1="37.1561" y2="29.4084" /><line stroke="rgb(100%,50%,0%)" x1="16.3844" x2="12.0706" y1="25.4011" y2="42.6309" /><line stroke="rgb(100%,50%,0%)" x1="14.4278" x2="18.5818" y1="26.348" y2="33.6435" /><line stroke="rgb(100%,50%,0%)" x1="20.858" x2="24.7089" y1="31.2898" y2="26.3248" /><line stroke="rgb(100%,50%,0%)" x1="20.2326" x2="21.608" y1="20.0566" y2="43.481" /><text fill="red" font-size="20" transform="rotate(17, 35, 30)" x="35" y="30">0</text><line stroke="rgb(0%,0%,0%)" x1="40.0285" x2="39.1073" y1="28.32" y2="28.8388" /><line stroke="rgb(0%,0%,0%)" x1="48.3038" x2="49.192" y1="30.9376" y2="31.3612" /><line stroke="rgb(0%,0%,0%)" x1="45.9699" x2="40.5937" y1="39.5985" y2="36.7274" /><line stroke="rgb(0%,0%,0%)" x1="34.3781" x2="38.7718" y1="33.8106" y2="24.6018" /><line stroke="rgb(0%,0%,0%)" x1="46.0009" x2="32.3454" y1="26.721" y2="21.0246" /><line stroke="rgb(0%,0%,0%)" x1="42.1313" x2="43.3883" y1="21.0672" y2="21.106" /><line stroke="rgb(0%,0%,0%)" x1="38.6241" x2="30.8212" y1="35.9496" y2="34.4858" /><line stroke="rgb(0%,0%,0%)" x1="44.8402" x2="46.2317" y1="38.7327" y2="32.7646" /><line stroke="rgb(0%,0%,0%)" x1="45.7624" x2="30.0327" y1="26.4589" y2="28.9468" /><line stroke="rgb(0%,0%,0%)" x1="40.2717" x2="40.6132" y1="30.2026" y2="37.1186" /><line stroke="rgb(100%,50%,0%)" x1="47.3752" x2="34.1185" y1="32.2747" y2="37.3984" /><line stroke="rgb(100%,50%,0%)" x1="44.7193" x2="43.3497" y1="25.1101" y2="32.7775" /><line stroke="rgb(100%,50%,0%)" x1="47.434" x2="39.4244" y1="26.0969" y2="27.0187" /><line stroke="rgb(100%,50%,0%)" x1="42.6062" x2="46.9374" y1="21.5421" y2="20.5198" /><line stroke="rgb(100%,50%,0%)" x1="42.6708" x2="44.6337" y1="25.7549" y2="20.0602" /><line stroke="rgb(100%,50%,0%)" x1="46.7258" x2="35.7876" y1="34.1029" y2="21.7281" /><line stroke="rgb(100%,50%,0%)" x1="39.9763" x2="32.2931" y1="31.8333" y2="42.2495" /><line stroke="rgb(100%,50%,0%)" x1="35.5125" x2="30.0307" y1="25.6598" y2="23.882" /><line stroke="rgb(100%,50%,0%)" x1="44.1783" x2="46.6334" y1="32.252" y2="29.2728" /><line stroke="rgb(100%,50%,0%)" x1="36.8634" x2="39.4773" y1="30.6019" y2="42.7619" /><text fill="red" font-size="20" transform="rotate(19, 60, 30)" x="60" y="30">R</text><line stroke="rgb(0%,0%,0%)" x1="71.7205" x2="71.3398" y1="22.82" y2="22.9396" /><line stroke="rgb(0%,0%,0%)" x1="73.1858" x2="57.4199" y1="33.7405" y2="22.881" /><line stroke="rgb(0%,0%,0%)" x1="64.2978" x2="63.0146" y1="33.3349" y2="28.2207" /><line stroke="rgb(0%,0%,0%)" x1="67.9384" x2="56.7749" y1="25.3295" y2="22.6256" /><line stroke="rgb(0%,0%,0%)" x1="57.4427" x2="67.9994" y1="25.1352" y2="31.3244" /><line stroke="rgb(0%,0%,0%)" x1="74.6513" x2="59.6585" y1="31.5078" y2="37.0743" /><line stroke="rgb(0%,0%,0%)" x1="59.0615" x2="56.2433" y1="39.183" y2="29.2192" /><line stroke="rgb(0%,0%,0%)" x1="66.7059" x2="56.6998" y1="21.0323" y2="32.6881" /><line stroke="rgb(0%,0%,0%)" x1="56.4537" x2="63.1971" y1="34.4543" y2="23.0461" /><line stroke="rgb(0%,0%,0%)" x1="55.8654" x2="68.7976" y1="21.7606" y2="26.6599" /><line stroke="rgb(100%,50%,0%)" x1="60.787" x2="64.7202" y1="37.1145" y2="32.6981" /><line stroke="rgb(100%,50%,0%)" x1="55.4959" x2="74.0705" y1="20.9866" y2="38.9415" /><line stroke="rgb(100%,50%,0%)" x1="55.2881" x2="67.3603" y1="34.3082" y2="32.9776" /><line stroke="rgb(100%,50%,0%)" x1="56.3971" x2="70.6599" y1="31.095" y2="34.5996" /><line stroke="rgb(100%,50%,0%)" x1="61.583" x2="59.959" y1="34.5717" y2="40.0268" /><line stroke="rgb(100%,50%,0%)" x1="67.827" x2="67.4319" y1="29.1878" y2="22.7732" /><line stroke="rgb(100%,50%,0%)" x1="55.4509" x2="64.7236" y1="28.3207" y2="16.1233" /><line stroke="rgb(100%,50%,0%)" x1="70.5225" x2="61.6151" y1="39.5735" y2="23.5138" /><line stroke="rgb(100%,50%,0%)" x1="64.4143" x2="65.5968" y1="31.9169" y2="35.366" /><line stroke="rgb(100%,50%,0%)" x1="60.2778" x2="69.117" y1="35.9473" y2="37.849" /><text fill="red" font-size="20" transform="rotate(-17, 85, 30)" x="85" y="30">6</text><line stroke="rgb(0%,0%,0%)" x1="83.0176" x2="97.9605" y1="25.8317" y2="22.33" /><line stroke="rgb(0%,0%,0%)" x1="83.8041" x2="87.9707" y1="23.1649" y2="38.1995" /><line stroke="rgb(0%,0%,0%)" x1="91.4238" x2="97.35" y1="29.1458" y2="21.1148" /><line stroke="rgb(0%,0%,0%)" x1="98.4841" x2="82.6791" y1="34.5193" y2="20.0186" /><line stroke="rgb(0%,0%,0%)" x1="89.7347" x2="95.4123" y1="39.0747" y2="36.5698" /><line stroke="rgb(0%,0%,0%)" x1="89.4203" x2="92.9702" y1="33.1279" y2="39.9457" /><line stroke="rgb(0%,0%,0%)" x1="91.1529" x2="93.3346" y1="22.9838" y2="28.2597" /><line stroke="rgb(0%,0%,0%)" x1="87.5393" x2="87.3565" y1="25.0123" y2="36.2913" /><line stroke="rgb(0%,0%,0%)" x1="91.0837" x2="98.493" y1="39.8821" y2="27.8859" /><line stroke="rgb(0%,0%,0%)" x1="99.2652" x2="87.5376" y1="38.0043" y2="38.3575" /><line stroke="rgb(100%,50%,0%)" x1="93.7189" x2="97.1029" y1="38.8655" y2="37.9287" /><line stroke="rgb(100%,50%,0%)" x1="95.5587" x2="92.1441" y1="36.3667" y2="25.9784" /><line stroke="rgb(100%,50%,0%)" x1="98.9175" x2="87.7887" y1="35.2225" y2="18.0758" /><line stroke="rgb(100%,50%,0%)" x1="92.6714" x2="99.3035" y1="35.2156" y2="16.2768" /><line stroke="rgb(100%,50%,0%)" x1="81.3527" x2="86.6748" y1="22.7273" y2="20.2077" /><line stroke="rgb(100%,50%,0%)" x1="82.0765" x2="95.1004" y1="39.6691" y2="36.1943" /><line stroke="rgb(100%,50%,0%)" x1="85.4961" x2="99.2609" y1="29.0552" y2="24.6693" /><line stroke="rgb(100%,50%,0%)" x1="88.1662" x2="97.8871" y1="28.5363" y2="31.1858" /><line stroke="rgb(100%,50%,0%)" x1="97.633" x2="90.3583" y1="30.0075" y2="21.5461" /><line stroke="rgb(100%,50%,0%)" x1="92.2221" x2="87.3392" y1="38.2921" y2="20.7239" /><text fill="red" font-size="20" transform="rotate(29, 110, 30)" x="110" y="30">O</text><line stroke="rgb(0%,0%,0%)" x1="114.9981" x2="107.292" y1="38.3017" y2="22.3888" /><line stroke="rgb(0%,0%,0%)" x1="115.4915" x2="119.1993" y1="37.4903" y2="20.1766" /><line stroke="rgb(0%,0%,0%)" x1="108.9039" x2="105.828" y1="36.2654" y2="24.9471" /><line stroke="rgb(0%,0%,0%)" x1="114.5479" x2="115.1779" y1="23.4095" y2="30.2081" /><line stroke="rgb(0%,0%,0%)" x1="119.1004" x2="122.2487" y1="24.1233" y2="36.2708" /><line stroke="rgb(0%,0%,0%)" x1="114.8811" x2="112.7654" y1="31.4892" y2="30.0902" /><line stroke="rgb(0%,0%,0%)" x1="122.9667" x2="113.1641" y1="33.0725" y2="37.4424" /><line stroke="rgb(0%,0%,0%)" x1="118.9294" x2="113.1055" y1="37.401" y2="31.9236" /><line stroke="rgb(0%,0%,0%)" x1="109.6569" x2="108.4902" y1="23.9245" y2="36.7748" /><line stroke="rgb(0%,0%,0%)" x1="112.389" x2="117.2973" y1="27.5195" y2="28.2261" /><line stroke="rgb(100%,50%,0%)" x1="117.8635" x2="110.3512" y1="36.8099" y2="39.6552" /><line stroke="rgb(100%,50%,0%)" x1="119.8494" x2="117.9223" y1="35.1694" y2="16.6334" /><line stroke="rgb(100%,50%,0%)" x1="122.9729" x2="122.5585" y1="24.6515" y2="21.5487" /><line stroke="rgb(100%,50%,0%)" x1="114.6937" x2="109.1755" y1="26.915" y2="38.1017" /><line stroke="rgb(100%,50%,0%)" x1="123.4919" x2="123.5177" y1="31.8784" y2="24.4246" /><line stroke="rgb(100%,50%,0%)" x1="106.8117" x2="124.3061" y1="36.5759" y2="16.4918" /><line stroke="rgb(100%,50%,0%)" x1="121.8984" x2="107.2137" y1="23.5394" y2="40.2126" /><line stroke="rgb(100%,50%,0%)" x1="110.8228" x2="116.0678" y1="28.2745" y2="32.079" /><line stroke="rgb(100%,50%,0%)" x1="109.5572" x2="106.2514" y1="32.949" y2="25.8543" /><line stroke="rgb(100%,50%,0%)" x1="123.297" x2="115.4991" y1="34.4234" y2="33.8541" /></svg>