<?xml version="1.0" encoding="utf-8" ?>
<svg baseProfile="tiny" height="50" version="1.2" width="150" xmlns="http://www.w3.org/2000/svg" xmlns:ev="http://www.w3.org/2001/xml-events" xmlns:xlink="http://www.w3.org/1999/xlink"><defs /><text fill="red" font-size="20" transform="rotate(-19, 10, 30)" x="10" y="30">X</text><line stroke="rgb(0%,0%,0%)" x1="14.2898" x2="14.9285" y1="22.0591" y2="35.3239" /><line stroke="rgb(0%,0%,0%)" x1="20.8014" x2="13.5452" y1="38.6601" y2="33.1432" /><line stroke="rgb(0%,0%,0%)" x1="17.0246" x2="16.9482" y1="32.095" y2="37.6659" /><line stroke="rgb(0%,0%,0%)" x1="21.4886" x2="8.0259" y1="38.6549" y2="28.8" /><line stroke="rgb(0%,0%,0%)" x1="13.1256" x2="16.1009" y1="29.5869" y2="24.6586" /><line stroke="rgb(0%,0%,0%)" x1="21.6845" x2="14.958" y1="25.4796" y2="20.1951" /><line stroke="rgb(0%,0%,0%)" x1="17.5139" x2="15.5425" y1="26.3126" y2="30.0764" /><line stroke="rgb(0%,0%,0%)" x1="9.8367" x2="12.6847" y1="27.3522" y2="32.8121" /><line stroke="rgb(0%,0%,0%)" x1="7.3879" x2="22.3855" y1="29.4511" y2="31.0328" /><line stroke="rgb(0%,0%,0%)" x1="14.3355" x2="6.0654" y1="39.7741" y2="27.1005" /><line stroke="rgb(100%,50%,0%)" x1="6.858" x2="6.6773" y1="20.345" y2="35.5853" /><line stroke="rgb(100%,50%,0%)" x1="12.0577" x2="10.2718" y1="21.9964" y2="20.4075" /><line stroke="rgb(100%,50%,0%)" x1="24.6776" x2="18.1049" y1="27.1061" y2="34.6178" /><line stroke="rgb(100%,50%,0%)" x1="9.7278" x2="8.2931" y1="36.9192" y2="17.9308" /><line stroke="rgb(100%,50%,0%)" x1="18.6338" x2="13.8725" y1="25.6126" y2="29.8127" /><line stroke="rgb(100%,50%,0%)" x1="19.4296" x2="11.7139" y1="23.3743" y2="41.5571" /><line stroke="rgb(100%,50%,0%)" x1="22.703" x2="9.0497" y1="20.7994" y2="42.2611" /><line stroke="rgb(100%,50%,0%)" x1="24.7974" x2="17.6549" y1="24.4785" y2="17.7169" /><line stroke="rgb(100%,50%,0%)" x1="18.306" x2="15.3633" y1="33.0186" y2="44.3427" /><line stroke="rgb(100%,50%,0%)" x1="19.1853" x2="11.5365" y1="34.9125" y2="20.9811" /><text fill="red" font-size="20" transform="rotate(-20, 35, 30)" x="35" y="30">9</text><line stroke="rgb(0%,0%,0%)" x1="34.9341" x2="49.5871" y1="37.9665" y2="35.8825" /><line stroke="rgb(0%,0%,0%)" x1="37.2495" x2="39.6118" y1="30.6109" y2="39.7717" /><line stroke="rgb(0%,0%,0%)" x1="39.2042" x2="49.7616" y1="26.7732" y2="33.2544" /><line stroke="rgb(0%,0%,0%)" x1="32.2358" x2="39.2863" y1="34.308" y2="38.2859" /><line stroke="rgb(0%,0%,0%)" x1="46.6705" x2="44.2551" y1="37.1123" y2="29.1652" /><line stroke="rgb(0%,0%,0%)" x1="46.4244" x2="36.7352" y1="36.8581" y2="29.152" /><line stroke="rgb(0%,0%,0%)" x1="37.7023" x2="30.5622" y1="27.8926" y2="36.2307" /><line stroke="rgb(0%,0%,0%)" x1="36.9554" x2="37.7383" y1="38.5588" y2="39.4509" /><line stroke="rgb(0%,0%,0%)" x1="33.6116" x2="34.7198" y1="31.3487" y2="33.9188" /><line stroke="rgb(0%,0%,0%)" x1="34.3996" x2="39.0748" y1="33.0759" y2="24.4188" /><line stroke="rgb(100%,50%,0%)" x1="46.072" x2="48.351" y1="35.2265" y2="33.7507" /><line stroke="rgb(100%,50%,0%)" x1="33.9719" x2="39.4764" y1="21.4881" y2="36.0749" /><line stroke="rgb(100%,50%,0%)" x1="47.7462" x2="38.1123" y1="34.1646" y2="36.6917" /><line stroke="rgb(100%,50%,0%)" x1="47.3242" x2="33.0992" y1="31.37" y2="17.6392" /><line stroke="rgb(100%,50%,0%)" x1="48.2496" x2="36.9166" y1="26.5683" y2="36.3684" /><line stroke="rgb(100%,50%,0%)" x1="30.7107" x2="41.9029" y1="24.9656" y2="21.0887" /><line stroke="rgb(100%,50%,0%)" x1="43.3212" x2="40.7027" y1="34.0597" y2="35.46" /><line stroke="rgb(100%,50%,0%)" x1="33.115" x2="45.3179" y1="20.9879" y2="39.478" /><line stroke="rgb(100%,50%,0%)" x1="40.0156" x2="43.6901" y1="24.9715" y2="31.5238" /><line stroke="rgb(100%,50%,0%)" x1="49.1564" x2="33.7872" y1="31.4672" y2="27.1046" /><text fill="red" font-size="20" transform="rotate(-6, 60, 30)" x="60" y="30">A</text><line stroke="rgb(0%,0%,0%)" x1="70.6939" x2="72.9688" y1="29.0518" y2="35.9283" /><line stroke="rgb(0%,0%,0%)" x1="60.9624" x2="66.6322" y1="33.4258" y2="37.9631" /><line stroke="rgb(0%,0%,0%)" x1="74.8702" x2="64.4339" y1="37.7042" y2="28.2973" /><line stroke="rgb(0%,0%,0%)" x1="59.8561" x2="74.35" y1="37.4606" y2="31.7956" /><line stroke="rgb(0%,0%,0%)" x1="62.8853" x2="64.9401" y1="38.0398" y2="23.5412" /><line stroke="rgb(0%,0%,0%)" x1="63.3119" x2="58.0769" y1="21.9507" y2="30.7594" /><line stroke="rgb(0%,0%,0%)" x1="58.512" x2="56.4916" y1="37.1491" y2="33.9959" /><line stroke="rgb(0%,0%,0%)" x1="61.8798" x2="62.242" y1="21.6584" y2="35.2672" /><line stroke="rgb(0%,0%,0%)" x1="65.4289" x2="69.5377" y1="29.4847" y2="25.2731" /><line stroke="rgb(0%,0%,0%)" x1="67.0022" x2="64.5979" y1="32.9137" y2="28.2283" /><line stroke="rgb(100%,50%,0%)" x1="68.0978" x2="61.2717" y1="24.8307" y2="26.8912" /><line stroke="rgb(100%,50%,0%)" x1="68.8594" x2="56.4851" y1="25.7081" y2="36.3111" /><line stroke="rgb(100%,50%,0%)" x1="62.1448" x2="61.6778" y1="35.1936" y2="42.1588" /><line stroke="rgb(100%,50%,0%)" x1="65.8021" x2="70.7745" y1="21.8542" y2="36.142" /><line stroke="rgb(100%,50%,0%)" x1="72.3685" x2="66.3023" y1="36.4733" y2="20.0406" /><line stroke="rgb(100%,50%,0%)" x1="58.9018" x2="63.9044" y1="37.2922" y2="40.4221" /><line stroke="rgb(100%,50%,0%)" x1="74.4797" x2="59.5765" y1="36.7892" y2="30.4856" /><line stroke="rgb(100%,50%,0%)" x1="58.8713" x2="57.7307" y1="28.0649" y2="35.9355" /><line stroke="rgb(100%,50%,0%)" x1="63.8015" x2="57.7271" y1="36.8739" y2="20.0742" /><line stroke="rgb(100%,50%,0%)" x1="63.9093" x2="61.4012" y1="26.8621" y2="20.4921" /><text fill="red" font-size="20" transform="rotate(0, 85, 30)" x="85" y="30">X</text><line stroke="rgb(0%,0%,0%)" x1="97.0602" x2="83.7443" y1="38.7286" y2="26.8198" /><line stroke="rgb(0%,0%,0%)" x1="86.0939" x2="96.5567" y1="25.5696" y2="33.4682" /><line stroke="rgb(0%,0%,0%)" x1="80.2979" x2="88.7918" y1="25.1883" y2="35.9884" /><line stroke="rgb(0%,0%,0%)" x1="94.1868" x2="95.2248" y1="26.2792" y2="28.6703" /><line stroke="rgb(0%,0%,0%)" x1="80.2482" x2="94.1663" y1="20.7388" y2="39.4322" /><line stroke="rgb(0%,0%,0%)" x1="95.0674" x2="86.3727" y1="35.3281" y2="37.172" /><line stroke="rgb(0%,0%,0%)" x1="91.8379" x2="97.7541" y1="25.7718" y2="29.4225" /><line stroke="rgb(0%,0%,0%)" x1="83.321" x2="84.6423" y1="29.9864" y2="35.8302" /><line stroke="rgb(0%,0%,0%)" x1="94.9829" x2="89.0535" y1="32.3897" y2="29.2897" /><line stroke="rgb(0%,0%,0%)" x1="91.7065" x2="95.8276" y1="36.1801" y2="23.9713" /><line stroke="rgb(100%,50%,0%)" x1="91.2072" x2="84.74" y1="24.2196" y2="35.5936" /><line stroke="rgb(100%,50%,0%)" x1="81.1726" x2="95.5107" y1="39.6989" y2="19.9743" /><line stroke="rgb(100%,50%,0%)" x1="89.658" x2="85.894" y1="21.5135" y2="25.6054" /><line stroke="rgb(100%,50%,0%)" x1="90.9942" x2="84.732" y1="35.2261" y2="26.1573" /><line stroke="rgb(100%,50%,0%)" x1="85.2206" x2="96.6671" y1="24.5662" y2="28.0596" /><line stroke="rgb(100%,50%,0%)" x1="99.3738" x2="88.4572" y1="23.7468" y2="26.0077" /><line stroke="rgb(100%,50%,0%)" x1="87.0619" x2="91.9363" y1="35.9576" y2="30.4324" /><line stroke="rgb(100%,50%,0%)" x1="82.4173" x2="84.2923" y1="31.6476" y2="39.8674" /><line stroke="rgb(100%,50%,0%)" x1="84.9624" x2="98.4608" y1="37.2919" y2="23.138" /><line stroke="rgb(100%,50%,0%)" x1="82.9245" x2="98.2328" y1="34.9662" y2="43.4748" /><text fill="red" font-size="20" transform="rotate(3, 110, 30)" x="110" y="30">C</text><line stroke="rgb(0%,0%,0%)" x1="116.5296" x2="105.4966" y1="25.3041" y2="27.3172" /><line stroke="rgb(0%,0%,0%)" x1="124.7164" x2="116.3805" y1="33.1381" y2="28.2014" /><line stroke="rgb(0%,0%,0%)" x1="108.3606" x2="112.2618" y1="27.0364" y2="21.3817" /><line stroke="rgb(0%,0%,0%)" x1="123.6406" x2="105.758" y1="24.5637" y2="35.4414" /><line stroke="rgb(0%,0%,0%)" x1="114.7993" x2="112.0718" y1="26.0884" y2="29.5676" /><line stroke="rgb(0%,0%,0%)" x1="118.3743" x2="110.8795" y1="26.6842" y2="36.466" /><line stroke="rgb(0%,0%,0%)" x1="115.6949" x2="110.1278" y1="26.0699" y2="32.7236" /><line stroke="rgb(0%,0%,0%)" x1="118.0809" x2="118.5844" y1="24.3003" y2="38.1967" /><line stroke="rgb(0%,0%,0%)" x1="108.6797" x2="107.0818" y1="34.6763" y2="26.1626" /><line stroke="rgb(0%,0%,0%)" x1="120.4019" x2="118.9776" y1="28.7586" y2="34.6712" /><line stroke="rgb(100%,50%,0%)" x1="105.6486" x2="122.328" y1="22.6082" y2="44.5976" /><line stroke="rgb(100%,50%,0%)" x1="124.3794" x2="111.9368" y1="20.6801" y2="15.5825" /><line stroke="rgb(100%,50%,0%)" x1="119.7494" x2="124.8568" y1="37.1558" y2="38.0068" /><line stroke="rgb(100%,50%,0%)" x1="112.7167" x2="118.9044" y1="24.4249" y2="23.1788" /><line stroke="rgb(100%,50%,0%)" x1="116.8032" x2="115.7566" y1="36.7785" y2="43.2506" /><line stroke="rgb(100%,50%,0%)" x1="110.4277" x2="112.5807" y1="30.5246" y2="17.3101" /><line stroke="rgb(100%,50%,0%)" x1="108.2866" x2="116.8792" y1="21.876" y2="36.1661" /><line stroke="rgb(100%,50%,0%)" x1="111.5148" x2="107.7337" y1="38.2252" y2="35.9095" /><line stroke="rgb(100%,50%,0%)" x1="112.4702" x2="111.2868" y1="24.7668" y2="41.8271" /><line stroke="rgb(100%,50%,0%)" x1="107.7344" x2="115.1083" y1="37.94" y2="28.5576" /></svg>