<?xml version="1.0" encoding="utf-8" ?>
<svg baseProfile="tiny" height="50" version="1.2" width="150" xmlns="http://www.w3.org/2000/svg" xmlns:ev="http://www.w3.org/2001/xml-events" xmlns:xlink="http://www.w3.org/1999/xlink"><defs /><text fill="red" font-size="30" transform="rotate(30, 10, 30)" x="10" y="30">H</text><line stroke="rgb(0%,0%,0%)" x1="13.9654" x2="14.9219" y1="37.6258" y2="22.7317" /><line stroke="rgb(0%,0%,0%)" x1="9.9801" x2="24.0704" y1="33.6842" y2="21.6632" /><line stroke="rgb(0%,0%,0%)" x1="9.1435" x2="21.8106" y1="30.3374" y2="31.6067" /><line stroke="rgb(0%,0%,0%)" x1="7.4239" x2="7.0379" y1="39.6772" y2="30.0559" /><line stroke="rgb(0%,0%,0%)" x1="22.5165" x2="15.2987" y1="29.7477" y2="37.4553" /><line stroke="rgb(0%,0%,0%)" x1="13.0945" x2="7.8446" y1="20.3782" y2="25.3202" /><line stroke="rgb(0%,0%,0%)" x1="15.3425" x2="18.8032" y1="29.5592" y2="35.636" /><line stroke="rgb(0%,0%,0%)" x1="23.8606" x2="14.5818" y1="21.4588" y2="23.1682" /><line stroke="rgb(0%,0%,0%)" x1="22.6304" x2="23.3058" y1="23.2601" y2="26.4876" /><line stroke="rgb(0%,0%,0%)" x1="6.3303" x2="18.4997" y1="32.3763" y2="36.5676" /><line stroke="rgb(100%,100%,0%)" x1="9.9902" x2="10.8264" y1="25.0298" y2="33.1244" /><line stroke="rgb(100%,100%,0%)" x1="11.0461" x2="8.6741" y1="31.7296" y2="39.9235" /><line stroke="rgb(100%,100%,0%)" x1="15.1588" x2="16.6466" y1="34.3215" y2="18.4016" /><line stroke="rgb(100%,100%,0%)" x1="20.7756" x2="8.75" y1="39.0201" y2="37.9495" /><line stroke="rgb(100%,100%,0%)" x1="23.6089" x2="23.1804" y1="30.0385" y2="25.3416" /><line stroke="rgb(100%,100%,0%)" x1="13.723" x2="16.5227" y1="30.7576" y2="22.2079" /><line stroke="rgb(100%,100%,0%)" x1="7.5911" x2="10.2645" y1="31.531" y2="42.1571" /><line stroke="rgb(100%,100%,0%)" x1="14.8402" x2="23.2026" y1="33.4983" y2="30.5393" /><line stroke="rgb(100%,100%,0%)" x1="16.8083" x2="11.7131" y1="31.4251" y2="17.2687" /><line stroke="rgb(100%,100%,0%)" x1="21.0101" x2="10.3827" y1="24.5955" y2="30.2962" /><text fill="red" font-size="30" transform="rotate(0, 35, 30)" x="35" y="30">E</text><line stroke="rgb(0%,0%,0%)" x1="41.3667" x2="43.8404" y1="23.124" y2="21.3327" /><line stroke="rgb(0%,0%,0%)" x1="48.3632" x2="37.01" y1="30.9277" y2="36.0979" /><line stroke="rgb(0%,0%,0%)" x1="42.7118" x2="31.5164" y1="24.6489" y2="27.4788" /><line stroke="rgb(0%,0%,0%)" x1="49.0508" x2="38.9381" y1="34.6316" y2="24.9884" /><line stroke="rgb(0%,0%,0%)" x1="38.9557" x2="45.3213" y1="32.8241" y2="21.6079" /><line stroke="rgb(0%,0%,0%)" x1="38.43" x2="44.4862" y1="21.8219" y2="20.3556" /><line stroke="rgb(0%,0%,0%)" x1="31.7865" x2="36.6793" y1="32.0363" y2="28.9732" /><line stroke="rgb(0%,0%,0%)" x1="40.6622" x2="44.2742" y1="21.3304" y2="39.0895" /><line stroke="rgb(0%,0%,0%)" x1="40.9746" x2="42.572" y1="20.603" y2="31.049" /><line stroke="rgb(0%,0%,0%)" x1="30.8496" x2="44.9113" y1="36.988" y2="25.9136" /><line stroke="rgb(100%,100%,0%)" x1="30.4751" x2="45.857" y1="23.9129" y2="28.7001" /><line stroke="rgb(100%,100%,0%)" x1="46.2161" x2="35.5813" y1="35.9195" y2="33.2826" /><line stroke="rgb(100%,100%,0%)" x1="30.3618" x2="44.0221" y1="35.7775" y2="16.0809" /><line stroke="rgb(100%,100%,0%)" x1="33.0032" x2="46.3203" y1="33.8035" y2="35.6606" /><line stroke="rgb(100%,100%,0%)" x1="37.4012" x2="45.0558" y1="24.8894" y2="30.9474" /><line stroke="rgb(100%,100%,0%)" x1="33.7642" x2="33.2308" y1="25.4471" y2="38.1911" /><line stroke="rgb(100%,100%,0%)" x1="30.845" x2="32.4465" y1="25.2531" y2="19.9108" /><line stroke="rgb(100%,100%,0%)" x1="38.0004" x2="47.8884" y1="36.297" y2="19.6376" /><line stroke="rgb(100%,100%,0%)" x1="47.9511" x2="31.4669" y1="36.3405" y2="33.666" /><line stroke="rgb(100%,100%,0%)" x1="47.7852" x2="33.7421" y1="31.054" y2="44.3715" /><text fill="red" font-size="30" transform="rotate(28, 60, 30)" x="60" y="30">K</text><line stroke="rgb(0%,0%,0%)" x1="56.8448" x2="57.9714" y1="30.1161" y2="21.8542" /><line stroke="rgb(0%,0%,0%)" x1="64.879" x2="58.207" y1="28.2813" y2="34.8685" /><line stroke="rgb(0%,0%,0%)" x1="67.8673" x2="62.4578" y1="26.3677" y2="25.3616" /><line stroke="rgb(0%,0%,0%)" x1="60.4956" x2="69.4057" y1="21.6284" y2="25.6872" /><line stroke="rgb(0%,0%,0%)" x1="71.9035" x2="63.3953" y1="38.0271" y2="23.5882" /><line stroke="rgb(0%,0%,0%)" x1="67.3848" x2="65.9233" y1="39.9434" y2="35.9121" /><line stroke="rgb(0%,0%,0%)" x1="57.9954" x2="69.5125" y1="33.2963" y2="35.7926" /><line stroke="rgb(0%,0%,0%)" x1="72.3576" x2="65.3351" y1="23.3568" y2="20.6415" /><line stroke="rgb(0%,0%,0%)" x1="59.2893" x2="72.5458" y1="20.3667" y2="22.4046" /><line stroke="rgb(0%,0%,0%)" x1="60.117" x2="71.2715" y1="39.8964" y2="23.1282" /><line stroke="rgb(100%,100%,0%)" x1="58.3481" x2="63.0494" y1="35.9807" y2="20.8817" /><line stroke="rgb(100%,100%,0%)" x1="73.1195" x2="70.5529" y1="35.1064" y2="32.9024" /><line stroke="rgb(100%,100%,0%)" x1="58.2845" x2="68.1506" y1="38.0535" y2="41.2699" /><line stroke="rgb(100%,100%,0%)" x1="63.6289" x2="61.5212" y1="37.0567" y2="24.4531" /><line stroke="rgb(100%,100%,0%)" x1="69.914" x2="60.9798" y1="31.1698" y2="32.1234" /><line stroke="rgb(100%,100%,0%)" x1="67.3949" x2="66.8653" y1="32.9522" y2="17.4308" /><line stroke="rgb(100%,100%,0%)" x1="63.5498" x2="67.0309" y1="34.631" y2="32.491" /><line stroke="rgb(100%,100%,0%)" x1="73.6704" x2="66.3875" y1="35.1323" y2="38.5752" /><line stroke="rgb(100%,100%,0%)" x1="70.1914" x2="67.0006" y1="36.3298" y2="37.4419" /><line stroke="rgb(100%,100%,0%)" x1="60.6504" x2="69.2659" y1="36.3491" y2="29.1267" /><text fill="red" font-size="30" transform="rotate(-29, 85, 30)" x="85" y="30">Y</text><line stroke="rgb(0%,0%,0%)" x1="97.2485" x2="80.2292" y1="26.6299" y2="22.501" /><line stroke="rgb(0%,0%,0%)" x1="96.5653" x2="83.4457" y1="27.7573" y2="26.0151" /><line stroke="rgb(0%,0%,0%)" x1="97.0967" x2="90.6721" y1="39.6522" y2="38.6902" /><line stroke="rgb(0%,0%,0%)" x1="82.6305" x2="98.9114" y1="28.8835" y2="33.3055" /><line stroke="rgb(0%,0%,0%)" x1="96.5924" x2="86.6376" y1="22.1521" y2="39.3526" /><line stroke="rgb(0%,0%,0%)" x1="89.5806" x2="90.3917" y1="20.3399" y2="26.342" /><line stroke="rgb(0%,0%,0%)" x1="80.8696" x2="86.6102" y1="36.8215" y2="31.1406" /><line stroke="rgb(0%,0%,0%)" x1="85.5907" x2="88.2744" y1="37.5844" y2="23.17" /><line stroke="rgb(0%,0%,0%)" x1="87.4595" x2="87.8045" y1="30.5718" y2="22.7293" /><line stroke="rgb(0%,0%,0%)" x1="86.6287" x2="94.0925" y1="33.9009" y2="39.2044" /><line stroke="rgb(100%,100%,0%)" x1="84.4098" x2="82.0991" y1="28.6241" y2="18.294" /><line stroke="rgb(100%,100%,0%)" x1="97.1029" x2="81.2181" y1="31.1536" y2="28.6276" /><line stroke="rgb(100%,100%,0%)" x1="92.2838" x2="97.7963" y1="37.4391" y2="29.2244" /><line stroke="rgb(100%,100%,0%)" x1="80.9002" x2="99.5396" y1="35.1673" y2="37.4865" /><line stroke="rgb(100%,100%,0%)" x1="93.1355" x2="85.5316" y1="21.8431" y2="30.4682" /><line stroke="rgb(100%,100%,0%)" x1="99.4092" x2="92.4086" y1="29.6001" y2="22.3108" /><line stroke="rgb(100%,100%,0%)" x1="99.7732" x2="95.8573" y1="36.2675" y2="28.1671" /><line stroke="rgb(100%,100%,0%)" x1="88.572" x2="96.6754" y1="29.0494" y2="39.3365" /><line stroke="rgb(100%,100%,0%)" x1="87.9781" x2="96.5046" y1="30.2321" y2="16.151" /><line stroke="rgb(100%,100%,0%)" x1="91.5407" x2="82.9338" y1="31.4023" y2="34.7884" /><text fill="red" font-size="30" transform="rotate(19, 110, 30)" x="110" y="30">5</text><line stroke="rgb(0%,0%,0%)" x1="109.3416" x2="109.346" y1="38.2159" y2="35.8523" /><line stroke="rgb(0%,0%,0%)" x1="118.394" x2="117.0899" y1="24.9207" y2="26.6307" /><line stroke="rgb(0%,0%,0%)" x1="122.4758" x2="115.7268" y1="28.5523" y2="37.4595" /><line stroke="rgb(0%,0%,0%)" x1="111.0307" x2="108.0048" y1="21.2382" y2="22.4203" /><line stroke="rgb(0%,0%,0%)" x1="111.8901" x2="110.9395" y1="29.0699" y2="31.371" /><line stroke="rgb(0%,0%,0%)" x1="115.2853" x2="112.3227" y1="22.6011" y2="23.0933" /><line stroke="rgb(0%,0%,0%)" x1="109.0222" x2="107.0672" y1="22.2771" y2="29.7023" /><line stroke="rgb(0%,0%,0%)" x1="122.4915" x2="124.569" y1="39.1648" y2="29.4657" /><line stroke="rgb(0%,0%,0%)" x1="124.7419" x2="118.0012" y1="37.7017" y2="23.5349" /><line stroke="rgb(0%,0%,0%)" x1="106.4637" x2="105.4036" y1="26.1214" y2="38.8135" /><line stroke="rgb(100%,100%,0%)" x1="112.6514" x2="110.5696" y1="20.4033" y2="37.7876" /><line stroke="rgb(100%,100%,0%)" x1="117.8323" x2="107.9551" y1="26.7593" y2="24.8693" /><line stroke="rgb(100%,100%,0%)" x1="107.9415" x2="109.8002" y1="23.3316" y2="21.0255" /><line stroke="rgb(100%,100%,0%)" x1="115.2372" x2="115.9918" y1="38.2636" y2="32.5602" /><line stroke="rgb(100%,100%,0%)" x1="110.3681" x2="122.8858" y1="38.9818" y2="25.2379" /><line stroke="rgb(100%,100%,0%)" x1="124.7159" x2="121.2734" y1="21.181" y2="31.9345" /><line stroke="rgb(100%,100%,0%)" x1="120.3938" x2="110.7724" y1="36.0655" y2="43.7271" /><line stroke="rgb(100%,100%,0%)" x1="105.0708" x2="121.9069" y1="39.8588" y2="28.2399" /><line stroke="rgb(100%,100%,0%)" x1="117.3491" x2="120.1573" y1="22.9197" y2="39.182" /><line stroke="rgb(100%,100%,0%)" x1="116.7003" x2="107.7284" y1="24.3936" y2="40.9909" /></svg>