<?xml version="1.0" encoding="utf-8" ?>
<svg baseProfile="tiny" height="50" version="1.2" width="150" xmlns="http://www.w3.org/2000/svg" xmlns:ev="http://www.w3.org/2001/xml-events" xmlns:xlink="http://www.w3.org/1999/xlink"><defs /><text fill="red" font-size="30" transform="rotate(-22, 10, 30)" x="10" y="30">H</text><line stroke="rgb(0%,0%,0%)" x1="5.595" x2="7.7122" y1="29.179" y2="20.6995" /><line stroke="rgb(0%,0%,0%)" x1="20.4201" x2="16.1196" y1="26.0626" y2="32.7652" /><line stroke="rgb(0%,0%,0%)" x1="6.5542" x2="17.9681" y1="25.4279" y2="33.8693" /><line stroke="rgb(0%,0%,0%)" x1="24.3264" x2="6.2201" y1="26.1898" y2="32.1638" /><line stroke="rgb(0%,0%,0%)" x1="18.6574" x2="17.3043" y1="36.4771" y2="32.4579" /><line stroke="rgb(0%,0%,0%)" x1="13.9948" x2="24.0434" y1="24.4965" y2="32.9197" /><line stroke="rgb(0%,0%,0%)" x1="17.2393" x2="18.3444" y1="25.1308" y2="37.7851" /><line stroke="rgb(0%,0%,0%)" x1="6.6408" x2="18.2101" y1="27.4362" y2="24.1337" /><line stroke="rgb(0%,0%,0%)" x1="12.3147" x2="13.1791" y1="29.6297" y2="31.6705" /><line stroke="rgb(0%,0%,0%)" x1="12.5619" x2="22.4418" y1="37.7637" y2="30.1492" /><line stroke="rgb(100%,100%,0%)" x1="23.0809" x2="18.6894" y1="35.6309" y2="31.3515" /><line stroke="rgb(100%,100%,0%)" x1="23.9524" x2="18.4923" y1="22.5161" y2="33.3596" /><line stroke="rgb(100%,100%,0%)" x1="23.705" x2="6.962" y1="34.6143" y2="42.7912" /><line stroke="rgb(100%,100%,0%)" x1="22.0486" x2="14.3992" y1="36.8044" y2="30.4723" /><line stroke="rgb(100%,100%,0%)" x1="14.7342" x2="23.8689" y1="22.8251" y2="39.5251" /><line stroke="rgb(100%,100%,0%)" x1="19.7144" x2="17.2526" y1="27.9242" y2="39.9158" /><line stroke="rgb(100%,100%,0%)" x1="7.5653" x2="11.7275" y1="29.272" y2="29.5179" /><line stroke="rgb(100%,100%,0%)" x1="12.0456" x2="7.0997" y1="32.0841" y2="32.7436" /><line stroke="rgb(100%,100%,0%)" x1="6.6536" x2="16.6414" y1="25.8861" y2="43.174" /><line stroke="rgb(100%,100%,0%)" x1="6.5242" x2="15.7869" y1="25.5985" y2="24.3051" /><text fill="red" font-size="30" transform="rotate(-22, 35, 30)" x="35" y="30">3</text><line stroke="rgb(0%,0%,0%)" x1="46.6628" x2="44.6226" y1="28.7489" y2="25.3345" /><line stroke="rgb(0%,0%,0%)" x1="47.7515" x2="43.2937" y1="22.4354" y2="31.0209" /><line stroke="rgb(0%,0%,0%)" x1="41.4446" x2="48.5162" y1="21.6024" y2="20.4707" /><line stroke="rgb(0%,0%,0%)" x1="39.2431" x2="36.342" y1="28.6164" y2="28.7096" /><line stroke="rgb(0%,0%,0%)" x1="30.6557" x2="46.811" y1="23.1283" y2="31.7664" /><line stroke="rgb(0%,0%,0%)" x1="49.2711" x2="34.4658" y1="35.3823" y2="35.8171" /><line stroke="rgb(0%,0%,0%)" x1="43.9667" x2="37.6577" y1="27.7239" y2="30.2072" /><line stroke="rgb(0%,0%,0%)" x1="40.5805" x2="35.4937" y1="23.893" y2="23.0564" /><line stroke="rgb(0%,0%,0%)" x1="39.5048" x2="40.9228" y1="20.8433" y2="29.1727" /><line stroke="rgb(0%,0%,0%)" x1="48.4511" x2="48.1406" y1="29.5221" y2="27.0919" /><line stroke="rgb(100%,100%,0%)" x1="31.2625" x2="30.7785" y1="25.5191" y2="27.9942" /><line stroke="rgb(100%,100%,0%)" x1="32.0578" x2="32.4025" y1="38.7895" y2="21.0388" /><line stroke="rgb(100%,100%,0%)" x1="33.7279" x2="47.5187" y1="35.6455" y2="25.1697" /><line stroke="rgb(100%,100%,0%)" x1="46.1179" x2="42.9877" y1="31.1973" y2="27.9013" /><line stroke="rgb(100%,100%,0%)" x1="32.5367" x2="45.6561" y1="32.9415" y2="20.9567" /><line stroke="rgb(100%,100%,0%)" x1="32.9779" x2="46.6542" y1="35.5842" y2="35.4195" /><line stroke="rgb(100%,100%,0%)" x1="48.4872" x2="45.0804" y1="32.9156" y2="34.4281" /><line stroke="rgb(100%,100%,0%)" x1="32.5386" x2="42.0706" y1="33.466" y2="40.7474" /><line stroke="rgb(100%,100%,0%)" x1="44.678" x2="45.1752" y1="35.0309" y2="33.8972" /><line stroke="rgb(100%,100%,0%)" x1="49.5205" x2="45.9238" y1="20.4824" y2="24.563" /><text fill="red" font-size="30" transform="rotate(-23, 60, 30)" x="60" y="30">A</text><line stroke="rgb(0%,0%,0%)" x1="70.0717" x2="57.7895" y1="38.0544" y2="30.8696" /><line stroke="rgb(0%,0%,0%)" x1="62.3608" x2="62.2993" y1="25.3328" y2="34.3028" /><line stroke="rgb(0%,0%,0%)" x1="63.7436" x2="62.6227" y1="32.9849" y2="25.3384" /><line stroke="rgb(0%,0%,0%)" x1="69.7133" x2="57.7705" y1="30.7641" y2="21.3962" /><line stroke="rgb(0%,0%,0%)" x1="64.9931" x2="67.2294" y1="27.5828" y2="39.1013" /><line stroke="rgb(0%,0%,0%)" x1="69.9402" x2="74.1817" y1="30.4293" y2="29.42" /><line stroke="rgb(0%,0%,0%)" x1="58.4142" x2="73.2183" y1="35.7988" y2="32.5119" /><line stroke="rgb(0%,0%,0%)" x1="59.6427" x2="57.5295" y1="37.6051" y2="23.2494" /><line stroke="rgb(0%,0%,0%)" x1="63.5439" x2="63.2716" y1="28.1364" y2="24.2045" /><line stroke="rgb(0%,0%,0%)" x1="65.7371" x2="57.5312" y1="24.5347" y2="34.5057" /><line stroke="rgb(100%,100%,0%)" x1="71.3585" x2="66.8236" y1="35.1538" y2="41.0722" /><line stroke="rgb(100%,100%,0%)" x1="69.8302" x2="60.4429" y1="38.7995" y2="22.8155" /><line stroke="rgb(100%,100%,0%)" x1="64.7686" x2="65.6049" y1="30.8942" y2="42.3086" /><line stroke="rgb(100%,100%,0%)" x1="55.7387" x2="73.4686" y1="28.8337" y2="15.4573" /><line stroke="rgb(100%,100%,0%)" x1="62.9715" x2="72.7744" y1="37.1044" y2="19.3901" /><line stroke="rgb(100%,100%,0%)" x1="62.1785" x2="69.6736" y1="29.6865" y2="22.6283" /><line stroke="rgb(100%,100%,0%)" x1="71.3851" x2="69.1832" y1="20.5282" y2="38.2535" /><line stroke="rgb(100%,100%,0%)" x1="74.5613" x2="60.7723" y1="23.1774" y2="41.1482" /><line stroke="rgb(100%,100%,0%)" x1="60.8378" x2="64.2938" y1="21.3533" y2="37.4016" /><line stroke="rgb(100%,100%,0%)" x1="58.8896" x2="59.7278" y1="20.0042" y2="28.6856" /><text fill="red" font-size="30" transform="rotate(24, 85, 30)" x="85" y="30">B</text><line stroke="rgb(0%,0%,0%)" x1="86.5578" x2="88.5578" y1="33.8563" y2="20.1204" /><line stroke="rgb(0%,0%,0%)" x1="82.8392" x2="99.1842" y1="30.7254" y2="28.6533" /><line stroke="rgb(0%,0%,0%)" x1="85.5442" x2="83.8622" y1="36.738" y2="33.0226" /><line stroke="rgb(0%,0%,0%)" x1="91.2946" x2="89.3533" y1="34.4584" y2="27.6217" /><line stroke="rgb(0%,0%,0%)" x1="94.4006" x2="94.5228" y1="30.3775" y2="22.4289" /><line stroke="rgb(0%,0%,0%)" x1="85.2598" x2="80.4561" y1="21.0629" y2="22.7222" /><line stroke="rgb(0%,0%,0%)" x1="99.4678" x2="94.4242" y1="28.0136" y2="32.6606" /><line stroke="rgb(0%,0%,0%)" x1="81.6268" x2="82.5715" y1="24.672" y2="31.1428" /><line stroke="rgb(0%,0%,0%)" x1="83.4683" x2="84.5106" y1="35.7509" y2="29.5923" /><line stroke="rgb(0%,0%,0%)" x1="96.9471" x2="92.586" y1="26.1636" y2="31.2775" /><line stroke="rgb(100%,100%,0%)" x1="96.0512" x2="96.3454" y1="29.8609" y2="40.221" /><line stroke="rgb(100%,100%,0%)" x1="89.8281" x2="96.5097" y1="33.1767" y2="39.8544" /><line stroke="rgb(100%,100%,0%)" x1="92.7107" x2="92.6342" y1="26.8434" y2="42.9334" /><line stroke="rgb(100%,100%,0%)" x1="89.8044" x2="86.3542" y1="36.9778" y2="39.5323" /><line stroke="rgb(100%,100%,0%)" x1="86.5702" x2="87.572" y1="31.8112" y2="40.9928" /><line stroke="rgb(100%,100%,0%)" x1="84.7253" x2="85.0531" y1="26.6571" y2="29.9891" /><line stroke="rgb(100%,100%,0%)" x1="81.6258" x2="82.4365" y1="37.4832" y2="19.0085" /><line stroke="rgb(100%,100%,0%)" x1="94.665" x2="95.2485" y1="32.1507" y2="32.4752" /><line stroke="rgb(100%,100%,0%)" x1="88.181" x2="91.9898" y1="32.2927" y2="19.2502" /><line stroke="rgb(100%,100%,0%)" x1="83.4211" x2="87.5206" y1="35.7725" y2="29.4824" /><text fill="red" font-size="30" transform="rotate(25, 110, 30)" x="110" y="30">O</text><line stroke="rgb(0%,0%,0%)" x1="113.5846" x2="116.0435" y1="38.5917" y2="31.3687" /><line stroke="rgb(0%,0%,0%)" x1="121.7714" x2="120.4944" y1="34.117" y2="34.4426" /><line stroke="rgb(0%,0%,0%)" x1="123.0191" x2="124.6002" y1="22.0707" y2="35.8356" /><line stroke="rgb(0%,0%,0%)" x1="120.9944" x2="108.2184" y1="20.9414" y2="29.3582" /><line stroke="rgb(0%,0%,0%)" x1="108.8934" x2="106.7927" y1="35.1075" y2="29.3526" /><line stroke="rgb(0%,0%,0%)" x1="121.8079" x2="122.6707" y1="27.9093" y2="25.1332" /><line stroke="rgb(0%,0%,0%)" x1="112.4252" x2="112.6988" y1="25.7996" y2="23.7388" /><line stroke="rgb(0%,0%,0%)" x1="113.9774" x2="105.6119" y1="22.646" y2="38.41" /><line stroke="rgb(0%,0%,0%)" x1="105.3498" x2="111.1291" y1="38.3892" y2="32.5287" /><line stroke="rgb(0%,0%,0%)" x1="110.7159" x2="109.326" y1="29.4169" y2="31.932" /><line stroke="rgb(100%,100%,0%)" x1="112.1137" x2="116.9247" y1="23.7231" y2="28.4973" /><line stroke="rgb(100%,100%,0%)" x1="118.7477" x2="121.0052" y1="29.0207" y2="23.846" /><line stroke="rgb(100%,100%,0%)" x1="124.3364" x2="111.9937" y1="34.3539" y2="23.0797" /><line stroke="rgb(100%,100%,0%)" x1="123.8126" x2="109.7909" y1="33.2476" y2="40.8373" /><line stroke="rgb(100%,100%,0%)" x1="119.5847" x2="120.3177" y1="32.8788" y2="33.3627" /><line stroke="rgb(100%,100%,0%)" x1="108.549" x2="122.9532" y1="35.671" y2="32.5396" /><line stroke="rgb(100%,100%,0%)" x1="114.8204" x2="111.487" y1="39.7579" y2="43.6056" /><line stroke="rgb(100%,100%,0%)" x1="109.7262" x2="120.6533" y1="22.4131" y2="26.413" /><line stroke="rgb(100%,100%,0%)" x1="106.6413" x2="110.5189" y1="32.8223" y2="26.1841" /><line stroke="rgb(100%,100%,0%)" x1="121.4593" x2="111.5028" y1="24.5474" y2="34.5829" /></svg>