<?xml version="1.0" encoding="utf-8" ?>
<svg baseProfile="tiny" height="50" version="1.2" width="150" xmlns="http://www.w3.org/2000/svg" xmlns:ev="http://www.w3.org/2001/xml-events" xmlns:xlink="http://www.w3.org/1999/xlink"><defs /><text fill="red" font-size="30" transform="rotate(-12, 10, 30)" x="10" y="30">L</text><line stroke="rgb(0%,0%,0%)" x1="6.3273" x2="22.3818" y1="30.5275" y2="37.8053" /><line stroke="rgb(0%,0%,0%)" x1="9.8111" x2="13.3439" y1="36.7735" y2="28.8022" /><line stroke="rgb(0%,0%,0%)" x1="8.697" x2="20.7507" y1="27.1226" y2="37.5489" /><line stroke="rgb(0%,0%,0%)" x1="5.7278" x2="22.2386" y1="37.4695" y2="24.8258" /><line stroke="rgb(0%,0%,0%)" x1="21.727" x2="9.9368" y1="34.9187" y2="36.6122" /><line stroke="rgb(0%,0%,0%)" x1="9.1215" x2="15.2735" y1="37.4784" y2="33.4782" /><line stroke="rgb(0%,0%,0%)" x1="10.7297" x2="24.8102" y1="20.1456" y2="28.3803" /><line stroke="rgb(0%,0%,0%)" x1="5.1241" x2="13.3916" y1="23.3257" y2="25.8529" /><line stroke="rgb(0%,0%,0%)" x1="17.5862" x2="23.3158" y1="35.0463" y2="36.0199" /><line stroke="rgb(0%,0%,0%)" x1="5.7845" x2="19.5404" y1="20.8891" y2="28.4324" /><line stroke="rgb(100%,100%,0%)" x1="8.1703" x2="22.7548" y1="28.1352" y2="17.4341" /><line stroke="rgb(100%,100%,0%)" x1="19.2403" x2="13.7187" y1="26.654" y2="20.554" /><line stroke="rgb(100%,100%,0%)" x1="18.5021" x2="23.5736" y1="24.1353" y2="25.3976" /><line stroke="rgb(100%,100%,0%)" x1="23.8486" x2="8.9795" y1="37.3826" y2="38.1335" /><line stroke="rgb(100%,100%,0%)" x1="7.2124" x2="9.1452" y1="24.4474" y2="35.4204" /><line stroke="rgb(100%,100%,0%)" x1="23.9259" x2="18.9684" y1="38.5287" y2="35.0316" /><line stroke="rgb(100%,100%,0%)" x1="19.7262" x2="15.1387" y1="38.9863" y2="19.1435" /><line stroke="rgb(100%,100%,0%)" x1="13.6266" x2="14.0512" y1="33.0324" y2="38.827" /><line stroke="rgb(100%,100%,0%)" x1="15.3521" x2="21.4692" y1="32.6114" y2="35.2051" /><line stroke="rgb(100%,100%,0%)" x1="9.199" x2="9.1839" y1="23.4899" y2="15.1545" /><text fill="red" font-size="30" transform="rotate(28, 35, 30)" x="35" y="30">C</text><line stroke="rgb(0%,0%,0%)" x1="49.208" x2="46.4097" y1="23.7494" y2="33.4085" /><line stroke="rgb(0%,0%,0%)" x1="42.4431" x2="40.6207" y1="32.7081" y2="27.8036" /><line stroke="rgb(0%,0%,0%)" x1="46.7733" x2="44.6851" y1="23.9947" y2="29.984" /><line stroke="rgb(0%,0%,0%)" x1="40.3875" x2="48.6868" y1="21.5509" y2="27.8552" /><line stroke="rgb(0%,0%,0%)" x1="44.5909" x2="43.9927" y1="25.6643" y2="29.7987" /><line stroke="rgb(0%,0%,0%)" x1="35.6877" x2="37.8946" y1="22.3651" y2="20.2568" /><line stroke="rgb(0%,0%,0%)" x1="32.5444" x2="38.1682" y1="22.4433" y2="25.7783" /><line stroke="rgb(0%,0%,0%)" x1="43.6159" x2="31.5396" y1="28.2838" y2="39.0672" /><line stroke="rgb(0%,0%,0%)" x1="31.8293" x2="33.1711" y1="24.1961" y2="24.3751" /><line stroke="rgb(0%,0%,0%)" x1="46.6772" x2="39.4851" y1="38.9262" y2="21.36" /><line stroke="rgb(100%,100%,0%)" x1="47.6043" x2="35.0365" y1="21.8396" y2="39.9572" /><line stroke="rgb(100%,100%,0%)" x1="34.1325" x2="33.911" y1="24.5617" y2="28.0113" /><line stroke="rgb(100%,100%,0%)" x1="47.3658" x2="43.5069" y1="32.0453" y2="38.7884" /><line stroke="rgb(100%,100%,0%)" x1="32.1088" x2="30.0905" y1="39.5067" y2="28.3233" /><line stroke="rgb(100%,100%,0%)" x1="33.592" x2="36.6933" y1="24.1908" y2="36.3574" /><line stroke="rgb(100%,100%,0%)" x1="45.2139" x2="39.9294" y1="38.242" y2="40.6534" /><line stroke="rgb(100%,100%,0%)" x1="48.6779" x2="46.675" y1="25.1905" y2="30.935" /><line stroke="rgb(100%,100%,0%)" x1="33.3402" x2="30.5635" y1="35.0102" y2="24.4067" /><line stroke="rgb(100%,100%,0%)" x1="34.3328" x2="37.4963" y1="27.5778" y2="23.1733" /><line stroke="rgb(100%,100%,0%)" x1="40.2038" x2="44.5802" y1="23.2041" y2="18.1646" /><text fill="red" font-size="30" transform="rotate(8, 60, 30)" x="60" y="30">9</text><line stroke="rgb(0%,0%,0%)" x1="58.2956" x2="62.8378" y1="32.8501" y2="22.0682" /><line stroke="rgb(0%,0%,0%)" x1="61.3141" x2="71.7632" y1="23.0734" y2="27.5941" /><line stroke="rgb(0%,0%,0%)" x1="56.5077" x2="74.0931" y1="30.4786" y2="32.3021" /><line stroke="rgb(0%,0%,0%)" x1="74.8771" x2="60.6358" y1="30.596" y2="31.9941" /><line stroke="rgb(0%,0%,0%)" x1="68.2711" x2="56.8228" y1="20.3483" y2="35.9609" /><line stroke="rgb(0%,0%,0%)" x1="67.3789" x2="73.6767" y1="30.2801" y2="39.0241" /><line stroke="rgb(0%,0%,0%)" x1="68.4498" x2="74.3218" y1="27.487" y2="21.0486" /><line stroke="rgb(0%,0%,0%)" x1="58.682" x2="71.9008" y1="28.3499" y2="36.4176" /><line stroke="rgb(0%,0%,0%)" x1="74.8354" x2="60.3025" y1="27.0808" y2="32.596" /><line stroke="rgb(0%,0%,0%)" x1="72.7896" x2="72.5272" y1="35.8712" y2="31.5678" /><line stroke="rgb(100%,100%,0%)" x1="63.1625" x2="59.9874" y1="37.4144" y2="19.1156" /><line stroke="rgb(100%,100%,0%)" x1="71.126" x2="58.4251" y1="24.831" y2="19.902" /><line stroke="rgb(100%,100%,0%)" x1="71.4113" x2="60.827" y1="20.3033" y2="26.0814" /><line stroke="rgb(100%,100%,0%)" x1="58.2362" x2="56.5531" y1="28.5625" y2="28.4239" /><line stroke="rgb(100%,100%,0%)" x1="64.4057" x2="60.6215" y1="36.3978" y2="28.5114" /><line stroke="rgb(100%,100%,0%)" x1="63.3584" x2="73.0868" y1="24.7078" y2="17.0363" /><line stroke="rgb(100%,100%,0%)" x1="67.8232" x2="69.8435" y1="25.577" y2="36.3731" /><line stroke="rgb(100%,100%,0%)" x1="63.9443" x2="71.2573" y1="29.7515" y2="21.5037" /><line stroke="rgb(100%,100%,0%)" x1="55.086" x2="63.1297" y1="26.3001" y2="21.1652" /><line stroke="rgb(100%,100%,0%)" x1="65.0754" x2="65.8414" y1="24.8056" y2="17.1042" /><text fill="red" font-size="30" transform="rotate(-15, 85, 30)" x="85" y="30">C</text><line stroke="rgb(0%,0%,0%)" x1="95.0763" x2="89.8555" y1="23.4081" y2="26.7658" /><line stroke="rgb(0%,0%,0%)" x1="93.5344" x2="99.7011" y1="28.9704" y2="20.8051" /><line stroke="rgb(0%,0%,0%)" x1="86.5049" x2="93.6109" y1="32.7868" y2="27.98" /><line stroke="rgb(0%,0%,0%)" x1="98.1972" x2="87.1619" y1="33.9741" y2="31.6898" /><line stroke="rgb(0%,0%,0%)" x1="83.238" x2="93.0632" y1="32.7337" y2="27.7157" /><line stroke="rgb(0%,0%,0%)" x1="80.5154" x2="93.8155" y1="24.8988" y2="23.0918" /><line stroke="rgb(0%,0%,0%)" x1="96.3891" x2="80.2444" y1="28.3919" y2="31.1354" /><line stroke="rgb(0%,0%,0%)" x1="95.0896" x2="94.2662" y1="36.7686" y2="21.4182" /><line stroke="rgb(0%,0%,0%)" x1="84.5892" x2="96.9415" y1="38.544" y2="27.1926" /><line stroke="rgb(0%,0%,0%)" x1="93.6955" x2="93.9038" y1="34.231" y2="39.9999" /><line stroke="rgb(100%,100%,0%)" x1="98.5657" x2="92.4664" y1="38.6607" y2="36.3694" /><line stroke="rgb(100%,100%,0%)" x1="99.2444" x2="89.4708" y1="25.4522" y2="36.0459" /><line stroke="rgb(100%,100%,0%)" x1="93.4028" x2="89.3581" y1="24.8765" y2="44.911" /><line stroke="rgb(100%,100%,0%)" x1="96.2178" x2="97.7432" y1="24.0956" y2="39.5895" /><line stroke="rgb(100%,100%,0%)" x1="81.7551" x2="84.3043" y1="27.617" y2="34.1288" /><line stroke="rgb(100%,100%,0%)" x1="84.7545" x2="87.903" y1="35.2531" y2="21.6983" /><line stroke="rgb(100%,100%,0%)" x1="96.3687" x2="82.293" y1="36.8079" y2="37.0349" /><line stroke="rgb(100%,100%,0%)" x1="83.1753" x2="99.0971" y1="37.373" y2="17.097" /><line stroke="rgb(100%,100%,0%)" x1="97.4841" x2="93.2396" y1="24.7319" y2="35.3544" /><line stroke="rgb(100%,100%,0%)" x1="89.0187" x2="89.4662" y1="22.4129" y2="35.5179" /><text fill="red" font-size="30" transform="rotate(0, 110, 30)" x="110" y="30">C</text><line stroke="rgb(0%,0%,0%)" x1="118.4514" x2="106.5289" y1="29.6061" y2="24.2175" /><line stroke="rgb(0%,0%,0%)" x1="123.1111" x2="109.477" y1="24.4503" y2="24.9034" /><line stroke="rgb(0%,0%,0%)" x1="106.876" x2="110.9627" y1="28.9246" y2="25.8553" /><line stroke="rgb(0%,0%,0%)" x1="121.1731" x2="108.153" y1="39.9558" y2="32.0306" /><line stroke="rgb(0%,0%,0%)" x1="113.8028" x2="110.991" y1="28.6229" y2="37.4929" /><line stroke="rgb(0%,0%,0%)" x1="121.7565" x2="111.4233" y1="32.5816" y2="33.9859" /><line stroke="rgb(0%,0%,0%)" x1="111.6199" x2="112.5188" y1="30.4068" y2="39.2616" /><line stroke="rgb(0%,0%,0%)" x1="111.64" x2="106.9506" y1="27.1919" y2="30.7091" /><line stroke="rgb(0%,0%,0%)" x1="109.239" x2="112.0516" y1="38.651" y2="23.0988" /><line stroke="rgb(0%,0%,0%)" x1="123.9684" x2="121.2147" y1="26.6547" y2="25.9388" /><line stroke="rgb(100%,100%,0%)" x1="117.2538" x2="112.0214" y1="22.8777" y2="18.8119" /><line stroke="rgb(100%,100%,0%)" x1="111.7307" x2="107.8567" y1="29.8755" y2="31.0999" /><line stroke="rgb(100%,100%,0%)" x1="105.8917" x2="110.3738" y1="35.7371" y2="24.04" /><line stroke="rgb(100%,100%,0%)" x1="113.9553" x2="116.6362" y1="39.3682" y2="32.5236" /><line stroke="rgb(100%,100%,0%)" x1="124.3354" x2="120.3253" y1="25.616" y2="36.4563" /><line stroke="rgb(100%,100%,0%)" x1="105.922" x2="114.6559" y1="32.8251" y2="40.2211" /><line stroke="rgb(100%,100%,0%)" x1="124.6925" x2="120.2767" y1="29.6802" y2="42.8582" /><line stroke="rgb(100%,100%,0%)" x1="108.5789" x2="123.4913" y1="33.4636" y2="15.9471" /><line stroke="rgb(100%,100%,0%)" x1="117.2378" x2="105.0378" y1="27.0685" y2="19.0786" /><line stroke="rgb(100%,100%,0%)" x1="118.9727" x2="124.9854" y1="22.458" y2="28.1876" /></svg>