<?xml version="1.0" encoding="utf-8" ?>
<svg baseProfile="tiny" height="50" version="1.2" width="150" xmlns="http://www.w3.org/2000/svg" xmlns:ev="http://www.w3.org/2001/xml-events" xmlns:xlink="http://www.w3.org/1999/xlink"><defs /><text fill="red" font-size="30" transform="rotate(-18, 10, 30)" x="10" y="30">X</text><line stroke="rgb(0%,0%,0%)" x1="8.3972" x2="15.6283" y1="28.262" y2="37.3743" /><line stroke="rgb(0%,0%,0%)" x1="14.7564" x2="21.9627" y1="38.4364" y2="30.4777" /><line stroke="rgb(0%,0%,0%)" x1="10.3096" x2="6.5882" y1="28.5476" y2="23.2115" /><line stroke="rgb(0%,0%,0%)" x1="11.3744" x2="24.3199" y1="28.8577" y2="30.4523" /><line stroke="rgb(0%,0%,0%)" x1="18.0769" x2="14.8316" y1="20.9986" y2="22.2028" /><line stroke="rgb(0%,0%,0%)" x1="16.2274" x2="12.2448" y1="30.8522" y2="30.3417" /><line stroke="rgb(0%,0%,0%)" x1="14.2586" x2="17.5388" y1="30.9356" y2="24.5567" /><line stroke="rgb(0%,0%,0%)" x1="12.0735" x2="12.0603" y1="32.7976" y2="22.1563" /><line stroke="rgb(0%,0%,0%)" x1="19.6032" x2="18.1387" y1="28.7579" y2="20.8966" /><line stroke="rgb(0%,0%,0%)" x1="18.0158" x2="5.4406" y1="25.0558" y2="26.157" /><line stroke="rgb(100%,100%,0%)" x1="7.0071" x2="5.9044" y1="34.6344" y2="30.756" /><line stroke="rgb(100%,100%,0%)" x1="22.4953" x2="5.8686" y1="36.0817" y2="35.7566" /><line stroke="rgb(100%,100%,0%)" x1="10.0168" x2="6.4572" y1="28.6145" y2="30.1287" /><line stroke="rgb(100%,100%,0%)" x1="14.79" x2="18.3019" y1="34.6891" y2="31.6653" /><line stroke="rgb(100%,100%,0%)" x1="18.8652" x2="12.6496" y1="25.6957" y2="43.7127" /><line stroke="rgb(100%,100%,0%)" x1="19.1845" x2="17.8858" y1="26.9698" y2="44.8938" /><line stroke="rgb(100%,100%,0%)" x1="16.2564" x2="13.5986" y1="30.9732" y2="25.0491" /><line stroke="rgb(100%,100%,0%)" x1="24.1956" x2="18.2761" y1="34.3944" y2="27.6706" /><line stroke="rgb(100%,100%,0%)" x1="11.8912" x2="15.9547" y1="36.9965" y2="22.8538" /><line stroke="rgb(100%,100%,0%)" x1="11.1186" x2="18.008" y1="21.4098" y2="29.2983" /><text fill="red" font-size="30" transform="rotate(-23, 35, 30)" x="35" y="30">H</text><line stroke="rgb(0%,0%,0%)" x1="40.1444" x2="38.841" y1="21.9117" y2="36.287" /><line stroke="rgb(0%,0%,0%)" x1="43.2128" x2="42.7507" y1="28.925" y2="25.9447" /><line stroke="rgb(0%,0%,0%)" x1="46.7213" x2="46.7329" y1="21.022" y2="36.2709" /><line stroke="rgb(0%,0%,0%)" x1="42.4431" x2="40.909" y1="26.2011" y2="26.8427" /><line stroke="rgb(0%,0%,0%)" x1="34.7753" x2="47.3115" y1="33.1173" y2="35.22" /><line stroke="rgb(0%,0%,0%)" x1="44.9393" x2="31.7012" y1="33.5298" y2="33.5287" /><line stroke="rgb(0%,0%,0%)" x1="30.9817" x2="40.3923" y1="39.4672" y2="26.7563" /><line stroke="rgb(0%,0%,0%)" x1="38.4268" x2="34.2093" y1="39.7195" y2="25.1606" /><line stroke="rgb(0%,0%,0%)" x1="39.4955" x2="30.7914" y1="25.9824" y2="27.9931" /><line stroke="rgb(0%,0%,0%)" x1="38.1739" x2="46.5725" y1="20.6399" y2="34.474" /><line stroke="rgb(100%,100%,0%)" x1="37.2847" x2="35.9983" y1="31.5753" y2="39.3928" /><line stroke="rgb(100%,100%,0%)" x1="33.0641" x2="33.6224" y1="33.2971" y2="19.911" /><line stroke="rgb(100%,100%,0%)" x1="48.184" x2="43.68" y1="33.8526" y2="15.7824" /><line stroke="rgb(100%,100%,0%)" x1="47.4487" x2="33.3648" y1="33.3454" y2="34.175" /><line stroke="rgb(100%,100%,0%)" x1="37.0245" x2="44.6256" y1="32.7568" y2="44.5186" /><line stroke="rgb(100%,100%,0%)" x1="46.9758" x2="38.0213" y1="36.1029" y2="18.8223" /><line stroke="rgb(100%,100%,0%)" x1="39.2204" x2="47.7177" y1="21.0936" y2="25.0484" /><line stroke="rgb(100%,100%,0%)" x1="39.6187" x2="43.1634" y1="28.3463" y2="19.2854" /><line stroke="rgb(100%,100%,0%)" x1="39.5072" x2="32.2988" y1="20.7965" y2="27.0834" /><line stroke="rgb(100%,100%,0%)" x1="48.113" x2="47.9329" y1="34.1734" y2="34.5945" /><text fill="red" font-size="30" transform="rotate(12, 60, 30)" x="60" y="30">H</text><line stroke="rgb(0%,0%,0%)" x1="59.913" x2="55.2032" y1="37.3851" y2="30.8338" /><line stroke="rgb(0%,0%,0%)" x1="61.7232" x2="61.4055" y1="26.076" y2="34.3176" /><line stroke="rgb(0%,0%,0%)" x1="64.6783" x2="63.8721" y1="32.62" y2="23.2094" /><line stroke="rgb(0%,0%,0%)" x1="56.0295" x2="72.6844" y1="25.6131" y2="29.9731" /><line stroke="rgb(0%,0%,0%)" x1="62.8688" x2="63.5737" y1="36.6067" y2="39.2447" /><line stroke="rgb(0%,0%,0%)" x1="63.3772" x2="67.3034" y1="39.789" y2="37.828" /><line stroke="rgb(0%,0%,0%)" x1="69.0673" x2="57.5609" y1="31.0685" y2="33.1246" /><line stroke="rgb(0%,0%,0%)" x1="74.4327" x2="65.2691" y1="28.8321" y2="27.1378" /><line stroke="rgb(0%,0%,0%)" x1="68.8429" x2="69.3468" y1="33.6263" y2="23.5144" /><line stroke="rgb(0%,0%,0%)" x1="61.1569" x2="70.0719" y1="39.3814" y2="29.2182" /><line stroke="rgb(100%,100%,0%)" x1="63.4357" x2="56.2807" y1="31.1076" y2="30.957" /><line stroke="rgb(100%,100%,0%)" x1="58.9633" x2="64.3867" y1="24.4891" y2="17.9145" /><line stroke="rgb(100%,100%,0%)" x1="63.3596" x2="72.0293" y1="33.4476" y2="15.8742" /><line stroke="rgb(100%,100%,0%)" x1="66.2053" x2="69.3437" y1="36.5246" y2="33.2828" /><line stroke="rgb(100%,100%,0%)" x1="68.75" x2="57.0944" y1="29.1496" y2="39.814" /><line stroke="rgb(100%,100%,0%)" x1="68.1809" x2="59.6334" y1="21.5763" y2="33.3171" /><line stroke="rgb(100%,100%,0%)" x1="73.8459" x2="63.6728" y1="31.4976" y2="31.5081" /><line stroke="rgb(100%,100%,0%)" x1="59.2856" x2="65.2173" y1="25.792" y2="37.3022" /><line stroke="rgb(100%,100%,0%)" x1="61.4507" x2="65.4775" y1="31.0572" y2="32.1045" /><line stroke="rgb(100%,100%,0%)" x1="70.2446" x2="62.724" y1="29.1167" y2="19.3264" /><text fill="red" font-size="30" transform="rotate(-13, 85, 30)" x="85" y="30">7</text><line stroke="rgb(0%,0%,0%)" x1="81.4708" x2="88.6217" y1="29.5256" y2="20.8625" /><line stroke="rgb(0%,0%,0%)" x1="85.0399" x2="80.2524" y1="35.9058" y2="27.6377" /><line stroke="rgb(0%,0%,0%)" x1="94.9582" x2="87.6041" y1="29.4328" y2="32.8453" /><line stroke="rgb(0%,0%,0%)" x1="83.4274" x2="82.8816" y1="22.3927" y2="32.6134" /><line stroke="rgb(0%,0%,0%)" x1="82.7874" x2="98.95" y1="22.6937" y2="23.4226" /><line stroke="rgb(0%,0%,0%)" x1="80.5994" x2="99.3752" y1="28.4471" y2="27.876" /><line stroke="rgb(0%,0%,0%)" x1="88.2728" x2="80.4984" y1="39.6278" y2="35.235" /><line stroke="rgb(0%,0%,0%)" x1="86.9489" x2="83.3923" y1="24.1292" y2="31.2209" /><line stroke="rgb(0%,0%,0%)" x1="93.2727" x2="80.7628" y1="35.5927" y2="31.9661" /><line stroke="rgb(0%,0%,0%)" x1="82.0653" x2="90.1176" y1="24.0348" y2="28.5687" /><line stroke="rgb(100%,100%,0%)" x1="86.8315" x2="97.8182" y1="27.4301" y2="26.0172" /><line stroke="rgb(100%,100%,0%)" x1="97.152" x2="81.1052" y1="24.6919" y2="25.0801" /><line stroke="rgb(100%,100%,0%)" x1="86.8932" x2="81.9362" y1="38.3088" y2="20.1882" /><line stroke="rgb(100%,100%,0%)" x1="89.6871" x2="92.0488" y1="25.5869" y2="37.7002" /><line stroke="rgb(100%,100%,0%)" x1="97.8143" x2="83.7555" y1="36.815" y2="19.3697" /><line stroke="rgb(100%,100%,0%)" x1="86.4799" x2="90.2082" y1="31.155" y2="15.8343" /><line stroke="rgb(100%,100%,0%)" x1="96.3427" x2="88.3454" y1="26.6705" y2="26.7581" /><line stroke="rgb(100%,100%,0%)" x1="96.2125" x2="92.4686" y1="24.4893" y2="43.0872" /><line stroke="rgb(100%,100%,0%)" x1="93.4645" x2="90.9227" y1="25.4693" y2="15.9592" /><line stroke="rgb(100%,100%,0%)" x1="86.1715" x2="88.0347" y1="35.4891" y2="44.2833" /><text fill="red" font-size="30" transform="rotate(22, 110, 30)" x="110" y="30">G</text><line stroke="rgb(0%,0%,0%)" x1="111.2875" x2="121.6332" y1="38.4029" y2="21.3017" /><line stroke="rgb(0%,0%,0%)" x1="120.3639" x2="105.6841" y1="37.7301" y2="35.0181" /><line stroke="rgb(0%,0%,0%)" x1="119.9456" x2="110.7573" y1="23.5695" y2="35.3382" /><line stroke="rgb(0%,0%,0%)" x1="115.992" x2="123.2209" y1="26.8955" y2="33.1861" /><line stroke="rgb(0%,0%,0%)" x1="107.1736" x2="118.3249" y1="35.2662" y2="37.206" /><line stroke="rgb(0%,0%,0%)" x1="108.7749" x2="107.9939" y1="24.7853" y2="25.8807" /><line stroke="rgb(0%,0%,0%)" x1="105.7257" x2="122.2559" y1="21.3403" y2="24.4999" /><line stroke="rgb(0%,0%,0%)" x1="123.3218" x2="111.4809" y1="26.9968" y2="22.5014" /><line stroke="rgb(0%,0%,0%)" x1="106.8663" x2="111.0395" y1="25.8959" y2="20.8557" /><line stroke="rgb(0%,0%,0%)" x1="123.303" x2="123.7228" y1="23.3056" y2="37.6711" /><line stroke="rgb(100%,100%,0%)" x1="118.3346" x2="108.3093" y1="30.6675" y2="38.8635" /><line stroke="rgb(100%,100%,0%)" x1="106.5847" x2="107.0323" y1="38.7677" y2="38.5187" /><line stroke="rgb(100%,100%,0%)" x1="119.9132" x2="111.5555" y1="26.6251" y2="17.4262" /><line stroke="rgb(100%,100%,0%)" x1="114.9308" x2="122.8776" y1="33.212" y2="42.6636" /><line stroke="rgb(100%,100%,0%)" x1="112.1755" x2="120.0026" y1="32.7977" y2="30.8706" /><line stroke="rgb(100%,100%,0%)" x1="110.0182" x2="121.8626" y1="37.4841" y2="35.3372" /><line stroke="rgb(100%,100%,0%)" x1="123.1224" x2="108.8808" y1="22.0531" y2="40.5208" /><line stroke="rgb(100%,100%,0%)" x1="106.2154" x2="110.0076" y1="22.8419" y2="34.3305" /><line stroke="rgb(100%,100%,0%)" x1="105.0427" x2="107.6933" y1="29.1502" y2="38.4514" /><line stroke="rgb(100%,100%,0%)" x1="117.8668" x2="106.5959" y1="38.1002" y2="30.2438" /></svg>