<?xml version="1.0" encoding="utf-8" ?>
<svg baseProfile="tiny" height="50" version="1.2" width="150" xmlns="http://www.w3.org/2000/svg" xmlns:ev="http://www.w3.org/2001/xml-events" xmlns:xlink="http://www.w3.org/1999/xlink"><defs /><text fill="red" font-size="20" transform="rotate(-1, 10, 30)" x="10" y="30">8</text><line stroke="rgb(0%,0%,0%)" x1="13.6815" x2="23.225" y1="35.6913" y2="23.5365" /><line stroke="rgb(0%,0%,0%)" x1="10.7267" x2="10.7176" y1="32.9941" y2="21.3881" /><line stroke="rgb(0%,0%,0%)" x1="14.6107" x2="19.2224" y1="28.8592" y2="23.9437" /><line stroke="rgb(0%,0%,0%)" x1="19.2128" x2="5.3098" y1="21.1042" y2="39.5838" /><line stroke="rgb(0%,0%,0%)" x1="20.2395" x2="17.9513" y1="39.0443" y2="37.8832" /><line stroke="rgb(0%,0%,0%)" x1="13.6312" x2="9.081" y1="30.4266" y2="21.1963" /><line stroke="rgb(0%,0%,0%)" x1="22.6655" x2="5.3215" y1="37.7007" y2="38.6659" /><line stroke="rgb(0%,0%,0%)" x1="19.4208" x2="22.9803" y1="30.1533" y2="38.1416" /><line stroke="rgb(0%,0%,0%)" x1="20.8635" x2="16.2677" y1="38.0028" y2="27.342" /><line stroke="rgb(0%,0%,0%)" x1="5.6061" x2="23.1708" y1="29.5489" y2="33.1038" /><line stroke="rgb(100%,50%,0%)" x1="20.9326" x2="9.1139" y1="35.7342" y2="40.6358" /><line stroke="rgb(100%,50%,0%)" x1="13.0761" x2="20.9271" y1="35.1546" y2="34.4276" /><line stroke="rgb(100%,50%,0%)" x1="12.8726" x2="15.385" y1="28.2139" y2="37.8332" /><line stroke="rgb(100%,50%,0%)" x1="7.6183" x2="8.1493" y1="29.5351" y2="28.3952" /><line stroke="rgb(100%,50%,0%)" x1="7.5039" x2="5.8711" y1="31.53" y2="19.2213" /><line stroke="rgb(100%,50%,0%)" x1="10.8638" x2="21.278" y1="35.8718" y2="29.2464" /><line stroke="rgb(100%,50%,0%)" x1="20.1608" x2="24.1065" y1="24.8677" y2="39.9554" /><line stroke="rgb(100%,50%,0%)" x1="22.8901" x2="12.2371" y1="33.5113" y2="39.7366" /><line stroke="rgb(100%,50%,0%)" x1="20.0336" x2="6.3188" y1="34.9813" y2="16.5585" /><line stroke="rgb(100%,50%,0%)" x1="14.6017" x2="24.0596" y1="39.2985" y2="38.7867" /><text fill="red" font-size="20" transform="rotate(13, 35, 30)" x="35" y="30">G</text><line stroke="rgb(0%,0%,0%)" x1="35.6772" x2="38.9637" y1="24.154" y2="28.5508" /><line stroke="rgb(0%,0%,0%)" x1="32.4221" x2="49.8634" y1="22.2239" y2="31.8147" /><line stroke="rgb(0%,0%,0%)" x1="49.3331" x2="41.177" y1="24.8789" y2="24.3061" /><line stroke="rgb(0%,0%,0%)" x1="31.0618" x2="47.4821" y1="39.426" y2="28.8573" /><line stroke="rgb(0%,0%,0%)" x1="41.2975" x2="40.6328" y1="21.3666" y2="23.5268" /><line stroke="rgb(0%,0%,0%)" x1="38.3402" x2="41.5386" y1="38.1415" y2="36.1705" /><line stroke="rgb(0%,0%,0%)" x1="38.1015" x2="31.7479" y1="39.8156" y2="24.1624" /><line stroke="rgb(0%,0%,0%)" x1="35.3144" x2="48.3681" y1="25.7698" y2="24.8149" /><line stroke="rgb(0%,0%,0%)" x1="46.0081" x2="49.4076" y1="21.5662" y2="22.6693" /><line stroke="rgb(0%,0%,0%)" x1="40.1646" x2="46.0176" y1="39.3155" y2="29.0572" /><line stroke="rgb(100%,50%,0%)" x1="30.1649" x2="36.8322" y1="22.2005" y2="42.0837" /><line stroke="rgb(100%,50%,0%)" x1="36.6186" x2="33.3962" y1="28.2728" y2="37.0197" /><line stroke="rgb(100%,50%,0%)" x1="33.5818" x2="33.9251" y1="36.9678" y2="23.9256" /><line stroke="rgb(100%,50%,0%)" x1="42.4577" x2="37.9487" y1="21.9284" y2="20.6809" /><line stroke="rgb(100%,50%,0%)" x1="46.7314" x2="42.8304" y1="38.7511" y2="41.0212" /><line stroke="rgb(100%,50%,0%)" x1="46.6979" x2="39.3144" y1="31.9459" y2="16.5341" /><line stroke="rgb(100%,50%,0%)" x1="39.2284" x2="48.5676" y1="36.7049" y2="24.9155" /><line stroke="rgb(100%,50%,0%)" x1="37.8056" x2="43.0591" y1="31.9611" y2="42.7386" /><line stroke="rgb(100%,50%,0%)" x1="31.7527" x2="40.3763" y1="23.4827" y2="33.2176" /><line stroke="rgb(100%,50%,0%)" x1="32.0029" x2="42.0737" y1="39.0943" y2="26.4851" /><text fill="red" font-size="20" transform="rotate(-3, 60, 30)" x="60" y="30">O</text><line stroke="rgb(0%,0%,0%)" x1="73.3953" x2="60.3504" y1="32.2212" y2="38.8831" /><line stroke="rgb(0%,0%,0%)" x1="73.9448" x2="61.6539" y1="32.0241" y2="36.649" /><line stroke="rgb(0%,0%,0%)" x1="67.2365" x2="73.3102" y1="24.4454" y2="22.3069" /><line stroke="rgb(0%,0%,0%)" x1="56.51" x2="72.5625" y1="39.239" y2="31.1244" /><line stroke="rgb(0%,0%,0%)" x1="71.9582" x2="63.4036" y1="27.3017" y2="25.3358" /><line stroke="rgb(0%,0%,0%)" x1="66.9366" x2="66.7878" y1="22.117" y2="37.5361" /><line stroke="rgb(0%,0%,0%)" x1="62.9077" x2="60.3405" y1="33.1617" y2="32.585" /><line stroke="rgb(0%,0%,0%)" x1="66.4979" x2="72.8636" y1="26.9321" y2="37.2802" /><line stroke="rgb(0%,0%,0%)" x1="63.289" x2="56.5203" y1="32.5397" y2="25.8942" /><line stroke="rgb(0%,0%,0%)" x1="69.9397" x2="69.1693" y1="27.4026" y2="24.4476" /><line stroke="rgb(100%,50%,0%)" x1="57.2699" x2="69.9312" y1="30.5696" y2="39.612" /><line stroke="rgb(100%,50%,0%)" x1="71.9771" x2="63.3929" y1="24.7847" y2="29.9266" /><line stroke="rgb(100%,50%,0%)" x1="68.9025" x2="59.2821" y1="30.4818" y2="27.8577" /><line stroke="rgb(100%,50%,0%)" x1="66.0071" x2="73.7412" y1="27.2851" y2="26.1615" /><line stroke="rgb(100%,50%,0%)" x1="73.3985" x2="71.0655" y1="21.535" y2="39.2557" /><line stroke="rgb(100%,50%,0%)" x1="59.255" x2="64.4703" y1="35.0377" y2="26.5464" /><line stroke="rgb(100%,50%,0%)" x1="66.2494" x2="64.2455" y1="25.7801" y2="35.5677" /><line stroke="rgb(100%,50%,0%)" x1="66.3996" x2="62.3484" y1="36.6227" y2="43.7192" /><line stroke="rgb(100%,50%,0%)" x1="73.3336" x2="62.0238" y1="26.4755" y2="28.2197" /><line stroke="rgb(100%,50%,0%)" x1="71.8201" x2="66.1077" y1="33.8934" y2="15.477" /><text fill="red" font-size="20" transform="rotate(28, 85, 30)" x="85" y="30">K</text><line stroke="rgb(0%,0%,0%)" x1="80.1772" x2="89.3521" y1="34.8357" y2="20.4161" /><line stroke="rgb(0%,0%,0%)" x1="81.7684" x2="86.4243" y1="31.1537" y2="20.9292" /><line stroke="rgb(0%,0%,0%)" x1="98.1938" x2="86.9017" y1="39.8983" y2="33.2141" /><line stroke="rgb(0%,0%,0%)" x1="81.1349" x2="95.8285" y1="29.0991" y2="33.7856" /><line stroke="rgb(0%,0%,0%)" x1="95.4048" x2="91.0527" y1="34.1937" y2="39.4815" /><line stroke="rgb(0%,0%,0%)" x1="95.5975" x2="89.6452" y1="36.6431" y2="21.5579" /><line stroke="rgb(0%,0%,0%)" x1="92.1222" x2="98.6237" y1="30.8807" y2="36.0577" /><line stroke="rgb(0%,0%,0%)" x1="86.1409" x2="96.5514" y1="22.1" y2="29.3751" /><line stroke="rgb(0%,0%,0%)" x1="94.239" x2="86.1559" y1="22.5791" y2="29.2719" /><line stroke="rgb(0%,0%,0%)" x1="97.15" x2="89.3058" y1="26.5573" y2="32.2526" /><line stroke="rgb(100%,50%,0%)" x1="99.6278" x2="81.905" y1="38.2907" y2="26.2098" /><line stroke="rgb(100%,50%,0%)" x1="81.6962" x2="93.4134" y1="29.6038" y2="36.871" /><line stroke="rgb(100%,50%,0%)" x1="87.6345" x2="95.1075" y1="29.1693" y2="21.8061" /><line stroke="rgb(100%,50%,0%)" x1="85.9096" x2="92.1994" y1="31.9225" y2="27.6299" /><line stroke="rgb(100%,50%,0%)" x1="80.0934" x2="86.9685" y1="38.9482" y2="42.9668" /><line stroke="rgb(100%,50%,0%)" x1="99.5558" x2="87.3488" y1="35.446" y2="24.1594" /><line stroke="rgb(100%,50%,0%)" x1="88.8714" x2="98.1413" y1="28.7401" y2="22.7651" /><line stroke="rgb(100%,50%,0%)" x1="87.5152" x2="99.0014" y1="31.1732" y2="16.7303" /><line stroke="rgb(100%,50%,0%)" x1="90.5106" x2="96.4283" y1="35.634" y2="34.4019" /><line stroke="rgb(100%,50%,0%)" x1="84.6559" x2="94.872" y1="35.5315" y2="37.4561" /><text fill="red" font-size="20" transform="rotate(14, 110, 30)" x="110" y="30">2</text><line stroke="rgb(0%,0%,0%)" x1="123.8099" x2="106.0805" y1="39.616" y2="28.2289" /><line stroke="rgb(0%,0%,0%)" x1="124.3764" x2="122.5599" y1="24.3255" y2="26.8778" /><line stroke="rgb(0%,0%,0%)" x1="111.8081" x2="107.6473" y1="25.0489" y2="30.9159" /><line stroke="rgb(0%,0%,0%)" x1="113.9768" x2="119.5849" y1="29.5831" y2="26.9628" /><line stroke="rgb(0%,0%,0%)" x1="122.9456" x2="122.8425" y1="24.7614" y2="33.4966" /><line stroke="rgb(0%,0%,0%)" x1="107.5197" x2="121.4055" y1="27.3776" y2="26.6594" /><line stroke="rgb(0%,0%,0%)" x1="116.8568" x2="117.0848" y1="25.4911" y2="32.6153" /><line stroke="rgb(0%,0%,0%)" x1="112.437" x2="108.6806" y1="24.7126" y2="24.5244" /><line stroke="rgb(0%,0%,0%)" x1="107.8946" x2="123.9718" y1="33.9579" y2="29.6076" /><line stroke="rgb(0%,0%,0%)" x1="105.783" x2="113.5762" y1="34.3655" y2="20.0956" /><line stroke="rgb(100%,50%,0%)" x1="112.5593" x2="115.8433" y1="38.2394" y2="20.7277" /><line stroke="rgb(100%,50%,0%)" x1="117.3462" x2="105.2248" y1="38.5732" y2="41.0796" /><line stroke="rgb(100%,50%,0%)" x1="107.1847" x2="106.4959" y1="27.892" y2="15.3604" /><line stroke="rgb(100%,50%,0%)" x1="109.3147" x2="107.926" y1="23.4343" y2="37.0529" /><line stroke="rgb(100%,50%,0%)" x1="113.3327" x2="111.7406" y1="28.2863" y2="23.5743" /><line stroke="rgb(100%,50%,0%)" x1="116.5823" x2="121.0565" y1="29.3745" y2="30.1683" /><line stroke="rgb(100%,50%,0%)" x1="107.5811" x2="108.7558" y1="31.2743" y2="26.0323" /><line stroke="rgb(100%,50%,0%)" x1="107.0246" x2="116.9197" y1="26.4601" y2="25.337" /><line stroke="rgb(100%,50%,0%)" x1="118.5362" x2="122.8189" y1="34.0975" y2="27.6222" /><line stroke="rgb(100%,50%,0%)" x1="111.9505" x2="114.481" y1="33.4334" y2="37.9943" /></svg>