<?xml version="1.0" encoding="utf-8" ?>
<svg baseProfile="tiny" height="50" version="1.2" width="150" xmlns="http://www.w3.org/2000/svg" xmlns:ev="http://www.w3.org/2001/xml-events" xmlns:xlink="http://www.w3.org/1999/xlink"><defs /><text fill="red" font-size="30" transform="rotate(28, 10, 30)" x="10" y="30">J</text><line stroke="rgb(0%,0%,0%)" x1="21.2292" x2="11.5436" y1="35.7819" y2="36.2424" /><line stroke="rgb(0%,0%,0%)" x1="22.3422" x2="17.499" y1="23.8839" y2="39.8705" /><line stroke="rgb(0%,0%,0%)" x1="20.7911" x2="16.3562" y1="23.5769" y2="26.0348" /><line stroke="rgb(0%,0%,0%)" x1="7.7233" x2="18.1193" y1="28.907" y2="34.643" /><line stroke="rgb(0%,0%,0%)" x1="14.4999" x2="9.0194" y1="29.536" y2="23.3193" /><line stroke="rgb(0%,0%,0%)" x1="23.8524" x2="24.1641" y1="38.4664" y2="23.9102" /><line stroke="rgb(0%,0%,0%)" x1="22.9027" x2="11.0949" y1="21.5789" y2="23.3204" /><line stroke="rgb(0%,0%,0%)" x1="17.2005" x2="19.9255" y1="28.6549" y2="23.7319" /><line stroke="rgb(0%,0%,0%)" x1="15.7302" x2="24.6293" y1="37.7748" y2="21.7015" /><line stroke="rgb(0%,0%,0%)" x1="19.2984" x2="23.1383" y1="36.3253" y2="21.8827" /><line stroke="rgb(100%,100%,0%)" x1="5.1161" x2="10.606" y1="38.3968" y2="20.0814" /><line stroke="rgb(100%,100%,0%)" x1="8.834" x2="14.9721" y1="30.6474" y2="19.7919" /><line stroke="rgb(100%,100%,0%)" x1="7.7826" x2="5.5861" y1="33.7421" y2="21.135" /><line stroke="rgb(100%,100%,0%)" x1="21.3469" x2="16.8507" y1="35.3841" y2="39.4327" /><line stroke="rgb(100%,100%,0%)" x1="16.5264" x2="11.0915" y1="36.1306" y2="38.2091" /><line stroke="rgb(100%,100%,0%)" x1="9.9495" x2="24.1377" y1="22.7544" y2="18.9927" /><line stroke="rgb(100%,100%,0%)" x1="16.7635" x2="6.1024" y1="25.6848" y2="43.1993" /><line stroke="rgb(100%,100%,0%)" x1="5.9155" x2="11.6909" y1="25.7359" y2="27.9045" /><line stroke="rgb(100%,100%,0%)" x1="13.8184" x2="17.6819" y1="25.2109" y2="21.6669" /><line stroke="rgb(100%,100%,0%)" x1="6.0644" x2="24.8912" y1="26.9949" y2="23.1096" /><text fill="red" font-size="30" transform="rotate(-8, 35, 30)" x="35" y="30">L</text><line stroke="rgb(0%,0%,0%)" x1="48.4887" x2="37.587" y1="32.8851" y2="21.0864" /><line stroke="rgb(0%,0%,0%)" x1="30.1162" x2="35.229" y1="22.1898" y2="36.1432" /><line stroke="rgb(0%,0%,0%)" x1="40.5402" x2="34.705" y1="26.7043" y2="26.2787" /><line stroke="rgb(0%,0%,0%)" x1="30.1965" x2="47.2592" y1="31.2373" y2="39.1062" /><line stroke="rgb(0%,0%,0%)" x1="35.5062" x2="43.6684" y1="35.8454" y2="36.5368" /><line stroke="rgb(0%,0%,0%)" x1="31.4452" x2="37.178" y1="37.6658" y2="22.5587" /><line stroke="rgb(0%,0%,0%)" x1="46.476" x2="49.7135" y1="33.5303" y2="29.0328" /><line stroke="rgb(0%,0%,0%)" x1="36.3579" x2="48.3246" y1="27.926" y2="35.6032" /><line stroke="rgb(0%,0%,0%)" x1="32.5005" x2="32.7757" y1="38.6261" y2="22.8574" /><line stroke="rgb(0%,0%,0%)" x1="41.1849" x2="35.1283" y1="26.0653" y2="26.8263" /><line stroke="rgb(100%,100%,0%)" x1="31.4624" x2="45.7989" y1="30.1557" y2="25.8314" /><line stroke="rgb(100%,100%,0%)" x1="42.2764" x2="30.9478" y1="31.8264" y2="19.1599" /><line stroke="rgb(100%,100%,0%)" x1="33.9243" x2="38.9239" y1="33.2767" y2="34.7163" /><line stroke="rgb(100%,100%,0%)" x1="39.5319" x2="48.4481" y1="32.2103" y2="31.7369" /><line stroke="rgb(100%,100%,0%)" x1="48.892" x2="33.3866" y1="29.0048" y2="34.2664" /><line stroke="rgb(100%,100%,0%)" x1="41.1947" x2="49.9584" y1="37.0279" y2="27.2884" /><line stroke="rgb(100%,100%,0%)" x1="38.1172" x2="33.0851" y1="35.0296" y2="21.488" /><line stroke="rgb(100%,100%,0%)" x1="47.9209" x2="39.9127" y1="32.2343" y2="39.2053" /><line stroke="rgb(100%,100%,0%)" x1="30.0595" x2="44.4993" y1="25.6868" y2="44.8633" /><line stroke="rgb(100%,100%,0%)" x1="42.4469" x2="30.1003" y1="20.5232" y2="15.5938" /><text fill="red" font-size="30" transform="rotate(6, 60, 30)" x="60" y="30">I</text><line stroke="rgb(0%,0%,0%)" x1="55.1862" x2="66.492" y1="23.1754" y2="37.8411" /><line stroke="rgb(0%,0%,0%)" x1="74.0159" x2="68.7278" y1="39.8813" y2="20.1193" /><line stroke="rgb(0%,0%,0%)" x1="65.3596" x2="69.9289" y1="22.1777" y2="38.5735" /><line stroke="rgb(0%,0%,0%)" x1="70.8934" x2="56.7332" y1="25.5936" y2="24.99" /><line stroke="rgb(0%,0%,0%)" x1="70.9748" x2="67.8993" y1="26.0313" y2="22.4438" /><line stroke="rgb(0%,0%,0%)" x1="72.4023" x2="59.0027" y1="39.4003" y2="22.7555" /><line stroke="rgb(0%,0%,0%)" x1="70.5664" x2="67.0618" y1="34.8228" y2="21.75" /><line stroke="rgb(0%,0%,0%)" x1="68.6077" x2="74.2756" y1="30.4882" y2="37.0121" /><line stroke="rgb(0%,0%,0%)" x1="72.2537" x2="66.2143" y1="37.8244" y2="20.8264" /><line stroke="rgb(0%,0%,0%)" x1="73.3159" x2="64.9444" y1="23.0988" y2="20.5438" /><line stroke="rgb(100%,100%,0%)" x1="63.467" x2="73.8039" y1="26.8607" y2="28.2644" /><line stroke="rgb(100%,100%,0%)" x1="69.4447" x2="73.8803" y1="33.8919" y2="18.7856" /><line stroke="rgb(100%,100%,0%)" x1="64.0872" x2="61.3329" y1="33.0503" y2="26.7746" /><line stroke="rgb(100%,100%,0%)" x1="57.9383" x2="58.0803" y1="32.4247" y2="21.8475" /><line stroke="rgb(100%,100%,0%)" x1="61.8474" x2="60.0815" y1="23.0618" y2="40.2141" /><line stroke="rgb(100%,100%,0%)" x1="66.3029" x2="62.6884" y1="23.2135" y2="37.8184" /><line stroke="rgb(100%,100%,0%)" x1="74.9278" x2="72.2027" y1="32.4882" y2="23.4621" /><line stroke="rgb(100%,100%,0%)" x1="56.5824" x2="64.0155" y1="25.6966" y2="42.1853" /><line stroke="rgb(100%,100%,0%)" x1="70.4709" x2="73.8945" y1="20.0448" y2="41.1652" /><line stroke="rgb(100%,100%,0%)" x1="67.8012" x2="62.6328" y1="38.8422" y2="43.7763" /><text fill="red" font-size="30" transform="rotate(8, 85, 30)" x="85" y="30">B</text><line stroke="rgb(0%,0%,0%)" x1="97.1883" x2="84.5144" y1="25.956" y2="23.1436" /><line stroke="rgb(0%,0%,0%)" x1="93.0729" x2="84.3125" y1="30.5836" y2="37.9447" /><line stroke="rgb(0%,0%,0%)" x1="84.4516" x2="83.3695" y1="25.8037" y2="20.4701" /><line stroke="rgb(0%,0%,0%)" x1="89.0792" x2="98.2459" y1="22.8646" y2="37.0235" /><line stroke="rgb(0%,0%,0%)" x1="85.3838" x2="83.4803" y1="31.2082" y2="31.9486" /><line stroke="rgb(0%,0%,0%)" x1="85.0903" x2="84.9154" y1="39.1762" y2="35.4188" /><line stroke="rgb(0%,0%,0%)" x1="89.3793" x2="92.6195" y1="30.709" y2="21.7469" /><line stroke="rgb(0%,0%,0%)" x1="80.5327" x2="92.4514" y1="30.9975" y2="38.1483" /><line stroke="rgb(0%,0%,0%)" x1="81.5163" x2="80.345" y1="29.4726" y2="38.7103" /><line stroke="rgb(0%,0%,0%)" x1="98.1177" x2="87.3507" y1="38.2175" y2="32.4562" /><line stroke="rgb(100%,100%,0%)" x1="97.7623" x2="98.136" y1="31.255" y2="26.1727" /><line stroke="rgb(100%,100%,0%)" x1="93.3072" x2="96.6129" y1="22.173" y2="33.871" /><line stroke="rgb(100%,100%,0%)" x1="87.7866" x2="99.8477" y1="33.4175" y2="24.1793" /><line stroke="rgb(100%,100%,0%)" x1="90.9995" x2="83.2409" y1="28.2845" y2="24.1893" /><line stroke="rgb(100%,100%,0%)" x1="84.8791" x2="96.9759" y1="31.8673" y2="21.0307" /><line stroke="rgb(100%,100%,0%)" x1="87.7747" x2="86.3241" y1="24.6366" y2="37.109" /><line stroke="rgb(100%,100%,0%)" x1="86.9664" x2="94.4675" y1="28.5278" y2="16.3818" /><line stroke="rgb(100%,100%,0%)" x1="94.9054" x2="87.8974" y1="39.7879" y2="15.9714" /><line stroke="rgb(100%,100%,0%)" x1="82.3256" x2="80.4711" y1="38.9345" y2="18.3129" /><line stroke="rgb(100%,100%,0%)" x1="99.0237" x2="94.2398" y1="35.4103" y2="21.1402" /><text fill="red" font-size="30" transform="rotate(-17, 110, 30)" x="110" y="30">F</text><line stroke="rgb(0%,0%,0%)" x1="110.6145" x2="112.2035" y1="28.4164" y2="39.2778" /><line stroke="rgb(0%,0%,0%)" x1="121.0349" x2="119.6147" y1="24.4157" y2="32.2464" /><line stroke="rgb(0%,0%,0%)" x1="109.0577" x2="111.9919" y1="22.1194" y2="22.2924" /><line stroke="rgb(0%,0%,0%)" x1="117.1982" x2="111.4783" y1="30.9702" y2="24.4643" /><line stroke="rgb(0%,0%,0%)" x1="117.7938" x2="109.0295" y1="33.9741" y2="28.852" /><line stroke="rgb(0%,0%,0%)" x1="116.3225" x2="110.5655" y1="35.8209" y2="32.069" /><line stroke="rgb(0%,0%,0%)" x1="118.289" x2="124.4436" y1="24.019" y2="27.7621" /><line stroke="rgb(0%,0%,0%)" x1="121.5474" x2="110.9406" y1="23.7306" y2="21.4238" /><line stroke="rgb(0%,0%,0%)" x1="105.1891" x2="123.4681" y1="27.0609" y2="32.3148" /><line stroke="rgb(0%,0%,0%)" x1="108.0394" x2="116.834" y1="27.7892" y2="24.8541" /><line stroke="rgb(100%,100%,0%)" x1="119.1279" x2="107.6923" y1="35.8157" y2="28.55" /><line stroke="rgb(100%,100%,0%)" x1="118.0411" x2="118.1033" y1="24.1464" y2="18.3518" /><line stroke="rgb(100%,100%,0%)" x1="123.4442" x2="116.2351" y1="31.4511" y2="26.0113" /><line stroke="rgb(100%,100%,0%)" x1="106.6997" x2="119.2732" y1="35.6706" y2="27.1407" /><line stroke="rgb(100%,100%,0%)" x1="113.6179" x2="110.2659" y1="22.7921" y2="15.1318" /><line stroke="rgb(100%,100%,0%)" x1="117.369" x2="120.9316" y1="38.0748" y2="29.3073" /><line stroke="rgb(100%,100%,0%)" x1="111.6093" x2="107.8962" y1="39.7307" y2="29.0713" /><line stroke="rgb(100%,100%,0%)" x1="119.377" x2="121.7703" y1="32.8611" y2="24.3897" /><line stroke="rgb(100%,100%,0%)" x1="113.8586" x2="112.3966" y1="21.3381" y2="15.724" /><line stroke="rgb(100%,100%,0%)" x1="123.8539" x2="124.9778" y1="26.3623" y2="21.6288" /></svg>