<?xml version="1.0" encoding="utf-8" ?>
<svg baseProfile="tiny" height="50" version="1.2" width="150" xmlns="http://www.w3.org/2000/svg" xmlns:ev="http://www.w3.org/2001/xml-events" xmlns:xlink="http://www.w3.org/1999/xlink"><defs /><text fill="red" font-size="30" transform="rotate(-13, 10, 30)" x="10" y="30">4</text><line stroke="rgb(0%,0%,0%)" x1="11.4147" x2="21.8429" y1="21.7993" y2="39.9595" /><line stroke="rgb(0%,0%,0%)" x1="23.3407" x2="6.933" y1="28.2356" y2="20.4681" /><line stroke="rgb(0%,0%,0%)" x1="17.0557" x2="7.6057" y1="36.5414" y2="34.3507" /><line stroke="rgb(0%,0%,0%)" x1="17.5908" x2="15.5032" y1="35.1249" y2="37.3817" /><line stroke="rgb(0%,0%,0%)" x1="10.7173" x2="9.0545" y1="29.1769" y2="26.9229" /><line stroke="rgb(0%,0%,0%)" x1="13.199" x2="12.8213" y1="27.1982" y2="34.8947" /><line stroke="rgb(0%,0%,0%)" x1="24.3687" x2="10.5098" y1="28.0796" y2="26.3898" /><line stroke="rgb(0%,0%,0%)" x1="23.208" x2="8.3327" y1="35.3942" y2="34.7204" /><line stroke="rgb(0%,0%,0%)" x1="21.3424" x2="23.7692" y1="26.444" y2="28.7979" /><line stroke="rgb(0%,0%,0%)" x1="17.7894" x2="23.3735" y1="29.5002" y2="33.6353" /><line stroke="rgb(100%,100%,0%)" x1="13.9533" x2="9.2178" y1="39.8304" y2="40.4335" /><line stroke="rgb(100%,100%,0%)" x1="10.747" x2="8.5362" y1="21.0839" y2="26.9379" /><line stroke="rgb(100%,100%,0%)" x1="14.1123" x2="13.7962" y1="29.5593" y2="18.3889" /><line stroke="rgb(100%,100%,0%)" x1="24.5134" x2="6.2703" y1="22.9815" y2="43.7479" /><line stroke="rgb(100%,100%,0%)" x1="16.1454" x2="11.9031" y1="20.135" y2="19.5819" /><line stroke="rgb(100%,100%,0%)" x1="8.2367" x2="19.193" y1="30.2929" y2="19.621" /><line stroke="rgb(100%,100%,0%)" x1="13.9115" x2="13.4886" y1="23.4325" y2="39.979" /><line stroke="rgb(100%,100%,0%)" x1="5.4245" x2="19.8666" y1="30.3543" y2="22.873" /><line stroke="rgb(100%,100%,0%)" x1="5.6782" x2="19.823" y1="39.7895" y2="40.8042" /><line stroke="rgb(100%,100%,0%)" x1="15.4254" x2="14.1811" y1="34.1642" y2="25.7508" /><text fill="red" font-size="30" transform="rotate(12, 35, 30)" x="35" y="30">R</text><line stroke="rgb(0%,0%,0%)" x1="45.7038" x2="34.6773" y1="25.3614" y2="25.8156" /><line stroke="rgb(0%,0%,0%)" x1="49.1062" x2="48.6112" y1="22.0472" y2="27.5534" /><line stroke="rgb(0%,0%,0%)" x1="43.8384" x2="36.3696" y1="28.3431" y2="37.6131" /><line stroke="rgb(0%,0%,0%)" x1="36.0842" x2="35.8402" y1="20.5525" y2="27.2017" /><line stroke="rgb(0%,0%,0%)" x1="40.2285" x2="36.3991" y1="30.6746" y2="26.261" /><line stroke="rgb(0%,0%,0%)" x1="38.6593" x2="46.1763" y1="26.6491" y2="27.294" /><line stroke="rgb(0%,0%,0%)" x1="42.7902" x2="45.6344" y1="37.8898" y2="35.6374" /><line stroke="rgb(0%,0%,0%)" x1="32.8176" x2="31.4125" y1="35.9207" y2="22.3277" /><line stroke="rgb(0%,0%,0%)" x1="40.2828" x2="41.9887" y1="30.8882" y2="27.6535" /><line stroke="rgb(0%,0%,0%)" x1="33.8821" x2="35.0663" y1="22.2321" y2="39.975" /><line stroke="rgb(100%,100%,0%)" x1="35.2567" x2="42.8245" y1="35.3258" y2="32.2437" /><line stroke="rgb(100%,100%,0%)" x1="40.7801" x2="32.9016" y1="28.5085" y2="27.3125" /><line stroke="rgb(100%,100%,0%)" x1="46.6868" x2="41.125" y1="37.635" y2="38.2323" /><line stroke="rgb(100%,100%,0%)" x1="31.0509" x2="38.3575" y1="22.5615" y2="18.1478" /><line stroke="rgb(100%,100%,0%)" x1="37.1751" x2="35.9948" y1="22.1477" y2="41.7179" /><line stroke="rgb(100%,100%,0%)" x1="48.5612" x2="35.7357" y1="22.376" y2="26.8544" /><line stroke="rgb(100%,100%,0%)" x1="45.9005" x2="47.0212" y1="33.3619" y2="23.1861" /><line stroke="rgb(100%,100%,0%)" x1="43.1751" x2="34.9583" y1="28.6732" y2="42.1349" /><line stroke="rgb(100%,100%,0%)" x1="40.1986" x2="35.6052" y1="23.5603" y2="41.0865" /><line stroke="rgb(100%,100%,0%)" x1="39.0824" x2="43.1" y1="35.6583" y2="28.8068" /><text fill="red" font-size="30" transform="rotate(5, 60, 30)" x="60" y="30">9</text><line stroke="rgb(0%,0%,0%)" x1="58.7062" x2="71.8636" y1="23.7668" y2="34.2058" /><line stroke="rgb(0%,0%,0%)" x1="55.9482" x2="69.6269" y1="36.7547" y2="25.2536" /><line stroke="rgb(0%,0%,0%)" x1="67.2095" x2="60.6613" y1="28.0798" y2="22.2429" /><line stroke="rgb(0%,0%,0%)" x1="64.6586" x2="64.8037" y1="36.5074" y2="21.3878" /><line stroke="rgb(0%,0%,0%)" x1="65.9216" x2="73.0897" y1="26.6228" y2="27.317" /><line stroke="rgb(0%,0%,0%)" x1="70.2265" x2="72.966" y1="24.7134" y2="23.1326" /><line stroke="rgb(0%,0%,0%)" x1="73.9408" x2="74.7692" y1="22.8184" y2="23.0863" /><line stroke="rgb(0%,0%,0%)" x1="63.5472" x2="69.8468" y1="39.9254" y2="28.779" /><line stroke="rgb(0%,0%,0%)" x1="70.825" x2="72.2616" y1="34.2668" y2="34.0617" /><line stroke="rgb(0%,0%,0%)" x1="60.284" x2="65.2529" y1="35.4111" y2="29.532" /><line stroke="rgb(100%,100%,0%)" x1="63.0129" x2="67.3411" y1="35.4045" y2="35.2665" /><line stroke="rgb(100%,100%,0%)" x1="68.5387" x2="64.8465" y1="21.0957" y2="22.8843" /><line stroke="rgb(100%,100%,0%)" x1="70.4785" x2="72.1282" y1="38.5674" y2="24.3833" /><line stroke="rgb(100%,100%,0%)" x1="64.8523" x2="55.7691" y1="22.4983" y2="27.5872" /><line stroke="rgb(100%,100%,0%)" x1="62.4896" x2="71.9637" y1="26.0714" y2="23.0774" /><line stroke="rgb(100%,100%,0%)" x1="74.5454" x2="58.7797" y1="24.5631" y2="27.2549" /><line stroke="rgb(100%,100%,0%)" x1="72.3223" x2="70.4854" y1="25.7023" y2="25.5519" /><line stroke="rgb(100%,100%,0%)" x1="58.4468" x2="56.8558" y1="38.4818" y2="17.1229" /><line stroke="rgb(100%,100%,0%)" x1="64.5085" x2="71.4875" y1="33.7222" y2="37.7055" /><line stroke="rgb(100%,100%,0%)" x1="65.2195" x2="70.283" y1="26.4482" y2="32.9544" /><text fill="red" font-size="30" transform="rotate(-12, 85, 30)" x="85" y="30">M</text><line stroke="rgb(0%,0%,0%)" x1="96.3496" x2="87.8273" y1="33.1694" y2="20.0166" /><line stroke="rgb(0%,0%,0%)" x1="84.7816" x2="89.6731" y1="29.9468" y2="32.7893" /><line stroke="rgb(0%,0%,0%)" x1="81.3044" x2="97.8728" y1="36.6139" y2="35.6945" /><line stroke="rgb(0%,0%,0%)" x1="96.769" x2="95.5091" y1="26.1554" y2="23.5558" /><line stroke="rgb(0%,0%,0%)" x1="95.2132" x2="95.9733" y1="28.3518" y2="31.9186" /><line stroke="rgb(0%,0%,0%)" x1="86.4307" x2="99.9967" y1="38.0873" y2="25.7365" /><line stroke="rgb(0%,0%,0%)" x1="80.358" x2="88.7178" y1="20.9467" y2="20.927" /><line stroke="rgb(0%,0%,0%)" x1="82.4115" x2="88.1748" y1="36.9003" y2="34.6244" /><line stroke="rgb(0%,0%,0%)" x1="86.2653" x2="93.4374" y1="29.2121" y2="35.5438" /><line stroke="rgb(0%,0%,0%)" x1="99.5975" x2="80.0624" y1="38.0359" y2="21.4185" /><line stroke="rgb(100%,100%,0%)" x1="88.8301" x2="93.4097" y1="21.8374" y2="38.7984" /><line stroke="rgb(100%,100%,0%)" x1="95.7134" x2="82.2066" y1="39.7318" y2="35.8062" /><line stroke="rgb(100%,100%,0%)" x1="86.5454" x2="91.4767" y1="30.3132" y2="16.7814" /><line stroke="rgb(100%,100%,0%)" x1="95.9098" x2="82.3583" y1="31.3669" y2="16.0517" /><line stroke="rgb(100%,100%,0%)" x1="95.9584" x2="87.5311" y1="23.0413" y2="20.1227" /><line stroke="rgb(100%,100%,0%)" x1="90.3365" x2="98.8894" y1="37.5267" y2="24.822" /><line stroke="rgb(100%,100%,0%)" x1="93.9378" x2="90.3189" y1="32.7952" y2="24.5703" /><line stroke="rgb(100%,100%,0%)" x1="80.3882" x2="99.0074" y1="22.3927" y2="30.4548" /><line stroke="rgb(100%,100%,0%)" x1="87.4363" x2="93.474" y1="28.3205" y2="21.8528" /><line stroke="rgb(100%,100%,0%)" x1="96.2614" x2="90.1652" y1="28.3505" y2="31.2091" /><text fill="red" font-size="30" transform="rotate(-2, 110, 30)" x="110" y="30">C</text><line stroke="rgb(0%,0%,0%)" x1="106.3976" x2="113.7129" y1="35.8613" y2="23.0832" /><line stroke="rgb(0%,0%,0%)" x1="105.36" x2="110.9375" y1="37.6525" y2="30.7498" /><line stroke="rgb(0%,0%,0%)" x1="124.9123" x2="114.2281" y1="25.686" y2="23.0506" /><line stroke="rgb(0%,0%,0%)" x1="120.2078" x2="112.6034" y1="27.2501" y2="37.6341" /><line stroke="rgb(0%,0%,0%)" x1="121.0125" x2="116.4301" y1="27.7555" y2="39.3539" /><line stroke="rgb(0%,0%,0%)" x1="124.5587" x2="110.5025" y1="21.5694" y2="26.7374" /><line stroke="rgb(0%,0%,0%)" x1="114.7689" x2="110.3256" y1="34.2558" y2="30.4189" /><line stroke="rgb(0%,0%,0%)" x1="121.226" x2="124.4807" y1="28.1763" y2="24.6413" /><line stroke="rgb(0%,0%,0%)" x1="121.3945" x2="117.5575" y1="29.6723" y2="28.2136" /><line stroke="rgb(0%,0%,0%)" x1="121.5834" x2="123.1913" y1="25.6293" y2="33.641" /><line stroke="rgb(100%,100%,0%)" x1="123.4791" x2="123.6165" y1="23.7901" y2="17.7727" /><line stroke="rgb(100%,100%,0%)" x1="121.2152" x2="121.3725" y1="31.9312" y2="26.9277" /><line stroke="rgb(100%,100%,0%)" x1="116.4268" x2="111.6998" y1="20.3106" y2="41.814" /><line stroke="rgb(100%,100%,0%)" x1="109.7007" x2="124.396" y1="35.3709" y2="37.1693" /><line stroke="rgb(100%,100%,0%)" x1="110.5517" x2="118.6681" y1="30.1995" y2="39.0096" /><line stroke="rgb(100%,100%,0%)" x1="111.5659" x2="114.3756" y1="23.0444" y2="19.271" /><line stroke="rgb(100%,100%,0%)" x1="115.581" x2="118.9579" y1="30.0165" y2="18.8522" /><line stroke="rgb(100%,100%,0%)" x1="122.9748" x2="108.4586" y1="31.7137" y2="35.5715" /><line stroke="rgb(100%,100%,0%)" x1="116.8177" x2="120.3698" y1="34.5871" y2="22.0336" /><line stroke="rgb(100%,100%,0%)" x1="115.7189" x2="115.5536" y1="24.6874" y2="17.8288" /></svg>