<?xml version="1.0" encoding="utf-8" ?>
<svg baseProfile="tiny" height="50" version="1.2" width="150" xmlns="http://www.w3.org/2000/svg" xmlns:ev="http://www.w3.org/2001/xml-events" xmlns:xlink="http://www.w3.org/1999/xlink"><defs /><text fill="red" font-size="30" transform="rotate(-26, 10, 30)" x="10" y="30">9</text><line stroke="rgb(0%,0%,0%)" x1="7.5941" x2="15.8389" y1="30.8417" y2="21.1456" /><line stroke="rgb(0%,0%,0%)" x1="8.7433" x2="8.108" y1="36.9996" y2="27.1105" /><line stroke="rgb(0%,0%,0%)" x1="8.5688" x2="5.4346" y1="32.3363" y2="30.0252" /><line stroke="rgb(0%,0%,0%)" x1="24.4762" x2="9.3655" y1="37.6283" y2="36.8359" /><line stroke="rgb(0%,0%,0%)" x1="11.327" x2="16.7423" y1="22.6852" y2="31.9996" /><line stroke="rgb(0%,0%,0%)" x1="8.0838" x2="22.3335" y1="36.8149" y2="24.496" /><line stroke="rgb(0%,0%,0%)" x1="22.4372" x2="6.2499" y1="29.4856" y2="30.1541" /><line stroke="rgb(0%,0%,0%)" x1="5.8934" x2="19.8771" y1="34.345" y2="29.1684" /><line stroke="rgb(0%,0%,0%)" x1="20.9105" x2="14.7488" y1="39.1638" y2="22.3512" /><line stroke="rgb(0%,0%,0%)" x1="22.7979" x2="7.7474" y1="26.9419" y2="34.2511" /><line stroke="rgb(100%,100%,0%)" x1="24.0756" x2="23.3597" y1="39.8639" y2="26.8878" /><line stroke="rgb(100%,100%,0%)" x1="8.409" x2="6.9681" y1="23.9558" y2="32.5831" /><line stroke="rgb(100%,100%,0%)" x1="10.0828" x2="7.2161" y1="36.9811" y2="19.5687" /><line stroke="rgb(100%,100%,0%)" x1="17.3231" x2="23.3937" y1="23.8216" y2="37.4275" /><line stroke="rgb(100%,100%,0%)" x1="21.3791" x2="14.3083" y1="20.4029" y2="32.5801" /><line stroke="rgb(100%,100%,0%)" x1="9.5381" x2="16.3122" y1="34.7063" y2="28.365" /><line stroke="rgb(100%,100%,0%)" x1="15.7103" x2="7.4009" y1="21.4494" y2="28.7691" /><line stroke="rgb(100%,100%,0%)" x1="15.0373" x2="22.9276" y1="31.4543" y2="38.0911" /><line stroke="rgb(100%,100%,0%)" x1="6.1127" x2="24.4063" y1="28.1269" y2="17.3538" /><line stroke="rgb(100%,100%,0%)" x1="17.0133" x2="7.6308" y1="29.9897" y2="40.5271" /><text fill="red" font-size="30" transform="rotate(-30, 35, 30)" x="35" y="30">Y</text><line stroke="rgb(0%,0%,0%)" x1="39.3904" x2="36.4109" y1="35.6012" y2="30.5279" /><line stroke="rgb(0%,0%,0%)" x1="37.6446" x2="40.4956" y1="37.202" y2="33.1723" /><line stroke="rgb(0%,0%,0%)" x1="33.6678" x2="47.7505" y1="20.4398" y2="39.7184" /><line stroke="rgb(0%,0%,0%)" x1="44.3207" x2="47.0551" y1="34.0342" y2="38.2114" /><line stroke="rgb(0%,0%,0%)" x1="43.0873" x2="30.3739" y1="33.4391" y2="26.209" /><line stroke="rgb(0%,0%,0%)" x1="43.4664" x2="35.3714" y1="29.8201" y2="27.3841" /><line stroke="rgb(0%,0%,0%)" x1="38.1646" x2="41.8267" y1="35.5254" y2="38.534" /><line stroke="rgb(0%,0%,0%)" x1="39.4113" x2="31.7" y1="37.0572" y2="35.9277" /><line stroke="rgb(0%,0%,0%)" x1="33.153" x2="30.4163" y1="26.8083" y2="39.7017" /><line stroke="rgb(0%,0%,0%)" x1="48.9573" x2="49.9356" y1="34.4936" y2="31.9363" /><line stroke="rgb(100%,100%,0%)" x1="43.0715" x2="46.5368" y1="35.7963" y2="23.8652" /><line stroke="rgb(100%,100%,0%)" x1="33.4281" x2="35.7012" y1="36.5995" y2="31.8461" /><line stroke="rgb(100%,100%,0%)" x1="32.7964" x2="41.8654" y1="39.5816" y2="32.6852" /><line stroke="rgb(100%,100%,0%)" x1="49.509" x2="34.9927" y1="23.822" y2="25.7149" /><line stroke="rgb(100%,100%,0%)" x1="48.0435" x2="40.5288" y1="33.6252" y2="27.7257" /><line stroke="rgb(100%,100%,0%)" x1="45.339" x2="47.3568" y1="25.587" y2="35.4075" /><line stroke="rgb(100%,100%,0%)" x1="33.6379" x2="32.6482" y1="23.4648" y2="32.3675" /><line stroke="rgb(100%,100%,0%)" x1="44.9755" x2="42.5535" y1="21.2511" y2="41.4349" /><line stroke="rgb(100%,100%,0%)" x1="49.3902" x2="39.6966" y1="30.2113" y2="44.7735" /><line stroke="rgb(100%,100%,0%)" x1="47.6019" x2="41.2847" y1="20.0584" y2="29.1462" /><text fill="red" font-size="30" transform="rotate(21, 60, 30)" x="60" y="30">Z</text><line stroke="rgb(0%,0%,0%)" x1="58.1817" x2="66.5615" y1="23.1521" y2="39.6654" /><line stroke="rgb(0%,0%,0%)" x1="59.7971" x2="59.1649" y1="36.048" y2="22.7275" /><line stroke="rgb(0%,0%,0%)" x1="58.3697" x2="62.8657" y1="34.0188" y2="37.3491" /><line stroke="rgb(0%,0%,0%)" x1="59.6942" x2="65.5399" y1="27.0824" y2="33.5872" /><line stroke="rgb(0%,0%,0%)" x1="71.0169" x2="66.2123" y1="37.8269" y2="38.7221" /><line stroke="rgb(0%,0%,0%)" x1="61.9497" x2="74.3065" y1="24.8665" y2="27.5854" /><line stroke="rgb(0%,0%,0%)" x1="71.0187" x2="71.5088" y1="25.7775" y2="37.4308" /><line stroke="rgb(0%,0%,0%)" x1="58.2475" x2="64.0273" y1="24.4836" y2="33.7188" /><line stroke="rgb(0%,0%,0%)" x1="64.4014" x2="59.0794" y1="32.8036" y2="37.4634" /><line stroke="rgb(0%,0%,0%)" x1="57.2654" x2="55.207" y1="21.4121" y2="33.8874" /><line stroke="rgb(100%,100%,0%)" x1="63.6655" x2="74.3857" y1="26.5802" y2="18.792" /><line stroke="rgb(100%,100%,0%)" x1="59.9039" x2="65.7697" y1="38.1963" y2="27.0926" /><line stroke="rgb(100%,100%,0%)" x1="66.3324" x2="55.5875" y1="20.5699" y2="20.9934" /><line stroke="rgb(100%,100%,0%)" x1="59.0353" x2="59.2028" y1="23.725" y2="30.2127" /><line stroke="rgb(100%,100%,0%)" x1="67.62" x2="67.3666" y1="23.2816" y2="37.996" /><line stroke="rgb(100%,100%,0%)" x1="60.4221" x2="72.8056" y1="37.2718" y2="42.8372" /><line stroke="rgb(100%,100%,0%)" x1="57.2488" x2="64.4827" y1="38.4745" y2="21.3146" /><line stroke="rgb(100%,100%,0%)" x1="65.9682" x2="69.3615" y1="29.8425" y2="44.1968" /><line stroke="rgb(100%,100%,0%)" x1="69.3112" x2="63.3503" y1="27.5715" y2="43.0312" /><line stroke="rgb(100%,100%,0%)" x1="71.353" x2="65.4761" y1="22.2547" y2="44.9184" /><text fill="red" font-size="30" transform="rotate(8, 85, 30)" x="85" y="30">G</text><line stroke="rgb(0%,0%,0%)" x1="87.9693" x2="92.766" y1="33.5156" y2="32.7255" /><line stroke="rgb(0%,0%,0%)" x1="96.4604" x2="88.5212" y1="35.1269" y2="26.1038" /><line stroke="rgb(0%,0%,0%)" x1="89.7117" x2="99.8798" y1="38.8141" y2="28.468" /><line stroke="rgb(0%,0%,0%)" x1="90.9029" x2="88.5177" y1="33.6311" y2="26.1878" /><line stroke="rgb(0%,0%,0%)" x1="93.5591" x2="94.6029" y1="21.1033" y2="31.3714" /><line stroke="rgb(0%,0%,0%)" x1="84.2063" x2="97.5652" y1="32.561" y2="35.4245" /><line stroke="rgb(0%,0%,0%)" x1="84.2706" x2="95.1949" y1="36.7547" y2="31.5486" /><line stroke="rgb(0%,0%,0%)" x1="99.3793" x2="81.4651" y1="38.2267" y2="31.3114" /><line stroke="rgb(0%,0%,0%)" x1="90.4347" x2="99.246" y1="25.2903" y2="25.582" /><line stroke="rgb(0%,0%,0%)" x1="92.8578" x2="96.8016" y1="20.713" y2="20.2585" /><line stroke="rgb(100%,100%,0%)" x1="88.7376" x2="96.099" y1="36.7353" y2="31.2305" /><line stroke="rgb(100%,100%,0%)" x1="98.3791" x2="84.0414" y1="24.3907" y2="19.0658" /><line stroke="rgb(100%,100%,0%)" x1="85.6619" x2="92.3663" y1="24.7027" y2="21.6437" /><line stroke="rgb(100%,100%,0%)" x1="91.3718" x2="94.7681" y1="21.743" y2="38.602" /><line stroke="rgb(100%,100%,0%)" x1="90.4113" x2="94.464" y1="36.2786" y2="30.1071" /><line stroke="rgb(100%,100%,0%)" x1="91.5648" x2="82.505" y1="27.4667" y2="32.2103" /><line stroke="rgb(100%,100%,0%)" x1="97.857" x2="80.6897" y1="21.0914" y2="25.0445" /><line stroke="rgb(100%,100%,0%)" x1="89.3996" x2="85.3102" y1="28.4814" y2="44.4964" /><line stroke="rgb(100%,100%,0%)" x1="84.6422" x2="85.414" y1="21.401" y2="24.1055" /><line stroke="rgb(100%,100%,0%)" x1="87.719" x2="90.3948" y1="31.7458" y2="40.496" /><text fill="red" font-size="30" transform="rotate(18, 110, 30)" x="110" y="30">U</text><line stroke="rgb(0%,0%,0%)" x1="122.5037" x2="116.996" y1="26.1369" y2="37.1176" /><line stroke="rgb(0%,0%,0%)" x1="118.5069" x2="105.8569" y1="25.4046" y2="23.7861" /><line stroke="rgb(0%,0%,0%)" x1="112.3463" x2="120.5258" y1="27.4449" y2="23.7904" /><line stroke="rgb(0%,0%,0%)" x1="112.4034" x2="121.7756" y1="35.2043" y2="20.8589" /><line stroke="rgb(0%,0%,0%)" x1="107.2877" x2="119.2631" y1="31.9941" y2="37.6796" /><line stroke="rgb(0%,0%,0%)" x1="109.8414" x2="123.8237" y1="38.7627" y2="26.5832" /><line stroke="rgb(0%,0%,0%)" x1="121.1738" x2="108.994" y1="30.2358" y2="31.6793" /><line stroke="rgb(0%,0%,0%)" x1="123.395" x2="121.7792" y1="26.5131" y2="21.0165" /><line stroke="rgb(0%,0%,0%)" x1="111.6592" x2="115.7489" y1="30.4723" y2="25.285" /><line stroke="rgb(0%,0%,0%)" x1="118.7544" x2="108.948" y1="36.6242" y2="30.3132" /><line stroke="rgb(100%,100%,0%)" x1="113.6585" x2="117.6654" y1="28.7847" y2="30.651" /><line stroke="rgb(100%,100%,0%)" x1="121.0261" x2="122.6282" y1="21.1028" y2="17.3093" /><line stroke="rgb(100%,100%,0%)" x1="106.7297" x2="110.2471" y1="22.6544" y2="20.6822" /><line stroke="rgb(100%,100%,0%)" x1="123.757" x2="109.074" y1="37.3786" y2="34.5566" /><line stroke="rgb(100%,100%,0%)" x1="109.3176" x2="120.3145" y1="37.8471" y2="36.812" /><line stroke="rgb(100%,100%,0%)" x1="112.2555" x2="115.7511" y1="26.6943" y2="42.909" /><line stroke="rgb(100%,100%,0%)" x1="119.1846" x2="121.2186" y1="29.8509" y2="18.9077" /><line stroke="rgb(100%,100%,0%)" x1="112.8061" x2="117.6656" y1="31.8831" y2="37.2263" /><line stroke="rgb(100%,100%,0%)" x1="122.478" x2="116.7947" y1="21.5205" y2="40.693" /><line stroke="rgb(100%,100%,0%)" x1="105.8968" x2="113.3739" y1="33.2822" y2="44.1562" /></svg>