<?xml version="1.0" encoding="utf-8" ?>
<svg baseProfile="tiny" height="50" version="1.2" width="150" xmlns="http://www.w3.org/2000/svg" xmlns:ev="http://www.w3.org/2001/xml-events" xmlns:xlink="http://www.w3.org/1999/xlink"><defs /><text fill="red" font-size="30" transform="rotate(-3, 10, 30)" x="10" y="30">6</text><line stroke="rgb(0%,0%,0%)" x1="10.5995" x2="19.4696" y1="37.1885" y2="25.8447" /><line stroke="rgb(0%,0%,0%)" x1="5.29" x2="11.1528" y1="24.9643" y2="28.4072" /><line stroke="rgb(0%,0%,0%)" x1="19.7515" x2="5.5022" y1="20.6978" y2="20.2501" /><line stroke="rgb(0%,0%,0%)" x1="13.2502" x2="8.7166" y1="34.9495" y2="35.9714" /><line stroke="rgb(0%,0%,0%)" x1="8.1427" x2="10.4462" y1="24.3605" y2="34.0539" /><line stroke="rgb(0%,0%,0%)" x1="10.8005" x2="21.753" y1="32.5994" y2="23.8533" /><line stroke="rgb(0%,0%,0%)" x1="15.697" x2="16.1065" y1="38.139" y2="22.6259" /><line stroke="rgb(0%,0%,0%)" x1="17.4431" x2="8.0616" y1="21.943" y2="35.6991" /><line stroke="rgb(0%,0%,0%)" x1="5.448" x2="19.4867" y1="27.7428" y2="28.6453" /><line stroke="rgb(0%,0%,0%)" x1="16.0037" x2="24.3754" y1="36.1508" y2="31.0243" /><line stroke="rgb(100%,100%,0%)" x1="23.4969" x2="14.9712" y1="22.1344" y2="26.7995" /><line stroke="rgb(100%,100%,0%)" x1="6.2117" x2="16.8954" y1="39.697" y2="30.7969" /><line stroke="rgb(100%,100%,0%)" x1="13.3896" x2="18.4359" y1="22.382" y2="17.524" /><line stroke="rgb(100%,100%,0%)" x1="13.6853" x2="13.611" y1="31.065" y2="33.87" /><line stroke="rgb(100%,100%,0%)" x1="10.1486" x2="10.4145" y1="38.7615" y2="41.4177" /><line stroke="rgb(100%,100%,0%)" x1="21.9414" x2="12.2277" y1="31.7599" y2="41.5912" /><line stroke="rgb(100%,100%,0%)" x1="5.8817" x2="13.0646" y1="38.4184" y2="28.3724" /><line stroke="rgb(100%,100%,0%)" x1="24.7463" x2="17.4219" y1="24.3292" y2="27.864" /><line stroke="rgb(100%,100%,0%)" x1="13.9916" x2="8.6647" y1="20.006" y2="30.5441" /><line stroke="rgb(100%,100%,0%)" x1="7.7131" x2="22.0638" y1="35.7977" y2="43.2206" /><text fill="red" font-size="30" transform="rotate(-22, 35, 30)" x="35" y="30">W</text><line stroke="rgb(0%,0%,0%)" x1="48.1785" x2="49.8839" y1="39.1423" y2="35.4402" /><line stroke="rgb(0%,0%,0%)" x1="32.2774" x2="37.0408" y1="28.109" y2="30.0317" /><line stroke="rgb(0%,0%,0%)" x1="33.5378" x2="30.1359" y1="28.8117" y2="31.6289" /><line stroke="rgb(0%,0%,0%)" x1="35.3846" x2="36.1293" y1="20.7902" y2="22.864" /><line stroke="rgb(0%,0%,0%)" x1="33.2305" x2="34.4519" y1="37.0404" y2="21.0523" /><line stroke="rgb(0%,0%,0%)" x1="46.3858" x2="44.514" y1="38.4772" y2="37.1124" /><line stroke="rgb(0%,0%,0%)" x1="46.4295" x2="41.2808" y1="34.5263" y2="24.326" /><line stroke="rgb(0%,0%,0%)" x1="40.6553" x2="33.7439" y1="29.7594" y2="31.7557" /><line stroke="rgb(0%,0%,0%)" x1="36.3339" x2="49.6391" y1="26.2703" y2="30.6509" /><line stroke="rgb(0%,0%,0%)" x1="36.8302" x2="49.7146" y1="23.8333" y2="26.1095" /><line stroke="rgb(100%,100%,0%)" x1="45.18" x2="48.5365" y1="32.3161" y2="30.8227" /><line stroke="rgb(100%,100%,0%)" x1="37.4456" x2="39.7126" y1="23.7668" y2="26.5362" /><line stroke="rgb(100%,100%,0%)" x1="39.88" x2="33.4938" y1="24.4928" y2="32.8561" /><line stroke="rgb(100%,100%,0%)" x1="46.7656" x2="34.5054" y1="38.7103" y2="32.3371" /><line stroke="rgb(100%,100%,0%)" x1="36.7052" x2="49.3846" y1="31.7253" y2="33.6734" /><line stroke="rgb(100%,100%,0%)" x1="49.3654" x2="38.0992" y1="27.2774" y2="38.5657" /><line stroke="rgb(100%,100%,0%)" x1="39.2509" x2="33.2297" y1="28.4757" y2="31.2298" /><line stroke="rgb(100%,100%,0%)" x1="48.3845" x2="39.4515" y1="27.278" y2="31.3261" /><line stroke="rgb(100%,100%,0%)" x1="42.4827" x2="31.9119" y1="38.3407" y2="40.0296" /><line stroke="rgb(100%,100%,0%)" x1="38.2617" x2="48.7443" y1="21.5744" y2="15.5753" /><text fill="red" font-size="30" transform="rotate(2, 60, 30)" x="60" y="30">O</text><line stroke="rgb(0%,0%,0%)" x1="55.0178" x2="60.4956" y1="23.2357" y2="25.2906" /><line stroke="rgb(0%,0%,0%)" x1="69.1794" x2="61.662" y1="24.7115" y2="27.2848" /><line stroke="rgb(0%,0%,0%)" x1="59.0643" x2="60.8492" y1="35.2713" y2="24.3771" /><line stroke="rgb(0%,0%,0%)" x1="59.5302" x2="73.8997" y1="39.9986" y2="28.0627" /><line stroke="rgb(0%,0%,0%)" x1="57.8301" x2="57.0754" y1="26.1193" y2="32.5866" /><line stroke="rgb(0%,0%,0%)" x1="63.6782" x2="69.447" y1="30.6315" y2="27.732" /><line stroke="rgb(0%,0%,0%)" x1="57.067" x2="60.6117" y1="30.4447" y2="26.2" /><line stroke="rgb(0%,0%,0%)" x1="66.7512" x2="68.5739" y1="28.1007" y2="38.1177" /><line stroke="rgb(0%,0%,0%)" x1="65.8879" x2="58.8434" y1="27.0192" y2="30.6905" /><line stroke="rgb(0%,0%,0%)" x1="58.6931" x2="73.3654" y1="24.3623" y2="30.9541" /><line stroke="rgb(100%,100%,0%)" x1="65.9911" x2="57.1291" y1="33.6633" y2="26.4535" /><line stroke="rgb(100%,100%,0%)" x1="74.4868" x2="55.9626" y1="34.5213" y2="34.4463" /><line stroke="rgb(100%,100%,0%)" x1="69.6437" x2="68.0649" y1="27.0443" y2="30.5088" /><line stroke="rgb(100%,100%,0%)" x1="61.8238" x2="63.5477" y1="27.0219" y2="18.088" /><line stroke="rgb(100%,100%,0%)" x1="58.8001" x2="62.8618" y1="21.6119" y2="29.2499" /><line stroke="rgb(100%,100%,0%)" x1="73.9773" x2="59.501" y1="36.9845" y2="24.4035" /><line stroke="rgb(100%,100%,0%)" x1="58.444" x2="68.8917" y1="23.2851" y2="18.3277" /><line stroke="rgb(100%,100%,0%)" x1="65.2046" x2="71.9309" y1="36.8506" y2="24.242" /><line stroke="rgb(100%,100%,0%)" x1="66.1129" x2="64.5864" y1="27.2109" y2="17.6632" /><line stroke="rgb(100%,100%,0%)" x1="68.9328" x2="68.2124" y1="34.937" y2="24.3236" /><text fill="red" font-size="30" transform="rotate(-17, 85, 30)" x="85" y="30">J</text><line stroke="rgb(0%,0%,0%)" x1="93.7164" x2="82.3205" y1="23.5703" y2="35.8034" /><line stroke="rgb(0%,0%,0%)" x1="83.4277" x2="83.2444" y1="34.7935" y2="28.5706" /><line stroke="rgb(0%,0%,0%)" x1="91.2262" x2="86.6782" y1="20.2376" y2="35.2205" /><line stroke="rgb(0%,0%,0%)" x1="96.0601" x2="93.4007" y1="38.5129" y2="27.7904" /><line stroke="rgb(0%,0%,0%)" x1="94.119" x2="82.6497" y1="28.4368" y2="21.3254" /><line stroke="rgb(0%,0%,0%)" x1="85.6451" x2="93.0478" y1="24.4698" y2="33.1041" /><line stroke="rgb(0%,0%,0%)" x1="85.3771" x2="88.7114" y1="33.362" y2="31.8469" /><line stroke="rgb(0%,0%,0%)" x1="94.5647" x2="93.4788" y1="21.8482" y2="29.0051" /><line stroke="rgb(0%,0%,0%)" x1="80.9348" x2="98.1262" y1="33.6507" y2="37.7922" /><line stroke="rgb(0%,0%,0%)" x1="85.8918" x2="98.7822" y1="37.1034" y2="22.7331" /><line stroke="rgb(100%,100%,0%)" x1="87.6127" x2="98.1747" y1="31.4244" y2="33.2151" /><line stroke="rgb(100%,100%,0%)" x1="81.7356" x2="89.3715" y1="24.9578" y2="27.1706" /><line stroke="rgb(100%,100%,0%)" x1="80.8148" x2="91.6981" y1="29.4902" y2="17.9008" /><line stroke="rgb(100%,100%,0%)" x1="87.9207" x2="90.6013" y1="27.1505" y2="37.4361" /><line stroke="rgb(100%,100%,0%)" x1="94.8409" x2="93.8" y1="22.8727" y2="15.1335" /><line stroke="rgb(100%,100%,0%)" x1="82.6142" x2="90.9572" y1="20.0221" y2="40.3327" /><line stroke="rgb(100%,100%,0%)" x1="85.3801" x2="94.6872" y1="33.727" y2="25.0202" /><line stroke="rgb(100%,100%,0%)" x1="84.6493" x2="85.518" y1="35.5632" y2="27.7686" /><line stroke="rgb(100%,100%,0%)" x1="89.0068" x2="85.0012" y1="36.9183" y2="21.9795" /><line stroke="rgb(100%,100%,0%)" x1="80.8225" x2="87.7815" y1="39.4529" y2="29.4304" /><text fill="red" font-size="30" transform="rotate(-17, 110, 30)" x="110" y="30">G</text><line stroke="rgb(0%,0%,0%)" x1="105.5677" x2="123.4688" y1="22.5175" y2="31.817" /><line stroke="rgb(0%,0%,0%)" x1="121.2431" x2="112.6772" y1="39.7515" y2="25.7437" /><line stroke="rgb(0%,0%,0%)" x1="120.7245" x2="111.835" y1="25.6821" y2="22.0145" /><line stroke="rgb(0%,0%,0%)" x1="106.5787" x2="114.362" y1="38.3547" y2="29.8074" /><line stroke="rgb(0%,0%,0%)" x1="115.7391" x2="123.023" y1="29.6957" y2="34.4876" /><line stroke="rgb(0%,0%,0%)" x1="118.3987" x2="105.6" y1="30.8674" y2="32.2166" /><line stroke="rgb(0%,0%,0%)" x1="122.9483" x2="108.7439" y1="24.5356" y2="25.1827" /><line stroke="rgb(0%,0%,0%)" x1="115.6798" x2="121.3076" y1="22.3714" y2="22.0317" /><line stroke="rgb(0%,0%,0%)" x1="112.653" x2="109.4413" y1="21.0509" y2="27.8373" /><line stroke="rgb(0%,0%,0%)" x1="106.1837" x2="112.5448" y1="21.4934" y2="36.8706" /><line stroke="rgb(100%,100%,0%)" x1="107.8113" x2="122.9519" y1="37.3193" y2="41.227" /><line stroke="rgb(100%,100%,0%)" x1="123.5804" x2="109.3925" y1="36.4536" y2="29.8281" /><line stroke="rgb(100%,100%,0%)" x1="105.6041" x2="120.0092" y1="38.5449" y2="29.4056" /><line stroke="rgb(100%,100%,0%)" x1="113.3853" x2="110.675" y1="22.5516" y2="29.0119" /><line stroke="rgb(100%,100%,0%)" x1="115.6964" x2="119.2234" y1="39.4263" y2="36.1306" /><line stroke="rgb(100%,100%,0%)" x1="109.6761" x2="124.8984" y1="27.0937" y2="25.1259" /><line stroke="rgb(100%,100%,0%)" x1="110.9699" x2="108.751" y1="39.4518" y2="30.5666" /><line stroke="rgb(100%,100%,0%)" x1="109.7131" x2="105.8879" y1="31.0035" y2="31.1953" /><line stroke="rgb(100%,100%,0%)" x1="121.5824" x2="107.1126" y1="39.6464" y2="35.6878" /><line stroke="rgb(100%,100%,0%)" x1="108.5514" x2="114.0529" y1="23.685" y2="33.6955" /></svg>