<?xml version="1.0" encoding="utf-8" ?>
<svg baseProfile="tiny" height="50" version="1.2" width="150" xmlns="http://www.w3.org/2000/svg" xmlns:ev="http://www.w3.org/2001/xml-events" xmlns:xlink="http://www.w3.org/1999/xlink"><defs /><text fill="red" font-size="20" transform="rotate(-19, 10, 30)" x="10" y="30">N</text><line stroke="rgb(0%,0%,0%)" x1="12.7734" x2="23.8676" y1="35.2189" y2="23.1929" /><line stroke="rgb(0%,0%,0%)" x1="16.8966" x2="6.6223" y1="31.8665" y2="32.0819" /><line stroke="rgb(0%,0%,0%)" x1="8.4851" x2="18.1929" y1="22.467" y2="35.0139" /><line stroke="rgb(0%,0%,0%)" x1="5.2917" x2="11.4193" y1="28.4465" y2="24.6116" /><line stroke="rgb(0%,0%,0%)" x1="5.932" x2="10.2815" y1="36.8946" y2="39.567" /><line stroke="rgb(0%,0%,0%)" x1="7.1034" x2="8.1314" y1="28.7257" y2="26.2742" /><line stroke="rgb(0%,0%,0%)" x1="11.192" x2="19.2394" y1="34.0245" y2="30.5119" /><line stroke="rgb(0%,0%,0%)" x1="5.4113" x2="22.4157" y1="30.7843" y2="37.9287" /><line stroke="rgb(0%,0%,0%)" x1="14.0747" x2="15.6696" y1="20.6706" y2="37.1144" /><line stroke="rgb(0%,0%,0%)" x1="14.747" x2="24.1278" y1="32.3176" y2="39.0154" /><line stroke="rgb(100%,50%,0%)" x1="22.3662" x2="5.5505" y1="20.4023" y2="21.5348" /><line stroke="rgb(100%,50%,0%)" x1="12.8809" x2="22.4238" y1="39.8368" y2="22.9664" /><line stroke="rgb(100%,50%,0%)" x1="19.7909" x2="13.7662" y1="26.2069" y2="22.87" /><line stroke="rgb(100%,50%,0%)" x1="8.9518" x2="7.689" y1="26.9273" y2="31.58" /><line stroke="rgb(100%,50%,0%)" x1="21.6651" x2="19.0573" y1="23.0143" y2="30.7993" /><line stroke="rgb(100%,50%,0%)" x1="23.5884" x2="15.4618" y1="36.4318" y2="44.0895" /><line stroke="rgb(100%,50%,0%)" x1="9.684" x2="17.4014" y1="29.6894" y2="41.5047" /><line stroke="rgb(100%,50%,0%)" x1="24.038" x2="13.9995" y1="22.1797" y2="18.4693" /><line stroke="rgb(100%,50%,0%)" x1="15.1466" x2="22.9244" y1="35.6607" y2="40.1203" /><line stroke="rgb(100%,50%,0%)" x1="15.504" x2="9.8662" y1="32.1504" y2="34.0643" /><text fill="red" font-size="20" transform="rotate(16, 35, 30)" x="35" y="30">9</text><line stroke="rgb(0%,0%,0%)" x1="43.8356" x2="34.9609" y1="22.3093" y2="20.5189" /><line stroke="rgb(0%,0%,0%)" x1="35.2205" x2="43.0574" y1="25.4424" y2="23.3291" /><line stroke="rgb(0%,0%,0%)" x1="49.6866" x2="30.0922" y1="26.7641" y2="39.451" /><line stroke="rgb(0%,0%,0%)" x1="40.8652" x2="36.8685" y1="21.4158" y2="27.9481" /><line stroke="rgb(0%,0%,0%)" x1="40.001" x2="41.2561" y1="23.5208" y2="22.5554" /><line stroke="rgb(0%,0%,0%)" x1="39.2352" x2="30.1143" y1="30.3487" y2="33.9486" /><line stroke="rgb(0%,0%,0%)" x1="33.9606" x2="34.923" y1="24.958" y2="24.7963" /><line stroke="rgb(0%,0%,0%)" x1="42.2659" x2="35.7238" y1="30.0732" y2="31.332" /><line stroke="rgb(0%,0%,0%)" x1="40.5078" x2="47.7117" y1="20.4766" y2="21.6905" /><line stroke="rgb(0%,0%,0%)" x1="31.5634" x2="48.546" y1="25.2687" y2="29.7377" /><line stroke="rgb(100%,50%,0%)" x1="46.932" x2="41.4587" y1="26.7786" y2="37.6978" /><line stroke="rgb(100%,50%,0%)" x1="34.4274" x2="36.5631" y1="20.4688" y2="15.7661" /><line stroke="rgb(100%,50%,0%)" x1="35.9605" x2="38.7105" y1="39.4942" y2="32.3717" /><line stroke="rgb(100%,50%,0%)" x1="42.0621" x2="48.0463" y1="31.3002" y2="32.93" /><line stroke="rgb(100%,50%,0%)" x1="40.8452" x2="31.8897" y1="36.445" y2="33.3607" /><line stroke="rgb(100%,50%,0%)" x1="41.4022" x2="49.9378" y1="37.0372" y2="36.5822" /><line stroke="rgb(100%,50%,0%)" x1="32.8673" x2="38.119" y1="20.1273" y2="26.785" /><line stroke="rgb(100%,50%,0%)" x1="46.1941" x2="49.3336" y1="22.7216" y2="44.2162" /><line stroke="rgb(100%,50%,0%)" x1="39.3393" x2="37.3282" y1="25.1042" y2="43.9428" /><line stroke="rgb(100%,50%,0%)" x1="30.8149" x2="41.7765" y1="31.798" y2="16.2502" /><text fill="red" font-size="20" transform="rotate(-22, 60, 30)" x="60" y="30">K</text><line stroke="rgb(0%,0%,0%)" x1="68.4012" x2="71.5886" y1="24.9244" y2="31.1682" /><line stroke="rgb(0%,0%,0%)" x1="64.3185" x2="66.9703" y1="28.7404" y2="39.4924" /><line stroke="rgb(0%,0%,0%)" x1="55.3787" x2="65.8496" y1="31.4225" y2="27.4716" /><line stroke="rgb(0%,0%,0%)" x1="64.5549" x2="61.7488" y1="35.009" y2="39.4353" /><line stroke="rgb(0%,0%,0%)" x1="70.1593" x2="66.4488" y1="23.0605" y2="24.052" /><line stroke="rgb(0%,0%,0%)" x1="66.2154" x2="74.5532" y1="29.34" y2="31.3377" /><line stroke="rgb(0%,0%,0%)" x1="72.1199" x2="57.4665" y1="38.2089" y2="38.6552" /><line stroke="rgb(0%,0%,0%)" x1="55.4226" x2="58.3902" y1="20.358" y2="38.7288" /><line stroke="rgb(0%,0%,0%)" x1="58.6855" x2="66.3946" y1="30.0469" y2="24.2497" /><line stroke="rgb(0%,0%,0%)" x1="74.8383" x2="67.6796" y1="32.1282" y2="29.8232" /><line stroke="rgb(100%,50%,0%)" x1="73.3987" x2="62.0443" y1="25.1377" y2="39.5399" /><line stroke="rgb(100%,50%,0%)" x1="70.5225" x2="64.4388" y1="33.4745" y2="36.2851" /><line stroke="rgb(100%,50%,0%)" x1="72.2462" x2="67.0089" y1="35.4341" y2="40.7347" /><line stroke="rgb(100%,50%,0%)" x1="70.318" x2="56.6801" y1="25.4837" y2="17.9734" /><line stroke="rgb(100%,50%,0%)" x1="70.9831" x2="71.7475" y1="27.5563" y2="30.74" /><line stroke="rgb(100%,50%,0%)" x1="69.7236" x2="71.6077" y1="35.6145" y2="28.3635" /><line stroke="rgb(100%,50%,0%)" x1="73.1179" x2="64.8073" y1="23.3686" y2="21.14" /><line stroke="rgb(100%,50%,0%)" x1="67.3419" x2="73.6091" y1="20.2168" y2="23.2829" /><line stroke="rgb(100%,50%,0%)" x1="70.9422" x2="62.8463" y1="37.1709" y2="15.6243" /><line stroke="rgb(100%,50%,0%)" x1="58.5153" x2="69.1119" y1="37.0577" y2="31.3835" /><text fill="red" font-size="20" transform="rotate(5, 85, 30)" x="85" y="30">9</text><line stroke="rgb(0%,0%,0%)" x1="84.1087" x2="87.1888" y1="28.3286" y2="24.057" /><line stroke="rgb(0%,0%,0%)" x1="88.4867" x2="97.8586" y1="23.0559" y2="39.0988" /><line stroke="rgb(0%,0%,0%)" x1="85.1905" x2="84.4862" y1="38.6966" y2="37.4452" /><line stroke="rgb(0%,0%,0%)" x1="89.1258" x2="97.5909" y1="35.2994" y2="37.7812" /><line stroke="rgb(0%,0%,0%)" x1="80.3229" x2="98.3522" y1="36.3144" y2="21.4042" /><line stroke="rgb(0%,0%,0%)" x1="84.6882" x2="98.5849" y1="31.2244" y2="31.5733" /><line stroke="rgb(0%,0%,0%)" x1="98.8281" x2="94.3712" y1="37.8577" y2="28.1522" /><line stroke="rgb(0%,0%,0%)" x1="97.2647" x2="99.7598" y1="31.4999" y2="35.4704" /><line stroke="rgb(0%,0%,0%)" x1="91.3788" x2="93.911" y1="34.4665" y2="24.778" /><line stroke="rgb(0%,0%,0%)" x1="88.0715" x2="95.4186" y1="21.4172" y2="26.7022" /><line stroke="rgb(100%,50%,0%)" x1="88.8339" x2="90.4066" y1="24.5991" y2="44.7766" /><line stroke="rgb(100%,50%,0%)" x1="94.7655" x2="80.9119" y1="31.0133" y2="15.3876" /><line stroke="rgb(100%,50%,0%)" x1="85.6516" x2="81.0315" y1="26.3015" y2="19.1511" /><line stroke="rgb(100%,50%,0%)" x1="99.7442" x2="88.3869" y1="27.1396" y2="28.3623" /><line stroke="rgb(100%,50%,0%)" x1="97.2578" x2="84.954" y1="27.3711" y2="31.0819" /><line stroke="rgb(100%,50%,0%)" x1="92.6639" x2="84.6083" y1="28.1192" y2="22.6225" /><line stroke="rgb(100%,50%,0%)" x1="96.5845" x2="94.3576" y1="39.2074" y2="26.4911" /><line stroke="rgb(100%,50%,0%)" x1="96.5963" x2="89.4124" y1="20.1745" y2="19.0669" /><line stroke="rgb(100%,50%,0%)" x1="80.0096" x2="83.6731" y1="39.9566" y2="17.5346" /><line stroke="rgb(100%,50%,0%)" x1="80.8482" x2="96.4381" y1="38.7671" y2="39.748" /><text fill="red" font-size="20" transform="rotate(-29, 110, 30)" x="110" y="30">P</text><line stroke="rgb(0%,0%,0%)" x1="121.7346" x2="107.143" y1="32.4442" y2="22.7428" /><line stroke="rgb(0%,0%,0%)" x1="113.1066" x2="107.548" y1="22.3902" y2="37.8884" /><line stroke="rgb(0%,0%,0%)" x1="124.8447" x2="107.2198" y1="24.2253" y2="20.3735" /><line stroke="rgb(0%,0%,0%)" x1="120.4233" x2="124.6875" y1="38.5128" y2="36.0304" /><line stroke="rgb(0%,0%,0%)" x1="109.9003" x2="116.8176" y1="30.6773" y2="26.8785" /><line stroke="rgb(0%,0%,0%)" x1="109.9227" x2="116.4216" y1="20.3396" y2="33.5862" /><line stroke="rgb(0%,0%,0%)" x1="116.5912" x2="105.653" y1="27.8563" y2="38.7657" /><line stroke="rgb(0%,0%,0%)" x1="122.5037" x2="124.7125" y1="28.5052" y2="29.0583" /><line stroke="rgb(0%,0%,0%)" x1="106.6835" x2="118.5944" y1="25.9098" y2="32.1167" /><line stroke="rgb(0%,0%,0%)" x1="122.6754" x2="116.8789" y1="35.192" y2="36.6233" /><line stroke="rgb(100%,50%,0%)" x1="113.7997" x2="109.9783" y1="25.9395" y2="21.8346" /><line stroke="rgb(100%,50%,0%)" x1="120.2541" x2="106.519" y1="21.1454" y2="22.891" /><line stroke="rgb(100%,50%,0%)" x1="119.271" x2="118.8924" y1="23.1533" y2="43.6019" /><line stroke="rgb(100%,50%,0%)" x1="122.0199" x2="124.1783" y1="29.7079" y2="44.1849" /><line stroke="rgb(100%,50%,0%)" x1="123.4003" x2="111.7201" y1="33.2218" y2="40.1811" /><line stroke="rgb(100%,50%,0%)" x1="116.6033" x2="113.2258" y1="28.1374" y2="26.0212" /><line stroke="rgb(100%,50%,0%)" x1="111.8051" x2="119.1949" y1="33.5639" y2="39.2485" /><line stroke="rgb(100%,50%,0%)" x1="110.1998" x2="107.2946" y1="25.2211" y2="16.7664" /><line stroke="rgb(100%,50%,0%)" x1="112.9377" x2="122.432" y1="21.173" y2="23.7688" /><line stroke="rgb(100%,50%,0%)" x1="110.2178" x2="113.0669" y1="35.7874" y2="31.6128" /></svg>