<?xml version="1.0" encoding="utf-8" ?>
<svg baseProfile="tiny" height="50" version="1.2" width="150" xmlns="http://www.w3.org/2000/svg" xmlns:ev="http://www.w3.org/2001/xml-events" xmlns:xlink="http://www.w3.org/1999/xlink"><defs /><text fill="red" font-size="20" transform="rotate(21, 10, 30)" x="10" y="30">W</text><line stroke="rgb(0%,0%,0%)" x1="14.0674" x2="11.2682" y1="24.1044" y2="27.117" /><line stroke="rgb(0%,0%,0%)" x1="24.1122" x2="23.7921" y1="39.9901" y2="23.0441" /><line stroke="rgb(0%,0%,0%)" x1="10.9487" x2="14.2868" y1="22.2728" y2="22.1098" /><line stroke="rgb(0%,0%,0%)" x1="6.4687" x2="24.4689" y1="32.8658" y2="38.503" /><line stroke="rgb(0%,0%,0%)" x1="14.8847" x2="18.2461" y1="33.7133" y2="37.1258" /><line stroke="rgb(0%,0%,0%)" x1="11.0101" x2="10.5396" y1="35.0928" y2="31.0" /><line stroke="rgb(0%,0%,0%)" x1="17.1001" x2="23.8389" y1="35.4043" y2="20.8954" /><line stroke="rgb(0%,0%,0%)" x1="15.9113" x2="13.9509" y1="33.2254" y2="33.1024" /><line stroke="rgb(0%,0%,0%)" x1="12.0541" x2="19.2408" y1="21.893" y2="34.751" /><line stroke="rgb(0%,0%,0%)" x1="23.3177" x2="7.3639" y1="33.1768" y2="23.6005" /><line stroke="rgb(100%,50%,0%)" x1="12.7204" x2="15.9724" y1="27.6976" y2="23.2358" /><line stroke="rgb(100%,50%,0%)" x1="18.6815" x2="15.3629" y1="30.8205" y2="28.1235" /><line stroke="rgb(100%,50%,0%)" x1="18.2263" x2="12.8717" y1="33.4129" y2="18.5961" /><line stroke="rgb(100%,50%,0%)" x1="19.2054" x2="10.9215" y1="31.1724" y2="37.7249" /><line stroke="rgb(100%,50%,0%)" x1="9.0993" x2="6.6938" y1="33.9542" y2="23.4317" /><line stroke="rgb(100%,50%,0%)" x1="10.4929" x2="5.729" y1="39.6477" y2="40.6397" /><line stroke="rgb(100%,50%,0%)" x1="24.5372" x2="16.7802" y1="22.4056" y2="22.0757" /><line stroke="rgb(100%,50%,0%)" x1="24.1448" x2="13.7451" y1="29.0109" y2="28.827" /><line stroke="rgb(100%,50%,0%)" x1="22.7482" x2="6.2691" y1="23.4791" y2="24.4009" /><line stroke="rgb(100%,50%,0%)" x1="20.0087" x2="19.8587" y1="26.5167" y2="41.2744" /><text fill="red" font-size="20" transform="rotate(-7, 35, 30)" x="35" y="30">6</text><line stroke="rgb(0%,0%,0%)" x1="35.0664" x2="31.9319" y1="20.5491" y2="28.9814" /><line stroke="rgb(0%,0%,0%)" x1="33.1099" x2="34.8279" y1="31.8706" y2="26.7119" /><line stroke="rgb(0%,0%,0%)" x1="36.2898" x2="36.2837" y1="21.3144" y2="37.742" /><line stroke="rgb(0%,0%,0%)" x1="38.5772" x2="31.0083" y1="34.5982" y2="26.3819" /><line stroke="rgb(0%,0%,0%)" x1="44.3019" x2="32.2765" y1="37.4978" y2="33.0631" /><line stroke="rgb(0%,0%,0%)" x1="30.6571" x2="39.6108" y1="21.3177" y2="27.2126" /><line stroke="rgb(0%,0%,0%)" x1="41.5291" x2="35.3027" y1="29.7219" y2="39.3278" /><line stroke="rgb(0%,0%,0%)" x1="30.0663" x2="31.8887" y1="20.5942" y2="37.0711" /><line stroke="rgb(0%,0%,0%)" x1="48.7448" x2="35.0668" y1="24.2934" y2="25.3629" /><line stroke="rgb(0%,0%,0%)" x1="45.4076" x2="38.128" y1="21.6172" y2="24.3858" /><line stroke="rgb(100%,50%,0%)" x1="38.4203" x2="33.3833" y1="28.8163" y2="33.9962" /><line stroke="rgb(100%,50%,0%)" x1="42.441" x2="34.0724" y1="27.4313" y2="33.9178" /><line stroke="rgb(100%,50%,0%)" x1="48.5002" x2="49.0427" y1="32.7795" y2="32.407" /><line stroke="rgb(100%,50%,0%)" x1="38.5681" x2="36.8234" y1="39.5286" y2="38.8388" /><line stroke="rgb(100%,50%,0%)" x1="39.5189" x2="32.4794" y1="22.5284" y2="42.2311" /><line stroke="rgb(100%,50%,0%)" x1="36.5224" x2="30.622" y1="20.3964" y2="22.6421" /><line stroke="rgb(100%,50%,0%)" x1="46.5402" x2="43.8051" y1="37.0912" y2="27.635" /><line stroke="rgb(100%,50%,0%)" x1="45.0388" x2="42.6961" y1="28.037" y2="42.8611" /><line stroke="rgb(100%,50%,0%)" x1="31.8394" x2="37.7012" y1="36.5797" y2="32.8165" /><line stroke="rgb(100%,50%,0%)" x1="32.4655" x2="43.4807" y1="29.1199" y2="27.285" /><text fill="red" font-size="20" transform="rotate(-30, 60, 30)" x="60" y="30">8</text><line stroke="rgb(0%,0%,0%)" x1="58.8398" x2="68.814" y1="28.6129" y2="29.4954" /><line stroke="rgb(0%,0%,0%)" x1="60.487" x2="67.5834" y1="31.8874" y2="32.7073" /><line stroke="rgb(0%,0%,0%)" x1="65.7619" x2="69.533" y1="34.2358" y2="30.4596" /><line stroke="rgb(0%,0%,0%)" x1="61.5031" x2="58.9475" y1="35.276" y2="25.8085" /><line stroke="rgb(0%,0%,0%)" x1="60.9421" x2="74.3097" y1="29.9467" y2="32.716" /><line stroke="rgb(0%,0%,0%)" x1="70.6942" x2="58.5614" y1="26.439" y2="23.3568" /><line stroke="rgb(0%,0%,0%)" x1="72.7558" x2="58.1482" y1="31.7115" y2="27.4609" /><line stroke="rgb(0%,0%,0%)" x1="67.7763" x2="64.1514" y1="27.897" y2="37.7601" /><line stroke="rgb(0%,0%,0%)" x1="66.979" x2="68.1539" y1="29.8452" y2="21.7874" /><line stroke="rgb(0%,0%,0%)" x1="65.327" x2="65.2679" y1="24.0309" y2="22.7012" /><line stroke="rgb(100%,50%,0%)" x1="60.9024" x2="70.892" y1="36.9298" y2="23.7331" /><line stroke="rgb(100%,50%,0%)" x1="57.8128" x2="70.5976" y1="21.1731" y2="24.4122" /><line stroke="rgb(100%,50%,0%)" x1="67.0395" x2="60.0508" y1="27.83" y2="27.3766" /><line stroke="rgb(100%,50%,0%)" x1="70.811" x2="68.8721" y1="36.8619" y2="26.0347" /><line stroke="rgb(100%,50%,0%)" x1="68.7648" x2="65.0494" y1="26.758" y2="20.2411" /><line stroke="rgb(100%,50%,0%)" x1="63.1036" x2="68.3163" y1="30.4856" y2="33.001" /><line stroke="rgb(100%,50%,0%)" x1="70.2919" x2="65.067" y1="32.496" y2="24.9096" /><line stroke="rgb(100%,50%,0%)" x1="59.1366" x2="58.8417" y1="20.2277" y2="32.0576" /><line stroke="rgb(100%,50%,0%)" x1="74.5255" x2="60.2831" y1="26.3444" y2="25.4982" /><line stroke="rgb(100%,50%,0%)" x1="58.6003" x2="73.4149" y1="30.4275" y2="26.6802" /><text fill="red" font-size="20" transform="rotate(25, 85, 30)" x="85" y="30">8</text><line stroke="rgb(0%,0%,0%)" x1="88.2052" x2="80.3994" y1="36.723" y2="34.1133" /><line stroke="rgb(0%,0%,0%)" x1="84.0695" x2="80.4927" y1="28.8998" y2="34.1075" /><line stroke="rgb(0%,0%,0%)" x1="96.4052" x2="89.5114" y1="39.5363" y2="26.8216" /><line stroke="rgb(0%,0%,0%)" x1="94.62" x2="84.7766" y1="28.0986" y2="32.8899" /><line stroke="rgb(0%,0%,0%)" x1="92.4411" x2="94.4868" y1="38.3285" y2="27.4729" /><line stroke="rgb(0%,0%,0%)" x1="90.0898" x2="95.6324" y1="38.1459" y2="29.7443" /><line stroke="rgb(0%,0%,0%)" x1="87.9098" x2="83.3517" y1="25.4267" y2="37.053" /><line stroke="rgb(0%,0%,0%)" x1="86.525" x2="89.8546" y1="34.1299" y2="25.1249" /><line stroke="rgb(0%,0%,0%)" x1="89.914" x2="92.7311" y1="32.9897" y2="38.4492" /><line stroke="rgb(0%,0%,0%)" x1="83.5307" x2="99.8559" y1="24.1255" y2="31.8122" /><line stroke="rgb(100%,50%,0%)" x1="83.9514" x2="81.5733" y1="34.0963" y2="38.2405" /><line stroke="rgb(100%,50%,0%)" x1="96.5133" x2="90.6312" y1="33.2328" y2="42.6329" /><line stroke="rgb(100%,50%,0%)" x1="84.2931" x2="86.7327" y1="36.7969" y2="23.0211" /><line stroke="rgb(100%,50%,0%)" x1="80.5245" x2="96.9421" y1="37.5802" y2="40.695" /><line stroke="rgb(100%,50%,0%)" x1="89.5104" x2="97.2944" y1="30.9462" y2="30.0658" /><line stroke="rgb(100%,50%,0%)" x1="87.9711" x2="93.4203" y1="32.3696" y2="37.9817" /><line stroke="rgb(100%,50%,0%)" x1="93.6546" x2="99.9571" y1="23.7209" y2="29.8031" /><line stroke="rgb(100%,50%,0%)" x1="81.6078" x2="81.0311" y1="29.2216" y2="20.8866" /><line stroke="rgb(100%,50%,0%)" x1="93.1396" x2="89.8415" y1="30.1053" y2="27.1189" /><line stroke="rgb(100%,50%,0%)" x1="90.4642" x2="88.4036" y1="26.4991" y2="37.5285" /><text fill="red" font-size="20" transform="rotate(5, 110, 30)" x="110" y="30">G</text><line stroke="rgb(0%,0%,0%)" x1="118.7482" x2="122.336" y1="23.994" y2="24.9594" /><line stroke="rgb(0%,0%,0%)" x1="118.7303" x2="121.3897" y1="33.7576" y2="32.3468" /><line stroke="rgb(0%,0%,0%)" x1="123.5522" x2="105.4638" y1="28.1382" y2="23.6475" /><line stroke="rgb(0%,0%,0%)" x1="109.552" x2="109.5496" y1="26.7765" y2="30.0646" /><line stroke="rgb(0%,0%,0%)" x1="116.8191" x2="118.3544" y1="22.8929" y2="38.9728" /><line stroke="rgb(0%,0%,0%)" x1="118.4933" x2="109.8699" y1="37.0823" y2="36.7667" /><line stroke="rgb(0%,0%,0%)" x1="120.8077" x2="118.8797" y1="31.274" y2="27.3903" /><line stroke="rgb(0%,0%,0%)" x1="109.9967" x2="109.972" y1="23.373" y2="26.4586" /><line stroke="rgb(0%,0%,0%)" x1="118.2934" x2="105.7608" y1="35.5957" y2="35.3644" /><line stroke="rgb(0%,0%,0%)" x1="122.9631" x2="107.2981" y1="36.4523" y2="21.1013" /><line stroke="rgb(100%,50%,0%)" x1="124.3481" x2="111.1511" y1="25.2388" y2="23.5255" /><line stroke="rgb(100%,50%,0%)" x1="105.8077" x2="124.0929" y1="28.9605" y2="40.4621" /><line stroke="rgb(100%,50%,0%)" x1="107.4563" x2="106.5753" y1="21.0964" y2="29.2415" /><line stroke="rgb(100%,50%,0%)" x1="124.715" x2="119.7958" y1="25.5576" y2="40.16" /><line stroke="rgb(100%,50%,0%)" x1="124.2977" x2="120.3033" y1="30.9506" y2="39.7943" /><line stroke="rgb(100%,50%,0%)" x1="108.8727" x2="122.2121" y1="32.6068" y2="33.1657" /><line stroke="rgb(100%,50%,0%)" x1="107.1943" x2="115.8381" y1="32.752" y2="33.2519" /><line stroke="rgb(100%,50%,0%)" x1="106.8987" x2="109.0398" y1="28.5243" y2="26.5196" /><line stroke="rgb(100%,50%,0%)" x1="110.8301" x2="118.571" y1="24.1922" y2="32.3608" /><line stroke="rgb(100%,50%,0%)" x1="108.5756" x2="112.2599" y1="24.503" y2="29.258" /></svg>