<?xml version="1.0" encoding="utf-8" ?>
<svg baseProfile="tiny" height="50" version="1.2" width="150" xmlns="http://www.w3.org/2000/svg" xmlns:ev="http://www.w3.org/2001/xml-events" xmlns:xlink="http://www.w3.org/1999/xlink"><defs /><text fill="red" font-size="30" transform="rotate(10, 10, 30)" x="10" y="30">1</text><line stroke="rgb(0%,0%,0%)" x1="14.8795" x2="23.1626" y1="26.3795" y2="38.9264" /><line stroke="rgb(0%,0%,0%)" x1="12.1197" x2="20.3325" y1="39.9101" y2="30.7882" /><line stroke="rgb(0%,0%,0%)" x1="24.2269" x2="10.8675" y1="26.7681" y2="37.5001" /><line stroke="rgb(0%,0%,0%)" x1="5.9983" x2="19.9273" y1="28.6507" y2="37.9611" /><line stroke="rgb(0%,0%,0%)" x1="15.6338" x2="5.6085" y1="20.3751" y2="37.3851" /><line stroke="rgb(0%,0%,0%)" x1="8.6861" x2="24.5484" y1="36.0548" y2="39.301" /><line stroke="rgb(0%,0%,0%)" x1="9.1124" x2="5.0618" y1="29.5612" y2="39.2243" /><line stroke="rgb(0%,0%,0%)" x1="5.8737" x2="10.4312" y1="29.7431" y2="35.6807" /><line stroke="rgb(0%,0%,0%)" x1="13.812" x2="10.9464" y1="31.9182" y2="35.2521" /><line stroke="rgb(0%,0%,0%)" x1="12.0215" x2="8.7711" y1="27.4919" y2="25.8888" /><line stroke="rgb(100%,100%,0%)" x1="23.3935" x2="14.599" y1="25.8791" y2="37.8589" /><line stroke="rgb(100%,100%,0%)" x1="17.549" x2="6.9494" y1="36.1736" y2="31.9449" /><line stroke="rgb(100%,100%,0%)" x1="10.573" x2="5.9254" y1="25.0606" y2="18.3673" /><line stroke="rgb(100%,100%,0%)" x1="6.1226" x2="11.7587" y1="38.3455" y2="28.8166" /><line stroke="rgb(100%,100%,0%)" x1="8.5284" x2="20.025" y1="30.3044" y2="38.8264" /><line stroke="rgb(100%,100%,0%)" x1="21.1397" x2="14.7601" y1="25.0907" y2="18.2576" /><line stroke="rgb(100%,100%,0%)" x1="23.2117" x2="23.5085" y1="31.1826" y2="31.6143" /><line stroke="rgb(100%,100%,0%)" x1="6.8875" x2="8.1724" y1="23.0698" y2="44.6391" /><line stroke="rgb(100%,100%,0%)" x1="17.3389" x2="5.0121" y1="36.9817" y2="44.021" /><line stroke="rgb(100%,100%,0%)" x1="18.9304" x2="7.5823" y1="29.1888" y2="40.7992" /><text fill="red" font-size="30" transform="rotate(15, 35, 30)" x="35" y="30">5</text><line stroke="rgb(0%,0%,0%)" x1="45.1179" x2="37.7615" y1="27.3688" y2="37.2404" /><line stroke="rgb(0%,0%,0%)" x1="33.2786" x2="37.7204" y1="39.7597" y2="30.4574" /><line stroke="rgb(0%,0%,0%)" x1="36.1377" x2="31.7682" y1="22.6907" y2="20.7982" /><line stroke="rgb(0%,0%,0%)" x1="45.2533" x2="46.8262" y1="23.3148" y2="38.8644" /><line stroke="rgb(0%,0%,0%)" x1="49.401" x2="45.8932" y1="24.661" y2="37.7492" /><line stroke="rgb(0%,0%,0%)" x1="40.655" x2="45.1081" y1="35.494" y2="37.5525" /><line stroke="rgb(0%,0%,0%)" x1="43.4909" x2="49.4907" y1="21.1553" y2="23.4225" /><line stroke="rgb(0%,0%,0%)" x1="45.7012" x2="31.8511" y1="21.435" y2="39.0804" /><line stroke="rgb(0%,0%,0%)" x1="46.74" x2="36.7922" y1="30.6383" y2="35.9328" /><line stroke="rgb(0%,0%,0%)" x1="40.1368" x2="30.1829" y1="21.5802" y2="35.1901" /><line stroke="rgb(100%,100%,0%)" x1="48.9317" x2="48.1907" y1="38.9782" y2="24.7889" /><line stroke="rgb(100%,100%,0%)" x1="32.0352" x2="39.0597" y1="24.1801" y2="21.2999" /><line stroke="rgb(100%,100%,0%)" x1="33.0199" x2="44.5952" y1="25.2475" y2="15.5963" /><line stroke="rgb(100%,100%,0%)" x1="46.7844" x2="43.5605" y1="39.1453" y2="20.9955" /><line stroke="rgb(100%,100%,0%)" x1="44.6115" x2="48.7424" y1="21.4525" y2="37.836" /><line stroke="rgb(100%,100%,0%)" x1="42.9036" x2="32.1853" y1="28.7974" y2="31.0065" /><line stroke="rgb(100%,100%,0%)" x1="46.3284" x2="43.5716" y1="21.2674" y2="16.8944" /><line stroke="rgb(100%,100%,0%)" x1="43.1507" x2="48.5107" y1="26.4029" y2="24.7121" /><line stroke="rgb(100%,100%,0%)" x1="32.3849" x2="36.8117" y1="31.0853" y2="23.6463" /><line stroke="rgb(100%,100%,0%)" x1="47.7429" x2="35.1875" y1="32.4515" y2="33.8014" /><text fill="red" font-size="30" transform="rotate(-18, 60, 30)" x="60" y="30">O</text><line stroke="rgb(0%,0%,0%)" x1="58.828" x2="74.4572" y1="29.819" y2="27.1605" /><line stroke="rgb(0%,0%,0%)" x1="73.0126" x2="62.5451" y1="36.1006" y2="21.4761" /><line stroke="rgb(0%,0%,0%)" x1="72.2464" x2="64.6029" y1="34.0626" y2="27.0444" /><line stroke="rgb(0%,0%,0%)" x1="57.7015" x2="66.771" y1="36.9373" y2="30.7773" /><line stroke="rgb(0%,0%,0%)" x1="71.2316" x2="56.4773" y1="33.4757" y2="20.7317" /><line stroke="rgb(0%,0%,0%)" x1="67.5265" x2="71.7821" y1="26.1117" y2="36.7736" /><line stroke="rgb(0%,0%,0%)" x1="68.6434" x2="74.1858" y1="26.3246" y2="30.4769" /><line stroke="rgb(0%,0%,0%)" x1="57.1823" x2="72.767" y1="37.5223" y2="21.2718" /><line stroke="rgb(0%,0%,0%)" x1="72.5057" x2="56.7948" y1="35.266" y2="26.0895" /><line stroke="rgb(0%,0%,0%)" x1="64.2962" x2="68.5868" y1="34.7033" y2="25.183" /><line stroke="rgb(100%,100%,0%)" x1="62.5686" x2="74.6507" y1="31.2034" y2="22.0978" /><line stroke="rgb(100%,100%,0%)" x1="64.0506" x2="59.9329" y1="37.1897" y2="21.0335" /><line stroke="rgb(100%,100%,0%)" x1="70.533" x2="63.3008" y1="22.4629" y2="33.1244" /><line stroke="rgb(100%,100%,0%)" x1="69.3396" x2="68.4173" y1="37.634" y2="15.1538" /><line stroke="rgb(100%,100%,0%)" x1="60.3164" x2="62.5658" y1="34.7505" y2="41.4327" /><line stroke="rgb(100%,100%,0%)" x1="56.3135" x2="55.3118" y1="36.6964" y2="22.5055" /><line stroke="rgb(100%,100%,0%)" x1="69.3425" x2="69.9973" y1="24.9537" y2="17.8834" /><line stroke="rgb(100%,100%,0%)" x1="59.035" x2="68.0628" y1="37.9134" y2="20.1616" /><line stroke="rgb(100%,100%,0%)" x1="72.7572" x2="67.7092" y1="32.0213" y2="16.5847" /><line stroke="rgb(100%,100%,0%)" x1="65.3542" x2="60.4063" y1="30.8328" y2="17.9816" /><text fill="red" font-size="30" transform="rotate(-1, 85, 30)" x="85" y="30">U</text><line stroke="rgb(0%,0%,0%)" x1="98.0845" x2="95.3546" y1="23.2038" y2="20.6791" /><line stroke="rgb(0%,0%,0%)" x1="84.1481" x2="93.0644" y1="33.776" y2="23.0656" /><line stroke="rgb(0%,0%,0%)" x1="98.3197" x2="94.0606" y1="32.0809" y2="32.8408" /><line stroke="rgb(0%,0%,0%)" x1="97.4941" x2="83.9183" y1="25.8471" y2="37.4668" /><line stroke="rgb(0%,0%,0%)" x1="95.6141" x2="92.9765" y1="24.6533" y2="23.9899" /><line stroke="rgb(0%,0%,0%)" x1="97.3105" x2="88.5943" y1="26.7739" y2="33.4632" /><line stroke="rgb(0%,0%,0%)" x1="84.9626" x2="82.3785" y1="29.6729" y2="22.9961" /><line stroke="rgb(0%,0%,0%)" x1="87.5835" x2="88.3269" y1="27.9674" y2="26.2953" /><line stroke="rgb(0%,0%,0%)" x1="90.2207" x2="85.5517" y1="21.4181" y2="34.3226" /><line stroke="rgb(0%,0%,0%)" x1="98.0627" x2="83.0006" y1="30.8411" y2="38.0308" /><line stroke="rgb(100%,100%,0%)" x1="95.7069" x2="87.1001" y1="22.3839" y2="26.8928" /><line stroke="rgb(100%,100%,0%)" x1="81.1447" x2="87.9734" y1="23.5332" y2="41.8648" /><line stroke="rgb(100%,100%,0%)" x1="81.7782" x2="97.3388" y1="34.2146" y2="44.4852" /><line stroke="rgb(100%,100%,0%)" x1="94.2158" x2="92.2821" y1="23.2859" y2="34.8733" /><line stroke="rgb(100%,100%,0%)" x1="89.7024" x2="97.7673" y1="21.5309" y2="30.7056" /><line stroke="rgb(100%,100%,0%)" x1="88.2417" x2="85.9267" y1="26.9784" y2="15.944" /><line stroke="rgb(100%,100%,0%)" x1="96.165" x2="92.6917" y1="20.6857" y2="26.495" /><line stroke="rgb(100%,100%,0%)" x1="89.1181" x2="86.7198" y1="24.2511" y2="34.9243" /><line stroke="rgb(100%,100%,0%)" x1="89.4678" x2="82.0092" y1="36.8227" y2="30.2292" /><line stroke="rgb(100%,100%,0%)" x1="99.6603" x2="84.2036" y1="24.6923" y2="38.6684" /><text fill="red" font-size="30" transform="rotate(-10, 110, 30)" x="110" y="30">A</text><line stroke="rgb(0%,0%,0%)" x1="111.7416" x2="117.3744" y1="20.4914" y2="39.8687" /><line stroke="rgb(0%,0%,0%)" x1="109.7051" x2="107.4724" y1="28.5588" y2="29.4642" /><line stroke="rgb(0%,0%,0%)" x1="123.1403" x2="122.8187" y1="29.4099" y2="21.4905" /><line stroke="rgb(0%,0%,0%)" x1="107.3557" x2="105.2289" y1="28.9645" y2="28.6108" /><line stroke="rgb(0%,0%,0%)" x1="105.72" x2="109.6725" y1="36.7112" y2="36.4516" /><line stroke="rgb(0%,0%,0%)" x1="114.1458" x2="111.4053" y1="34.0764" y2="20.6817" /><line stroke="rgb(0%,0%,0%)" x1="117.9307" x2="105.5915" y1="26.1464" y2="24.8894" /><line stroke="rgb(0%,0%,0%)" x1="119.5989" x2="117.8774" y1="36.4957" y2="32.7562" /><line stroke="rgb(0%,0%,0%)" x1="114.0338" x2="105.1938" y1="36.7222" y2="28.8503" /><line stroke="rgb(0%,0%,0%)" x1="114.3099" x2="120.4545" y1="36.3604" y2="23.7621" /><line stroke="rgb(100%,100%,0%)" x1="106.5484" x2="106.2112" y1="37.2763" y2="38.9132" /><line stroke="rgb(100%,100%,0%)" x1="112.4664" x2="118.3178" y1="31.9761" y2="25.3805" /><line stroke="rgb(100%,100%,0%)" x1="120.1129" x2="118.3957" y1="33.1288" y2="20.3378" /><line stroke="rgb(100%,100%,0%)" x1="117.3527" x2="110.0149" y1="23.7933" y2="30.7669" /><line stroke="rgb(100%,100%,0%)" x1="108.2169" x2="116.6761" y1="21.9842" y2="17.8744" /><line stroke="rgb(100%,100%,0%)" x1="114.3342" x2="107.6189" y1="26.2038" y2="19.166" /><line stroke="rgb(100%,100%,0%)" x1="112.3843" x2="122.6154" y1="24.7481" y2="38.4355" /><line stroke="rgb(100%,100%,0%)" x1="111.6633" x2="111.1771" y1="23.0236" y2="32.8744" /><line stroke="rgb(100%,100%,0%)" x1="120.7984" x2="115.5578" y1="24.7943" y2="42.6811" /><line stroke="rgb(100%,100%,0%)" x1="110.4219" x2="117.5002" y1="28.7955" y2="31.3549" /></svg>