<?xml version="1.0" encoding="utf-8" ?>
<svg baseProfile="tiny" height="50" version="1.2" width="150" xmlns="http://www.w3.org/2000/svg" xmlns:ev="http://www.w3.org/2001/xml-events" xmlns:xlink="http://www.w3.org/1999/xlink"><defs /><text fill="red" font-size="30" transform="rotate(9, 10, 30)" x="10" y="30">J</text><line stroke="rgb(0%,0%,0%)" x1="20.2813" x2="14.9248" y1="29.0745" y2="34.2118" /><line stroke="rgb(0%,0%,0%)" x1="18.5763" x2="8.5012" y1="30.9691" y2="36.798" /><line stroke="rgb(0%,0%,0%)" x1="17.6923" x2="5.2509" y1="35.3577" y2="27.3967" /><line stroke="rgb(0%,0%,0%)" x1="21.4436" x2="5.9428" y1="34.9131" y2="21.5027" /><line stroke="rgb(0%,0%,0%)" x1="16.3544" x2="17.3544" y1="31.4518" y2="36.7659" /><line stroke="rgb(0%,0%,0%)" x1="7.4887" x2="16.9869" y1="34.6059" y2="20.5897" /><line stroke="rgb(0%,0%,0%)" x1="19.6269" x2="5.2198" y1="32.2602" y2="37.8888" /><line stroke="rgb(0%,0%,0%)" x1="9.9676" x2="7.826" y1="27.1543" y2="33.5435" /><line stroke="rgb(0%,0%,0%)" x1="23.2485" x2="5.7013" y1="30.7965" y2="26.4917" /><line stroke="rgb(0%,0%,0%)" x1="7.223" x2="10.0652" y1="30.2541" y2="35.944" /><line stroke="rgb(100%,100%,0%)" x1="15.3975" x2="7.0544" y1="28.29" y2="37.2624" /><line stroke="rgb(100%,100%,0%)" x1="6.5103" x2="17.0908" y1="23.2306" y2="23.2555" /><line stroke="rgb(100%,100%,0%)" x1="13.946" x2="16.13" y1="30.4258" y2="26.7182" /><line stroke="rgb(100%,100%,0%)" x1="18.2468" x2="17.4387" y1="24.2816" y2="42.524" /><line stroke="rgb(100%,100%,0%)" x1="5.8596" x2="12.5577" y1="35.645" y2="17.0889" /><line stroke="rgb(100%,100%,0%)" x1="22.5875" x2="16.8916" y1="21.5818" y2="42.8035" /><line stroke="rgb(100%,100%,0%)" x1="22.4198" x2="18.1184" y1="31.0667" y2="34.6185" /><line stroke="rgb(100%,100%,0%)" x1="13.2676" x2="23.0056" y1="21.295" y2="39.3695" /><line stroke="rgb(100%,100%,0%)" x1="21.0934" x2="5.786" y1="36.8362" y2="35.0085" /><line stroke="rgb(100%,100%,0%)" x1="16.4929" x2="17.6944" y1="23.1624" y2="44.1769" /><text fill="red" font-size="30" transform="rotate(18, 35, 30)" x="35" y="30">8</text><line stroke="rgb(0%,0%,0%)" x1="45.3937" x2="34.5298" y1="23.1295" y2="39.1458" /><line stroke="rgb(0%,0%,0%)" x1="37.7853" x2="33.944" y1="30.5804" y2="25.5053" /><line stroke="rgb(0%,0%,0%)" x1="30.4194" x2="44.9071" y1="39.6398" y2="23.9355" /><line stroke="rgb(0%,0%,0%)" x1="41.3633" x2="38.3085" y1="32.0545" y2="32.4151" /><line stroke="rgb(0%,0%,0%)" x1="49.6574" x2="42.4236" y1="20.6669" y2="39.8167" /><line stroke="rgb(0%,0%,0%)" x1="45.7988" x2="37.4235" y1="29.2367" y2="35.5532" /><line stroke="rgb(0%,0%,0%)" x1="33.6296" x2="33.6482" y1="21.7592" y2="30.1837" /><line stroke="rgb(0%,0%,0%)" x1="45.8086" x2="31.8406" y1="22.5492" y2="32.7177" /><line stroke="rgb(0%,0%,0%)" x1="46.8638" x2="35.5784" y1="31.0605" y2="21.1748" /><line stroke="rgb(0%,0%,0%)" x1="32.5353" x2="43.967" y1="30.8408" y2="30.9982" /><line stroke="rgb(100%,100%,0%)" x1="31.8665" x2="46.7355" y1="20.797" y2="18.1854" /><line stroke="rgb(100%,100%,0%)" x1="42.372" x2="43.2094" y1="31.8381" y2="17.7244" /><line stroke="rgb(100%,100%,0%)" x1="38.6948" x2="36.4876" y1="25.5699" y2="34.9039" /><line stroke="rgb(100%,100%,0%)" x1="44.5257" x2="47.5545" y1="29.6437" y2="27.1239" /><line stroke="rgb(100%,100%,0%)" x1="41.7862" x2="40.1298" y1="27.9656" y2="25.7547" /><line stroke="rgb(100%,100%,0%)" x1="43.3573" x2="47.2605" y1="33.657" y2="31.6403" /><line stroke="rgb(100%,100%,0%)" x1="32.2171" x2="40.6499" y1="36.6343" y2="18.3123" /><line stroke="rgb(100%,100%,0%)" x1="30.2075" x2="43.2791" y1="37.2715" y2="39.5196" /><line stroke="rgb(100%,100%,0%)" x1="42.7365" x2="34.3996" y1="21.6332" y2="25.1964" /><line stroke="rgb(100%,100%,0%)" x1="45.4868" x2="44.9445" y1="23.4713" y2="22.7421" /><text fill="red" font-size="30" transform="rotate(4, 60, 30)" x="60" y="30">T</text><line stroke="rgb(0%,0%,0%)" x1="66.1002" x2="66.1776" y1="20.4031" y2="24.0064" /><line stroke="rgb(0%,0%,0%)" x1="68.0935" x2="73.7422" y1="32.67" y2="21.1172" /><line stroke="rgb(0%,0%,0%)" x1="63.4671" x2="71.4495" y1="20.7762" y2="27.3008" /><line stroke="rgb(0%,0%,0%)" x1="59.1737" x2="70.1343" y1="28.1235" y2="25.5264" /><line stroke="rgb(0%,0%,0%)" x1="67.5783" x2="70.0644" y1="34.7083" y2="38.2447" /><line stroke="rgb(0%,0%,0%)" x1="65.6668" x2="71.1874" y1="26.7245" y2="30.567" /><line stroke="rgb(0%,0%,0%)" x1="67.2534" x2="62.1832" y1="25.1185" y2="21.2455" /><line stroke="rgb(0%,0%,0%)" x1="56.0921" x2="62.6665" y1="30.7341" y2="31.469" /><line stroke="rgb(0%,0%,0%)" x1="71.5439" x2="72.8247" y1="29.8177" y2="33.0138" /><line stroke="rgb(0%,0%,0%)" x1="55.1727" x2="69.8621" y1="25.9406" y2="33.5932" /><line stroke="rgb(100%,100%,0%)" x1="64.5756" x2="56.3359" y1="33.4218" y2="36.9406" /><line stroke="rgb(100%,100%,0%)" x1="70.4238" x2="70.8918" y1="23.2258" y2="18.9583" /><line stroke="rgb(100%,100%,0%)" x1="74.4417" x2="67.5155" y1="21.219" y2="44.0284" /><line stroke="rgb(100%,100%,0%)" x1="66.6076" x2="67.8151" y1="25.7512" y2="18.4148" /><line stroke="rgb(100%,100%,0%)" x1="72.5308" x2="68.3637" y1="33.3657" y2="43.4927" /><line stroke="rgb(100%,100%,0%)" x1="74.8132" x2="62.7088" y1="27.8105" y2="30.4925" /><line stroke="rgb(100%,100%,0%)" x1="70.5491" x2="72.1786" y1="39.1139" y2="20.5597" /><line stroke="rgb(100%,100%,0%)" x1="65.8858" x2="71.3049" y1="20.7277" y2="15.9406" /><line stroke="rgb(100%,100%,0%)" x1="70.1507" x2="70.1837" y1="21.4969" y2="43.0796" /><line stroke="rgb(100%,100%,0%)" x1="71.3313" x2="57.56" y1="35.249" y2="19.9577" /><text fill="red" font-size="30" transform="rotate(-16, 85, 30)" x="85" y="30">V</text><line stroke="rgb(0%,0%,0%)" x1="90.4252" x2="85.0052" y1="23.605" y2="25.9208" /><line stroke="rgb(0%,0%,0%)" x1="82.0306" x2="96.8501" y1="28.5343" y2="36.622" /><line stroke="rgb(0%,0%,0%)" x1="84.6729" x2="85.6793" y1="26.5626" y2="34.6821" /><line stroke="rgb(0%,0%,0%)" x1="82.8218" x2="92.9579" y1="36.6476" y2="28.7767" /><line stroke="rgb(0%,0%,0%)" x1="85.9325" x2="81.0282" y1="34.4496" y2="38.2125" /><line stroke="rgb(0%,0%,0%)" x1="96.7564" x2="83.4099" y1="28.856" y2="24.806" /><line stroke="rgb(0%,0%,0%)" x1="81.9492" x2="90.4348" y1="21.3169" y2="37.9621" /><line stroke="rgb(0%,0%,0%)" x1="84.0204" x2="85.8489" y1="21.0694" y2="22.3101" /><line stroke="rgb(0%,0%,0%)" x1="99.3597" x2="90.0939" y1="34.3485" y2="26.5092" /><line stroke="rgb(0%,0%,0%)" x1="81.605" x2="87.0766" y1="29.9684" y2="35.1404" /><line stroke="rgb(100%,100%,0%)" x1="85.1082" x2="85.3948" y1="30.0547" y2="32.665" /><line stroke="rgb(100%,100%,0%)" x1="94.4117" x2="83.4008" y1="31.1199" y2="44.027" /><line stroke="rgb(100%,100%,0%)" x1="96.5398" x2="82.8114" y1="27.9948" y2="23.7392" /><line stroke="rgb(100%,100%,0%)" x1="88.7591" x2="82.4158" y1="30.5735" y2="16.2305" /><line stroke="rgb(100%,100%,0%)" x1="90.6583" x2="91.6537" y1="23.6793" y2="44.2208" /><line stroke="rgb(100%,100%,0%)" x1="98.8107" x2="97.1085" y1="29.7864" y2="33.0267" /><line stroke="rgb(100%,100%,0%)" x1="90.7275" x2="99.708" y1="35.3548" y2="23.8801" /><line stroke="rgb(100%,100%,0%)" x1="99.1809" x2="90.4677" y1="39.4717" y2="24.6075" /><line stroke="rgb(100%,100%,0%)" x1="97.7234" x2="89.6558" y1="22.1956" y2="29.1462" /><line stroke="rgb(100%,100%,0%)" x1="92.7256" x2="98.2719" y1="33.2282" y2="28.8203" /><text fill="red" font-size="30" transform="rotate(-25, 110, 30)" x="110" y="30">V</text><line stroke="rgb(0%,0%,0%)" x1="108.1641" x2="118.3451" y1="27.3757" y2="24.7784" /><line stroke="rgb(0%,0%,0%)" x1="120.4976" x2="118.1073" y1="26.8654" y2="32.114" /><line stroke="rgb(0%,0%,0%)" x1="106.1707" x2="105.2104" y1="36.9896" y2="34.969" /><line stroke="rgb(0%,0%,0%)" x1="110.7726" x2="121.3337" y1="35.2454" y2="30.3458" /><line stroke="rgb(0%,0%,0%)" x1="113.4506" x2="118.4075" y1="36.104" y2="29.1621" /><line stroke="rgb(0%,0%,0%)" x1="115.5778" x2="112.7666" y1="31.9451" y2="30.5602" /><line stroke="rgb(0%,0%,0%)" x1="106.9335" x2="106.3539" y1="29.6768" y2="35.6754" /><line stroke="rgb(0%,0%,0%)" x1="111.5791" x2="118.1691" y1="25.6089" y2="20.2471" /><line stroke="rgb(0%,0%,0%)" x1="113.2895" x2="105.7586" y1="26.3297" y2="21.3708" /><line stroke="rgb(0%,0%,0%)" x1="114.6751" x2="112.2519" y1="31.3441" y2="22.3049" /><line stroke="rgb(100%,100%,0%)" x1="107.1254" x2="116.1515" y1="36.3456" y2="21.5852" /><line stroke="rgb(100%,100%,0%)" x1="114.9318" x2="113.0056" y1="28.8641" y2="20.0111" /><line stroke="rgb(100%,100%,0%)" x1="106.3396" x2="113.034" y1="21.0665" y2="33.746" /><line stroke="rgb(100%,100%,0%)" x1="109.8227" x2="124.9631" y1="38.2504" y2="27.003" /><line stroke="rgb(100%,100%,0%)" x1="106.7682" x2="117.1967" y1="28.5919" y2="27.1214" /><line stroke="rgb(100%,100%,0%)" x1="124.0057" x2="113.7437" y1="24.5077" y2="38.341" /><line stroke="rgb(100%,100%,0%)" x1="122.8796" x2="113.2803" y1="23.9766" y2="33.9428" /><line stroke="rgb(100%,100%,0%)" x1="113.3456" x2="124.2565" y1="31.212" y2="31.494" /><line stroke="rgb(100%,100%,0%)" x1="111.242" x2="123.173" y1="37.8255" y2="41.0071" /><line stroke="rgb(100%,100%,0%)" x1="117.8616" x2="108.6678" y1="26.5619" y2="39.6413" /></svg>