<?xml version="1.0" encoding="utf-8" ?>
<svg baseProfile="tiny" height="50" version="1.2" width="150" xmlns="http://www.w3.org/2000/svg" xmlns:ev="http://www.w3.org/2001/xml-events" xmlns:xlink="http://www.w3.org/1999/xlink"><defs /><text fill="red" font-size="20" transform="rotate(-21, 10, 30)" x="10" y="30">8</text><line stroke="rgb(0%,0%,0%)" x1="8.1666" x2="8.2263" y1="28.0429" y2="20.3545" /><line stroke="rgb(0%,0%,0%)" x1="17.2783" x2="13.4996" y1="34.7775" y2="29.8016" /><line stroke="rgb(0%,0%,0%)" x1="6.5089" x2="5.4583" y1="25.3171" y2="31.3149" /><line stroke="rgb(0%,0%,0%)" x1="16.6925" x2="8.8754" y1="24.8447" y2="23.5393" /><line stroke="rgb(0%,0%,0%)" x1="20.4536" x2="10.4154" y1="31.4127" y2="32.5966" /><line stroke="rgb(0%,0%,0%)" x1="19.556" x2="10.1463" y1="38.0426" y2="37.1204" /><line stroke="rgb(0%,0%,0%)" x1="23.4995" x2="16.7492" y1="36.2852" y2="30.082" /><line stroke="rgb(0%,0%,0%)" x1="6.704" x2="8.5626" y1="26.6694" y2="21.0287" /><line stroke="rgb(0%,0%,0%)" x1="23.6814" x2="10.6659" y1="39.5863" y2="36.9135" /><line stroke="rgb(0%,0%,0%)" x1="6.9826" x2="17.8181" y1="35.3459" y2="39.0224" /><line stroke="rgb(100%,50%,0%)" x1="17.7552" x2="7.2316" y1="35.5798" y2="34.6749" /><line stroke="rgb(100%,50%,0%)" x1="21.3658" x2="18.7341" y1="29.6075" y2="19.9772" /><line stroke="rgb(100%,50%,0%)" x1="14.1824" x2="22.762" y1="24.1338" y2="37.9106" /><line stroke="rgb(100%,50%,0%)" x1="5.526" x2="15.7005" y1="33.6301" y2="30.7284" /><line stroke="rgb(100%,50%,0%)" x1="11.0625" x2="8.5008" y1="37.0597" y2="42.7143" /><line stroke="rgb(100%,50%,0%)" x1="12.9062" x2="12.7836" y1="25.4492" y2="25.5656" /><line stroke="rgb(100%,50%,0%)" x1="17.7711" x2="24.0422" y1="23.7629" y2="30.1012" /><line stroke="rgb(100%,50%,0%)" x1="14.3513" x2="11.307" y1="35.2309" y2="25.687" /><line stroke="rgb(100%,50%,0%)" x1="13.8912" x2="13.377" y1="39.4665" y2="27.9907" /><line stroke="rgb(100%,50%,0%)" x1="6.4523" x2="12.5095" y1="30.9927" y2="38.5782" /><text fill="red" font-size="20" transform="rotate(4, 35, 30)" x="35" y="30">2</text><line stroke="rgb(0%,0%,0%)" x1="37.1438" x2="41.8433" y1="36.6856" y2="37.7276" /><line stroke="rgb(0%,0%,0%)" x1="45.046" x2="30.6092" y1="28.8142" y2="32.0651" /><line stroke="rgb(0%,0%,0%)" x1="48.3155" x2="42.1057" y1="25.0252" y2="31.1575" /><line stroke="rgb(0%,0%,0%)" x1="38.156" x2="45.8048" y1="25.9281" y2="29.932" /><line stroke="rgb(0%,0%,0%)" x1="39.2788" x2="30.8095" y1="35.21" y2="35.416" /><line stroke="rgb(0%,0%,0%)" x1="46.3166" x2="35.5509" y1="20.4958" y2="31.5551" /><line stroke="rgb(0%,0%,0%)" x1="45.1071" x2="48.1686" y1="35.7613" y2="37.7312" /><line stroke="rgb(0%,0%,0%)" x1="48.1512" x2="43.6562" y1="24.2755" y2="35.8643" /><line stroke="rgb(0%,0%,0%)" x1="34.5396" x2="30.8419" y1="25.3581" y2="35.9556" /><line stroke="rgb(0%,0%,0%)" x1="46.8589" x2="32.2196" y1="26.3385" y2="38.6847" /><line stroke="rgb(100%,50%,0%)" x1="42.1494" x2="37.7579" y1="32.001" y2="42.1644" /><line stroke="rgb(100%,50%,0%)" x1="35.7104" x2="30.8509" y1="38.5917" y2="22.0326" /><line stroke="rgb(100%,50%,0%)" x1="37.6422" x2="38.2725" y1="29.6894" y2="32.0597" /><line stroke="rgb(100%,50%,0%)" x1="49.2073" x2="48.8212" y1="25.7737" y2="27.0838" /><line stroke="rgb(100%,50%,0%)" x1="37.9425" x2="35.7172" y1="23.2272" y2="22.8156" /><line stroke="rgb(100%,50%,0%)" x1="45.4583" x2="48.8164" y1="37.8672" y2="15.0748" /><line stroke="rgb(100%,50%,0%)" x1="49.0115" x2="36.9085" y1="30.1677" y2="17.5935" /><line stroke="rgb(100%,50%,0%)" x1="33.3504" x2="47.1143" y1="32.3574" y2="26.7267" /><line stroke="rgb(100%,50%,0%)" x1="32.7011" x2="30.4849" y1="38.7861" y2="36.3066" /><line stroke="rgb(100%,50%,0%)" x1="49.9383" x2="33.2592" y1="38.8468" y2="18.5061" /><text fill="red" font-size="20" transform="rotate(26, 60, 30)" x="60" y="30">V</text><line stroke="rgb(0%,0%,0%)" x1="73.7145" x2="71.51" y1="38.8979" y2="25.3803" /><line stroke="rgb(0%,0%,0%)" x1="62.0733" x2="72.8303" y1="24.5345" y2="20.879" /><line stroke="rgb(0%,0%,0%)" x1="56.4534" x2="58.64" y1="39.864" y2="39.2313" /><line stroke="rgb(0%,0%,0%)" x1="63.6056" x2="71.3429" y1="24.7495" y2="34.8814" /><line stroke="rgb(0%,0%,0%)" x1="70.6578" x2="57.4927" y1="24.8031" y2="35.9452" /><line stroke="rgb(0%,0%,0%)" x1="71.8019" x2="59.9194" y1="34.9109" y2="36.4013" /><line stroke="rgb(0%,0%,0%)" x1="72.3649" x2="62.1613" y1="20.2511" y2="22.2852" /><line stroke="rgb(0%,0%,0%)" x1="64.965" x2="63.4625" y1="37.5831" y2="38.8389" /><line stroke="rgb(0%,0%,0%)" x1="61.6274" x2="58.3886" y1="35.1152" y2="38.1451" /><line stroke="rgb(0%,0%,0%)" x1="65.2238" x2="56.7806" y1="20.5725" y2="26.8834" /><line stroke="rgb(100%,50%,0%)" x1="63.8343" x2="72.139" y1="25.3516" y2="27.1055" /><line stroke="rgb(100%,50%,0%)" x1="64.3665" x2="66.1174" y1="28.8388" y2="29.4623" /><line stroke="rgb(100%,50%,0%)" x1="60.1043" x2="60.9583" y1="28.8826" y2="38.5008" /><line stroke="rgb(100%,50%,0%)" x1="74.2047" x2="62.4328" y1="28.9787" y2="28.6072" /><line stroke="rgb(100%,50%,0%)" x1="61.9155" x2="55.6852" y1="27.7019" y2="25.4882" /><line stroke="rgb(100%,50%,0%)" x1="69.3742" x2="72.5941" y1="39.1071" y2="24.5288" /><line stroke="rgb(100%,50%,0%)" x1="59.6491" x2="70.5249" y1="28.7643" y2="44.7804" /><line stroke="rgb(100%,50%,0%)" x1="61.3214" x2="65.9234" y1="27.7374" y2="42.286" /><line stroke="rgb(100%,50%,0%)" x1="64.6853" x2="68.0902" y1="28.7155" y2="36.7234" /><line stroke="rgb(100%,50%,0%)" x1="62.1842" x2="65.9852" y1="34.6347" y2="31.4871" /><text fill="red" font-size="20" transform="rotate(-17, 85, 30)" x="85" y="30">W</text><line stroke="rgb(0%,0%,0%)" x1="90.7921" x2="81.896" y1="24.3794" y2="37.1126" /><line stroke="rgb(0%,0%,0%)" x1="85.1198" x2="86.6839" y1="39.3641" y2="29.9227" /><line stroke="rgb(0%,0%,0%)" x1="96.5091" x2="95.0631" y1="27.5575" y2="21.3722" /><line stroke="rgb(0%,0%,0%)" x1="84.0221" x2="90.7207" y1="39.1966" y2="28.6542" /><line stroke="rgb(0%,0%,0%)" x1="97.3627" x2="93.0925" y1="22.2779" y2="34.8597" /><line stroke="rgb(0%,0%,0%)" x1="86.2429" x2="92.478" y1="23.0112" y2="37.3118" /><line stroke="rgb(0%,0%,0%)" x1="93.1686" x2="93.116" y1="20.0161" y2="22.5634" /><line stroke="rgb(0%,0%,0%)" x1="80.3863" x2="91.3492" y1="34.8676" y2="32.9355" /><line stroke="rgb(0%,0%,0%)" x1="89.4724" x2="89.9856" y1="24.355" y2="26.8075" /><line stroke="rgb(0%,0%,0%)" x1="80.4893" x2="95.226" y1="31.2719" y2="36.0768" /><line stroke="rgb(100%,50%,0%)" x1="97.3685" x2="97.6784" y1="23.0052" y2="23.333" /><line stroke="rgb(100%,50%,0%)" x1="97.5424" x2="98.633" y1="35.0962" y2="17.573" /><line stroke="rgb(100%,50%,0%)" x1="88.1265" x2="89.3552" y1="27.7166" y2="44.4899" /><line stroke="rgb(100%,50%,0%)" x1="90.7719" x2="85.0887" y1="39.3219" y2="24.5728" /><line stroke="rgb(100%,50%,0%)" x1="93.4748" x2="90.4422" y1="32.9339" y2="23.9014" /><line stroke="rgb(100%,50%,0%)" x1="87.5909" x2="83.014" y1="31.0966" y2="39.9135" /><line stroke="rgb(100%,50%,0%)" x1="90.7091" x2="89.6847" y1="21.5761" y2="25.7141" /><line stroke="rgb(100%,50%,0%)" x1="82.7893" x2="85.8191" y1="39.1929" y2="15.0004" /><line stroke="rgb(100%,50%,0%)" x1="94.2632" x2="97.5406" y1="39.271" y2="24.0712" /><line stroke="rgb(100%,50%,0%)" x1="81.319" x2="88.4961" y1="28.5038" y2="20.5714" /><text fill="red" font-size="20" transform="rotate(-17, 110, 30)" x="110" y="30">X</text><line stroke="rgb(0%,0%,0%)" x1="115.3998" x2="111.8868" y1="21.1018" y2="38.849" /><line stroke="rgb(0%,0%,0%)" x1="106.327" x2="123.2067" y1="30.2532" y2="34.6291" /><line stroke="rgb(0%,0%,0%)" x1="121.8715" x2="122.8589" y1="30.3497" y2="37.5074" /><line stroke="rgb(0%,0%,0%)" x1="110.2672" x2="117.9465" y1="34.6713" y2="27.1958" /><line stroke="rgb(0%,0%,0%)" x1="108.2145" x2="122.517" y1="31.4581" y2="22.2226" /><line stroke="rgb(0%,0%,0%)" x1="113.547" x2="111.3512" y1="37.6552" y2="26.1773" /><line stroke="rgb(0%,0%,0%)" x1="122.7435" x2="123.3702" y1="22.2654" y2="20.6487" /><line stroke="rgb(0%,0%,0%)" x1="110.7889" x2="116.0373" y1="29.81" y2="32.8519" /><line stroke="rgb(0%,0%,0%)" x1="118.3305" x2="105.5511" y1="34.2848" y2="32.1925" /><line stroke="rgb(0%,0%,0%)" x1="117.5099" x2="105.9507" y1="23.7692" y2="32.6" /><line stroke="rgb(100%,50%,0%)" x1="122.434" x2="123.882" y1="29.3234" y2="26.6141" /><line stroke="rgb(100%,50%,0%)" x1="107.4785" x2="120.6582" y1="34.6853" y2="43.0572" /><line stroke="rgb(100%,50%,0%)" x1="120.8926" x2="115.2862" y1="36.4135" y2="34.3184" /><line stroke="rgb(100%,50%,0%)" x1="115.6677" x2="112.2698" y1="28.6736" y2="30.0071" /><line stroke="rgb(100%,50%,0%)" x1="114.5011" x2="120.9206" y1="27.143" y2="26.7032" /><line stroke="rgb(100%,50%,0%)" x1="121.3021" x2="111.8303" y1="36.5658" y2="18.3608" /><line stroke="rgb(100%,50%,0%)" x1="109.6741" x2="124.0679" y1="29.1711" y2="31.0942" /><line stroke="rgb(100%,50%,0%)" x1="110.37" x2="113.1222" y1="21.9345" y2="24.7624" /><line stroke="rgb(100%,50%,0%)" x1="117.7867" x2="119.004" y1="38.4352" y2="43.2293" /><line stroke="rgb(100%,50%,0%)" x1="116.1085" x2="123.0929" y1="32.6493" y2="32.652" /></svg>