<?xml version="1.0" encoding="utf-8" ?>
<svg baseProfile="tiny" height="50" version="1.2" width="150" xmlns="http://www.w3.org/2000/svg" xmlns:ev="http://www.w3.org/2001/xml-events" xmlns:xlink="http://www.w3.org/1999/xlink"><defs /><text fill="red" font-size="30" transform="rotate(29, 10, 30)" x="10" y="30">X</text><line stroke="rgb(0%,0%,0%)" x1="15.9085" x2="7.5703" y1="27.2155" y2="35.0708" /><line stroke="rgb(0%,0%,0%)" x1="24.7707" x2="18.239" y1="39.0996" y2="33.0029" /><line stroke="rgb(0%,0%,0%)" x1="16.8893" x2="17.5863" y1="25.6314" y2="22.6528" /><line stroke="rgb(0%,0%,0%)" x1="23.9415" x2="6.2836" y1="29.2357" y2="32.8755" /><line stroke="rgb(0%,0%,0%)" x1="20.8086" x2="20.2224" y1="22.4033" y2="31.7456" /><line stroke="rgb(0%,0%,0%)" x1="8.8093" x2="23.7309" y1="20.2919" y2="20.689" /><line stroke="rgb(0%,0%,0%)" x1="16.187" x2="12.3987" y1="27.6595" y2="23.8024" /><line stroke="rgb(0%,0%,0%)" x1="24.0957" x2="17.0997" y1="35.3975" y2="26.6015" /><line stroke="rgb(0%,0%,0%)" x1="5.9271" x2="10.1347" y1="31.372" y2="37.1192" /><line stroke="rgb(0%,0%,0%)" x1="10.0016" x2="16.3802" y1="26.1242" y2="22.369" /><line stroke="rgb(100%,100%,0%)" x1="10.6554" x2="24.6281" y1="32.2429" y2="16.8019" /><line stroke="rgb(100%,100%,0%)" x1="9.223" x2="11.7893" y1="25.645" y2="22.1201" /><line stroke="rgb(100%,100%,0%)" x1="17.783" x2="19.6336" y1="35.9777" y2="17.5622" /><line stroke="rgb(100%,100%,0%)" x1="18.8582" x2="11.4156" y1="26.1737" y2="33.2063" /><line stroke="rgb(100%,100%,0%)" x1="11.582" x2="8.6329" y1="36.4501" y2="28.3954" /><line stroke="rgb(100%,100%,0%)" x1="16.9959" x2="7.959" y1="32.4991" y2="28.0604" /><line stroke="rgb(100%,100%,0%)" x1="8.0137" x2="10.1756" y1="28.3815" y2="17.9277" /><line stroke="rgb(100%,100%,0%)" x1="15.8619" x2="15.4125" y1="27.9285" y2="32.7403" /><line stroke="rgb(100%,100%,0%)" x1="13.4608" x2="5.5165" y1="28.1965" y2="36.2726" /><line stroke="rgb(100%,100%,0%)" x1="19.1285" x2="16.3036" y1="23.2357" y2="22.9285" /><text fill="red" font-size="30" transform="rotate(-23, 35, 30)" x="35" y="30">T</text><line stroke="rgb(0%,0%,0%)" x1="48.8242" x2="43.0424" y1="30.296" y2="34.8072" /><line stroke="rgb(0%,0%,0%)" x1="48.8029" x2="43.7496" y1="36.7454" y2="25.0807" /><line stroke="rgb(0%,0%,0%)" x1="31.4594" x2="49.1995" y1="28.9355" y2="34.7457" /><line stroke="rgb(0%,0%,0%)" x1="48.5897" x2="46.8309" y1="26.4614" y2="33.5802" /><line stroke="rgb(0%,0%,0%)" x1="32.2489" x2="34.4128" y1="34.642" y2="25.8625" /><line stroke="rgb(0%,0%,0%)" x1="45.5738" x2="38.2744" y1="37.1645" y2="35.0999" /><line stroke="rgb(0%,0%,0%)" x1="38.1876" x2="42.0281" y1="34.7572" y2="30.6874" /><line stroke="rgb(0%,0%,0%)" x1="46.1803" x2="45.3644" y1="35.3181" y2="23.7844" /><line stroke="rgb(0%,0%,0%)" x1="32.7254" x2="45.0489" y1="37.9344" y2="37.5914" /><line stroke="rgb(0%,0%,0%)" x1="35.1111" x2="42.5638" y1="37.6833" y2="30.8293" /><line stroke="rgb(100%,100%,0%)" x1="32.2715" x2="36.1679" y1="39.2172" y2="38.6805" /><line stroke="rgb(100%,100%,0%)" x1="44.8869" x2="32.8549" y1="31.546" y2="18.6204" /><line stroke="rgb(100%,100%,0%)" x1="37.2159" x2="37.912" y1="38.606" y2="24.0121" /><line stroke="rgb(100%,100%,0%)" x1="30.6364" x2="32.0541" y1="35.1914" y2="25.0011" /><line stroke="rgb(100%,100%,0%)" x1="46.9077" x2="45.3855" y1="29.2884" y2="38.6627" /><line stroke="rgb(100%,100%,0%)" x1="42.9832" x2="40.9" y1="34.7419" y2="16.668" /><line stroke="rgb(100%,100%,0%)" x1="32.8538" x2="46.8068" y1="34.807" y2="36.2705" /><line stroke="rgb(100%,100%,0%)" x1="35.3147" x2="47.9909" y1="32.7962" y2="38.4624" /><line stroke="rgb(100%,100%,0%)" x1="40.7775" x2="43.1301" y1="25.7903" y2="36.3928" /><line stroke="rgb(100%,100%,0%)" x1="40.0736" x2="42.5417" y1="34.4288" y2="32.4979" /><text fill="red" font-size="30" transform="rotate(24, 60, 30)" x="60" y="30">0</text><line stroke="rgb(0%,0%,0%)" x1="57.7436" x2="69.2225" y1="25.0847" y2="33.6718" /><line stroke="rgb(0%,0%,0%)" x1="72.9013" x2="62.9783" y1="25.1327" y2="32.3313" /><line stroke="rgb(0%,0%,0%)" x1="58.6703" x2="70.7765" y1="27.9842" y2="36.0633" /><line stroke="rgb(0%,0%,0%)" x1="56.6837" x2="55.7972" y1="26.8762" y2="31.6794" /><line stroke="rgb(0%,0%,0%)" x1="58.795" x2="69.2148" y1="28.4159" y2="20.5066" /><line stroke="rgb(0%,0%,0%)" x1="59.7329" x2="55.3822" y1="31.7244" y2="26.1401" /><line stroke="rgb(0%,0%,0%)" x1="70.7553" x2="60.6881" y1="36.8169" y2="27.8146" /><line stroke="rgb(0%,0%,0%)" x1="61.438" x2="55.0613" y1="31.4192" y2="27.1142" /><line stroke="rgb(0%,0%,0%)" x1="74.2826" x2="74.6893" y1="32.7588" y2="23.2941" /><line stroke="rgb(0%,0%,0%)" x1="66.2018" x2="62.4345" y1="32.4214" y2="33.1856" /><line stroke="rgb(100%,100%,0%)" x1="56.064" x2="70.8351" y1="27.5681" y2="16.4626" /><line stroke="rgb(100%,100%,0%)" x1="65.7808" x2="64.8215" y1="22.631" y2="20.4455" /><line stroke="rgb(100%,100%,0%)" x1="72.128" x2="60.7654" y1="22.1542" y2="37.7829" /><line stroke="rgb(100%,100%,0%)" x1="74.0654" x2="74.9968" y1="27.4661" y2="29.2827" /><line stroke="rgb(100%,100%,0%)" x1="61.461" x2="65.4887" y1="27.2891" y2="23.2804" /><line stroke="rgb(100%,100%,0%)" x1="62.3614" x2="71.684" y1="21.4363" y2="41.0841" /><line stroke="rgb(100%,100%,0%)" x1="64.3961" x2="71.663" y1="38.014" y2="36.4535" /><line stroke="rgb(100%,100%,0%)" x1="70.4895" x2="67.728" y1="22.6722" y2="39.4303" /><line stroke="rgb(100%,100%,0%)" x1="65.5348" x2="65.7996" y1="34.0519" y2="39.5356" /><line stroke="rgb(100%,100%,0%)" x1="63.4963" x2="74.8816" y1="26.6869" y2="21.8511" /><text fill="red" font-size="30" transform="rotate(-16, 85, 30)" x="85" y="30">G</text><line stroke="rgb(0%,0%,0%)" x1="86.0274" x2="98.0343" y1="22.1589" y2="27.8868" /><line stroke="rgb(0%,0%,0%)" x1="98.7448" x2="94.1728" y1="26.807" y2="31.6155" /><line stroke="rgb(0%,0%,0%)" x1="96.3279" x2="96.87" y1="27.6526" y2="27.2897" /><line stroke="rgb(0%,0%,0%)" x1="94.6034" x2="85.6489" y1="25.7021" y2="22.8359" /><line stroke="rgb(0%,0%,0%)" x1="82.5752" x2="92.1152" y1="23.3444" y2="33.6726" /><line stroke="rgb(0%,0%,0%)" x1="98.4106" x2="83.2" y1="25.1167" y2="24.0945" /><line stroke="rgb(0%,0%,0%)" x1="83.5597" x2="91.1271" y1="20.9717" y2="30.4841" /><line stroke="rgb(0%,0%,0%)" x1="89.0847" x2="91.9197" y1="33.5043" y2="23.1899" /><line stroke="rgb(0%,0%,0%)" x1="92.3575" x2="99.7518" y1="28.6577" y2="38.9066" /><line stroke="rgb(0%,0%,0%)" x1="87.6474" x2="94.4314" y1="30.3783" y2="39.0012" /><line stroke="rgb(100%,100%,0%)" x1="90.7639" x2="96.3146" y1="23.4497" y2="39.2249" /><line stroke="rgb(100%,100%,0%)" x1="87.5666" x2="93.8437" y1="39.0472" y2="42.071" /><line stroke="rgb(100%,100%,0%)" x1="95.3326" x2="87.5565" y1="38.3277" y2="36.1031" /><line stroke="rgb(100%,100%,0%)" x1="89.1522" x2="92.1459" y1="20.1894" y2="27.1339" /><line stroke="rgb(100%,100%,0%)" x1="96.806" x2="96.3075" y1="20.7799" y2="23.8486" /><line stroke="rgb(100%,100%,0%)" x1="90.4159" x2="97.272" y1="33.1941" y2="42.8717" /><line stroke="rgb(100%,100%,0%)" x1="95.555" x2="94.9322" y1="21.3154" y2="30.8448" /><line stroke="rgb(100%,100%,0%)" x1="91.2281" x2="81.2486" y1="32.6553" y2="36.0125" /><line stroke="rgb(100%,100%,0%)" x1="88.4307" x2="88.0839" y1="39.8228" y2="44.822" /><line stroke="rgb(100%,100%,0%)" x1="82.3256" x2="98.5304" y1="33.1123" y2="41.7748" /><text fill="red" font-size="30" transform="rotate(21, 110, 30)" x="110" y="30">2</text><line stroke="rgb(0%,0%,0%)" x1="120.4751" x2="105.8836" y1="34.3778" y2="27.6888" /><line stroke="rgb(0%,0%,0%)" x1="113.5579" x2="110.2813" y1="39.3706" y2="22.3137" /><line stroke="rgb(0%,0%,0%)" x1="115.064" x2="115.8936" y1="28.2814" y2="38.8377" /><line stroke="rgb(0%,0%,0%)" x1="107.5582" x2="114.8913" y1="31.4212" y2="34.0901" /><line stroke="rgb(0%,0%,0%)" x1="122.701" x2="124.0923" y1="27.7584" y2="36.7848" /><line stroke="rgb(0%,0%,0%)" x1="105.2058" x2="105.501" y1="26.1333" y2="39.7728" /><line stroke="rgb(0%,0%,0%)" x1="113.5765" x2="124.5955" y1="36.0665" y2="33.6547" /><line stroke="rgb(0%,0%,0%)" x1="120.2663" x2="111.2466" y1="33.2833" y2="22.9016" /><line stroke="rgb(0%,0%,0%)" x1="123.8923" x2="123.8853" y1="37.7734" y2="24.6014" /><line stroke="rgb(0%,0%,0%)" x1="123.2587" x2="108.2199" y1="36.9567" y2="24.7114" /><line stroke="rgb(100%,100%,0%)" x1="116.3434" x2="116.5346" y1="33.4101" y2="18.3597" /><line stroke="rgb(100%,100%,0%)" x1="119.7072" x2="117.6361" y1="28.5844" y2="29.0674" /><line stroke="rgb(100%,100%,0%)" x1="119.8806" x2="118.0462" y1="34.9235" y2="35.288" /><line stroke="rgb(100%,100%,0%)" x1="124.3321" x2="117.0052" y1="26.9189" y2="23.3922" /><line stroke="rgb(100%,100%,0%)" x1="111.2998" x2="108.6719" y1="20.4966" y2="18.2867" /><line stroke="rgb(100%,100%,0%)" x1="111.0262" x2="113.5808" y1="28.89" y2="37.5951" /><line stroke="rgb(100%,100%,0%)" x1="118.1701" x2="124.2793" y1="29.2511" y2="37.7511" /><line stroke="rgb(100%,100%,0%)" x1="108.9608" x2="107.745" y1="33.7286" y2="21.0269" /><line stroke="rgb(100%,100%,0%)" x1="115.9349" x2="123.3138" y1="22.0356" y2="36.0729" /><line stroke="rgb(100%,100%,0%)" x1="122.3614" x2="106.9039" y1="31.0799" y2="30.7344" /></svg>