<?xml version="1.0" encoding="utf-8" ?>
<svg baseProfile="tiny" height="50" version="1.2" width="150" xmlns="http://www.w3.org/2000/svg" xmlns:ev="http://www.w3.org/2001/xml-events" xmlns:xlink="http://www.w3.org/1999/xlink"><defs /><text fill="red" font-size="30" transform="rotate(6, 10, 30)" x="10" y="30">G</text><line stroke="rgb(0%,0%,0%)" x1="23.7858" x2="22.968" y1="25.9088" y2="34.1001" /><line stroke="rgb(0%,0%,0%)" x1="20.595" x2="5.6981" y1="24.7561" y2="20.7969" /><line stroke="rgb(0%,0%,0%)" x1="5.4324" x2="7.024" y1="32.162" y2="39.2435" /><line stroke="rgb(0%,0%,0%)" x1="16.712" x2="5.671" y1="34.7675" y2="30.4857" /><line stroke="rgb(0%,0%,0%)" x1="9.7509" x2="14.6224" y1="28.904" y2="27.9516" /><line stroke="rgb(0%,0%,0%)" x1="9.2307" x2="15.2028" y1="31.5435" y2="30.1272" /><line stroke="rgb(0%,0%,0%)" x1="11.2161" x2="22.3045" y1="28.4977" y2="32.7735" /><line stroke="rgb(0%,0%,0%)" x1="15.6135" x2="7.6718" y1="20.8776" y2="23.7698" /><line stroke="rgb(0%,0%,0%)" x1="13.6079" x2="23.5389" y1="25.153" y2="25.2249" /><line stroke="rgb(0%,0%,0%)" x1="15.3772" x2="5.8299" y1="35.7657" y2="23.0129" /><line stroke="rgb(100%,100%,0%)" x1="19.9833" x2="17.1644" y1="39.9369" y2="33.9742" /><line stroke="rgb(100%,100%,0%)" x1="23.1905" x2="9.3235" y1="29.769" y2="26.975" /><line stroke="rgb(100%,100%,0%)" x1="6.1592" x2="8.9493" y1="23.6084" y2="43.8817" /><line stroke="rgb(100%,100%,0%)" x1="21.6955" x2="19.0623" y1="21.0911" y2="34.9072" /><line stroke="rgb(100%,100%,0%)" x1="11.6849" x2="20.604" y1="36.3843" y2="24.3796" /><line stroke="rgb(100%,100%,0%)" x1="10.2926" x2="22.7564" y1="32.4836" y2="31.393" /><line stroke="rgb(100%,100%,0%)" x1="19.4798" x2="10.8544" y1="28.7114" y2="34.3241" /><line stroke="rgb(100%,100%,0%)" x1="9.7532" x2="8.656" y1="22.457" y2="43.3791" /><line stroke="rgb(100%,100%,0%)" x1="19.2054" x2="11.0209" y1="31.3614" y2="36.4962" /><line stroke="rgb(100%,100%,0%)" x1="5.987" x2="14.8645" y1="34.8381" y2="19.0996" /><text fill="red" font-size="30" transform="rotate(26, 35, 30)" x="35" y="30">H</text><line stroke="rgb(0%,0%,0%)" x1="49.0602" x2="39.4502" y1="30.3807" y2="23.1128" /><line stroke="rgb(0%,0%,0%)" x1="47.6338" x2="43.3396" y1="37.2293" y2="23.0806" /><line stroke="rgb(0%,0%,0%)" x1="32.5207" x2="47.4105" y1="27.87" y2="21.6658" /><line stroke="rgb(0%,0%,0%)" x1="37.3417" x2="36.9557" y1="38.2249" y2="22.5108" /><line stroke="rgb(0%,0%,0%)" x1="39.0762" x2="47.0349" y1="30.5031" y2="37.0242" /><line stroke="rgb(0%,0%,0%)" x1="41.7694" x2="32.1079" y1="39.2163" y2="25.8539" /><line stroke="rgb(0%,0%,0%)" x1="32.683" x2="39.7902" y1="36.4389" y2="31.9148" /><line stroke="rgb(0%,0%,0%)" x1="40.0093" x2="49.4429" y1="30.2506" y2="21.8584" /><line stroke="rgb(0%,0%,0%)" x1="35.5245" x2="38.2027" y1="34.03" y2="25.5455" /><line stroke="rgb(0%,0%,0%)" x1="43.1668" x2="32.461" y1="36.3467" y2="37.3971" /><line stroke="rgb(100%,100%,0%)" x1="36.3378" x2="47.6443" y1="20.4872" y2="17.1255" /><line stroke="rgb(100%,100%,0%)" x1="43.8056" x2="31.7365" y1="39.9516" y2="28.6587" /><line stroke="rgb(100%,100%,0%)" x1="44.0436" x2="42.0767" y1="26.8111" y2="37.2211" /><line stroke="rgb(100%,100%,0%)" x1="47.3231" x2="44.5798" y1="37.156" y2="15.956" /><line stroke="rgb(100%,100%,0%)" x1="48.3694" x2="34.9326" y1="20.2035" y2="28.4148" /><line stroke="rgb(100%,100%,0%)" x1="43.0198" x2="33.7556" y1="24.4135" y2="39.9755" /><line stroke="rgb(100%,100%,0%)" x1="47.9181" x2="42.6605" y1="23.944" y2="41.0526" /><line stroke="rgb(100%,100%,0%)" x1="48.8717" x2="46.4526" y1="23.4272" y2="27.2548" /><line stroke="rgb(100%,100%,0%)" x1="34.0553" x2="47.4727" y1="39.7754" y2="27.5629" /><line stroke="rgb(100%,100%,0%)" x1="40.9687" x2="41.5598" y1="36.7575" y2="35.7062" /><text fill="red" font-size="30" transform="rotate(-29, 60, 30)" x="60" y="30">D</text><line stroke="rgb(0%,0%,0%)" x1="72.8224" x2="56.941" y1="39.2742" y2="26.634" /><line stroke="rgb(0%,0%,0%)" x1="56.2495" x2="59.0225" y1="28.1015" y2="33.065" /><line stroke="rgb(0%,0%,0%)" x1="56.4386" x2="55.4601" y1="22.8377" y2="35.0979" /><line stroke="rgb(0%,0%,0%)" x1="55.0815" x2="68.4782" y1="33.5584" y2="34.8481" /><line stroke="rgb(0%,0%,0%)" x1="74.1155" x2="70.0687" y1="39.7302" y2="28.6263" /><line stroke="rgb(0%,0%,0%)" x1="74.4128" x2="59.0671" y1="28.2902" y2="33.7025" /><line stroke="rgb(0%,0%,0%)" x1="63.6909" x2="55.3319" y1="23.8002" y2="25.2422" /><line stroke="rgb(0%,0%,0%)" x1="69.6147" x2="55.8131" y1="34.0153" y2="36.8572" /><line stroke="rgb(0%,0%,0%)" x1="62.1538" x2="67.8808" y1="35.0283" y2="24.9197" /><line stroke="rgb(0%,0%,0%)" x1="66.6057" x2="57.1287" y1="39.5705" y2="39.0799" /><line stroke="rgb(100%,100%,0%)" x1="64.074" x2="63.0183" y1="39.6488" y2="23.815" /><line stroke="rgb(100%,100%,0%)" x1="62.4451" x2="71.1059" y1="37.5206" y2="18.0693" /><line stroke="rgb(100%,100%,0%)" x1="62.1029" x2="68.6428" y1="24.9078" y2="42.6049" /><line stroke="rgb(100%,100%,0%)" x1="59.2076" x2="73.7253" y1="25.4921" y2="36.0094" /><line stroke="rgb(100%,100%,0%)" x1="72.3081" x2="69.54" y1="36.5283" y2="31.476" /><line stroke="rgb(100%,100%,0%)" x1="73.7503" x2="65.3887" y1="25.2823" y2="32.9414" /><line stroke="rgb(100%,100%,0%)" x1="74.0377" x2="70.1908" y1="27.7419" y2="26.9645" /><line stroke="rgb(100%,100%,0%)" x1="66.1772" x2="56.8786" y1="28.4948" y2="40.4791" /><line stroke="rgb(100%,100%,0%)" x1="58.0961" x2="67.2279" y1="22.702" y2="34.187" /><line stroke="rgb(100%,100%,0%)" x1="66.5229" x2="56.1203" y1="22.8767" y2="24.5863" /><text fill="red" font-size="30" transform="rotate(6, 85, 30)" x="85" y="30">C</text><line stroke="rgb(0%,0%,0%)" x1="95.4846" x2="84.4743" y1="21.1132" y2="21.7813" /><line stroke="rgb(0%,0%,0%)" x1="84.6446" x2="89.028" y1="37.7493" y2="21.1536" /><line stroke="rgb(0%,0%,0%)" x1="89.8237" x2="92.3996" y1="31.2279" y2="36.4532" /><line stroke="rgb(0%,0%,0%)" x1="85.8731" x2="91.5141" y1="21.9991" y2="33.3882" /><line stroke="rgb(0%,0%,0%)" x1="97.5989" x2="92.7207" y1="21.7045" y2="30.9895" /><line stroke="rgb(0%,0%,0%)" x1="83.2489" x2="83.2972" y1="22.1786" y2="23.6807" /><line stroke="rgb(0%,0%,0%)" x1="86.1863" x2="86.7321" y1="22.7302" y2="30.0521" /><line stroke="rgb(0%,0%,0%)" x1="94.2685" x2="84.6755" y1="25.0195" y2="27.9797" /><line stroke="rgb(0%,0%,0%)" x1="82.2508" x2="96.3496" y1="30.792" y2="27.5423" /><line stroke="rgb(0%,0%,0%)" x1="86.2774" x2="90.7872" y1="37.767" y2="26.4285" /><line stroke="rgb(100%,100%,0%)" x1="98.6669" x2="94.6462" y1="32.2407" y2="35.6489" /><line stroke="rgb(100%,100%,0%)" x1="94.0598" x2="88.8806" y1="33.8495" y2="34.9034" /><line stroke="rgb(100%,100%,0%)" x1="98.7271" x2="81.7724" y1="32.4426" y2="28.7012" /><line stroke="rgb(100%,100%,0%)" x1="82.9362" x2="94.5248" y1="23.4645" y2="40.1622" /><line stroke="rgb(100%,100%,0%)" x1="80.7645" x2="88.319" y1="32.6189" y2="20.572" /><line stroke="rgb(100%,100%,0%)" x1="97.8646" x2="81.6434" y1="25.7158" y2="27.8572" /><line stroke="rgb(100%,100%,0%)" x1="94.2869" x2="93.8288" y1="20.7998" y2="43.2064" /><line stroke="rgb(100%,100%,0%)" x1="97.2337" x2="87.3729" y1="25.541" y2="16.3197" /><line stroke="rgb(100%,100%,0%)" x1="90.5437" x2="94.4252" y1="39.0219" y2="29.8246" /><line stroke="rgb(100%,100%,0%)" x1="94.9379" x2="80.1103" y1="21.8391" y2="43.6306" /><text fill="red" font-size="30" transform="rotate(-19, 110, 30)" x="110" y="30">5</text><line stroke="rgb(0%,0%,0%)" x1="123.2017" x2="121.3282" y1="33.3224" y2="20.8144" /><line stroke="rgb(0%,0%,0%)" x1="120.5708" x2="108.2686" y1="38.7256" y2="36.5157" /><line stroke="rgb(0%,0%,0%)" x1="117.5735" x2="116.6439" y1="38.4592" y2="27.1468" /><line stroke="rgb(0%,0%,0%)" x1="114.5936" x2="114.5979" y1="32.3256" y2="29.2086" /><line stroke="rgb(0%,0%,0%)" x1="110.0471" x2="118.7887" y1="26.6035" y2="25.2403" /><line stroke="rgb(0%,0%,0%)" x1="111.2346" x2="119.3038" y1="36.3838" y2="29.7516" /><line stroke="rgb(0%,0%,0%)" x1="118.5862" x2="111.2198" y1="36.4847" y2="23.723" /><line stroke="rgb(0%,0%,0%)" x1="108.5355" x2="117.4421" y1="38.0915" y2="38.6166" /><line stroke="rgb(0%,0%,0%)" x1="121.4697" x2="112.1274" y1="24.4668" y2="20.3855" /><line stroke="rgb(0%,0%,0%)" x1="117.7627" x2="123.0812" y1="37.2951" y2="33.8807" /><line stroke="rgb(100%,100%,0%)" x1="108.056" x2="124.337" y1="39.2108" y2="33.8232" /><line stroke="rgb(100%,100%,0%)" x1="121.8966" x2="117.2184" y1="30.6508" y2="40.9088" /><line stroke="rgb(100%,100%,0%)" x1="124.0276" x2="108.744" y1="28.5187" y2="22.9085" /><line stroke="rgb(100%,100%,0%)" x1="115.4887" x2="111.4408" y1="36.8032" y2="15.6171" /><line stroke="rgb(100%,100%,0%)" x1="120.1482" x2="114.2525" y1="33.904" y2="34.1606" /><line stroke="rgb(100%,100%,0%)" x1="105.9899" x2="124.5338" y1="38.8695" y2="16.9071" /><line stroke="rgb(100%,100%,0%)" x1="121.4715" x2="121.6779" y1="30.6468" y2="26.7013" /><line stroke="rgb(100%,100%,0%)" x1="111.6032" x2="109.5463" y1="39.0118" y2="34.9805" /><line stroke="rgb(100%,100%,0%)" x1="113.5525" x2="117.1033" y1="29.3248" y2="28.6411" /><line stroke="rgb(100%,100%,0%)" x1="116.1148" x2="118.6393" y1="39.2447" y2="17.1512" /></svg>