<?xml version="1.0" encoding="utf-8" ?>
<svg baseProfile="tiny" height="50" version="1.2" width="150" xmlns="http://www.w3.org/2000/svg" xmlns:ev="http://www.w3.org/2001/xml-events" xmlns:xlink="http://www.w3.org/1999/xlink"><defs /><text fill="red" font-size="30" transform="rotate(-21, 10, 30)" x="10" y="30">8</text><line stroke="rgb(0%,0%,0%)" x1="21.3274" x2="13.0662" y1="32.323" y2="37.8407" /><line stroke="rgb(0%,0%,0%)" x1="19.4642" x2="21.3587" y1="24.1645" y2="37.7283" /><line stroke="rgb(0%,0%,0%)" x1="5.1611" x2="19.1993" y1="21.8806" y2="27.0512" /><line stroke="rgb(0%,0%,0%)" x1="7.437" x2="12.4733" y1="38.1406" y2="38.8094" /><line stroke="rgb(0%,0%,0%)" x1="7.8298" x2="13.1226" y1="36.8181" y2="27.6399" /><line stroke="rgb(0%,0%,0%)" x1="23.2954" x2="17.1974" y1="27.9189" y2="27.5338" /><line stroke="rgb(0%,0%,0%)" x1="10.6836" x2="20.7837" y1="25.7492" y2="22.2481" /><line stroke="rgb(0%,0%,0%)" x1="18.6339" x2="20.3601" y1="35.3296" y2="23.2007" /><line stroke="rgb(0%,0%,0%)" x1="18.7879" x2="21.5186" y1="38.4282" y2="20.4558" /><line stroke="rgb(0%,0%,0%)" x1="17.0286" x2="10.8815" y1="31.7574" y2="20.7599" /><line stroke="rgb(100%,100%,0%)" x1="10.5567" x2="21.5558" y1="35.5536" y2="42.3453" /><line stroke="rgb(100%,100%,0%)" x1="5.6236" x2="15.3904" y1="33.6195" y2="35.8043" /><line stroke="rgb(100%,100%,0%)" x1="5.1662" x2="16.5044" y1="39.3789" y2="23.0259" /><line stroke="rgb(100%,100%,0%)" x1="14.0919" x2="19.7011" y1="21.8464" y2="18.1211" /><line stroke="rgb(100%,100%,0%)" x1="7.6306" x2="18.014" y1="33.5691" y2="27.0423" /><line stroke="rgb(100%,100%,0%)" x1="6.314" x2="12.2337" y1="38.4258" y2="20.6463" /><line stroke="rgb(100%,100%,0%)" x1="9.0007" x2="12.5391" y1="20.1493" y2="42.78" /><line stroke="rgb(100%,100%,0%)" x1="7.1059" x2="22.4527" y1="25.3306" y2="42.9895" /><line stroke="rgb(100%,100%,0%)" x1="16.8904" x2="18.6821" y1="21.4648" y2="22.3729" /><line stroke="rgb(100%,100%,0%)" x1="15.5702" x2="11.2443" y1="38.488" y2="26.1651" /><text fill="red" font-size="30" transform="rotate(-5, 35, 30)" x="35" y="30">V</text><line stroke="rgb(0%,0%,0%)" x1="31.8554" x2="30.9824" y1="27.3917" y2="27.8731" /><line stroke="rgb(0%,0%,0%)" x1="45.0209" x2="47.5105" y1="37.6659" y2="23.6157" /><line stroke="rgb(0%,0%,0%)" x1="40.5681" x2="48.6177" y1="37.9955" y2="26.0207" /><line stroke="rgb(0%,0%,0%)" x1="38.2612" x2="33.7241" y1="20.0535" y2="21.4627" /><line stroke="rgb(0%,0%,0%)" x1="44.322" x2="48.4117" y1="36.5478" y2="23.1623" /><line stroke="rgb(0%,0%,0%)" x1="36.9746" x2="49.6156" y1="20.1706" y2="27.1488" /><line stroke="rgb(0%,0%,0%)" x1="36.7409" x2="33.8668" y1="39.4634" y2="26.1384" /><line stroke="rgb(0%,0%,0%)" x1="30.2005" x2="32.3085" y1="21.6144" y2="38.3581" /><line stroke="rgb(0%,0%,0%)" x1="43.9987" x2="47.6497" y1="30.9813" y2="32.4916" /><line stroke="rgb(0%,0%,0%)" x1="48.6366" x2="43.4987" y1="38.2084" y2="21.8763" /><line stroke="rgb(100%,100%,0%)" x1="44.0715" x2="39.8937" y1="29.1897" y2="20.6778" /><line stroke="rgb(100%,100%,0%)" x1="42.4754" x2="34.897" y1="26.4318" y2="42.5306" /><line stroke="rgb(100%,100%,0%)" x1="39.6253" x2="33.4395" y1="39.318" y2="22.6135" /><line stroke="rgb(100%,100%,0%)" x1="30.2" x2="33.2559" y1="21.8016" y2="41.8067" /><line stroke="rgb(100%,100%,0%)" x1="30.1165" x2="45.2341" y1="21.2287" y2="18.4276" /><line stroke="rgb(100%,100%,0%)" x1="39.6975" x2="44.1789" y1="24.4451" y2="37.1935" /><line stroke="rgb(100%,100%,0%)" x1="43.2744" x2="33.7059" y1="26.9409" y2="38.2979" /><line stroke="rgb(100%,100%,0%)" x1="48.7639" x2="31.9373" y1="20.135" y2="44.0561" /><line stroke="rgb(100%,100%,0%)" x1="40.9087" x2="36.3866" y1="20.2974" y2="16.2767" /><line stroke="rgb(100%,100%,0%)" x1="41.4841" x2="40.4748" y1="20.3304" y2="36.5487" /><text fill="red" font-size="30" transform="rotate(24, 60, 30)" x="60" y="30">F</text><line stroke="rgb(0%,0%,0%)" x1="57.8927" x2="61.451" y1="35.9247" y2="37.3979" /><line stroke="rgb(0%,0%,0%)" x1="74.209" x2="67.0302" y1="25.7162" y2="36.4887" /><line stroke="rgb(0%,0%,0%)" x1="57.7266" x2="55.8754" y1="20.9533" y2="34.1657" /><line stroke="rgb(0%,0%,0%)" x1="74.957" x2="63.8541" y1="38.0699" y2="26.4129" /><line stroke="rgb(0%,0%,0%)" x1="65.7707" x2="59.3823" y1="37.6895" y2="37.4198" /><line stroke="rgb(0%,0%,0%)" x1="59.0384" x2="64.265" y1="39.3407" y2="22.4142" /><line stroke="rgb(0%,0%,0%)" x1="73.035" x2="61.2758" y1="33.9321" y2="21.9558" /><line stroke="rgb(0%,0%,0%)" x1="73.6672" x2="64.7639" y1="22.5682" y2="37.5077" /><line stroke="rgb(0%,0%,0%)" x1="73.5211" x2="65.5778" y1="32.8625" y2="20.4126" /><line stroke="rgb(0%,0%,0%)" x1="57.2144" x2="55.9148" y1="29.8707" y2="33.8573" /><line stroke="rgb(100%,100%,0%)" x1="61.2312" x2="61.226" y1="29.0348" y2="30.7386" /><line stroke="rgb(100%,100%,0%)" x1="60.6684" x2="70.4188" y1="36.4193" y2="41.4168" /><line stroke="rgb(100%,100%,0%)" x1="65.004" x2="69.9541" y1="38.2" y2="19.0554" /><line stroke="rgb(100%,100%,0%)" x1="59.3006" x2="62.0753" y1="20.3927" y2="29.0609" /><line stroke="rgb(100%,100%,0%)" x1="67.4675" x2="65.8056" y1="31.8669" y2="35.546" /><line stroke="rgb(100%,100%,0%)" x1="71.8004" x2="55.0986" y1="37.5192" y2="43.9384" /><line stroke="rgb(100%,100%,0%)" x1="63.9567" x2="60.7594" y1="27.1508" y2="42.0278" /><line stroke="rgb(100%,100%,0%)" x1="67.6049" x2="74.0257" y1="28.3848" y2="17.994" /><line stroke="rgb(100%,100%,0%)" x1="61.8997" x2="69.66" y1="38.4541" y2="28.7806" /><line stroke="rgb(100%,100%,0%)" x1="69.2167" x2="70.3826" y1="32.8543" y2="38.9777" /><text fill="red" font-size="30" transform="rotate(-6, 85, 30)" x="85" y="30">S</text><line stroke="rgb(0%,0%,0%)" x1="88.7975" x2="93.2154" y1="36.2266" y2="28.4935" /><line stroke="rgb(0%,0%,0%)" x1="92.9993" x2="89.6439" y1="31.4985" y2="35.9839" /><line stroke="rgb(0%,0%,0%)" x1="85.9724" x2="89.5669" y1="27.9178" y2="21.2061" /><line stroke="rgb(0%,0%,0%)" x1="85.1727" x2="90.7019" y1="20.5394" y2="20.712" /><line stroke="rgb(0%,0%,0%)" x1="82.2808" x2="90.6403" y1="31.6257" y2="27.6152" /><line stroke="rgb(0%,0%,0%)" x1="87.6601" x2="98.9225" y1="39.5222" y2="27.5224" /><line stroke="rgb(0%,0%,0%)" x1="98.3443" x2="83.6821" y1="21.0162" y2="35.2611" /><line stroke="rgb(0%,0%,0%)" x1="98.1554" x2="84.3297" y1="35.4427" y2="29.134" /><line stroke="rgb(0%,0%,0%)" x1="83.046" x2="91.7583" y1="26.1546" y2="23.5726" /><line stroke="rgb(0%,0%,0%)" x1="92.7654" x2="95.7332" y1="23.6207" y2="23.3419" /><line stroke="rgb(100%,100%,0%)" x1="80.5438" x2="86.4973" y1="23.9359" y2="23.3929" /><line stroke="rgb(100%,100%,0%)" x1="99.3056" x2="95.1905" y1="30.1269" y2="26.4556" /><line stroke="rgb(100%,100%,0%)" x1="94.9659" x2="96.2584" y1="35.4836" y2="23.8065" /><line stroke="rgb(100%,100%,0%)" x1="86.8192" x2="89.9643" y1="39.1696" y2="28.8779" /><line stroke="rgb(100%,100%,0%)" x1="99.7476" x2="84.9601" y1="37.426" y2="34.9246" /><line stroke="rgb(100%,100%,0%)" x1="87.9593" x2="93.5492" y1="28.3026" y2="35.6571" /><line stroke="rgb(100%,100%,0%)" x1="86.7619" x2="99.279" y1="24.7792" y2="16.1878" /><line stroke="rgb(100%,100%,0%)" x1="91.5112" x2="91.2222" y1="39.913" y2="24.9887" /><line stroke="rgb(100%,100%,0%)" x1="81.1105" x2="84.9172" y1="22.2913" y2="21.0614" /><line stroke="rgb(100%,100%,0%)" x1="99.1542" x2="84.9312" y1="27.8538" y2="32.7494" /><text fill="red" font-size="30" transform="rotate(21, 110, 30)" x="110" y="30">H</text><line stroke="rgb(0%,0%,0%)" x1="121.9695" x2="118.2619" y1="23.8632" y2="25.1348" /><line stroke="rgb(0%,0%,0%)" x1="121.5432" x2="105.9108" y1="33.2517" y2="27.9277" /><line stroke="rgb(0%,0%,0%)" x1="111.0802" x2="122.3002" y1="23.5475" y2="33.8363" /><line stroke="rgb(0%,0%,0%)" x1="116.5588" x2="120.1147" y1="30.3132" y2="39.8836" /><line stroke="rgb(0%,0%,0%)" x1="106.6449" x2="110.1088" y1="23.7154" y2="29.8826" /><line stroke="rgb(0%,0%,0%)" x1="118.5118" x2="121.353" y1="24.7238" y2="38.6415" /><line stroke="rgb(0%,0%,0%)" x1="107.3996" x2="118.1768" y1="30.7173" y2="36.7411" /><line stroke="rgb(0%,0%,0%)" x1="124.8183" x2="118.8631" y1="36.8948" y2="22.6619" /><line stroke="rgb(0%,0%,0%)" x1="112.4294" x2="105.4652" y1="23.2694" y2="36.4035" /><line stroke="rgb(0%,0%,0%)" x1="109.252" x2="121.5943" y1="37.8324" y2="23.6636" /><line stroke="rgb(100%,100%,0%)" x1="119.2162" x2="117.0919" y1="30.508" y2="15.455" /><line stroke="rgb(100%,100%,0%)" x1="117.0799" x2="121.6266" y1="30.0307" y2="32.9871" /><line stroke="rgb(100%,100%,0%)" x1="119.7494" x2="109.4766" y1="28.9616" y2="25.1557" /><line stroke="rgb(100%,100%,0%)" x1="112.0681" x2="106.4147" y1="26.4646" y2="35.0299" /><line stroke="rgb(100%,100%,0%)" x1="108.9173" x2="111.338" y1="23.1781" y2="37.3291" /><line stroke="rgb(100%,100%,0%)" x1="116.1068" x2="119.7804" y1="36.5638" y2="44.4127" /><line stroke="rgb(100%,100%,0%)" x1="109.3158" x2="122.1295" y1="25.151" y2="25.8467" /><line stroke="rgb(100%,100%,0%)" x1="117.2077" x2="119.4229" y1="39.6846" y2="20.8652" /><line stroke="rgb(100%,100%,0%)" x1="123.5741" x2="106.6168" y1="22.0578" y2="20.742" /><line stroke="rgb(100%,100%,0%)" x1="118.4885" x2="122.6382" y1="33.1837" y2="36.7031" /></svg>