<?xml version="1.0" encoding="utf-8" ?>
<svg baseProfile="tiny" height="50" version="1.2" width="150" xmlns="http://www.w3.org/2000/svg" xmlns:ev="http://www.w3.org/2001/xml-events" xmlns:xlink="http://www.w3.org/1999/xlink"><defs /><text fill="red" font-size="30" transform="rotate(-1, 10, 30)" x="10" y="30">Y</text><line stroke="rgb(0%,0%,0%)" x1="12.7002" x2="23.9479" y1="23.4845" y2="23.3006" /><line stroke="rgb(0%,0%,0%)" x1="19.6228" x2="13.2429" y1="25.0477" y2="37.4448" /><line stroke="rgb(0%,0%,0%)" x1="16.3162" x2="8.3967" y1="31.5192" y2="31.9563" /><line stroke="rgb(0%,0%,0%)" x1="24.5349" x2="22.665" y1="36.3136" y2="32.9311" /><line stroke="rgb(0%,0%,0%)" x1="18.9073" x2="18.3637" y1="31.8079" y2="28.5097" /><line stroke="rgb(0%,0%,0%)" x1="23.9638" x2="22.0836" y1="36.3581" y2="28.3016" /><line stroke="rgb(0%,0%,0%)" x1="24.2716" x2="24.9747" y1="24.461" y2="21.4523" /><line stroke="rgb(0%,0%,0%)" x1="9.2527" x2="11.7192" y1="37.7244" y2="26.6581" /><line stroke="rgb(0%,0%,0%)" x1="15.8491" x2="23.7227" y1="22.107" y2="27.4766" /><line stroke="rgb(0%,0%,0%)" x1="5.215" x2="23.2646" y1="31.5477" y2="30.7297" /><line stroke="rgb(100%,100%,0%)" x1="17.755" x2="24.2028" y1="31.8106" y2="38.6041" /><line stroke="rgb(100%,100%,0%)" x1="22.1592" x2="18.5995" y1="39.265" y2="42.3342" /><line stroke="rgb(100%,100%,0%)" x1="15.209" x2="12.1461" y1="33.6162" y2="42.2151" /><line stroke="rgb(100%,100%,0%)" x1="12.9424" x2="21.8356" y1="30.0211" y2="18.2412" /><line stroke="rgb(100%,100%,0%)" x1="9.8823" x2="21.1771" y1="38.3329" y2="36.1445" /><line stroke="rgb(100%,100%,0%)" x1="21.2512" x2="20.5039" y1="21.5587" y2="44.9807" /><line stroke="rgb(100%,100%,0%)" x1="13.8477" x2="17.3817" y1="33.741" y2="23.2149" /><line stroke="rgb(100%,100%,0%)" x1="12.6368" x2="20.781" y1="35.9654" y2="35.007" /><line stroke="rgb(100%,100%,0%)" x1="8.2096" x2="18.7267" y1="31.1177" y2="31.7489" /><line stroke="rgb(100%,100%,0%)" x1="7.0223" x2="13.0885" y1="36.2159" y2="22.488" /><text fill="red" font-size="30" transform="rotate(1, 35, 30)" x="35" y="30">A</text><line stroke="rgb(0%,0%,0%)" x1="41.4036" x2="47.7672" y1="39.8713" y2="38.7798" /><line stroke="rgb(0%,0%,0%)" x1="34.565" x2="31.3912" y1="36.4816" y2="24.0613" /><line stroke="rgb(0%,0%,0%)" x1="40.0701" x2="31.5159" y1="39.0446" y2="34.5558" /><line stroke="rgb(0%,0%,0%)" x1="34.5275" x2="48.2473" y1="33.1549" y2="34.188" /><line stroke="rgb(0%,0%,0%)" x1="46.9835" x2="34.4481" y1="30.2229" y2="28.4606" /><line stroke="rgb(0%,0%,0%)" x1="42.2781" x2="31.0166" y1="31.3574" y2="36.0681" /><line stroke="rgb(0%,0%,0%)" x1="37.4952" x2="37.9168" y1="24.8215" y2="21.7877" /><line stroke="rgb(0%,0%,0%)" x1="31.8312" x2="32.1138" y1="36.6705" y2="23.7916" /><line stroke="rgb(0%,0%,0%)" x1="40.5898" x2="47.4019" y1="38.6701" y2="36.1047" /><line stroke="rgb(0%,0%,0%)" x1="45.3961" x2="39.9647" y1="24.4865" y2="37.7089" /><line stroke="rgb(100%,100%,0%)" x1="37.2513" x2="48.4063" y1="21.3849" y2="36.0341" /><line stroke="rgb(100%,100%,0%)" x1="35.9521" x2="33.7678" y1="37.858" y2="29.376" /><line stroke="rgb(100%,100%,0%)" x1="38.8392" x2="35.6585" y1="35.4829" y2="30.6302" /><line stroke="rgb(100%,100%,0%)" x1="48.2396" x2="49.7618" y1="26.4889" y2="17.8502" /><line stroke="rgb(100%,100%,0%)" x1="46.2105" x2="34.9832" y1="39.2376" y2="20.0727" /><line stroke="rgb(100%,100%,0%)" x1="30.3881" x2="38.2178" y1="33.5675" y2="25.4302" /><line stroke="rgb(100%,100%,0%)" x1="40.6371" x2="48.6812" y1="26.752" y2="38.3668" /><line stroke="rgb(100%,100%,0%)" x1="48.22" x2="47.5794" y1="26.7856" y2="30.5056" /><line stroke="rgb(100%,100%,0%)" x1="35.1641" x2="35.1135" y1="31.5937" y2="39.174" /><line stroke="rgb(100%,100%,0%)" x1="38.9433" x2="44.2365" y1="33.1121" y2="15.3417" /><text fill="red" font-size="30" transform="rotate(-6, 60, 30)" x="60" y="30">T</text><line stroke="rgb(0%,0%,0%)" x1="73.4383" x2="70.149" y1="20.2175" y2="37.2283" /><line stroke="rgb(0%,0%,0%)" x1="70.6456" x2="57.7442" y1="34.4714" y2="34.9635" /><line stroke="rgb(0%,0%,0%)" x1="71.0172" x2="58.4152" y1="28.397" y2="33.8579" /><line stroke="rgb(0%,0%,0%)" x1="68.2834" x2="69.6586" y1="34.8493" y2="29.5668" /><line stroke="rgb(0%,0%,0%)" x1="69.2067" x2="73.7227" y1="29.7917" y2="25.1438" /><line stroke="rgb(0%,0%,0%)" x1="58.6032" x2="57.9707" y1="39.0949" y2="33.1899" /><line stroke="rgb(0%,0%,0%)" x1="66.2047" x2="68.4438" y1="31.8309" y2="32.0741" /><line stroke="rgb(0%,0%,0%)" x1="68.9718" x2="74.6748" y1="34.3051" y2="33.8853" /><line stroke="rgb(0%,0%,0%)" x1="56.6814" x2="64.1078" y1="28.0794" y2="30.1313" /><line stroke="rgb(0%,0%,0%)" x1="55.1712" x2="71.8519" y1="30.6215" y2="25.498" /><line stroke="rgb(100%,100%,0%)" x1="56.7264" x2="69.3084" y1="33.6498" y2="22.8906" /><line stroke="rgb(100%,100%,0%)" x1="58.8568" x2="56.0323" y1="24.1346" y2="23.1566" /><line stroke="rgb(100%,100%,0%)" x1="71.5297" x2="62.9731" y1="27.6091" y2="39.3834" /><line stroke="rgb(100%,100%,0%)" x1="68.8577" x2="70.5516" y1="29.6618" y2="23.9604" /><line stroke="rgb(100%,100%,0%)" x1="55.203" x2="61.5317" y1="27.2796" y2="32.1502" /><line stroke="rgb(100%,100%,0%)" x1="61.9169" x2="60.3549" y1="24.7938" y2="42.4107" /><line stroke="rgb(100%,100%,0%)" x1="57.5028" x2="71.9176" y1="20.3119" y2="36.4158" /><line stroke="rgb(100%,100%,0%)" x1="63.9249" x2="63.6695" y1="36.1824" y2="32.1155" /><line stroke="rgb(100%,100%,0%)" x1="65.81" x2="60.7179" y1="34.7781" y2="27.1263" /><line stroke="rgb(100%,100%,0%)" x1="64.9675" x2="61.2176" y1="25.2691" y2="39.6633" /><text fill="red" font-size="30" transform="rotate(3, 85, 30)" x="85" y="30">1</text><line stroke="rgb(0%,0%,0%)" x1="94.1579" x2="87.0463" y1="22.0023" y2="27.6514" /><line stroke="rgb(0%,0%,0%)" x1="89.2495" x2="85.2751" y1="38.4088" y2="24.7681" /><line stroke="rgb(0%,0%,0%)" x1="94.8051" x2="87.6824" y1="22.9738" y2="24.068" /><line stroke="rgb(0%,0%,0%)" x1="95.5889" x2="92.1488" y1="23.1845" y2="37.0611" /><line stroke="rgb(0%,0%,0%)" x1="98.1891" x2="92.7892" y1="22.1002" y2="35.1406" /><line stroke="rgb(0%,0%,0%)" x1="94.7803" x2="85.5324" y1="27.4379" y2="34.1941" /><line stroke="rgb(0%,0%,0%)" x1="85.1294" x2="94.8984" y1="32.0788" y2="23.418" /><line stroke="rgb(0%,0%,0%)" x1="88.7497" x2="86.1394" y1="26.6907" y2="29.3681" /><line stroke="rgb(0%,0%,0%)" x1="84.5154" x2="95.0892" y1="23.7906" y2="26.8863" /><line stroke="rgb(0%,0%,0%)" x1="97.5593" x2="83.5537" y1="26.6231" y2="27.9273" /><line stroke="rgb(100%,100%,0%)" x1="95.6333" x2="99.5741" y1="33.5027" y2="38.8061" /><line stroke="rgb(100%,100%,0%)" x1="90.1457" x2="84.4247" y1="22.0919" y2="29.2333" /><line stroke="rgb(100%,100%,0%)" x1="99.4372" x2="98.4267" y1="39.8094" y2="44.6339" /><line stroke="rgb(100%,100%,0%)" x1="80.264" x2="94.159" y1="26.0088" y2="18.9001" /><line stroke="rgb(100%,100%,0%)" x1="93.086" x2="91.1146" y1="34.5996" y2="22.4647" /><line stroke="rgb(100%,100%,0%)" x1="97.1527" x2="83.2045" y1="28.2436" y2="22.6582" /><line stroke="rgb(100%,100%,0%)" x1="90.1697" x2="86.4377" y1="32.6805" y2="32.6285" /><line stroke="rgb(100%,100%,0%)" x1="98.0325" x2="89.4419" y1="31.8404" y2="25.7067" /><line stroke="rgb(100%,100%,0%)" x1="85.4703" x2="84.0899" y1="30.9639" y2="23.1818" /><line stroke="rgb(100%,100%,0%)" x1="86.7092" x2="83.5333" y1="36.8831" y2="29.388" /><text fill="red" font-size="30" transform="rotate(4, 110, 30)" x="110" y="30">8</text><line stroke="rgb(0%,0%,0%)" x1="115.3478" x2="117.0749" y1="39.8385" y2="29.4249" /><line stroke="rgb(0%,0%,0%)" x1="123.1865" x2="118.3437" y1="36.9138" y2="36.2073" /><line stroke="rgb(0%,0%,0%)" x1="114.4536" x2="112.7777" y1="38.1837" y2="26.8936" /><line stroke="rgb(0%,0%,0%)" x1="112.7648" x2="105.5033" y1="24.341" y2="22.12" /><line stroke="rgb(0%,0%,0%)" x1="115.7144" x2="120.3862" y1="38.0709" y2="30.5701" /><line stroke="rgb(0%,0%,0%)" x1="108.8239" x2="116.6923" y1="38.2627" y2="25.1984" /><line stroke="rgb(0%,0%,0%)" x1="119.6037" x2="109.0935" y1="39.7358" y2="37.0565" /><line stroke="rgb(0%,0%,0%)" x1="109.143" x2="111.375" y1="31.1154" y2="32.5131" /><line stroke="rgb(0%,0%,0%)" x1="120.1564" x2="120.8705" y1="35.7425" y2="23.2522" /><line stroke="rgb(0%,0%,0%)" x1="118.251" x2="107.7847" y1="34.3289" y2="36.5758" /><line stroke="rgb(100%,100%,0%)" x1="111.5813" x2="120.7761" y1="26.7613" y2="24.5296" /><line stroke="rgb(100%,100%,0%)" x1="122.5718" x2="110.5905" y1="34.263" y2="44.6935" /><line stroke="rgb(100%,100%,0%)" x1="117.3631" x2="122.6274" y1="30.6164" y2="40.7389" /><line stroke="rgb(100%,100%,0%)" x1="107.0049" x2="120.8117" y1="32.599" y2="33.6559" /><line stroke="rgb(100%,100%,0%)" x1="108.3965" x2="108.74" y1="39.8771" y2="32.853" /><line stroke="rgb(100%,100%,0%)" x1="124.9196" x2="110.2601" y1="29.6003" y2="44.1552" /><line stroke="rgb(100%,100%,0%)" x1="115.3286" x2="116.505" y1="34.9223" y2="16.0433" /><line stroke="rgb(100%,100%,0%)" x1="123.5468" x2="123.1663" y1="26.9324" y2="26.6885" /><line stroke="rgb(100%,100%,0%)" x1="117.9563" x2="119.23" y1="38.8437" y2="30.7183" /><line stroke="rgb(100%,100%,0%)" x1="105.167" x2="106.8773" y1="32.4623" y2="33.6825" /></svg>