<?xml version="1.0" encoding="utf-8" ?>
<svg baseProfile="tiny" height="50" version="1.2" width="150" xmlns="http://www.w3.org/2000/svg" xmlns:ev="http://www.w3.org/2001/xml-events" xmlns:xlink="http://www.w3.org/1999/xlink"><defs /><text fill="red" font-size="30" transform="rotate(-21, 10, 30)" x="10" y="30">N</text><line stroke="rgb(0%,0%,0%)" x1="8.1965" x2="7.4452" y1="26.5555" y2="39.9967" /><line stroke="rgb(0%,0%,0%)" x1="11.9653" x2="7.9983" y1="37.2654" y2="35.4198" /><line stroke="rgb(0%,0%,0%)" x1="9.952" x2="16.0096" y1="20.7526" y2="26.3915" /><line stroke="rgb(0%,0%,0%)" x1="16.7128" x2="10.1637" y1="21.3616" y2="22.4387" /><line stroke="rgb(0%,0%,0%)" x1="16.2405" x2="24.443" y1="34.3453" y2="32.3558" /><line stroke="rgb(0%,0%,0%)" x1="6.2834" x2="24.8799" y1="31.6635" y2="27.6202" /><line stroke="rgb(0%,0%,0%)" x1="21.7952" x2="22.0335" y1="26.4682" y2="27.5145" /><line stroke="rgb(0%,0%,0%)" x1="22.4032" x2="19.1644" y1="31.773" y2="29.0645" /><line stroke="rgb(0%,0%,0%)" x1="9.3701" x2="7.5129" y1="36.829" y2="21.805" /><line stroke="rgb(0%,0%,0%)" x1="22.6699" x2="12.2228" y1="34.8629" y2="31.9247" /><line stroke="rgb(100%,100%,0%)" x1="20.3292" x2="7.0634" y1="34.3983" y2="29.9834" /><line stroke="rgb(100%,100%,0%)" x1="22.6469" x2="17.5411" y1="28.9173" y2="27.4931" /><line stroke="rgb(100%,100%,0%)" x1="9.9072" x2="23.8617" y1="22.6978" y2="26.896" /><line stroke="rgb(100%,100%,0%)" x1="6.8494" x2="15.567" y1="36.8708" y2="20.75" /><line stroke="rgb(100%,100%,0%)" x1="17.2622" x2="8.5425" y1="35.3677" y2="37.1028" /><line stroke="rgb(100%,100%,0%)" x1="14.7711" x2="16.2655" y1="35.1682" y2="32.8219" /><line stroke="rgb(100%,100%,0%)" x1="5.5676" x2="5.7634" y1="35.3177" y2="25.3695" /><line stroke="rgb(100%,100%,0%)" x1="16.4411" x2="18.6361" y1="32.793" y2="24.9095" /><line stroke="rgb(100%,100%,0%)" x1="6.4117" x2="13.9031" y1="33.9855" y2="17.2455" /><line stroke="rgb(100%,100%,0%)" x1="6.0368" x2="6.495" y1="31.3638" y2="40.168" /><text fill="red" font-size="30" transform="rotate(-12, 35, 30)" x="35" y="30">0</text><line stroke="rgb(0%,0%,0%)" x1="31.8822" x2="43.2671" y1="38.9721" y2="26.2663" /><line stroke="rgb(0%,0%,0%)" x1="35.5311" x2="43.5844" y1="37.9824" y2="25.5986" /><line stroke="rgb(0%,0%,0%)" x1="48.8752" x2="49.6391" y1="26.4114" y2="38.9849" /><line stroke="rgb(0%,0%,0%)" x1="35.9433" x2="41.2503" y1="36.2046" y2="37.979" /><line stroke="rgb(0%,0%,0%)" x1="47.9822" x2="34.7715" y1="37.1287" y2="37.9257" /><line stroke="rgb(0%,0%,0%)" x1="40.9981" x2="42.279" y1="27.8945" y2="33.6156" /><line stroke="rgb(0%,0%,0%)" x1="43.5986" x2="49.9986" y1="21.1013" y2="23.4379" /><line stroke="rgb(0%,0%,0%)" x1="34.7766" x2="48.1207" y1="37.0347" y2="28.1353" /><line stroke="rgb(0%,0%,0%)" x1="44.8417" x2="35.6447" y1="37.1427" y2="26.0027" /><line stroke="rgb(0%,0%,0%)" x1="31.7744" x2="40.0942" y1="21.6363" y2="27.1209" /><line stroke="rgb(100%,100%,0%)" x1="49.082" x2="35.6668" y1="35.8288" y2="32.8461" /><line stroke="rgb(100%,100%,0%)" x1="43.017" x2="31.3882" y1="31.4472" y2="16.6425" /><line stroke="rgb(100%,100%,0%)" x1="46.0561" x2="30.9253" y1="27.932" y2="17.0829" /><line stroke="rgb(100%,100%,0%)" x1="45.4177" x2="36.0674" y1="24.294" y2="43.29" /><line stroke="rgb(100%,100%,0%)" x1="44.9585" x2="36.2419" y1="22.3143" y2="39.3828" /><line stroke="rgb(100%,100%,0%)" x1="46.556" x2="44.6082" y1="26.3328" y2="21.7368" /><line stroke="rgb(100%,100%,0%)" x1="30.0628" x2="48.6601" y1="37.1706" y2="37.4207" /><line stroke="rgb(100%,100%,0%)" x1="36.998" x2="39.9657" y1="29.8056" y2="41.5711" /><line stroke="rgb(100%,100%,0%)" x1="42.5948" x2="49.5277" y1="38.2952" y2="37.3311" /><line stroke="rgb(100%,100%,0%)" x1="44.0572" x2="33.2767" y1="32.6374" y2="26.1592" /><text fill="red" font-size="30" transform="rotate(25, 60, 30)" x="60" y="30">Q</text><line stroke="rgb(0%,0%,0%)" x1="63.3101" x2="72.4457" y1="37.6488" y2="27.4287" /><line stroke="rgb(0%,0%,0%)" x1="59.0345" x2="67.4713" y1="34.135" y2="39.9583" /><line stroke="rgb(0%,0%,0%)" x1="62.0353" x2="71.0087" y1="33.8329" y2="28.8507" /><line stroke="rgb(0%,0%,0%)" x1="67.6267" x2="58.4759" y1="30.4288" y2="38.095" /><line stroke="rgb(0%,0%,0%)" x1="63.2076" x2="60.1857" y1="28.5267" y2="28.6372" /><line stroke="rgb(0%,0%,0%)" x1="73.0024" x2="63.6969" y1="24.7018" y2="35.5288" /><line stroke="rgb(0%,0%,0%)" x1="66.8792" x2="73.3881" y1="39.9807" y2="28.0252" /><line stroke="rgb(0%,0%,0%)" x1="74.3321" x2="65.3771" y1="30.7313" y2="35.7762" /><line stroke="rgb(0%,0%,0%)" x1="71.3331" x2="59.2037" y1="33.5064" y2="37.4452" /><line stroke="rgb(0%,0%,0%)" x1="63.8829" x2="61.0435" y1="38.0629" y2="34.041" /><line stroke="rgb(100%,100%,0%)" x1="62.4098" x2="61.313" y1="32.1228" y2="35.0705" /><line stroke="rgb(100%,100%,0%)" x1="62.7297" x2="72.7091" y1="23.3608" y2="40.5128" /><line stroke="rgb(100%,100%,0%)" x1="55.0673" x2="60.2925" y1="21.1145" y2="40.7887" /><line stroke="rgb(100%,100%,0%)" x1="55.113" x2="60.434" y1="22.6896" y2="29.6232" /><line stroke="rgb(100%,100%,0%)" x1="72.5923" x2="63.1342" y1="20.0318" y2="44.713" /><line stroke="rgb(100%,100%,0%)" x1="61.2182" x2="68.8235" y1="29.3358" y2="31.7414" /><line stroke="rgb(100%,100%,0%)" x1="57.5061" x2="65.5044" y1="37.6581" y2="26.4458" /><line stroke="rgb(100%,100%,0%)" x1="74.5979" x2="71.9397" y1="24.1375" y2="24.6755" /><line stroke="rgb(100%,100%,0%)" x1="55.1662" x2="61.7015" y1="36.0321" y2="39.0153" /><line stroke="rgb(100%,100%,0%)" x1="63.599" x2="61.6707" y1="33.8565" y2="30.7682" /><text fill="red" font-size="30" transform="rotate(14, 85, 30)" x="85" y="30">4</text><line stroke="rgb(0%,0%,0%)" x1="93.8336" x2="97.1321" y1="30.2585" y2="31.4193" /><line stroke="rgb(0%,0%,0%)" x1="93.2796" x2="87.1369" y1="34.7529" y2="23.8301" /><line stroke="rgb(0%,0%,0%)" x1="98.5506" x2="90.0978" y1="31.6853" y2="31.7405" /><line stroke="rgb(0%,0%,0%)" x1="89.6806" x2="86.2437" y1="20.3653" y2="37.7382" /><line stroke="rgb(0%,0%,0%)" x1="82.8862" x2="83.923" y1="39.2666" y2="31.0032" /><line stroke="rgb(0%,0%,0%)" x1="97.739" x2="93.6776" y1="32.483" y2="21.4906" /><line stroke="rgb(0%,0%,0%)" x1="90.0785" x2="92.2238" y1="38.1539" y2="27.0767" /><line stroke="rgb(0%,0%,0%)" x1="84.6006" x2="98.6092" y1="38.4281" y2="36.8548" /><line stroke="rgb(0%,0%,0%)" x1="89.0841" x2="98.113" y1="22.2507" y2="28.1603" /><line stroke="rgb(0%,0%,0%)" x1="98.7555" x2="97.1029" y1="36.6347" y2="24.4615" /><line stroke="rgb(100%,100%,0%)" x1="93.3102" x2="80.0192" y1="36.8006" y2="26.9864" /><line stroke="rgb(100%,100%,0%)" x1="93.907" x2="92.9758" y1="38.4224" y2="37.0621" /><line stroke="rgb(100%,100%,0%)" x1="83.065" x2="98.4255" y1="38.9269" y2="21.8834" /><line stroke="rgb(100%,100%,0%)" x1="94.1166" x2="80.9989" y1="27.4539" y2="44.7194" /><line stroke="rgb(100%,100%,0%)" x1="82.3794" x2="91.1673" y1="20.987" y2="24.2403" /><line stroke="rgb(100%,100%,0%)" x1="95.8558" x2="94.7762" y1="35.2722" y2="39.5273" /><line stroke="rgb(100%,100%,0%)" x1="92.179" x2="80.212" y1="39.8767" y2="33.9749" /><line stroke="rgb(100%,100%,0%)" x1="81.9549" x2="93.8337" y1="35.6328" y2="40.8978" /><line stroke="rgb(100%,100%,0%)" x1="80.7707" x2="95.9003" y1="30.1292" y2="36.0408" /><line stroke="rgb(100%,100%,0%)" x1="80.8974" x2="87.4446" y1="25.8202" y2="42.4537" /><text fill="red" font-size="30" transform="rotate(17, 110, 30)" x="110" y="30">Y</text><line stroke="rgb(0%,0%,0%)" x1="123.2804" x2="118.0988" y1="22.5996" y2="21.5395" /><line stroke="rgb(0%,0%,0%)" x1="116.7925" x2="112.5419" y1="20.3324" y2="21.8731" /><line stroke="rgb(0%,0%,0%)" x1="121.5889" x2="105.9054" y1="27.012" y2="30.3579" /><line stroke="rgb(0%,0%,0%)" x1="121.4973" x2="106.5359" y1="20.1919" y2="20.7571" /><line stroke="rgb(0%,0%,0%)" x1="107.3736" x2="105.8777" y1="25.7787" y2="26.6115" /><line stroke="rgb(0%,0%,0%)" x1="120.2274" x2="106.9566" y1="31.3255" y2="21.7474" /><line stroke="rgb(0%,0%,0%)" x1="116.8161" x2="113.2704" y1="32.9392" y2="30.7108" /><line stroke="rgb(0%,0%,0%)" x1="113.806" x2="114.7966" y1="26.4135" y2="33.2367" /><line stroke="rgb(0%,0%,0%)" x1="109.1224" x2="119.8947" y1="38.6624" y2="23.4827" /><line stroke="rgb(0%,0%,0%)" x1="119.393" x2="114.7879" y1="31.6089" y2="23.5812" /><line stroke="rgb(100%,100%,0%)" x1="109.0586" x2="114.3209" y1="35.9345" y2="44.2201" /><line stroke="rgb(100%,100%,0%)" x1="116.9718" x2="122.3372" y1="27.0731" y2="31.7492" /><line stroke="rgb(100%,100%,0%)" x1="114.0098" x2="115.9047" y1="29.3251" y2="42.5889" /><line stroke="rgb(100%,100%,0%)" x1="120.3114" x2="110.0795" y1="31.1182" y2="30.9226" /><line stroke="rgb(100%,100%,0%)" x1="114.2594" x2="122.4572" y1="29.8814" y2="19.7222" /><line stroke="rgb(100%,100%,0%)" x1="122.3391" x2="111.6233" y1="31.6821" y2="21.9208" /><line stroke="rgb(100%,100%,0%)" x1="115.3247" x2="121.5104" y1="27.9153" y2="41.3146" /><line stroke="rgb(100%,100%,0%)" x1="110.1616" x2="111.7268" y1="23.9527" y2="34.3083" /><line stroke="rgb(100%,100%,0%)" x1="116.626" x2="123.3042" y1="36.1833" y2="17.9498" /><line stroke="rgb(100%,100%,0%)" x1="116.6398" x2="107.7096" y1="26.4151" y2="23.6339" /></svg>