<?xml version="1.0" encoding="utf-8" ?>
<svg baseProfile="tiny" height="50" version="1.2" width="150" xmlns="http://www.w3.org/2000/svg" xmlns:ev="http://www.w3.org/2001/xml-events" xmlns:xlink="http://www.w3.org/1999/xlink"><defs /><text fill="red" font-size="20" transform="rotate(5, 10, 30)" x="10" y="30">P</text><line stroke="rgb(0%,0%,0%)" x1="5.2655" x2="16.2307" y1="32.7649" y2="39.9998" /><line stroke="rgb(0%,0%,0%)" x1="24.0156" x2="13.8148" y1="26.3595" y2="38.5597" /><line stroke="rgb(0%,0%,0%)" x1="23.2341" x2="15.1207" y1="30.1686" y2="25.079" /><line stroke="rgb(0%,0%,0%)" x1="11.1747" x2="13.993" y1="28.0936" y2="33.0562" /><line stroke="rgb(0%,0%,0%)" x1="21.0298" x2="19.4782" y1="33.8516" y2="24.4028" /><line stroke="rgb(0%,0%,0%)" x1="16.2641" x2="11.5731" y1="27.2868" y2="32.2537" /><line stroke="rgb(0%,0%,0%)" x1="24.5542" x2="18.8218" y1="24.4403" y2="23.2582" /><line stroke="rgb(0%,0%,0%)" x1="9.2103" x2="17.8533" y1="25.3028" y2="21.9606" /><line stroke="rgb(0%,0%,0%)" x1="21.9725" x2="24.0727" y1="23.5982" y2="23.1175" /><line stroke="rgb(0%,0%,0%)" x1="15.9821" x2="13.3788" y1="39.9789" y2="39.5679" /><line stroke="rgb(100%,50%,0%)" x1="15.3325" x2="13.6888" y1="28.6964" y2="33.0977" /><line stroke="rgb(100%,50%,0%)" x1="14.3613" x2="10.4542" y1="34.9487" y2="25.7389" /><line stroke="rgb(100%,50%,0%)" x1="8.8117" x2="14.5193" y1="38.4053" y2="30.7517" /><line stroke="rgb(100%,50%,0%)" x1="22.0575" x2="12.5398" y1="25.665" y2="44.8672" /><line stroke="rgb(100%,50%,0%)" x1="10.7638" x2="6.2581" y1="20.8338" y2="42.7137" /><line stroke="rgb(100%,50%,0%)" x1="24.4538" x2="19.9545" y1="34.6853" y2="17.7441" /><line stroke="rgb(100%,50%,0%)" x1="23.6509" x2="22.2334" y1="24.787" y2="16.8936" /><line stroke="rgb(100%,50%,0%)" x1="8.1696" x2="17.3061" y1="30.4972" y2="35.0433" /><line stroke="rgb(100%,50%,0%)" x1="21.1359" x2="16.3977" y1="38.0136" y2="40.0126" /><line stroke="rgb(100%,50%,0%)" x1="19.7884" x2="10.1936" y1="36.424" y2="35.8442" /><text fill="red" font-size="20" transform="rotate(-17, 35, 30)" x="35" y="30">M</text><line stroke="rgb(0%,0%,0%)" x1="30.5575" x2="38.1087" y1="29.36" y2="33.8583" /><line stroke="rgb(0%,0%,0%)" x1="44.82" x2="39.1455" y1="30.2221" y2="23.9896" /><line stroke="rgb(0%,0%,0%)" x1="30.7238" x2="42.394" y1="27.5303" y2="25.0426" /><line stroke="rgb(0%,0%,0%)" x1="40.0447" x2="38.1835" y1="24.4273" y2="27.2205" /><line stroke="rgb(0%,0%,0%)" x1="49.8678" x2="47.7106" y1="20.7461" y2="39.0769" /><line stroke="rgb(0%,0%,0%)" x1="41.5709" x2="43.6171" y1="22.8851" y2="23.5626" /><line stroke="rgb(0%,0%,0%)" x1="31.0379" x2="34.3599" y1="30.4373" y2="32.3165" /><line stroke="rgb(0%,0%,0%)" x1="42.4022" x2="42.9932" y1="35.5095" y2="28.1129" /><line stroke="rgb(0%,0%,0%)" x1="45.7757" x2="43.2536" y1="30.9077" y2="25.5333" /><line stroke="rgb(0%,0%,0%)" x1="39.0433" x2="48.0051" y1="24.5411" y2="26.9795" /><line stroke="rgb(100%,50%,0%)" x1="48.3348" x2="45.1123" y1="32.3068" y2="37.9271" /><line stroke="rgb(100%,50%,0%)" x1="34.8419" x2="41.4285" y1="29.5289" y2="16.6507" /><line stroke="rgb(100%,50%,0%)" x1="41.6528" x2="36.9376" y1="27.064" y2="20.7245" /><line stroke="rgb(100%,50%,0%)" x1="36.4233" x2="32.7049" y1="28.2021" y2="39.848" /><line stroke="rgb(100%,50%,0%)" x1="48.2087" x2="45.5992" y1="38.6319" y2="26.6213" /><line stroke="rgb(100%,50%,0%)" x1="47.158" x2="49.4549" y1="34.7936" y2="16.0177" /><line stroke="rgb(100%,50%,0%)" x1="40.1398" x2="48.1874" y1="24.2663" y2="35.3971" /><line stroke="rgb(100%,50%,0%)" x1="30.9859" x2="39.4124" y1="37.6588" y2="30.4832" /><line stroke="rgb(100%,50%,0%)" x1="37.5309" x2="30.5247" y1="24.4194" y2="30.5336" /><line stroke="rgb(100%,50%,0%)" x1="39.9305" x2="46.0374" y1="21.4095" y2="36.7848" /><text fill="red" font-size="20" transform="rotate(28, 60, 30)" x="60" y="30">W</text><line stroke="rgb(0%,0%,0%)" x1="63.3912" x2="68.8534" y1="37.891" y2="30.7993" /><line stroke="rgb(0%,0%,0%)" x1="55.7389" x2="60.3794" y1="30.1422" y2="31.8077" /><line stroke="rgb(0%,0%,0%)" x1="64.8553" x2="61.2562" y1="38.7646" y2="29.3821" /><line stroke="rgb(0%,0%,0%)" x1="71.8174" x2="66.6434" y1="24.712" y2="37.9146" /><line stroke="rgb(0%,0%,0%)" x1="67.4828" x2="61.0899" y1="24.6198" y2="24.929" /><line stroke="rgb(0%,0%,0%)" x1="65.2164" x2="60.6834" y1="27.6059" y2="27.2086" /><line stroke="rgb(0%,0%,0%)" x1="62.9465" x2="70.0934" y1="24.686" y2="26.1686" /><line stroke="rgb(0%,0%,0%)" x1="69.1819" x2="69.7336" y1="29.1438" y2="31.5966" /><line stroke="rgb(0%,0%,0%)" x1="62.283" x2="66.1161" y1="28.514" y2="37.7819" /><line stroke="rgb(0%,0%,0%)" x1="74.8978" x2="67.798" y1="20.8401" y2="33.9743" /><line stroke="rgb(100%,50%,0%)" x1="62.5151" x2="58.7012" y1="35.2431" y2="29.5096" /><line stroke="rgb(100%,50%,0%)" x1="55.5218" x2="74.4084" y1="20.8241" y2="23.3201" /><line stroke="rgb(100%,50%,0%)" x1="69.686" x2="58.941" y1="23.3846" y2="24.1298" /><line stroke="rgb(100%,50%,0%)" x1="66.2185" x2="70.0585" y1="25.258" y2="35.0555" /><line stroke="rgb(100%,50%,0%)" x1="59.1281" x2="63.5742" y1="23.3235" y2="34.641" /><line stroke="rgb(100%,50%,0%)" x1="63.9972" x2="57.241" y1="31.1783" y2="35.3329" /><line stroke="rgb(100%,50%,0%)" x1="57.3887" x2="57.4827" y1="32.9283" y2="38.9759" /><line stroke="rgb(100%,50%,0%)" x1="61.8282" x2="66.4729" y1="37.0153" y2="36.8052" /><line stroke="rgb(100%,50%,0%)" x1="63.833" x2="70.042" y1="35.7086" y2="18.3588" /><line stroke="rgb(100%,50%,0%)" x1="71.0853" x2="55.0696" y1="33.6508" y2="25.1164" /><text fill="red" font-size="20" transform="rotate(-23, 85, 30)" x="85" y="30">S</text><line stroke="rgb(0%,0%,0%)" x1="90.8734" x2="85.2049" y1="27.0695" y2="31.4407" /><line stroke="rgb(0%,0%,0%)" x1="93.2358" x2="96.3893" y1="21.0257" y2="33.7546" /><line stroke="rgb(0%,0%,0%)" x1="87.854" x2="85.9403" y1="30.7585" y2="31.1364" /><line stroke="rgb(0%,0%,0%)" x1="94.8253" x2="91.5805" y1="39.883" y2="24.1699" /><line stroke="rgb(0%,0%,0%)" x1="98.4578" x2="98.5853" y1="23.1803" y2="26.8056" /><line stroke="rgb(0%,0%,0%)" x1="82.7327" x2="87.2185" y1="32.8887" y2="33.8803" /><line stroke="rgb(0%,0%,0%)" x1="80.8167" x2="92.6237" y1="31.8683" y2="23.8635" /><line stroke="rgb(0%,0%,0%)" x1="82.9783" x2="94.0705" y1="32.7886" y2="35.0833" /><line stroke="rgb(0%,0%,0%)" x1="90.7885" x2="83.1074" y1="27.3123" y2="32.0589" /><line stroke="rgb(0%,0%,0%)" x1="84.3651" x2="96.5147" y1="32.9834" y2="22.1741" /><line stroke="rgb(100%,50%,0%)" x1="97.5198" x2="91.3204" y1="30.2184" y2="42.9874" /><line stroke="rgb(100%,50%,0%)" x1="94.9866" x2="99.6316" y1="25.699" y2="44.302" /><line stroke="rgb(100%,50%,0%)" x1="91.6447" x2="84.8542" y1="20.3816" y2="29.2512" /><line stroke="rgb(100%,50%,0%)" x1="86.4069" x2="81.5697" y1="25.8757" y2="16.1555" /><line stroke="rgb(100%,50%,0%)" x1="99.166" x2="88.3726" y1="22.0648" y2="26.9977" /><line stroke="rgb(100%,50%,0%)" x1="92.0788" x2="81.6922" y1="36.4329" y2="17.6359" /><line stroke="rgb(100%,50%,0%)" x1="80.2946" x2="99.4943" y1="22.0858" y2="19.9479" /><line stroke="rgb(100%,50%,0%)" x1="97.7203" x2="83.5542" y1="35.4387" y2="34.8354" /><line stroke="rgb(100%,50%,0%)" x1="89.5026" x2="99.0004" y1="31.1851" y2="19.6281" /><line stroke="rgb(100%,50%,0%)" x1="88.9209" x2="91.3586" y1="33.5315" y2="17.7009" /><text fill="red" font-size="20" transform="rotate(-23, 110, 30)" x="110" y="30">0</text><line stroke="rgb(0%,0%,0%)" x1="124.9958" x2="124.0899" y1="34.5446" y2="26.1237" /><line stroke="rgb(0%,0%,0%)" x1="106.2849" x2="110.821" y1="38.1332" y2="24.5016" /><line stroke="rgb(0%,0%,0%)" x1="114.5648" x2="112.9746" y1="38.2878" y2="37.6145" /><line stroke="rgb(0%,0%,0%)" x1="116.1336" x2="118.0764" y1="37.1199" y2="31.3306" /><line stroke="rgb(0%,0%,0%)" x1="113.8677" x2="112.0671" y1="39.3994" y2="29.2261" /><line stroke="rgb(0%,0%,0%)" x1="121.4656" x2="124.8943" y1="34.826" y2="31.7468" /><line stroke="rgb(0%,0%,0%)" x1="114.0913" x2="105.9528" y1="35.0338" y2="25.5396" /><line stroke="rgb(0%,0%,0%)" x1="122.4035" x2="118.4988" y1="37.3721" y2="31.8956" /><line stroke="rgb(0%,0%,0%)" x1="106.1209" x2="112.9842" y1="28.8174" y2="23.2177" /><line stroke="rgb(0%,0%,0%)" x1="121.1814" x2="113.9861" y1="27.9748" y2="28.6108" /><line stroke="rgb(100%,50%,0%)" x1="109.9065" x2="107.2865" y1="29.9167" y2="36.583" /><line stroke="rgb(100%,50%,0%)" x1="107.4985" x2="108.8517" y1="35.4029" y2="18.268" /><line stroke="rgb(100%,50%,0%)" x1="116.9698" x2="109.128" y1="28.3435" y2="38.069" /><line stroke="rgb(100%,50%,0%)" x1="124.2149" x2="122.783" y1="32.4835" y2="23.9912" /><line stroke="rgb(100%,50%,0%)" x1="116.4216" x2="118.9193" y1="34.8027" y2="25.2928" /><line stroke="rgb(100%,50%,0%)" x1="116.3649" x2="107.1984" y1="39.5514" y2="39.6652" /><line stroke="rgb(100%,50%,0%)" x1="119.7899" x2="119.9853" y1="39.814" y2="42.134" /><line stroke="rgb(100%,50%,0%)" x1="107.2969" x2="110.1908" y1="23.603" y2="19.5646" /><line stroke="rgb(100%,50%,0%)" x1="116.8142" x2="117.1357" y1="24.1979" y2="27.6278" /><line stroke="rgb(100%,50%,0%)" x1="120.5475" x2="119.752" y1="20.2833" y2="43.7689" /></svg>