<?xml version="1.0" encoding="utf-8" ?>
<svg baseProfile="tiny" height="50" version="1.2" width="150" xmlns="http://www.w3.org/2000/svg" xmlns:ev="http://www.w3.org/2001/xml-events" xmlns:xlink="http://www.w3.org/1999/xlink"><defs /><text fill="red" font-size="30" transform="rotate(-18, 10, 30)" x="10" y="30">6</text><line stroke="rgb(0%,0%,0%)" x1="22.9308" x2="22.1818" y1="21.458" y2="23.322" /><line stroke="rgb(0%,0%,0%)" x1="6.1413" x2="16.7255" y1="23.2361" y2="26.1383" /><line stroke="rgb(0%,0%,0%)" x1="24.7469" x2="14.5453" y1="24.8565" y2="28.7617" /><line stroke="rgb(0%,0%,0%)" x1="16.5126" x2="21.3779" y1="24.0378" y2="24.4245" /><line stroke="rgb(0%,0%,0%)" x1="24.8533" x2="10.6829" y1="38.0156" y2="27.2131" /><line stroke="rgb(0%,0%,0%)" x1="18.322" x2="20.3627" y1="31.087" y2="36.989" /><line stroke="rgb(0%,0%,0%)" x1="9.3624" x2="9.4192" y1="25.3036" y2="39.192" /><line stroke="rgb(0%,0%,0%)" x1="16.1827" x2="8.721" y1="26.0289" y2="20.3308" /><line stroke="rgb(0%,0%,0%)" x1="8.1857" x2="15.8872" y1="23.8802" y2="29.1416" /><line stroke="rgb(0%,0%,0%)" x1="15.5176" x2="14.5798" y1="28.013" y2="33.5141" /><line stroke="rgb(100%,100%,0%)" x1="13.058" x2="13.3246" y1="28.5567" y2="29.5422" /><line stroke="rgb(100%,100%,0%)" x1="6.1541" x2="16.8414" y1="39.3815" y2="44.1063" /><line stroke="rgb(100%,100%,0%)" x1="5.9613" x2="10.7055" y1="24.9032" y2="23.9713" /><line stroke="rgb(100%,100%,0%)" x1="15.4565" x2="10.7367" y1="37.1259" y2="26.139" /><line stroke="rgb(100%,100%,0%)" x1="5.4196" x2="17.8857" y1="22.2584" y2="23.3268" /><line stroke="rgb(100%,100%,0%)" x1="20.2581" x2="18.2016" y1="22.7549" y2="16.4059" /><line stroke="rgb(100%,100%,0%)" x1="21.7117" x2="21.8345" y1="34.2684" y2="18.9683" /><line stroke="rgb(100%,100%,0%)" x1="16.6174" x2="19.5029" y1="25.7936" y2="26.3656" /><line stroke="rgb(100%,100%,0%)" x1="11.9171" x2="10.7968" y1="34.6874" y2="20.926" /><line stroke="rgb(100%,100%,0%)" x1="19.4267" x2="23.4629" y1="33.811" y2="43.8085" /><text fill="red" font-size="30" transform="rotate(18, 35, 30)" x="35" y="30">N</text><line stroke="rgb(0%,0%,0%)" x1="42.5305" x2="38.1884" y1="29.8584" y2="23.287" /><line stroke="rgb(0%,0%,0%)" x1="35.9966" x2="42.5236" y1="27.2426" y2="38.987" /><line stroke="rgb(0%,0%,0%)" x1="30.5226" x2="37.9094" y1="28.116" y2="21.1995" /><line stroke="rgb(0%,0%,0%)" x1="45.9913" x2="41.3798" y1="36.0018" y2="30.626" /><line stroke="rgb(0%,0%,0%)" x1="38.275" x2="46.6224" y1="31.8605" y2="26.7788" /><line stroke="rgb(0%,0%,0%)" x1="47.2024" x2="33.4597" y1="37.4549" y2="25.1948" /><line stroke="rgb(0%,0%,0%)" x1="32.4155" x2="43.1025" y1="24.439" y2="28.6889" /><line stroke="rgb(0%,0%,0%)" x1="45.4559" x2="32.624" y1="23.2637" y2="20.9129" /><line stroke="rgb(0%,0%,0%)" x1="44.9478" x2="43.7089" y1="38.4109" y2="27.2178" /><line stroke="rgb(0%,0%,0%)" x1="37.1659" x2="37.2638" y1="33.5459" y2="24.5147" /><line stroke="rgb(100%,100%,0%)" x1="45.8745" x2="35.402" y1="35.2788" y2="40.1254" /><line stroke="rgb(100%,100%,0%)" x1="49.0023" x2="46.3238" y1="24.8338" y2="24.77" /><line stroke="rgb(100%,100%,0%)" x1="45.5814" x2="42.8586" y1="38.5069" y2="23.1091" /><line stroke="rgb(100%,100%,0%)" x1="42.5121" x2="45.1694" y1="26.4641" y2="17.8848" /><line stroke="rgb(100%,100%,0%)" x1="32.9484" x2="45.407" y1="30.5708" y2="37.4659" /><line stroke="rgb(100%,100%,0%)" x1="49.3448" x2="40.5287" y1="22.3906" y2="18.0578" /><line stroke="rgb(100%,100%,0%)" x1="41.2989" x2="36.7062" y1="26.04" y2="17.6243" /><line stroke="rgb(100%,100%,0%)" x1="32.7693" x2="37.7866" y1="32.5226" y2="23.9421" /><line stroke="rgb(100%,100%,0%)" x1="46.0029" x2="47.184" y1="38.5118" y2="22.2025" /><line stroke="rgb(100%,100%,0%)" x1="35.4963" x2="46.9598" y1="23.2342" y2="30.07" /><text fill="red" font-size="30" transform="rotate(27, 60, 30)" x="60" y="30">3</text><line stroke="rgb(0%,0%,0%)" x1="74.2344" x2="71.7123" y1="38.8754" y2="35.1165" /><line stroke="rgb(0%,0%,0%)" x1="56.4499" x2="66.276" y1="25.8406" y2="30.5364" /><line stroke="rgb(0%,0%,0%)" x1="60.2682" x2="62.7624" y1="38.8671" y2="29.3732" /><line stroke="rgb(0%,0%,0%)" x1="57.2862" x2="67.331" y1="26.933" y2="21.0679" /><line stroke="rgb(0%,0%,0%)" x1="57.7161" x2="55.5605" y1="31.7932" y2="35.3818" /><line stroke="rgb(0%,0%,0%)" x1="61.5113" x2="73.6621" y1="23.7151" y2="30.3861" /><line stroke="rgb(0%,0%,0%)" x1="67.84" x2="65.3126" y1="34.3315" y2="21.25" /><line stroke="rgb(0%,0%,0%)" x1="70.131" x2="74.1454" y1="32.7584" y2="29.4252" /><line stroke="rgb(0%,0%,0%)" x1="65.5404" x2="60.8967" y1="35.7286" y2="20.9893" /><line stroke="rgb(0%,0%,0%)" x1="62.4273" x2="58.4754" y1="36.548" y2="22.9368" /><line stroke="rgb(100%,100%,0%)" x1="67.8223" x2="65.9018" y1="33.7594" y2="42.4994" /><line stroke="rgb(100%,100%,0%)" x1="64.179" x2="74.4966" y1="32.0136" y2="34.9826" /><line stroke="rgb(100%,100%,0%)" x1="71.3332" x2="73.6615" y1="35.3899" y2="40.2069" /><line stroke="rgb(100%,100%,0%)" x1="65.2625" x2="65.0518" y1="25.3521" y2="25.6358" /><line stroke="rgb(100%,100%,0%)" x1="68.6999" x2="69.0218" y1="33.3302" y2="20.3103" /><line stroke="rgb(100%,100%,0%)" x1="68.0705" x2="62.5963" y1="32.7759" y2="26.6591" /><line stroke="rgb(100%,100%,0%)" x1="64.5825" x2="70.472" y1="29.808" y2="35.9097" /><line stroke="rgb(100%,100%,0%)" x1="57.9577" x2="70.4593" y1="23.0581" y2="31.6143" /><line stroke="rgb(100%,100%,0%)" x1="64.0564" x2="62.7964" y1="37.4428" y2="41.0943" /><line stroke="rgb(100%,100%,0%)" x1="57.3606" x2="72.7784" y1="24.8894" y2="32.5488" /><text fill="red" font-size="30" transform="rotate(-11, 85, 30)" x="85" y="30">R</text><line stroke="rgb(0%,0%,0%)" x1="95.1222" x2="86.0984" y1="31.1636" y2="36.1404" /><line stroke="rgb(0%,0%,0%)" x1="87.3034" x2="81.6796" y1="37.4882" y2="24.0921" /><line stroke="rgb(0%,0%,0%)" x1="80.9531" x2="88.5639" y1="20.082" y2="25.439" /><line stroke="rgb(0%,0%,0%)" x1="83.5344" x2="93.3403" y1="33.8161" y2="37.6103" /><line stroke="rgb(0%,0%,0%)" x1="84.8715" x2="82.3703" y1="34.9795" y2="38.3425" /><line stroke="rgb(0%,0%,0%)" x1="87.6293" x2="94.6453" y1="38.0229" y2="27.4629" /><line stroke="rgb(0%,0%,0%)" x1="89.5421" x2="97.9777" y1="23.3766" y2="29.5656" /><line stroke="rgb(0%,0%,0%)" x1="82.4633" x2="99.8627" y1="25.624" y2="37.1249" /><line stroke="rgb(0%,0%,0%)" x1="83.1722" x2="86.3122" y1="29.8015" y2="39.961" /><line stroke="rgb(0%,0%,0%)" x1="91.1044" x2="80.3012" y1="22.2769" y2="27.5518" /><line stroke="rgb(100%,100%,0%)" x1="95.3172" x2="83.7788" y1="31.4237" y2="44.205" /><line stroke="rgb(100%,100%,0%)" x1="90.7333" x2="89.2378" y1="24.9673" y2="38.9731" /><line stroke="rgb(100%,100%,0%)" x1="91.7272" x2="85.5619" y1="30.4324" y2="24.2122" /><line stroke="rgb(100%,100%,0%)" x1="93.4562" x2="81.2612" y1="27.8311" y2="21.7597" /><line stroke="rgb(100%,100%,0%)" x1="85.4842" x2="81.2652" y1="39.6802" y2="18.4869" /><line stroke="rgb(100%,100%,0%)" x1="91.0622" x2="91.214" y1="39.2647" y2="35.5395" /><line stroke="rgb(100%,100%,0%)" x1="97.4358" x2="94.8795" y1="22.7534" y2="19.3458" /><line stroke="rgb(100%,100%,0%)" x1="85.2162" x2="85.486" y1="22.5964" y2="34.0223" /><line stroke="rgb(100%,100%,0%)" x1="88.0283" x2="92.075" y1="29.9252" y2="39.2608" /><line stroke="rgb(100%,100%,0%)" x1="90.5104" x2="99.3037" y1="26.5477" y2="35.2968" /><text fill="red" font-size="30" transform="rotate(7, 110, 30)" x="110" y="30">T</text><line stroke="rgb(0%,0%,0%)" x1="111.3222" x2="118.5764" y1="29.0803" y2="28.6676" /><line stroke="rgb(0%,0%,0%)" x1="117.3494" x2="121.5484" y1="32.8462" y2="39.3707" /><line stroke="rgb(0%,0%,0%)" x1="121.5187" x2="113.6336" y1="21.7342" y2="24.447" /><line stroke="rgb(0%,0%,0%)" x1="121.4762" x2="108.4428" y1="23.0136" y2="34.716" /><line stroke="rgb(0%,0%,0%)" x1="116.8133" x2="115.8792" y1="37.184" y2="38.8316" /><line stroke="rgb(0%,0%,0%)" x1="118.7616" x2="112.4725" y1="20.0065" y2="28.1327" /><line stroke="rgb(0%,0%,0%)" x1="106.6122" x2="106.1244" y1="26.7855" y2="31.1552" /><line stroke="rgb(0%,0%,0%)" x1="107.235" x2="121.6419" y1="28.3696" y2="31.0432" /><line stroke="rgb(0%,0%,0%)" x1="105.6242" x2="116.6488" y1="32.5633" y2="37.3785" /><line stroke="rgb(0%,0%,0%)" x1="122.7822" x2="121.7501" y1="36.2221" y2="33.4554" /><line stroke="rgb(100%,100%,0%)" x1="111.5963" x2="106.8387" y1="31.2989" y2="35.0282" /><line stroke="rgb(100%,100%,0%)" x1="115.9554" x2="111.1931" y1="37.0812" y2="28.473" /><line stroke="rgb(100%,100%,0%)" x1="111.3787" x2="109.9791" y1="26.0444" y2="32.5013" /><line stroke="rgb(100%,100%,0%)" x1="123.8008" x2="116.9069" y1="20.944" y2="16.914" /><line stroke="rgb(100%,100%,0%)" x1="109.1555" x2="114.1349" y1="20.5302" y2="30.9312" /><line stroke="rgb(100%,100%,0%)" x1="117.0651" x2="105.3296" y1="20.1361" y2="16.4596" /><line stroke="rgb(100%,100%,0%)" x1="116.836" x2="124.8088" y1="25.9919" y2="30.7458" /><line stroke="rgb(100%,100%,0%)" x1="121.0022" x2="119.9489" y1="27.7135" y2="31.143" /><line stroke="rgb(100%,100%,0%)" x1="117.235" x2="117.5171" y1="23.9674" y2="17.9109" /><line stroke="rgb(100%,100%,0%)" x1="123.8412" x2="112.4414" y1="25.5438" y2="24.5924" /></svg>