<?xml version="1.0" encoding="utf-8" ?>
<svg baseProfile="tiny" height="50" version="1.2" width="150" xmlns="http://www.w3.org/2000/svg" xmlns:ev="http://www.w3.org/2001/xml-events" xmlns:xlink="http://www.w3.org/1999/xlink"><defs /><text fill="red" font-size="20" transform="rotate(-23, 10, 30)" x="10" y="30">C</text><line stroke="rgb(0%,0%,0%)" x1="10.0676" x2="24.6885" y1="23.7104" y2="34.0745" /><line stroke="rgb(0%,0%,0%)" x1="19.1026" x2="21.5379" y1="29.4375" y2="21.2125" /><line stroke="rgb(0%,0%,0%)" x1="18.172" x2="16.2226" y1="33.0113" y2="21.731" /><line stroke="rgb(0%,0%,0%)" x1="8.6584" x2="10.3033" y1="25.4253" y2="21.5689" /><line stroke="rgb(0%,0%,0%)" x1="6.627" x2="24.7947" y1="24.6325" y2="20.1497" /><line stroke="rgb(0%,0%,0%)" x1="6.8692" x2="18.635" y1="24.6292" y2="28.9724" /><line stroke="rgb(0%,0%,0%)" x1="10.3409" x2="20.2004" y1="36.7304" y2="38.1267" /><line stroke="rgb(0%,0%,0%)" x1="9.7966" x2="7.6624" y1="31.9303" y2="34.257" /><line stroke="rgb(0%,0%,0%)" x1="6.3384" x2="14.206" y1="39.8475" y2="27.8328" /><line stroke="rgb(0%,0%,0%)" x1="24.5586" x2="12.3614" y1="30.1891" y2="36.4851" /><line stroke="rgb(100%,50%,0%)" x1="21.8187" x2="14.1297" y1="24.323" y2="26.8019" /><line stroke="rgb(100%,50%,0%)" x1="12.2997" x2="6.3967" y1="36.0616" y2="33.6498" /><line stroke="rgb(100%,50%,0%)" x1="10.1391" x2="18.3933" y1="24.6518" y2="28.3346" /><line stroke="rgb(100%,50%,0%)" x1="24.34" x2="19.6732" y1="28.5759" y2="18.0369" /><line stroke="rgb(100%,50%,0%)" x1="10.9394" x2="19.9917" y1="24.4104" y2="37.3023" /><line stroke="rgb(100%,50%,0%)" x1="13.576" x2="15.7362" y1="31.6669" y2="17.8602" /><line stroke="rgb(100%,50%,0%)" x1="14.419" x2="18.8265" y1="35.093" y2="32.981" /><line stroke="rgb(100%,50%,0%)" x1="17.2774" x2="6.2236" y1="33.3644" y2="41.1311" /><line stroke="rgb(100%,50%,0%)" x1="24.8147" x2="11.5175" y1="33.054" y2="25.2287" /><line stroke="rgb(100%,50%,0%)" x1="15.6432" x2="22.7351" y1="27.6703" y2="21.0775" /><text fill="red" font-size="20" transform="rotate(30, 35, 30)" x="35" y="30">7</text><line stroke="rgb(0%,0%,0%)" x1="41.5016" x2="49.6108" y1="24.8166" y2="35.6394" /><line stroke="rgb(0%,0%,0%)" x1="36.842" x2="49.5519" y1="25.6833" y2="35.8365" /><line stroke="rgb(0%,0%,0%)" x1="45.577" x2="38.5907" y1="35.6928" y2="21.8805" /><line stroke="rgb(0%,0%,0%)" x1="30.431" x2="33.5836" y1="33.3629" y2="27.6012" /><line stroke="rgb(0%,0%,0%)" x1="47.7431" x2="48.1614" y1="31.8686" y2="27.5101" /><line stroke="rgb(0%,0%,0%)" x1="40.6409" x2="41.5068" y1="37.7853" y2="34.4328" /><line stroke="rgb(0%,0%,0%)" x1="44.1947" x2="36.1414" y1="39.1307" y2="31.7548" /><line stroke="rgb(0%,0%,0%)" x1="31.2317" x2="45.0111" y1="34.774" y2="23.0046" /><line stroke="rgb(0%,0%,0%)" x1="42.1878" x2="47.8265" y1="28.9379" y2="30.8825" /><line stroke="rgb(0%,0%,0%)" x1="42.2354" x2="30.7381" y1="26.0018" y2="31.596" /><line stroke="rgb(100%,50%,0%)" x1="42.2603" x2="42.0008" y1="25.7012" y2="25.7125" /><line stroke="rgb(100%,50%,0%)" x1="37.3613" x2="31.482" y1="37.0643" y2="15.2515" /><line stroke="rgb(100%,50%,0%)" x1="45.5121" x2="45.7812" y1="27.0903" y2="18.5353" /><line stroke="rgb(100%,50%,0%)" x1="41.5451" x2="44.6375" y1="32.6436" y2="29.7973" /><line stroke="rgb(100%,50%,0%)" x1="37.6432" x2="35.4207" y1="20.3223" y2="27.8728" /><line stroke="rgb(100%,50%,0%)" x1="40.4573" x2="46.6845" y1="31.2537" y2="27.5521" /><line stroke="rgb(100%,50%,0%)" x1="49.8555" x2="49.9403" y1="27.2214" y2="33.694" /><line stroke="rgb(100%,50%,0%)" x1="38.0952" x2="47.1732" y1="32.9646" y2="23.8052" /><line stroke="rgb(100%,50%,0%)" x1="41.2057" x2="49.2888" y1="26.4038" y2="16.8625" /><line stroke="rgb(100%,50%,0%)" x1="48.5321" x2="39.3532" y1="26.4895" y2="38.0093" /><text fill="red" font-size="20" transform="rotate(11, 60, 30)" x="60" y="30">4</text><line stroke="rgb(0%,0%,0%)" x1="62.1234" x2="55.8399" y1="30.501" y2="24.974" /><line stroke="rgb(0%,0%,0%)" x1="62.8882" x2="60.4436" y1="23.6336" y2="20.1853" /><line stroke="rgb(0%,0%,0%)" x1="69.9944" x2="55.7721" y1="29.9713" y2="23.4674" /><line stroke="rgb(0%,0%,0%)" x1="58.7485" x2="56.4954" y1="23.668" y2="28.2031" /><line stroke="rgb(0%,0%,0%)" x1="63.8741" x2="57.6932" y1="36.7788" y2="37.1898" /><line stroke="rgb(0%,0%,0%)" x1="63.7993" x2="70.6029" y1="28.6839" y2="32.2929" /><line stroke="rgb(0%,0%,0%)" x1="63.3252" x2="73.0808" y1="34.8589" y2="25.389" /><line stroke="rgb(0%,0%,0%)" x1="61.5566" x2="70.7027" y1="24.6248" y2="38.1036" /><line stroke="rgb(0%,0%,0%)" x1="59.4502" x2="62.5886" y1="20.4323" y2="33.3114" /><line stroke="rgb(0%,0%,0%)" x1="70.5057" x2="64.1973" y1="33.6876" y2="31.6263" /><line stroke="rgb(100%,50%,0%)" x1="67.5478" x2="73.6377" y1="24.7696" y2="33.7424" /><line stroke="rgb(100%,50%,0%)" x1="64.8807" x2="58.9525" y1="35.5855" y2="32.5695" /><line stroke="rgb(100%,50%,0%)" x1="61.5353" x2="56.7336" y1="24.6609" y2="22.7841" /><line stroke="rgb(100%,50%,0%)" x1="74.3389" x2="60.1825" y1="33.9489" y2="22.0247" /><line stroke="rgb(100%,50%,0%)" x1="71.7388" x2="64.6449" y1="35.5956" y2="41.4201" /><line stroke="rgb(100%,50%,0%)" x1="72.1412" x2="56.472" y1="37.5358" y2="29.7114" /><line stroke="rgb(100%,50%,0%)" x1="55.1703" x2="56.0159" y1="30.4754" y2="39.4291" /><line stroke="rgb(100%,50%,0%)" x1="64.0859" x2="60.3642" y1="33.0102" y2="20.1461" /><line stroke="rgb(100%,50%,0%)" x1="62.9085" x2="64.0778" y1="39.3928" y2="34.0749" /><line stroke="rgb(100%,50%,0%)" x1="63.6842" x2="67.2608" y1="36.5199" y2="29.5926" /><text fill="red" font-size="20" transform="rotate(-17, 85, 30)" x="85" y="30">S</text><line stroke="rgb(0%,0%,0%)" x1="92.6914" x2="92.0851" y1="34.2048" y2="35.9917" /><line stroke="rgb(0%,0%,0%)" x1="85.4631" x2="88.4814" y1="31.4824" y2="29.9689" /><line stroke="rgb(0%,0%,0%)" x1="87.2312" x2="87.7495" y1="32.3722" y2="38.0439" /><line stroke="rgb(0%,0%,0%)" x1="84.1026" x2="85.7782" y1="34.434" y2="24.628" /><line stroke="rgb(0%,0%,0%)" x1="81.6762" x2="95.5729" y1="29.7711" y2="35.4607" /><line stroke="rgb(0%,0%,0%)" x1="89.4924" x2="97.013" y1="29.8838" y2="37.5033" /><line stroke="rgb(0%,0%,0%)" x1="82.0283" x2="85.6296" y1="39.8441" y2="23.36" /><line stroke="rgb(0%,0%,0%)" x1="87.5839" x2="87.496" y1="29.598" y2="32.4223" /><line stroke="rgb(0%,0%,0%)" x1="96.821" x2="91.992" y1="37.1396" y2="39.3642" /><line stroke="rgb(0%,0%,0%)" x1="85.8082" x2="80.9415" y1="27.2228" y2="36.0951" /><line stroke="rgb(100%,50%,0%)" x1="94.7938" x2="94.3828" y1="38.4402" y2="35.6987" /><line stroke="rgb(100%,50%,0%)" x1="85.6095" x2="80.714" y1="21.1677" y2="27.0984" /><line stroke="rgb(100%,50%,0%)" x1="92.4399" x2="85.2934" y1="29.5736" y2="22.0671" /><line stroke="rgb(100%,50%,0%)" x1="94.1358" x2="98.3881" y1="28.1515" y2="37.3922" /><line stroke="rgb(100%,50%,0%)" x1="98.0069" x2="83.0199" y1="38.5737" y2="26.9488" /><line stroke="rgb(100%,50%,0%)" x1="89.746" x2="82.6295" y1="28.1661" y2="26.1445" /><line stroke="rgb(100%,50%,0%)" x1="81.7004" x2="82.2814" y1="33.4773" y2="35.735" /><line stroke="rgb(100%,50%,0%)" x1="91.18" x2="94.777" y1="27.9608" y2="43.5474" /><line stroke="rgb(100%,50%,0%)" x1="96.6188" x2="93.784" y1="38.6005" y2="44.2015" /><line stroke="rgb(100%,50%,0%)" x1="88.5647" x2="87.2631" y1="22.7154" y2="41.6299" /><text fill="red" font-size="20" transform="rotate(28, 110, 30)" x="110" y="30">O</text><line stroke="rgb(0%,0%,0%)" x1="113.2519" x2="112.3136" y1="30.3194" y2="34.649" /><line stroke="rgb(0%,0%,0%)" x1="118.2544" x2="122.7534" y1="32.8212" y2="37.779" /><line stroke="rgb(0%,0%,0%)" x1="121.5387" x2="109.5802" y1="25.5442" y2="28.5347" /><line stroke="rgb(0%,0%,0%)" x1="107.9643" x2="124.6808" y1="36.8681" y2="37.4811" /><line stroke="rgb(0%,0%,0%)" x1="117.2749" x2="122.5786" y1="36.3263" y2="30.7357" /><line stroke="rgb(0%,0%,0%)" x1="116.556" x2="117.7289" y1="34.6626" y2="28.4651" /><line stroke="rgb(0%,0%,0%)" x1="118.5139" x2="106.903" y1="25.5601" y2="26.5412" /><line stroke="rgb(0%,0%,0%)" x1="116.7216" x2="118.2932" y1="30.5261" y2="38.8236" /><line stroke="rgb(0%,0%,0%)" x1="123.6957" x2="114.446" y1="39.3066" y2="35.6457" /><line stroke="rgb(0%,0%,0%)" x1="105.9276" x2="105.6601" y1="27.6339" y2="24.0371" /><line stroke="rgb(100%,50%,0%)" x1="111.876" x2="107.7807" y1="36.1056" y2="31.382" /><line stroke="rgb(100%,50%,0%)" x1="117.2387" x2="119.0478" y1="35.7563" y2="41.6549" /><line stroke="rgb(100%,50%,0%)" x1="122.5866" x2="116.6381" y1="33.9147" y2="40.796" /><line stroke="rgb(100%,50%,0%)" x1="118.5407" x2="113.7583" y1="28.7043" y2="28.3651" /><line stroke="rgb(100%,50%,0%)" x1="112.5921" x2="106.8038" y1="36.1642" y2="34.3379" /><line stroke="rgb(100%,50%,0%)" x1="124.0862" x2="109.2909" y1="36.4217" y2="31.4275" /><line stroke="rgb(100%,50%,0%)" x1="105.8299" x2="118.1704" y1="25.4655" y2="25.9002" /><line stroke="rgb(100%,50%,0%)" x1="108.0869" x2="124.9645" y1="26.0481" y2="42.3495" /><line stroke="rgb(100%,50%,0%)" x1="111.586" x2="114.6992" y1="27.7439" y2="20.6397" /><line stroke="rgb(100%,50%,0%)" x1="111.23" x2="123.2058" y1="33.9022" y2="15.7468" /></svg>