<?xml version="1.0" encoding="utf-8" ?>
<svg baseProfile="tiny" height="50" version="1.2" width="150" xmlns="http://www.w3.org/2000/svg" xmlns:ev="http://www.w3.org/2001/xml-events" xmlns:xlink="http://www.w3.org/1999/xlink"><defs /><text fill="red" font-size="30" transform="rotate(30, 10, 30)" x="10" y="30">X</text><line stroke="rgb(0%,0%,0%)" x1="22.3143" x2="14.6675" y1="22.2953" y2="37.1538" /><line stroke="rgb(0%,0%,0%)" x1="17.8361" x2="19.0048" y1="24.109" y2="33.2827" /><line stroke="rgb(0%,0%,0%)" x1="20.7674" x2="16.5804" y1="31.602" y2="31.0329" /><line stroke="rgb(0%,0%,0%)" x1="7.5115" x2="16.8396" y1="26.3203" y2="20.5584" /><line stroke="rgb(0%,0%,0%)" x1="5.4872" x2="20.8057" y1="32.9087" y2="31.6542" /><line stroke="rgb(0%,0%,0%)" x1="5.5104" x2="10.6061" y1="26.4576" y2="29.7038" /><line stroke="rgb(0%,0%,0%)" x1="15.4483" x2="11.4796" y1="22.2407" y2="25.4921" /><line stroke="rgb(0%,0%,0%)" x1="11.755" x2="11.9955" y1="32.7697" y2="25.54" /><line stroke="rgb(0%,0%,0%)" x1="15.2286" x2="18.1522" y1="38.0682" y2="20.1961" /><line stroke="rgb(0%,0%,0%)" x1="18.6786" x2="9.5345" y1="23.8528" y2="35.8494" /><line stroke="rgb(100%,100%,0%)" x1="5.7812" x2="18.64" y1="39.9708" y2="43.7466" /><line stroke="rgb(100%,100%,0%)" x1="22.3817" x2="17.5287" y1="36.3577" y2="30.4016" /><line stroke="rgb(100%,100%,0%)" x1="19.3742" x2="14.518" y1="23.7972" y2="18.6447" /><line stroke="rgb(100%,100%,0%)" x1="18.1888" x2="18.4929" y1="21.6003" y2="25.7259" /><line stroke="rgb(100%,100%,0%)" x1="21.1711" x2="16.3874" y1="28.9176" y2="17.6499" /><line stroke="rgb(100%,100%,0%)" x1="14.0353" x2="16.3343" y1="22.7009" y2="43.45" /><line stroke="rgb(100%,100%,0%)" x1="10.1359" x2="22.0036" y1="29.37" y2="32.4418" /><line stroke="rgb(100%,100%,0%)" x1="22.0267" x2="20.5641" y1="20.2594" y2="23.0503" /><line stroke="rgb(100%,100%,0%)" x1="8.0959" x2="21.4164" y1="26.6747" y2="24.6838" /><line stroke="rgb(100%,100%,0%)" x1="10.904" x2="17.9919" y1="33.1594" y2="22.4545" /><text fill="red" font-size="30" transform="rotate(-29, 35, 30)" x="35" y="30">F</text><line stroke="rgb(0%,0%,0%)" x1="35.0231" x2="43.1016" y1="29.5073" y2="25.9536" /><line stroke="rgb(0%,0%,0%)" x1="39.8186" x2="49.8597" y1="35.1242" y2="22.005" /><line stroke="rgb(0%,0%,0%)" x1="35.0622" x2="46.122" y1="29.7604" y2="31.7488" /><line stroke="rgb(0%,0%,0%)" x1="48.0008" x2="32.7902" y1="37.8741" y2="33.6585" /><line stroke="rgb(0%,0%,0%)" x1="37.6989" x2="47.7266" y1="33.6296" y2="20.5308" /><line stroke="rgb(0%,0%,0%)" x1="42.5428" x2="44.7742" y1="23.5535" y2="23.2421" /><line stroke="rgb(0%,0%,0%)" x1="35.791" x2="37.8105" y1="25.1671" y2="39.6094" /><line stroke="rgb(0%,0%,0%)" x1="38.5211" x2="47.9001" y1="39.8808" y2="39.0369" /><line stroke="rgb(0%,0%,0%)" x1="41.2848" x2="39.7462" y1="28.207" y2="22.6758" /><line stroke="rgb(0%,0%,0%)" x1="36.5757" x2="44.999" y1="36.4723" y2="33.5343" /><line stroke="rgb(100%,100%,0%)" x1="49.8009" x2="46.124" y1="20.8761" y2="26.4455" /><line stroke="rgb(100%,100%,0%)" x1="40.9166" x2="47.5489" y1="26.8259" y2="39.5977" /><line stroke="rgb(100%,100%,0%)" x1="45.0698" x2="31.135" y1="24.5238" y2="16.5062" /><line stroke="rgb(100%,100%,0%)" x1="46.5698" x2="42.8919" y1="35.1876" y2="40.4647" /><line stroke="rgb(100%,100%,0%)" x1="40.5182" x2="32.0821" y1="37.7553" y2="32.5934" /><line stroke="rgb(100%,100%,0%)" x1="37.1542" x2="45.427" y1="22.9049" y2="37.0862" /><line stroke="rgb(100%,100%,0%)" x1="31.9438" x2="30.498" y1="32.6877" y2="18.0624" /><line stroke="rgb(100%,100%,0%)" x1="32.402" x2="44.6797" y1="21.4769" y2="42.2991" /><line stroke="rgb(100%,100%,0%)" x1="32.1719" x2="44.6896" y1="24.2644" y2="15.8535" /><line stroke="rgb(100%,100%,0%)" x1="39.2599" x2="34.5279" y1="25.7284" y2="21.6856" /><text fill="red" font-size="30" transform="rotate(3, 60, 30)" x="60" y="30">N</text><line stroke="rgb(0%,0%,0%)" x1="74.1641" x2="71.226" y1="23.2797" y2="32.3304" /><line stroke="rgb(0%,0%,0%)" x1="74.6107" x2="60.3429" y1="38.5871" y2="24.7634" /><line stroke="rgb(0%,0%,0%)" x1="70.5886" x2="58.3505" y1="37.3227" y2="36.7362" /><line stroke="rgb(0%,0%,0%)" x1="63.8331" x2="62.1255" y1="20.0942" y2="27.5921" /><line stroke="rgb(0%,0%,0%)" x1="66.8152" x2="70.3319" y1="38.0962" y2="37.2788" /><line stroke="rgb(0%,0%,0%)" x1="56.4245" x2="59.9148" y1="24.1625" y2="24.6283" /><line stroke="rgb(0%,0%,0%)" x1="59.1592" x2="63.6585" y1="22.1689" y2="26.543" /><line stroke="rgb(0%,0%,0%)" x1="71.8668" x2="74.5937" y1="39.0143" y2="23.7185" /><line stroke="rgb(0%,0%,0%)" x1="56.0673" x2="65.2681" y1="36.934" y2="22.3801" /><line stroke="rgb(0%,0%,0%)" x1="66.942" x2="68.7732" y1="32.5874" y2="31.9559" /><line stroke="rgb(100%,100%,0%)" x1="67.4486" x2="69.7351" y1="38.8204" y2="43.038" /><line stroke="rgb(100%,100%,0%)" x1="56.0346" x2="70.2908" y1="23.9178" y2="27.0757" /><line stroke="rgb(100%,100%,0%)" x1="63.7678" x2="69.4164" y1="27.5881" y2="25.1392" /><line stroke="rgb(100%,100%,0%)" x1="68.2243" x2="67.0034" y1="34.6653" y2="22.2571" /><line stroke="rgb(100%,100%,0%)" x1="70.6691" x2="66.1905" y1="22.5409" y2="25.4055" /><line stroke="rgb(100%,100%,0%)" x1="73.6031" x2="55.4488" y1="22.8142" y2="29.1653" /><line stroke="rgb(100%,100%,0%)" x1="65.1039" x2="67.7816" y1="32.2521" y2="16.042" /><line stroke="rgb(100%,100%,0%)" x1="69.6452" x2="69.3385" y1="33.1853" y2="43.6475" /><line stroke="rgb(100%,100%,0%)" x1="62.7186" x2="64.0416" y1="36.0066" y2="40.0099" /><line stroke="rgb(100%,100%,0%)" x1="56.4348" x2="55.5435" y1="24.2854" y2="28.9877" /><text fill="red" font-size="30" transform="rotate(-27, 85, 30)" x="85" y="30">A</text><line stroke="rgb(0%,0%,0%)" x1="85.0011" x2="99.1962" y1="39.3365" y2="30.0202" /><line stroke="rgb(0%,0%,0%)" x1="92.0038" x2="80.0777" y1="28.5679" y2="37.5716" /><line stroke="rgb(0%,0%,0%)" x1="82.1633" x2="98.1886" y1="27.8669" y2="38.2092" /><line stroke="rgb(0%,0%,0%)" x1="99.3246" x2="92.1603" y1="21.5387" y2="22.9691" /><line stroke="rgb(0%,0%,0%)" x1="99.153" x2="98.4592" y1="28.54" y2="29.5139" /><line stroke="rgb(0%,0%,0%)" x1="94.8335" x2="93.5639" y1="37.921" y2="26.2398" /><line stroke="rgb(0%,0%,0%)" x1="85.393" x2="86.4217" y1="22.0147" y2="29.2179" /><line stroke="rgb(0%,0%,0%)" x1="94.9133" x2="90.7105" y1="20.0967" y2="34.2422" /><line stroke="rgb(0%,0%,0%)" x1="83.0357" x2="88.7482" y1="23.2231" y2="21.0391" /><line stroke="rgb(0%,0%,0%)" x1="87.4714" x2="85.969" y1="28.3811" y2="21.4225" /><line stroke="rgb(100%,100%,0%)" x1="94.1599" x2="99.1519" y1="39.5683" y2="30.6306" /><line stroke="rgb(100%,100%,0%)" x1="90.0114" x2="93.6246" y1="29.8081" y2="18.1908" /><line stroke="rgb(100%,100%,0%)" x1="88.4319" x2="82.033" y1="27.2986" y2="18.8659" /><line stroke="rgb(100%,100%,0%)" x1="82.7409" x2="82.1208" y1="39.557" y2="43.7688" /><line stroke="rgb(100%,100%,0%)" x1="88.7706" x2="94.0128" y1="34.8841" y2="35.0557" /><line stroke="rgb(100%,100%,0%)" x1="86.0693" x2="97.5912" y1="39.6074" y2="37.9193" /><line stroke="rgb(100%,100%,0%)" x1="84.8994" x2="97.1294" y1="26.4238" y2="19.2165" /><line stroke="rgb(100%,100%,0%)" x1="81.451" x2="89.4259" y1="21.5245" y2="23.3907" /><line stroke="rgb(100%,100%,0%)" x1="86.2165" x2="99.6665" y1="24.4009" y2="18.9752" /><line stroke="rgb(100%,100%,0%)" x1="82.5956" x2="94.4814" y1="26.9464" y2="25.1816" /><text fill="red" font-size="30" transform="rotate(22, 110, 30)" x="110" y="30">K</text><line stroke="rgb(0%,0%,0%)" x1="122.0477" x2="107.5189" y1="32.1571" y2="22.5675" /><line stroke="rgb(0%,0%,0%)" x1="113.1194" x2="108.5763" y1="34.9079" y2="23.8367" /><line stroke="rgb(0%,0%,0%)" x1="107.7346" x2="110.4335" y1="22.4086" y2="30.2854" /><line stroke="rgb(0%,0%,0%)" x1="108.6189" x2="124.8832" y1="26.5884" y2="21.1122" /><line stroke="rgb(0%,0%,0%)" x1="105.0912" x2="120.1793" y1="20.0356" y2="38.2933" /><line stroke="rgb(0%,0%,0%)" x1="122.9315" x2="116.4215" y1="25.8929" y2="38.3242" /><line stroke="rgb(0%,0%,0%)" x1="124.8931" x2="109.9693" y1="21.9397" y2="29.7841" /><line stroke="rgb(0%,0%,0%)" x1="123.9197" x2="110.5804" y1="37.223" y2="32.1173" /><line stroke="rgb(0%,0%,0%)" x1="108.7933" x2="122.6714" y1="39.3928" y2="20.1501" /><line stroke="rgb(0%,0%,0%)" x1="108.4743" x2="110.7471" y1="36.0206" y2="28.2786" /><line stroke="rgb(100%,100%,0%)" x1="116.5582" x2="124.5382" y1="31.2647" y2="41.9468" /><line stroke="rgb(100%,100%,0%)" x1="107.4971" x2="113.7594" y1="31.2367" y2="39.7665" /><line stroke="rgb(100%,100%,0%)" x1="105.7612" x2="109.4272" y1="24.9291" y2="31.1774" /><line stroke="rgb(100%,100%,0%)" x1="124.6726" x2="105.9237" y1="24.3934" y2="33.1644" /><line stroke="rgb(100%,100%,0%)" x1="116.0749" x2="107.6163" y1="27.6402" y2="19.9612" /><line stroke="rgb(100%,100%,0%)" x1="115.8597" x2="105.2738" y1="25.9346" y2="26.1297" /><line stroke="rgb(100%,100%,0%)" x1="108.3616" x2="107.5188" y1="23.8878" y2="37.2946" /><line stroke="rgb(100%,100%,0%)" x1="119.1256" x2="110.5818" y1="24.9826" y2="31.9728" /><line stroke="rgb(100%,100%,0%)" x1="121.4239" x2="113.6604" y1="30.396" y2="28.5413" /><line stroke="rgb(100%,100%,0%)" x1="121.0133" x2="112.0361" y1="39.9975" y2="32.737" /></svg>