<?xml version="1.0" encoding="UTF-8" standalone="no"?>
<!-- Created with Inkscape (http://www.inkscape.org/) -->

<svg
   version="1.1"
   id="svg1"
   width="664"
   height="652"
   viewBox="0 0 664 652"
   sodipodi:docname="hiking_kreis_grüm.svg"
   inkscape:version="1.3 (0e150ed6c4, 2023-07-21)"
   xmlns:inkscape="http://www.inkscape.org/namespaces/inkscape"
   xmlns:sodipodi="http://sodipodi.sourceforge.net/DTD/sodipodi-0.dtd"
   xmlns="http://www.w3.org/2000/svg"
   xmlns:svg="http://www.w3.org/2000/svg">
  <defs
     id="defs1" />
  <sodipodi:namedview
     id="namedview1"
     pagecolor="#505050"
     bordercolor="#eeeeee"
     borderopacity="1"
     inkscape:showpageshadow="0"
     inkscape:pageopacity="0"
     inkscape:pagecheckerboard="0"
     inkscape:deskcolor="#505050"
     inkscape:zoom="0.62960125"
     inkscape:cx="-1.5883069"
     inkscape:cy="377.22289"
     inkscape:window-width="1920"
     inkscape:window-height="1017"
     inkscape:window-x="-8"
     inkscape:window-y="-8"
     inkscape:window-maximized="1"
     inkscape:current-layer="g1" />
  <g
     inkscape:groupmode="layer"
     inkscape:label="Image"
     id="g1">
    <path
       style="fill:#13ff5f;fill-opacity:1;stroke-width:1.08141"
       d="M 313.26648,649.76187 C 279.31163,647.99787 238.41378,638.79076 208.41215,626.1566 169.9503,609.95966 143.00954,592.81962 109.65529,563.32617 92.701183,548.33452 68.637663,519.4332 55.604877,498.40932 30.072827,457.22221 15.730741,417.09989 8.4919206,366.60982 5.1433556,343.2539 5.1343426,308.44514 8.4709786,285.7292 16.133377,233.56333 30.074865,194.87774 56.770792,151.70439 69.070075,131.81364 95.123845,101.10885 112.33496,86.221085 140.37185,61.968943 158.52966,49.482911 183.859,37.038285 221.71478,18.439281 248.97491,10.108532 291.45797,4.155862 315.6453,0.76675903 349.21119,0.94808253 373.78512,4.6005954 415.88787,10.858482 443.7023,19.50087 479.29191,37.38322 c 25.86066,12.993951 47.06695,27.747073 73.56981,51.182192 16.95413,14.991648 41.01764,43.892968 54.05045,64.916858 19.89016,32.08592 34.13425,66.669 41.6606,101.1475 5.99026,27.44161 7.83798,44.68818 7.75526,72.38846 -0.0671,22.46339 -0.4283,27.4169 -3.32375,45.57879 -3.76969,23.64568 -7.6546,41.22615 -10.87325,49.20521 -0.68559,1.69957 -1.74789,5.29042 -2.36065,7.97961 -2.71284,11.90558 -20.01931,47.76676 -33.81858,70.07638 -12.50815,20.22223 -38.43446,50.81711 -55.76974,65.81228 -34.34126,29.70546 -56.94563,43.91236 -96.79584,60.83634 -39.77168,16.89065 -92.90005,25.70813 -140.11974,23.25503 z"
       id="path1" />
    <path
       d="m 315.05414,142.72294 a 41.329033,40.045964 0 1 1 82.65806,0 41.329033,40.045964 0 1 1 -82.65806,0 z m 44.17041,152.42494 -16.44552,63.6564 42.79277,41.46426 c 7.7492,7.50863 12.1404,17.68697 12.1404,28.28247 v 74.5856 c 0,14.76694 -12.31261,26.69731 -27.55268,26.69731 -15.24009,0 -27.5527,-11.93037 -27.5527,-26.69731 V 434.14075 L 278.97734,372.48666 C 265.3732,359.30485 259.86265,340.28303 264.42607,322.17891 l 17.56484,-70.08044 c 7.14648,-28.44931 36.76563,-45.80256 66.04035,-38.71109 16.3594,4.00459 30.65237,13.68237 39.9514,27.28131 l 24.45301,35.5408 h 26.60557 v -20.02298 c 0,-11.09608 9.21293,-20.02299 20.66451,-20.02299 11.45159,0 20.66451,8.92691 20.66451,20.02299 v 46.55343 c 0,0.0834 0,0.16685 0,0.16685 0,0 0,0.16686 0,0.16686 v 206.73728 c 0,11.09608 -9.21292,20.02299 -20.66451,20.02299 -11.45158,0 -20.66451,-8.92691 -20.66451,-20.02299 V 329.6041 h -33.92425 c -13.77635,0 -26.69167,-6.67433 -34.35477,-17.85383 L 359.31064,295.06446 Z M 219.56686,496.37885 250.73583,381.33013 c 2.58307,3.50403 5.51054,6.84119 8.69632,9.92808 l 36.0768,34.95678 -22.73097,83.67938 c -3.8746,14.26637 -18.94247,22.77614 -33.66594,19.02183 -14.72348,-3.75431 -23.50589,-18.35441 -19.63129,-32.62077 z M 267.35355,207.71419 237.04558,325.0155 c -2.58306,10.09492 -12.82921,16.6024 -23.41977,14.93381 l -41.24293,-6.67433 c -12.05431,-1.91886 -19.7174,-13.59894 -16.53161,-25.02872 l 21.35332,-76.25419 c 8.17971,-29.03334 35.38799,-49.22317 66.47086,-49.22317 h 3.6163 c 13.43193,0 23.33368,12.26408 20.0618,24.86188 z"
       id="path1-6"
       style="fill:#ffffff;fill-opacity:1;stroke-width:0.847551" />
  </g>
</svg>
