<?xml version="1.0" encoding="UTF-8" standalone="no"?>
<!-- Created with Inkscape (http://www.inkscape.org/) -->

<svg
   version="1.1"
   id="svg1"
   width="664"
   height="652"
   viewBox="0 0 664 652"
   sodipodi:docname="weightlifting_kreis_grün.svg"
   inkscape:version="1.3 (0e150ed6c4, 2023-07-21)"
   xml:space="preserve"
   inkscape:export-filename="PNG\weightlifting_kreis_blau.png"
   inkscape:export-xdpi="96"
   inkscape:export-ydpi="96"
   xmlns:inkscape="http://www.inkscape.org/namespaces/inkscape"
   xmlns:sodipodi="http://sodipodi.sourceforge.net/DTD/sodipodi-0.dtd"
   xmlns="http://www.w3.org/2000/svg"
   xmlns:svg="http://www.w3.org/2000/svg"><defs
     id="defs1" /><sodipodi:namedview
     id="namedview1"
     pagecolor="#505050"
     bordercolor="#eeeeee"
     borderopacity="1"
     inkscape:showpageshadow="0"
     inkscape:pageopacity="0"
     inkscape:pagecheckerboard="0"
     inkscape:deskcolor="#505050"
     inkscape:zoom="1.2592024"
     inkscape:cx="357.36908"
     inkscape:cy="365.70769"
     inkscape:window-width="1920"
     inkscape:window-height="1017"
     inkscape:window-x="-8"
     inkscape:window-y="-8"
     inkscape:window-maximized="1"
     inkscape:current-layer="g1" /><g
     inkscape:groupmode="layer"
     inkscape:label="Image"
     id="g1"><path
       style="fill:#13ff5f;fill-opacity:1;stroke-width:1.07651"
       d="M 314.57305,646.8886 C 280.53085,645.145 239.52781,636.04439 209.44902,623.55632 170.88824,607.54671 143.87821,590.60487 110.43816,561.4525 93.440448,546.63421 69.315036,518.06712 56.248725,497.28637 30.651008,456.57557 16.27203,416.91724 9.0145931,367.01106 5.6574143,343.92524 5.648378,309.51902 8.9935931,287.06577 16.675697,235.50314 30.653045,197.26496 57.417634,154.59086 69.748552,134.93015 95.869342,104.58044 113.12473,89.864851 c 28.109,-23.971686 46.3135,-36.313324 71.70805,-48.614035 37.95309,-18.383919 65.28336,-26.618327 107.87567,-32.5021579 24.24958,-3.3499101 57.90177,-3.1706827 82.53891,0.439591 42.21103,6.1855179 70.09699,14.7279619 105.77813,32.4035129 25.92719,12.843684 47.18803,27.426195 73.75909,50.590302 16.99772,14.818276 41.12313,43.385366 54.18942,64.166126 19.94134,31.71488 34.22205,65.898 41.76778,99.9778 6.00566,27.12428 7.85814,44.17138 7.77518,71.55133 -0.0672,22.20363 -0.42937,27.09985 -3.33229,45.05171 -3.77938,23.37222 -7.67425,40.74938 -10.90123,48.63615 -0.68731,1.67993 -1.75234,5.22925 -2.36671,7.88736 -2.7198,11.76791 -20.07078,47.21435 -33.90554,69.26595 -12.54035,19.98841 -38.53331,50.22947 -55.91317,65.05122 -34.42961,29.36194 -57.09212,43.40455 -97.04484,60.13282 -39.87395,16.69531 -93.13898,25.41081 -140.48013,22.98607 z"
       id="path1" /><path
       d="m 138.80561,166.88186 c 0,-14.76696 12.2917,-26.69732 27.50589,-26.69732 h 27.50588 c 15.2142,0 27.5059,11.93036 27.5059,26.69732 v 133.48654 53.39461 133.48656 c 0,14.76694 -12.2917,26.6973 -27.5059,26.6973 H 166.3115 c -15.21419,0 -27.50589,-11.93036 -27.50589,-26.6973 v -53.39463 h -27.50589 c -15.214189,0 -27.505885,-11.93035 -27.505885,-26.69731 v -53.39462 c -15.214198,0 -27.505891,-11.93035 -27.505891,-26.69729 0,-14.76696 12.291693,-26.69732 27.505891,-26.69732 v -53.39461 c 0,-14.76695 12.291696,-26.69732 27.505885,-26.69732 h 27.50589 z m 385.08246,0 v 53.39461 h 27.5059 c 15.21417,0 27.50588,11.93037 27.50588,26.69732 v 53.39461 c 15.2142,0 27.50587,11.93036 27.50587,26.69732 0,14.76694 -12.29167,26.69729 -27.50587,26.69729 v 53.39462 c 0,14.76696 -12.29171,26.69731 -27.50588,26.69731 h -27.5059 v 53.39463 c 0,14.76694 -12.2917,26.6973 -27.50588,26.6973 h -27.50591 c -15.21418,0 -27.50586,-11.93036 -27.50586,-26.6973 V 353.76301 300.3684 166.88186 c 0,-14.76696 12.29168,-26.69732 27.50586,-26.69732 h 27.50591 c 15.21418,0 27.50588,11.93036 27.50588,26.69732 z M 413.8645,300.3684 v 53.39461 H 248.82917 V 300.3684 Z"
       id="path1-4"
       style="fill:#ffffff;fill-opacity:1;stroke-width:0.846832" /></g></svg>
