<?xml version="1.0" encoding="UTF-8" standalone="no"?>
<!-- Created with Inkscape (http://www.inkscape.org/) -->

<svg
   version="1.1"
   id="svg1"
   width="664"
   height="652"
   viewBox="0 0 664 652"
   sodipodi:docname="cycling_kreis_blau.svg"
   inkscape:version="1.3 (0e150ed6c4, 2023-07-21)"
   xml:space="preserve"
   inkscape:export-filename="PNG\cycling_kreis_blau.png"
   inkscape:export-xdpi="96"
   inkscape:export-ydpi="96"
   xmlns:inkscape="http://www.inkscape.org/namespaces/inkscape"
   xmlns:sodipodi="http://sodipodi.sourceforge.net/DTD/sodipodi-0.dtd"
   xmlns="http://www.w3.org/2000/svg"
   xmlns:svg="http://www.w3.org/2000/svg"><defs
     id="defs1" /><sodipodi:namedview
     id="namedview1"
     pagecolor="#505050"
     bordercolor="#eeeeee"
     borderopacity="1"
     inkscape:showpageshadow="0"
     inkscape:pageopacity="0"
     inkscape:pagecheckerboard="0"
     inkscape:deskcolor="#505050"
     inkscape:zoom="0.89039059"
     inkscape:cx="297.62219"
     inkscape:cy="383.53954"
     inkscape:window-width="1920"
     inkscape:window-height="1017"
     inkscape:window-x="-8"
     inkscape:window-y="-8"
     inkscape:window-maximized="1"
     inkscape:current-layer="g1" /><g
     inkscape:groupmode="layer"
     inkscape:label="Image"
     id="g1"><path
       style="fill:#138eb3;fill-opacity:1;stroke-width:1.09169"
       d="M 312.961,648.47196 C 278.37975,646.70674 236.72739,637.49337 206.17228,624.85057 167.00087,608.64259 139.56313,591.49084 105.59353,561.97725 88.326653,546.97535 63.819204,518.0543 50.545984,497.01607 24.542914,455.80082 9.9362394,415.65111 2.5638765,365.12657 -0.8464643,341.75471 -0.85564332,306.92218 2.5425487,284.19073 10.346305,231.98921 24.54499,193.27724 51.733409,150.07438 64.25959,130.17006 90.794015,99.444304 108.32265,84.546375 136.87677,60.277668 155.36954,47.783112 181.16619,35.329987 219.72032,16.718283 247.48336,8.3818461 290.75015,2.4251111 c 24.63358,-3.39141779 58.81868,-3.20996895 83.84595,0.4450373 42.87947,6.2621594 71.20703,14.9104506 107.45319,32.8050106 26.33775,13.002823 47.93527,27.766019 74.92709,51.217138 17.26688,15.001893 41.77433,43.922933 55.04754,64.961193 20.25713,32.10784 34.76399,66.71451 42.4292,101.21658 6.10077,27.46034 7.98255,44.71866 7.89833,72.43788 -0.0683,22.47873 -0.43622,27.43562 -3.38508,45.60992 -3.83925,23.6618 -7.79581,41.25429 -11.07385,49.23879 -0.69822,1.70074 -1.78013,5.29403 -2.40421,7.98507 -2.76288,11.91371 -20.38859,47.79938 -34.44245,70.12423 -12.73892,20.23605 -39.1435,50.85182 -56.79858,65.85722 -34.97481,29.72574 -57.9962,43.94233 -98.58158,60.8779 -40.50539,16.90217 -94.61389,25.72565 -142.7047,23.27088 z"
       id="path1" /><path
       d="m 320.86061,127.41999 c -11.47102,0 -20.6996,8.92691 -20.6996,20.02298 0,11.09606 9.22858,20.02298 20.6996,20.02298 h 22.16585 l 29.84194,53.39462 H 244.0133 l -23.63206,-31.70306 c -3.88117,-5.25603 -10.17731,-8.34291 -16.81843,-8.34291 h -48.29912 c -11.47102,0 -20.6996,8.92691 -20.6996,20.02298 0,11.09607 9.22858,20.02299 20.6996,20.02299 h 37.69056 l 19.0609,25.61272 -22.94207,44.30085 c -8.62485,-2.08572 -17.68092,-3.17031 -26.9095,-3.17031 -60.97762,0 -110.397948,47.80488 -110.397948,106.78924 0,58.98437 49.420328,106.78924 110.397948,106.78924 56.3202,0 102.72184,-40.79682 109.53546,-93.4406 h 42.26171 c 7.33111,0 14.05848,-3.75429 17.85342,-9.84462 l 73.13864,-119.72075 18.71589,33.45508 c -24.83953,19.60582 -40.70924,49.39002 -40.70924,82.76165 0,58.98437 49.42034,106.78924 110.39796,106.78924 60.97761,0 110.39793,-47.80487 110.39793,-106.78924 0,-58.98436 -49.42032,-106.78924 -110.39793,-106.78924 -11.64355,0 -22.85583,1.75202 -33.37814,5.00576 L 375.5421,141.43606 c -4.8299,-8.67662 -14.14473,-14.01607 -24.32205,-14.01607 z m 126.44016,226.67683 27.85823,49.80717 c 5.43364,9.7612 18.02592,13.34865 28.03073,8.09262 10.00482,-5.25603 13.79974,-17.43668 8.36609,-27.11446 l -27.85823,-49.80716 c 3.10494,-0.50059 6.38239,-0.75086 9.65983,-0.75086 34.32685,0 62.09884,26.86417 62.09884,60.06894 0,33.20478 -27.77199,60.06895 -62.09884,60.06895 -34.32687,0 -62.09885,-26.86417 -62.09885,-60.06895 0,-15.51781 6.03739,-29.61733 16.0422,-40.29625 z M 166.6485,407.74171 h 56.06144 c -6.29612,26.78076 -31.04942,46.72031 -60.54636,46.72031 -34.32686,0 -62.09885,-26.86417 -62.09885,-60.06895 0,-33.20477 27.77199,-60.06894 62.09885,-60.06894 1.46623,0 2.93245,0.0833 4.39866,0.16685 l -20.8721,40.4631 c -7.76236,15.10068 3.53619,32.87108 20.95836,32.87108 z m 29.0657,-40.04594 43.72794,-84.51367 62.87507,84.43023 -0.0863,0.0835 H 195.62795 Z m 78.14105,-106.78924 h 93.49327 L 325.17304,329.98581 273.769,260.90653 Z"
       id="path1-9"
       style="fill:#ffffff;fill-opacity:1;stroke-width:0.84827" /></g></svg>
