<?xml version="1.0" encoding="UTF-8" standalone="no"?>
<!-- Created with Inkscape (http://www.inkscape.org/) -->

<svg
   version="1.1"
   id="svg1"
   width="664"
   height="652"
   viewBox="0 0 664 652"
   sodipodi:docname="hiking_kreis_blau.svg"
   inkscape:version="1.3 (0e150ed6c4, 2023-07-21)"
   xmlns:inkscape="http://www.inkscape.org/namespaces/inkscape"
   xmlns:sodipodi="http://sodipodi.sourceforge.net/DTD/sodipodi-0.dtd"
   xmlns="http://www.w3.org/2000/svg"
   xmlns:svg="http://www.w3.org/2000/svg">
  <defs
     id="defs1" />
  <sodipodi:namedview
     id="namedview1"
     pagecolor="#505050"
     bordercolor="#eeeeee"
     borderopacity="1"
     inkscape:showpageshadow="0"
     inkscape:pageopacity="0"
     inkscape:pagecheckerboard="0"
     inkscape:deskcolor="#505050"
     inkscape:zoom="1.2592025"
     inkscape:cx="331.95614"
     inkscape:cy="325.99999"
     inkscape:window-width="1920"
     inkscape:window-height="1017"
     inkscape:window-x="-8"
     inkscape:window-y="-8"
     inkscape:window-maximized="1"
     inkscape:current-layer="g1" />
  <g
     inkscape:groupmode="layer"
     inkscape:label="Image"
     id="g1">
    <path
       style="fill:#138eb3;fill-opacity:1"
       d="m 321.5,632.94265 c -31.13908,-1.64484 -68.64538,-10.23 -96.15906,-22.01075 C 190.06862,595.82906 165.362,579.8468 134.77371,552.3456 119.22556,538.36662 97.157561,511.41756 85.205548,491.81381 61.790799,453.40883 48.638062,415.99675 41.999538,368.91722 38.928659,347.13896 38.920394,314.68151 41.980332,293.5 49.007308,244.85786 61.792668,208.78546 86.274776,168.5284 97.554114,149.98126 121.44732,121.35054 137.23117,107.46843 162.94304,84.854492 179.59506,73.211879 202.82393,61.607873 237.54042,44.265211 262.53996,36.497195 301.5,30.946621 c 22.18157,-3.160173 52.96392,-2.991097 75.5,0.414693 38.61128,5.835174 64.11914,13.893777 96.75739,30.568195 23.71611,12.116224 43.16383,25.872789 67.4689,47.724891 15.54815,13.97898 37.61615,40.92804 49.56816,60.53179 18.24075,29.91857 31.30361,62.16559 38.20583,94.31511 5.49351,25.58797 7.18798,41.66953 7.11213,67.4987 -0.0615,20.94602 -0.39278,25.56492 -3.04812,42.5 -3.45709,22.04843 -7.01982,38.44136 -9.97156,45.88143 -0.62874,1.58478 -1.60295,4.93307 -2.1649,7.44062 -2.48787,11.10137 -18.35915,44.54016 -31.01409,65.34279 -11.47089,18.85624 -35.24719,47.38447 -51.14491,61.36673 C 507.27541,582.23046 486.54554,595.4777 450,611.2585 c -36.47352,15.74969 -85.19611,23.97155 -128.5,21.68415 z"
       id="path1" />
    <path
       d="m 326.83019,139.81884 a 41.329033,40.045964 0 1 1 82.65806,0 41.329033,40.045964 0 1 1 -82.65806,0 z m 44.17041,152.42494 -16.44552,63.6564 42.79277,41.46426 c 7.7492,7.50863 12.1404,17.68697 12.1404,28.28247 v 74.5856 c 0,14.76694 -12.31261,26.69731 -27.55268,26.69731 -15.24009,0 -27.5527,-11.93037 -27.5527,-26.69731 V 431.23665 L 290.75339,369.58256 C 277.14925,356.40075 271.6387,337.37893 276.20212,319.27481 l 17.56484,-70.08044 c 7.14648,-28.44931 36.76563,-45.80256 66.04035,-38.71109 16.3594,4.00459 30.65237,13.68237 39.9514,27.28131 l 24.45301,35.5408 h 26.60557 v -20.02298 c 0,-11.09608 9.21293,-20.02299 20.66451,-20.02299 11.45159,0 20.66451,8.92691 20.66451,20.02299 v 46.55343 c 0,0.0834 0,0.16685 0,0.16685 0,0 0,0.16686 0,0.16686 v 206.73728 c 0,11.09608 -9.21292,20.02299 -20.66451,20.02299 -11.45158,0 -20.66451,-8.92691 -20.66451,-20.02299 V 326.7 h -33.92425 c -13.77635,0 -26.69167,-6.67433 -34.35477,-17.85383 L 371.08669,292.16036 Z M 231.34291,493.47475 262.51188,378.42603 c 2.58307,3.50403 5.51054,6.84119 8.69632,9.92808 l 36.0768,34.95678 -22.73097,83.67938 c -3.8746,14.26637 -18.94247,22.77614 -33.66594,19.02183 -14.72348,-3.75431 -23.50589,-18.35441 -19.63129,-32.62077 z M 279.1296,204.81009 248.82163,322.1114 c -2.58306,10.09492 -12.82921,16.6024 -23.41977,14.93381 l -41.24293,-6.67433 c -12.05431,-1.91886 -19.7174,-13.59894 -16.53161,-25.02872 l 21.35332,-76.25419 c 8.17971,-29.03334 35.38799,-49.22317 66.47086,-49.22317 h 3.6163 c 13.43193,0 23.33368,12.26408 20.0618,24.86188 z"
       id="path1-6"
       style="fill:#ffffff;fill-opacity:1;stroke-width:0.847551" />
  </g>
</svg>