<?xml version="1.0" encoding="UTF-8" standalone="no"?>
<!-- Created with Inkscape (http://www.inkscape.org/) -->

<svg
   version="1.1"
   id="svg1"
   width="664"
   height="652"
   viewBox="0 0 664 652"
   sodipodi:docname="skiing_kreis_blau.svg"
   inkscape:version="1.3 (0e150ed6c4, 2023-07-21)"
   xml:space="preserve"
   inkscape:export-filename="PNG\skiing_kreis_blau.png"
   inkscape:export-xdpi="96"
   inkscape:export-ydpi="96"
   xmlns:inkscape="http://www.inkscape.org/namespaces/inkscape"
   xmlns:sodipodi="http://sodipodi.sourceforge.net/DTD/sodipodi-0.dtd"
   xmlns="http://www.w3.org/2000/svg"
   xmlns:svg="http://www.w3.org/2000/svg"><defs
     id="defs1" /><sodipodi:namedview
     id="namedview1"
     pagecolor="#505050"
     bordercolor="#eeeeee"
     borderopacity="1"
     inkscape:showpageshadow="0"
     inkscape:pageopacity="0"
     inkscape:pagecheckerboard="0"
     inkscape:deskcolor="#505050"
     inkscape:zoom="0.89039059"
     inkscape:cx="297.62219"
     inkscape:cy="383.53954"
     inkscape:window-width="1920"
     inkscape:window-height="1017"
     inkscape:window-x="-8"
     inkscape:window-y="-8"
     inkscape:window-maximized="1"
     inkscape:current-layer="g1" /><g
     inkscape:groupmode="layer"
     inkscape:label="Image"
     id="g1"><path
       style="fill:#138eb3;fill-opacity:1;stroke-width:1.08986"
       d="M 311.36901,649.59435 C 276.96366,647.8261 235.52319,638.59678 205.1235,625.93209 166.15136,609.69605 138.85319,592.51462 105.05639,562.94994 87.877348,547.92209 63.494565,518.95098 50.288864,497.87632 24.418067,456.58975 9.8856952,416.37055 2.5508348,365.75855 -0.84215813,342.34623 -0.85129086,307.45341 2.5296141,284.68262 10.293672,232.39076 24.420131,193.61177 51.470247,150.33413 63.932711,130.39536 90.332156,99.616428 107.77162,84.692709 136.1805,60.382 154.57919,47.865817 180.24463,35.391139 218.60263,16.74722 246.22446,8.396353 289.27115,2.4293086 c 24.50826,-3.39728755 58.51948,-3.21552521 83.41944,0.4458078 42.66135,6.2729986 70.84481,14.9362566 106.90658,32.8617906 26.20378,13.02533 47.69143,27.814079 74.54594,51.305789 17.17906,15.027854 41.56183,43.998964 54.76753,65.073624 20.15408,32.16342 34.58715,66.82999 42.21336,101.39177 6.06975,27.50788 7.94196,44.79607 7.85814,72.56326 -0.0679,22.51765 -0.43397,27.48311 -3.36784,45.68887 -3.81971,23.70276 -7.75614,41.32569 -11.01751,49.32401 -0.69467,1.70368 -1.77108,5.3032 -2.39198,7.9989 -2.74883,11.93433 -20.2849,47.8821 -34.26725,70.2456 -12.67413,20.27107 -38.9444,50.93982 -56.50967,65.9712 -34.79688,29.77719 -57.70116,44.0184 -98.08009,60.98327 -40.29935,16.93143 -94.13261,25.77018 -141.97879,23.31115 z"
       id="path1" /><path
       d="m 405.6937,153.8024 a 41.18864,40.115278 0 1 1 82.37728,0 41.18864,40.115278 0 1 1 -82.37728,0 z M 81.333183,338.41624 c 5.234392,-9.86167 17.676793,-13.62248 27.802337,-8.52449 l 169.55989,85.7464 39.64406,-57.83286 -64.44305,-62.76369 c -12.52821,-12.20173 -17.50517,-28.33141 -15.78898,-43.54179 l 93.36091,43.45822 33.72319,32.84438 c 13.90117,13.5389 16.04641,34.683 5.14858,50.64554 l -42.6474,62.01153 110.43704,55.82709 c 11.67011,5.93372 25.57128,6.01729 37.41301,0.25072 l 13.04306,-6.35158 c 10.21136,-4.93084 22.56795,-0.91931 27.63072,8.94236 5.06277,9.86167 0.94391,21.97983 -9.18164,26.91066 l -13.04306,6.35159 c -23.59766,11.44957 -51.39999,11.28242 -74.82603,-0.58501 L 90.085771,365.49405 C 80.046039,360.39607 76.098794,348.27791 81.333183,338.41624 Z m 99.710837,-169.90491 15.53154,7.18732 7.46544,-14.54179 c 3.43239,-6.6023 11.67012,-9.27665 18.44907,-6.01729 6.77897,3.25937 9.52488,11.366 6.1783,17.9683 l -7.29381,14.12392 46.93788,21.89626 c 1.28714,-0.58502 2.6601,-1.17003 4.03305,-1.75504 l 71.56525,-27.91355 c 29.34691,-11.44957 62.46944,3.51009 72.50917,32.76081 l 14.67345,42.78963 44.70684,21.81268 c 13.55792,6.6023 19.04974,22.64842 12.27078,35.85303 -6.77896,13.20461 -23.25441,18.55331 -36.81235,11.95101 l -49.8554,-24.23632 c -9.78231,-4.76369 -17.16194,-13.12103 -20.68013,-23.23343 l -4.97697,-14.45821 -23.42604,10.11239 -5.83505,2.50721 -5.74925,-2.67436 -131.71783,-61.42651 -7.89448,15.37752 c -3.43239,6.60231 -11.67012,9.27666 -18.44909,6.01729 -6.77896,-3.25937 -9.52487,-11.36599 -6.17829,-17.9683 l 7.72287,-15.04323 -15.1025,-7.02017 c -6.86478,-3.1758 -9.69649,-11.19885 -6.43573,-17.80116 3.26077,-6.6023 11.4985,-9.4438 18.27747,-6.26801 z"
       id="path1-5"
       style="fill:#ffffff;fill-opacity:1;stroke-width:0.846842" /></g></svg>
