<?xml version="1.0" encoding="UTF-8" standalone="no"?>
<!-- Created with Inkscape (http://www.inkscape.org/) -->

<svg
   version="1.1"
   id="svg1"
   width="664"
   height="652"
   viewBox="0 0 664 652"
   sodipodi:docname="hiking_kreis_blau.svg"
   inkscape:version="1.3 (0e150ed6c4, 2023-07-21)"
   xml:space="preserve"
   xmlns:inkscape="http://www.inkscape.org/namespaces/inkscape"
   xmlns:sodipodi="http://sodipodi.sourceforge.net/DTD/sodipodi-0.dtd"
   xmlns="http://www.w3.org/2000/svg"
   xmlns:svg="http://www.w3.org/2000/svg"><defs
     id="defs1" /><sodipodi:namedview
     id="namedview1"
     pagecolor="#505050"
     bordercolor="#eeeeee"
     borderopacity="1"
     inkscape:showpageshadow="0"
     inkscape:pageopacity="0"
     inkscape:pagecheckerboard="0"
     inkscape:deskcolor="#505050"
     inkscape:zoom="0.89039059"
     inkscape:cx="298.18374"
     inkscape:cy="384.66264"
     inkscape:window-width="1920"
     inkscape:window-height="1017"
     inkscape:window-x="-8"
     inkscape:window-y="-8"
     inkscape:window-maximized="1"
     inkscape:current-layer="g1" /><g
     inkscape:groupmode="layer"
     inkscape:label="Image"
     id="g1"><path
       style="fill:#138eb3;fill-opacity:1;stroke-width:1.28697"
       d="M 315.19408,726.54471 C 275.09911,724.4289 226.80564,713.38554 191.37876,698.23159 145.96179,678.80433 114.14932,658.24586 74.763555,622.87019 54.743606,604.88859 26.328644,570.22317 10.939117,545.00625 c -30.14905,-49.40152 -47.084639,-97.52587 -55.632465,-158.08574 -3.954092,-28.01405 -3.964735,-69.76511 -0.02473,-97.01154 9.048,-62.56991 25.510551,-108.97097 57.033942,-160.7549 C 26.839246,105.2963 57.604369,68.467723 77.927795,50.610724 111.03465,21.521701 132.47594,6.5454416 162.38566,-8.3811554 207.08693,-30.689566 239.27657,-40.68181 289.44189,-47.821687 c 28.5612,-4.06503 68.19685,-3.847542 97.21451,0.533432 49.71625,7.505967 82.56041,17.872003 124.58572,39.3208296 30.53709,15.58548 55.57816,33.2809814 86.8736,61.3900244 20.01995,17.981604 48.43491,52.647031 63.82443,77.863951 23.48696,38.48519 40.30682,79.96554 49.19418,121.32049 7.0735,32.9146 9.25532,53.60081 9.15765,86.82569 -0.0792,26.94353 -0.50575,32.88496 -3.92479,54.66909 -4.45138,28.36158 -9.03878,49.44832 -12.83948,59.01872 -0.80955,2.03855 -2.06396,6.34556 -2.78754,9.5711 -3.2034,14.28004 -23.63941,57.29341 -39.93403,84.05249 -14.77004,24.25538 -45.38462,60.95213 -65.85466,78.93795 -40.55124,35.62994 -67.2432,52.67029 -114.29959,72.96963 -46.96365,20.25933 -109.69931,30.83535 -165.45781,27.893 z"
       id="path1" /><path
       d="m 305.16183,87.937534 a 48,48 0 1 1 96,0 48,48 0 1 1 -96,0 z m 51.3,182.699996 -19.1,76.3 49.7,49.7 c 9,9 14.1,21.2 14.1,33.9 v 89.4 c 0,17.7 -14.3,32 -32,32 -17.7,0 -32,-14.3 -32,-32 v -82.7 l -73.9,-73.9 c -15.8,-15.8 -22.2,-38.6 -16.9,-60.3 l 20.4,-84 c 8.3,-34.1 42.7,-54.9 76.7,-46.4 19,4.8 35.6,16.4 46.4,32.7 l 28.4,42.6 h 30.9 v -24 c 0,-13.3 10.7,-24 24,-24 13.3,0 24,10.7 24,24 v 55.8 c 0,0.1 0,0.2 0,0.2 0,0 0,0.2 0,0.2 v 247.8 c 0,13.3 -10.7,24 -24,24 -13.3,0 -24,-10.7 -24,-24 v -216 h -39.4 c -16,0 -31,-8 -39.9,-21.4 l -13.3,-20 z m -162.2,241.2 36.2,-137.9 c 3,4.2 6.4,8.2 10.1,11.9 l 41.9,41.9 -26.4,100.3 c -4.5,17.1 -22,27.3 -39.1,22.8 -17.1,-4.5 -27.3,-22 -22.8,-39.1 z m 55.5,-346 -35.2,140.6 c -3,12.1 -14.9,19.9 -27.2,17.9 l -47.9,-8 c -14,-2.3 -22.9,-16.3 -19.2,-30 l 24.8,-91.4 c 9.5,-34.8 41.1,-59 77.2,-59 h 4.2 c 15.6,0 27.1,14.7 23.3,29.8 z"
       id="path1-6"
       style="fill:#ffffff;fill-opacity:1" /></g></svg>
