<?xml version="1.0" encoding="UTF-8" standalone="no"?>
<!-- Created with Inkscape (http://www.inkscape.org/) -->

<svg
   version="1.1"
   id="svg1"
   width="664"
   height="652"
   viewBox="0 0 664 652"
   sodipodi:docname="kreis_blau.svg"
   inkscape:version="1.3 (0e150ed6c4, 2023-07-21)"
   xmlns:inkscape="http://www.inkscape.org/namespaces/inkscape"
   xmlns:sodipodi="http://sodipodi.sourceforge.net/DTD/sodipodi-0.dtd"
   xmlns="http://www.w3.org/2000/svg"
   xmlns:svg="http://www.w3.org/2000/svg">
  <defs
     id="defs1" />
  <sodipodi:namedview
     id="namedview1"
     pagecolor="#505050"
     bordercolor="#eeeeee"
     borderopacity="1"
     inkscape:showpageshadow="0"
     inkscape:pageopacity="0"
     inkscape:pagecheckerboard="0"
     inkscape:deskcolor="#505050"
     inkscape:zoom="1.2592025"
     inkscape:cx="332.35323"
     inkscape:cy="326"
     inkscape:window-width="1920"
     inkscape:window-height="1017"
     inkscape:window-x="-8"
     inkscape:window-y="-8"
     inkscape:window-maximized="1"
     inkscape:current-layer="g1" />
  <g
     inkscape:groupmode="layer"
     inkscape:label="Image"
     id="g1">
    <path
       style="fill:#138eb3;fill-opacity:1"
       d="m 321.5,632.94265 c -31.13908,-1.64484 -68.64538,-10.23 -96.15906,-22.01075 C 190.06862,595.82906 165.362,579.8468 134.77371,552.3456 119.22556,538.36662 97.157561,511.41756 85.205548,491.81381 61.790799,453.40883 48.638062,415.99675 41.999538,368.91722 38.928659,347.13896 38.920394,314.68151 41.980332,293.5 49.007308,244.85786 61.792668,208.78546 86.274776,168.5284 97.554114,149.98126 121.44732,121.35054 137.23117,107.46843 162.94304,84.854492 179.59506,73.211879 202.82393,61.607873 237.54042,44.265211 262.53996,36.497195 301.5,30.946621 c 22.18157,-3.160173 52.96392,-2.991097 75.5,0.414693 38.61128,5.835174 64.11914,13.893777 96.75739,30.568195 23.71611,12.116224 43.16383,25.872789 67.4689,47.724891 15.54815,13.97898 37.61615,40.92804 49.56816,60.53179 18.24075,29.91857 31.30361,62.16559 38.20583,94.31511 5.49351,25.58797 7.18798,41.66953 7.11213,67.4987 -0.0615,20.94602 -0.39278,25.56492 -3.04812,42.5 -3.45709,22.04843 -7.01982,38.44136 -9.97156,45.88143 -0.62874,1.58478 -1.60295,4.93307 -2.1649,7.44062 -2.48787,11.10137 -18.35915,44.54016 -31.01409,65.34279 -11.47089,18.85624 -35.24719,47.38447 -51.14491,61.36673 C 507.27541,582.23046 486.54554,595.4777 450,611.2585 c -36.47352,15.74969 -85.19611,23.97155 -128.5,21.68415 z"
       id="path1" />
  </g>
</svg>
