<?xml version="1.0" encoding="UTF-8" standalone="no"?>
<!-- Created with Inkscape (http://www.inkscape.org/) -->

<svg
   version="1.1"
   id="svg1"
   width="664"
   height="652"
   viewBox="0 0 664 652"
   sodipodi:docname="weightlifting_kreis_blau.svg"
   inkscape:version="1.3 (0e150ed6c4, 2023-07-21)"
   xml:space="preserve"
   inkscape:export-filename="PNG\weightlifting_kreis_blau.png"
   inkscape:export-xdpi="96"
   inkscape:export-ydpi="96"
   xmlns:inkscape="http://www.inkscape.org/namespaces/inkscape"
   xmlns:sodipodi="http://sodipodi.sourceforge.net/DTD/sodipodi-0.dtd"
   xmlns="http://www.w3.org/2000/svg"
   xmlns:svg="http://www.w3.org/2000/svg"><defs
     id="defs1" /><sodipodi:namedview
     id="namedview1"
     pagecolor="#505050"
     bordercolor="#eeeeee"
     borderopacity="1"
     inkscape:showpageshadow="0"
     inkscape:pageopacity="0"
     inkscape:pagecheckerboard="0"
     inkscape:deskcolor="#505050"
     inkscape:zoom="0.89039059"
     inkscape:cx="298.18374"
     inkscape:cy="384.66264"
     inkscape:window-width="1920"
     inkscape:window-height="1017"
     inkscape:window-x="-8"
     inkscape:window-y="-8"
     inkscape:window-maximized="1"
     inkscape:current-layer="g1" /><g
     inkscape:groupmode="layer"
     inkscape:label="Image"
     id="g1"><path
       style="fill:#138eb3;fill-opacity:1;stroke-width:1.08985"
       d="M 311.89968,648.47195 C 277.43568,646.70675 235.92459,637.49338 205.4731,624.85057 166.43453,608.6426 139.08984,591.49084 105.23545,561.97725 88.027119,546.97536 63.602781,518.05431 50.374571,497.01607 24.459684,455.80084 9.9025433,415.65112 2.5551822,365.12658 -0.84359341,341.75471 -0.8527417,306.92218 2.5339253,284.19072 10.311215,231.98921 24.46175,193.27723 51.557966,150.07438 64.041671,130.17006 90.486112,99.444308 107.9553,84.546377 136.41259,60.277669 154.84265,47.783112 180.55185,35.329988 218.9752,16.718283 246.64411,8.3818454 289.76416,2.4251112 c 24.55005,-3.39141756 58.61921,-3.2099694 83.56161,0.4450374 42.73405,6.2621599 70.96553,14.9104494 107.08878,32.8050104 26.24844,13.002824 47.77272,27.76602 74.67301,51.217143 17.20833,15.001888 41.63266,43.922938 54.86085,64.961178 20.18843,32.10785 34.64608,66.71452 42.28531,101.21658 6.08007,27.46037 7.95551,44.71869 7.87152,72.43789 -0.068,22.47875 -0.43469,27.43563 -3.37358,45.60993 -3.82621,23.66181 -7.76934,41.25428 -11.0363,49.23878 -0.69583,1.70074 -1.77406,5.29404 -2.39604,7.98508 -2.7535,11.91372 -20.31947,47.79937 -34.32565,70.1242 -12.69573,20.23607 -39.01075,50.85184 -56.60596,65.85724 -34.85621,29.72575 -57.79952,43.94235 -98.24728,60.87789 -40.36801,16.90218 -94.29302,25.72567 -142.22075,23.27088 z"
       id="path1" /><path
       d="m 135.629,163.70524 c 0,-14.76696 12.2917,-26.69732 27.50589,-26.69732 h 27.50588 c 15.2142,0 27.5059,11.93036 27.5059,26.69732 v 133.48654 53.39461 133.48656 c 0,14.76694 -12.2917,26.6973 -27.5059,26.6973 h -27.50588 c -15.21419,0 -27.50589,-11.93036 -27.50589,-26.6973 v -53.39463 h -27.50589 c -15.214192,0 -27.505888,-11.93035 -27.505888,-26.69731 v -53.39462 c -15.214198,0 -27.505891,-11.93035 -27.505891,-26.69729 0,-14.76696 12.291693,-26.69732 27.505891,-26.69732 v -53.39461 c 0,-14.76695 12.291696,-26.69732 27.505888,-26.69732 H 135.629 Z m 385.08246,0 v 53.39461 h 27.5059 c 15.21417,0 27.50588,11.93037 27.50588,26.69732 v 53.39461 c 15.2142,0 27.50587,11.93036 27.50587,26.69732 0,14.76694 -12.29167,26.69729 -27.50587,26.69729 v 53.39462 c 0,14.76696 -12.29171,26.69731 -27.50588,26.69731 h -27.5059 v 53.39463 c 0,14.76694 -12.2917,26.6973 -27.50588,26.6973 h -27.50591 c -15.21418,0 -27.50586,-11.93036 -27.50586,-26.6973 V 350.58639 297.19178 163.70524 c 0,-14.76696 12.29168,-26.69732 27.50586,-26.69732 h 27.50591 c 15.21418,0 27.50588,11.93036 27.50588,26.69732 z M 410.68789,297.19178 v 53.39461 H 245.65256 v -53.39461 z"
       id="path1-4"
       style="fill:#ffffff;fill-opacity:1;stroke-width:0.846832" /></g></svg>
