<?xml version="1.0" encoding="UTF-8" standalone="no"?>
<!-- Created with Inkscape (http://www.inkscape.org/) -->

<svg
   version="1.1"
   id="svg1"
   width="664"
   height="652"
   viewBox="0 0 664 652"
   sodipodi:docname="cycling_kreis_grün.svg"
   inkscape:version="1.3 (0e150ed6c4, 2023-07-21)"
   xml:space="preserve"
   inkscape:export-filename="PNG\cycling_kreis_blau.png"
   inkscape:export-xdpi="96"
   inkscape:export-ydpi="96"
   xmlns:inkscape="http://www.inkscape.org/namespaces/inkscape"
   xmlns:sodipodi="http://sodipodi.sourceforge.net/DTD/sodipodi-0.dtd"
   xmlns="http://www.w3.org/2000/svg"
   xmlns:svg="http://www.w3.org/2000/svg"><defs
     id="defs1" /><sodipodi:namedview
     id="namedview1"
     pagecolor="#505050"
     bordercolor="#eeeeee"
     borderopacity="1"
     inkscape:showpageshadow="0"
     inkscape:pageopacity="0"
     inkscape:pagecheckerboard="0"
     inkscape:deskcolor="#505050"
     inkscape:zoom="0.89039059"
     inkscape:cx="289.76047"
     inkscape:cy="385.78575"
     inkscape:window-width="1920"
     inkscape:window-height="1017"
     inkscape:window-x="-8"
     inkscape:window-y="-8"
     inkscape:window-maximized="1"
     inkscape:current-layer="g1" /><g
     inkscape:groupmode="layer"
     inkscape:label="Image"
     id="g1"><path
       style="fill:#13ff5f;fill-opacity:1;stroke-width:1.07519"
       d="M 314.87442,642.86258 C 280.81603,641.12405 239.79344,632.04998 209.70032,619.59833 171.12117,603.63541 144.09828,586.743 110.64229,557.67564 93.636482,542.90057 69.499583,514.41679 56.427051,493.69665 30.81714,453.10456 16.431315,413.56191 9.1704201,363.80129 5.8116415,340.7828 5.802602,306.47693 9.1494144,284.08918 16.83518,232.67693 30.819185,194.55028 57.596523,152.00063 69.933311,132.39725 96.066545,102.13607 113.33015,87.463387 141.45254,63.561617 159.6657,51.255975 185.07231,38.991138 223.04352,20.660837 250.38679,12.450445 292.99939,6.5837744 c 24.26113,-3.34014 57.92936,-3.1614348 82.57823,0.4383091 42.23114,6.1674775 70.13039,14.6850085 105.82852,32.3090075 25.93953,12.806224 47.2105,27.346204 73.79421,50.442748 17.00582,14.775071 41.14272,43.258831 54.21524,63.979001 19.95084,31.62238 34.23837,65.70581 41.78768,99.68622 6.00853,27.04514 7.86185,44.04252 7.77891,71.34263 -0.0673,22.13886 -0.42963,27.02081 -3.33389,44.92031 -3.78121,23.30404 -7.67795,40.63054 -10.90642,48.49431 -0.68767,1.67503 -1.75322,5.21399 -2.36787,7.86434 -2.7211,11.73358 -20.08032,47.07667 -33.92169,69.06397 -12.5463,19.93009 -38.55165,50.08296 -55.93979,64.86148 -34.44601,29.2763 -57.11931,43.27793 -97.09106,59.95744 -39.89295,16.64661 -93.18335,25.33669 -140.54704,22.91904 z"
       id="path1" /><path
       d="m 320.86061,127.41999 c -11.47102,0 -20.6996,8.92691 -20.6996,20.02298 0,11.09606 9.22858,20.02298 20.6996,20.02298 h 22.16585 l 29.84194,53.39462 H 244.0133 l -23.63206,-31.70306 c -3.88117,-5.25603 -10.17731,-8.34291 -16.81843,-8.34291 h -48.29912 c -11.47102,0 -20.6996,8.92691 -20.6996,20.02298 0,11.09607 9.22858,20.02299 20.6996,20.02299 h 37.69056 l 19.0609,25.61272 -22.94207,44.30085 c -8.62485,-2.08572 -17.68092,-3.17031 -26.9095,-3.17031 -60.97762,0 -110.397948,47.80488 -110.397948,106.78924 0,58.98437 49.420328,106.78924 110.397948,106.78924 56.3202,0 102.72184,-40.79682 109.53546,-93.4406 h 42.26171 c 7.33111,0 14.05848,-3.75429 17.85342,-9.84462 l 73.13864,-119.72075 18.71589,33.45508 c -24.83953,19.60582 -40.70924,49.39002 -40.70924,82.76165 0,58.98437 49.42034,106.78924 110.39796,106.78924 60.97761,0 110.39793,-47.80487 110.39793,-106.78924 0,-58.98436 -49.42032,-106.78924 -110.39793,-106.78924 -11.64355,0 -22.85583,1.75202 -33.37814,5.00576 L 375.5421,141.43606 c -4.8299,-8.67662 -14.14473,-14.01607 -24.32205,-14.01607 z m 126.44016,226.67683 27.85823,49.80717 c 5.43364,9.7612 18.02592,13.34865 28.03073,8.09262 10.00482,-5.25603 13.79974,-17.43668 8.36609,-27.11446 l -27.85823,-49.80716 c 3.10494,-0.50059 6.38239,-0.75086 9.65983,-0.75086 34.32685,0 62.09884,26.86417 62.09884,60.06894 0,33.20478 -27.77199,60.06895 -62.09884,60.06895 -34.32687,0 -62.09885,-26.86417 -62.09885,-60.06895 0,-15.51781 6.03739,-29.61733 16.0422,-40.29625 z M 166.6485,407.74171 h 56.06144 c -6.29612,26.78076 -31.04942,46.72031 -60.54636,46.72031 -34.32686,0 -62.09885,-26.86417 -62.09885,-60.06895 0,-33.20477 27.77199,-60.06894 62.09885,-60.06894 1.46623,0 2.93245,0.0833 4.39866,0.16685 l -20.8721,40.4631 c -7.76236,15.10068 3.53619,32.87108 20.95836,32.87108 z m 29.0657,-40.04594 43.72794,-84.51367 62.87507,84.43023 -0.0863,0.0835 H 195.62795 Z m 78.14105,-106.78924 h 93.49327 L 325.17304,329.98581 273.769,260.90653 Z"
       id="path1-9"
       style="fill:#ffffff;fill-opacity:1;stroke-width:0.84827" /></g></svg>
