<?xml version="1.0" encoding="UTF-8" standalone="no"?>
<!-- Created with Inkscape (http://www.inkscape.org/) -->

<svg
   version="1.1"
   id="svg1"
   width="664"
   height="652"
   viewBox="0 0 664 652"
   sodipodi:docname="kreis_grün.svg"
   inkscape:version="1.3 (0e150ed6c4, 2023-07-21)"
   xmlns:inkscape="http://www.inkscape.org/namespaces/inkscape"
   xmlns:sodipodi="http://sodipodi.sourceforge.net/DTD/sodipodi-0.dtd"
   xmlns="http://www.w3.org/2000/svg"
   xmlns:svg="http://www.w3.org/2000/svg">
  <defs
     id="defs1" />
  <sodipodi:namedview
     id="namedview1"
     pagecolor="#505050"
     bordercolor="#eeeeee"
     borderopacity="1"
     inkscape:showpageshadow="0"
     inkscape:pageopacity="0"
     inkscape:pagecheckerboard="0"
     inkscape:deskcolor="#505050"
     inkscape:zoom="0.89039063"
     inkscape:cx="519.99649"
     inkscape:cy="403.75537"
     inkscape:window-width="1920"
     inkscape:window-height="1017"
     inkscape:window-x="-8"
     inkscape:window-y="-8"
     inkscape:window-maximized="1"
     inkscape:current-layer="g1" />
  <g
     inkscape:groupmode="layer"
     inkscape:label="Image"
     id="g1">
    <path
       style="fill:#13ff5f;fill-opacity:1;stroke-width:1.06279"
       d="M 314.45106,647.21371 C 281.35666,645.4656 241.49526,636.34134 212.25392,623.82086 174.76677,607.76968 148.50877,590.78384 115.99977,561.55579 99.475323,546.69903 76.021621,518.05779 63.319114,497.22307 38.434099,456.40655 24.45547,416.64527 17.400097,366.6095 14.13639,343.46375 14.127607,308.96821 17.379684,286.45666 24.847901,234.76018 38.436086,196.42271 64.455482,153.6378 76.443076,133.92604 101.83659,103.49755 118.61154,88.743731 145.93792,64.709815 163.63556,52.336136 188.32303,40.003487 225.21945,21.571839 251.78876,13.316051 293.19519,7.4169431 c 23.57441,-3.3586086 56.28966,-3.1789158 80.24084,0.4407325 41.03575,6.2015784 68.14531,14.7661994 102.833,32.4876434 25.2053,12.877031 45.87419,27.497402 71.70544,50.721645 16.52444,14.856766 39.97815,43.498016 52.68065,64.332726 19.38613,31.79723 33.26925,66.06912 40.60486,100.23738 5.83847,27.19469 7.63935,44.28605 7.55873,71.7371 -0.0654,22.26127 -0.41744,27.1702 -3.23952,45.16867 -3.67417,23.43291 -7.46061,40.85519 -10.59769,48.76244 -0.66824,1.68429 -1.70361,5.24282 -2.30085,7.90783 -2.64408,11.79846 -19.51195,47.33695 -32.96153,69.44582 -12.19118,20.04026 -37.46045,50.35985 -54.35643,65.22009 -33.47096,29.43817 -55.50252,43.51724 -94.34283,60.28895 -38.76378,16.73865 -90.54578,25.47678 -136.5688,23.04574 z"
       id="path1" />
  </g>
</svg>
