<?xml version="1.0" encoding="UTF-8" standalone="no"?>
<!-- Created with Inkscape (http://www.inkscape.org/) -->

<svg
   version="1.1"
   id="svg1"
   width="664"
   height="652"
   viewBox="0 0 664 652"
   sodipodi:docname="running_kreis_grün.svg"
   inkscape:version="1.3 (0e150ed6c4, 2023-07-21)"
   xml:space="preserve"
   xmlns:inkscape="http://www.inkscape.org/namespaces/inkscape"
   xmlns:sodipodi="http://sodipodi.sourceforge.net/DTD/sodipodi-0.dtd"
   xmlns="http://www.w3.org/2000/svg"
   xmlns:svg="http://www.w3.org/2000/svg"><defs
     id="defs1" /><sodipodi:namedview
     id="namedview1"
     pagecolor="#505050"
     bordercolor="#eeeeee"
     borderopacity="1"
     inkscape:showpageshadow="0"
     inkscape:pageopacity="0"
     inkscape:pagecheckerboard="0"
     inkscape:deskcolor="#505050"
     inkscape:zoom="0.89039059"
     inkscape:cx="294.25289"
     inkscape:cy="380.17024"
     inkscape:window-width="1920"
     inkscape:window-height="1017"
     inkscape:window-x="-8"
     inkscape:window-y="-8"
     inkscape:window-maximized="1"
     inkscape:current-layer="g1" /><g
     inkscape:groupmode="layer"
     inkscape:label="Image"
     id="g1"><path
       style="fill:#13ff5f;fill-opacity:1;stroke-width:1.07935"
       d="M 314.38287,646.88923 C 280.21021,645.14311 239.05003,636.02932 208.85596,623.52318 170.1474,607.49039 143.03385,590.52404 109.46565,561.32945 92.402792,546.48972 68.184926,517.88128 55.068542,497.07045 29.372723,456.3007 14.938642,416.58497 7.6533908,366.60655 4.2833465,343.48731 4.2742756,309.03129 7.6323135,286.54555 15.343859,234.90828 29.374773,196.61474 56.241933,153.87887 68.620107,134.18969 94.841001,103.79606 112.16251,89.05916 140.37925,65.052774 158.6535,52.693272 184.14535,40.374754 222.24391,21.964225 249.67892,13.717896 292.43445,7.8255485 316.77696,4.470789 350.55814,4.650276 375.28968,8.2657755 417.66249,14.460247 445.65533,23.015058 481.4732,40.716194 c 26.02654,12.862276 47.36887,27.465897 74.04175,50.663528 17.06286,14.839728 41.28073,43.448178 54.3971,64.259018 20.01777,31.76079 34.35322,65.9934 41.92785,100.12253 6.02869,27.16353 7.88824,44.2353 7.80499,71.6549 -0.0675,22.23576 -0.43104,27.13906 -3.34507,45.11692 -3.79387,23.40604 -7.70368,40.80836 -10.94299,48.70656 -0.68997,1.68235 -1.7591,5.23681 -2.3758,7.89876 -2.73024,11.78494 -20.1477,47.28271 -34.03549,69.36626 -12.5884,20.01731 -38.68098,50.30214 -56.12745,65.14536 -34.56153,29.40443 -57.3109,43.46736 -97.41672,60.21986 -40.02678,16.71948 -93.49593,25.44758 -141.0185,23.01934 z"
       id="path1" /><path
       d="m 413.52891,130.03716 a 40.91006,39.613108 0 1 0 -81.82012,0 40.91006,39.613108 0 1 0 81.82012,0 z m -165.6005,105.22232 c 8.4377,-8.17021 19.94365,-12.79174 31.96098,-12.79174 1.61935,0 3.23872,0.0825 4.77284,0.24758 L 258.0707,300.0434 c -7.92633,23.10764 1.44889,48.52606 22.84144,61.48284 l 73.46764,44.48222 -21.64823,73.28424 c -4.17624,14.02964 4.26146,28.63698 18.75044,32.68081 14.48897,4.04383 29.57456,-4.12636 33.75079,-18.156 l 24.4608,-82.85742 c 5.02854,-17.00062 -2.21595,-35.15662 -17.64246,-44.48221 l -48.41023,-29.29719 26.33585,-68.0025 4.3467,10.15086 c 12.78438,29.54478 42.52941,48.77364 75.59837,48.77364 h 18.15384 c 15.08558,0 27.27337,-11.80141 27.27337,-26.40874 0,-14.60733 -12.18779,-26.40873 -27.27337,-26.40873 h -18.15384 c -10.99458,0 -20.96641,-6.43713 -25.14265,-16.25789 l -5.36943,-12.37909 c -12.44348,-28.96709 -37.58612,-51.0844 -68.60958,-60.32746 l -41.50666,-12.37909 c -9.46045,-2.80593 -19.34704,-4.29143 -29.31887,-4.29143 -26.42108,0 -51.81941,10.15087 -70.48462,28.30687 l -19.7732,19.06381 c -10.65365,10.31591 -10.65365,27.06895 0,37.38487 10.65367,10.31591 27.95522,10.31591 38.60888,0 L 248.01364,235.342 Z m -29.4041,145.66068 h -50.45574 c -15.08559,0 -27.27337,11.8014 -27.27337,26.40874 0,14.60733 12.18778,26.40873 27.27337,26.40873 h 59.31958 c 16.19356,0 30.853,-9.24306 37.41566,-23.52028 l 9.80137,-21.37457 -8.09679,-4.95164 c -14.91512,-8.99547 -25.99493,-22.11731 -32.30189,-37.05476 z"
       id="path1-9"
       style="fill:#ffffff;fill-opacity:1;stroke-width:0.838674" /></g></svg>
